solid OpenSCAD_Model
  facet normal -1 0 0
    outer loop
      vertex 0 -30 0
      vertex 0 0 6.66667
      vertex 0 0 0
    endloop
  endfacet
  facet normal -1 -0 0
    outer loop
      vertex 0 0 6.66667
      vertex 0 -30 0
      vertex 0 -30 6.66667
    endloop
  endfacet
  facet normal 0 0 1
    outer loop
      vertex 19.0433 -8.8097 6.66667
      vertex 9.95671 -8.8097 6.66667
      vertex 19.0433 -21.1903 6.66667
    endloop
  endfacet
  facet normal 0 0 1
    outer loop
      vertex 18.2322 -21.7322 6.66667
      vertex 11.3097 -22.5433 6.66667
      vertex 11.5 -23.5 6.66667
    endloop
  endfacet
  facet normal 0 0 1
    outer loop
      vertex 9.95671 -21.1903 6.66667
      vertex 19.0433 -21.1903 6.66667
      vertex 9.95671 -8.8097 6.66667
    endloop
  endfacet
  facet normal 0 0 1
    outer loop
      vertex 18.2322 -21.7322 6.66667
      vertex 10.7678 -21.7322 6.66667
      vertex 11.3097 -22.5433 6.66667
    endloop
  endfacet
  facet normal 0 0 1
    outer loop
      vertex 19.0433 -21.1903 6.66667
      vertex 9.95671 -21.1903 6.66667
      vertex 18.2322 -21.7322 6.66667
    endloop
  endfacet
  facet normal 0 0 1
    outer loop
      vertex 18.2322 -21.7322 6.66667
      vertex 9.95671 -21.1903 6.66667
      vertex 10.7678 -21.7322 6.66667
    endloop
  endfacet
  facet normal -0 0 1
    outer loop
      vertex 9 -9 6.66667
      vertex 9.95671 -21.1903 6.66667
      vertex 9.95671 -8.8097 6.66667
    endloop
  endfacet
  facet normal 0 0 1
    outer loop
      vertex 9 -9 6.66667
      vertex 9 -21 6.66667
      vertex 9.95671 -21.1903 6.66667
    endloop
  endfacet
  facet normal 0 0 1
    outer loop
      vertex 8.04329 -8.8097 6.66667
      vertex 9 -21 6.66667
      vertex 9 -9 6.66667
    endloop
  endfacet
  facet normal 0 0 1
    outer loop
      vertex 8.04329 -8.8097 6.66667
      vertex 8.04329 -21.1903 6.66667
      vertex 9 -21 6.66667
    endloop
  endfacet
  facet normal 0 0 1
    outer loop
      vertex 7.23223 -8.26777 6.66667
      vertex 8.04329 -21.1903 6.66667
      vertex 8.04329 -8.8097 6.66667
    endloop
  endfacet
  facet normal 0 0 1
    outer loop
      vertex 7.23223 -8.26777 6.66667
      vertex 7.23223 -21.7322 6.66667
      vertex 8.04329 -21.1903 6.66667
    endloop
  endfacet
  facet normal 0 0 1
    outer loop
      vertex 6.6903 -7.45671 6.66667
      vertex 7.23223 -21.7322 6.66667
      vertex 7.23223 -8.26777 6.66667
    endloop
  endfacet
  facet normal 0 0 1
    outer loop
      vertex 6.6903 -7.45671 6.66667
      vertex 6.6903 -22.5433 6.66667
      vertex 7.23223 -21.7322 6.66667
    endloop
  endfacet
  facet normal 0 0 1
    outer loop
      vertex 0 0 6.66667
      vertex 6.6903 -7.45671 6.66667
      vertex 6.5 -6.5 6.66667
    endloop
  endfacet
  facet normal 0 0 1
    outer loop
      vertex 6.6903 -7.45671 6.66667
      vertex 0 0 6.66667
      vertex 6.6903 -22.5433 6.66667
    endloop
  endfacet
  facet normal 0 0 1
    outer loop
      vertex 30.0433 -8.8097 6.66667
      vertex 20.9567 -8.8097 6.66667
      vertex 30.0433 -21.1903 6.66667
    endloop
  endfacet
  facet normal 0 0 1
    outer loop
      vertex 29.2322 -21.7322 6.66667
      vertex 22.3097 -22.5433 6.66667
      vertex 22.5 -23.5 6.66667
    endloop
  endfacet
  facet normal 0 0 1
    outer loop
      vertex 20.9567 -21.1903 6.66667
      vertex 30.0433 -21.1903 6.66667
      vertex 20.9567 -8.8097 6.66667
    endloop
  endfacet
  facet normal 0 0 1
    outer loop
      vertex 29.2322 -21.7322 6.66667
      vertex 21.7678 -21.7322 6.66667
      vertex 22.3097 -22.5433 6.66667
    endloop
  endfacet
  facet normal 0 0 1
    outer loop
      vertex 30.0433 -21.1903 6.66667
      vertex 20.9567 -21.1903 6.66667
      vertex 29.2322 -21.7322 6.66667
    endloop
  endfacet
  facet normal 0 0 1
    outer loop
      vertex 29.2322 -21.7322 6.66667
      vertex 20.9567 -21.1903 6.66667
      vertex 21.7678 -21.7322 6.66667
    endloop
  endfacet
  facet normal -0 0 1
    outer loop
      vertex 20 -9 6.66667
      vertex 20.9567 -21.1903 6.66667
      vertex 20.9567 -8.8097 6.66667
    endloop
  endfacet
  facet normal 0 0 1
    outer loop
      vertex 20 -9 6.66667
      vertex 20 -21 6.66667
      vertex 20.9567 -21.1903 6.66667
    endloop
  endfacet
  facet normal 0 0 1
    outer loop
      vertex 19.0433 -8.8097 6.66667
      vertex 20 -21 6.66667
      vertex 20 -9 6.66667
    endloop
  endfacet
  facet normal 0 0 1
    outer loop
      vertex 19.0433 -8.8097 6.66667
      vertex 19.0433 -21.1903 6.66667
      vertex 20 -21 6.66667
    endloop
  endfacet
  facet normal -0 0 1
    outer loop
      vertex 10.7678 -8.26777 6.66667
      vertex 19.0433 -8.8097 6.66667
      vertex 18.2322 -8.26777 6.66667
    endloop
  endfacet
  facet normal 0 0 1
    outer loop
      vertex 9.95671 -8.8097 6.66667
      vertex 19.0433 -8.8097 6.66667
      vertex 10.7678 -8.26777 6.66667
    endloop
  endfacet
  facet normal 0 0 1
    outer loop
      vertex 11.3097 -7.45671 6.66667
      vertex 17.6903 -7.45671 6.66667
      vertex 11.5 -6.5 6.66667
    endloop
  endfacet
  facet normal 0 0 1
    outer loop
      vertex 17.6903 -7.45671 6.66667
      vertex 11.3097 -7.45671 6.66667
      vertex 18.2322 -8.26777 6.66667
    endloop
  endfacet
  facet normal -0 0 1
    outer loop
      vertex 11.5 -6.5 6.66667
      vertex 17.6903 -7.45671 6.66667
      vertex 17.5 -6.5 6.66667
    endloop
  endfacet
  facet normal 0 0 1
    outer loop
      vertex 10.7678 -8.26777 6.66667
      vertex 18.2322 -8.26777 6.66667
      vertex 11.3097 -7.45671 6.66667
    endloop
  endfacet
  facet normal -0 0 1
    outer loop
      vertex 33.3097 -22.5433 6.66667
      vertex 40 -30 6.66667
      vertex 33.3097 -7.45671 6.66667
    endloop
  endfacet
  facet normal 0 0 1
    outer loop
      vertex 40 -30 6.66667
      vertex 33.3097 -22.5433 6.66667
      vertex 33.5 -23.5 6.66667
    endloop
  endfacet
  facet normal -0 0 1
    outer loop
      vertex 32.7678 -8.26777 6.66667
      vertex 33.3097 -22.5433 6.66667
      vertex 33.3097 -7.45671 6.66667
    endloop
  endfacet
  facet normal 0 0 1
    outer loop
      vertex 32.7678 -8.26777 6.66667
      vertex 32.7678 -21.7322 6.66667
      vertex 33.3097 -22.5433 6.66667
    endloop
  endfacet
  facet normal -0 0 1
    outer loop
      vertex 31.9567 -8.8097 6.66667
      vertex 32.7678 -21.7322 6.66667
      vertex 32.7678 -8.26777 6.66667
    endloop
  endfacet
  facet normal 0 0 1
    outer loop
      vertex 31.9567 -8.8097 6.66667
      vertex 31.9567 -21.1903 6.66667
      vertex 32.7678 -21.7322 6.66667
    endloop
  endfacet
  facet normal -0 0 1
    outer loop
      vertex 31 -9 6.66667
      vertex 31.9567 -21.1903 6.66667
      vertex 31.9567 -8.8097 6.66667
    endloop
  endfacet
  facet normal 0 0 1
    outer loop
      vertex 31 -9 6.66667
      vertex 31 -21 6.66667
      vertex 31.9567 -21.1903 6.66667
    endloop
  endfacet
  facet normal 0 0 1
    outer loop
      vertex 30.0433 -8.8097 6.66667
      vertex 31 -21 6.66667
      vertex 31 -9 6.66667
    endloop
  endfacet
  facet normal 0 0 1
    outer loop
      vertex 30.0433 -8.8097 6.66667
      vertex 30.0433 -21.1903 6.66667
      vertex 31 -21 6.66667
    endloop
  endfacet
  facet normal -0 0 1
    outer loop
      vertex 21.7678 -8.26777 6.66667
      vertex 30.0433 -8.8097 6.66667
      vertex 29.2322 -8.26777 6.66667
    endloop
  endfacet
  facet normal 0 0 1
    outer loop
      vertex 20.9567 -8.8097 6.66667
      vertex 30.0433 -8.8097 6.66667
      vertex 21.7678 -8.26777 6.66667
    endloop
  endfacet
  facet normal 0 0 1
    outer loop
      vertex 22.3097 -7.45671 6.66667
      vertex 28.6903 -7.45671 6.66667
      vertex 22.5 -6.5 6.66667
    endloop
  endfacet
  facet normal 0 0 1
    outer loop
      vertex 28.6903 -7.45671 6.66667
      vertex 22.3097 -7.45671 6.66667
      vertex 29.2322 -8.26777 6.66667
    endloop
  endfacet
  facet normal -0 0 1
    outer loop
      vertex 22.5 -6.5 6.66667
      vertex 28.6903 -7.45671 6.66667
      vertex 28.5 -6.5 6.66667
    endloop
  endfacet
  facet normal 0 0 1
    outer loop
      vertex 21.7678 -8.26777 6.66667
      vertex 29.2322 -8.26777 6.66667
      vertex 22.3097 -7.45671 6.66667
    endloop
  endfacet
  facet normal 0 0 1
    outer loop
      vertex 33.3097 -7.45671 6.66667
      vertex 40 0 6.66667
      vertex 33.5 -6.5 6.66667
    endloop
  endfacet
  facet normal 0 0 1
    outer loop
      vertex 40 0 6.66667
      vertex 33.3097 -5.54329 6.66667
      vertex 33.5 -6.5 6.66667
    endloop
  endfacet
  facet normal 0 0 1
    outer loop
      vertex 40 0 6.66667
      vertex 32.7678 -4.73223 6.66667
      vertex 33.3097 -5.54329 6.66667
    endloop
  endfacet
  facet normal 0 0 1
    outer loop
      vertex 40 0 6.66667
      vertex 31.9567 -4.1903 6.66667
      vertex 32.7678 -4.73223 6.66667
    endloop
  endfacet
  facet normal 0 0 1
    outer loop
      vertex 40 0 6.66667
      vertex 31 -4 6.66667
      vertex 31.9567 -4.1903 6.66667
    endloop
  endfacet
  facet normal 0 0 1
    outer loop
      vertex 40 0 6.66667
      vertex 30.0433 -4.1903 6.66667
      vertex 31 -4 6.66667
    endloop
  endfacet
  facet normal 0 0 1
    outer loop
      vertex 29.2322 -21.7322 6.66667
      vertex 22.5 -23.5 6.66667
      vertex 28.6903 -22.5433 6.66667
    endloop
  endfacet
  facet normal 0 0 1
    outer loop
      vertex 28.6903 -5.54329 6.66667
      vertex 22.5 -6.5 6.66667
      vertex 28.5 -6.5 6.66667
    endloop
  endfacet
  facet normal 0 0 1
    outer loop
      vertex 22.3097 -5.54329 6.66667
      vertex 28.6903 -5.54329 6.66667
      vertex 29.2322 -4.73223 6.66667
    endloop
  endfacet
  facet normal 0 0 1
    outer loop
      vertex 21.7678 -4.73223 6.66667
      vertex 29.2322 -4.73223 6.66667
      vertex 30.0433 -4.1903 6.66667
    endloop
  endfacet
  facet normal 0 0 1
    outer loop
      vertex 20.9567 -4.1903 6.66667
      vertex 30.0433 -4.1903 6.66667
      vertex 40 0 6.66667
    endloop
  endfacet
  facet normal 0 0 1
    outer loop
      vertex 28.6903 -5.54329 6.66667
      vertex 22.3097 -5.54329 6.66667
      vertex 22.5 -6.5 6.66667
    endloop
  endfacet
  facet normal 0 0 1
    outer loop
      vertex 29.2322 -4.73223 6.66667
      vertex 21.7678 -4.73223 6.66667
      vertex 22.3097 -5.54329 6.66667
    endloop
  endfacet
  facet normal 0 0 1
    outer loop
      vertex 30.0433 -4.1903 6.66667
      vertex 20.9567 -4.1903 6.66667
      vertex 21.7678 -4.73223 6.66667
    endloop
  endfacet
  facet normal 0 0 1
    outer loop
      vertex 40 0 6.66667
      vertex 20 -4 6.66667
      vertex 20.9567 -4.1903 6.66667
    endloop
  endfacet
  facet normal -0 0 1
    outer loop
      vertex 0 0 6.66667
      vertex 20 -4 6.66667
      vertex 40 0 6.66667
    endloop
  endfacet
  facet normal 0 0 1
    outer loop
      vertex 18.2322 -21.7322 6.66667
      vertex 11.5 -23.5 6.66667
      vertex 17.6903 -22.5433 6.66667
    endloop
  endfacet
  facet normal 0 0 1
    outer loop
      vertex 17.6903 -5.54329 6.66667
      vertex 11.5 -6.5 6.66667
      vertex 17.5 -6.5 6.66667
    endloop
  endfacet
  facet normal 0 0 1
    outer loop
      vertex 11.3097 -5.54329 6.66667
      vertex 17.6903 -5.54329 6.66667
      vertex 18.2322 -4.73223 6.66667
    endloop
  endfacet
  facet normal 0 0 1
    outer loop
      vertex 10.7678 -4.73223 6.66667
      vertex 18.2322 -4.73223 6.66667
      vertex 19.0433 -4.1903 6.66667
    endloop
  endfacet
  facet normal 0 0 1
    outer loop
      vertex 17.6903 -5.54329 6.66667
      vertex 11.3097 -5.54329 6.66667
      vertex 11.5 -6.5 6.66667
    endloop
  endfacet
  facet normal 0 0 1
    outer loop
      vertex 20 -4 6.66667
      vertex 0 0 6.66667
      vertex 19.0433 -4.1903 6.66667
    endloop
  endfacet
  facet normal 0 0 1
    outer loop
      vertex 18.2322 -4.73223 6.66667
      vertex 10.7678 -4.73223 6.66667
      vertex 11.3097 -5.54329 6.66667
    endloop
  endfacet
  facet normal 0 0 1
    outer loop
      vertex 19.0433 -4.1903 6.66667
      vertex 9.95671 -4.1903 6.66667
      vertex 10.7678 -4.73223 6.66667
    endloop
  endfacet
  facet normal 0 0 1
    outer loop
      vertex 19.0433 -4.1903 6.66667
      vertex 0 0 6.66667
      vertex 9.95671 -4.1903 6.66667
    endloop
  endfacet
  facet normal 0 0 1
    outer loop
      vertex 0 -30 6.66667
      vertex 6.6903 -22.5433 6.66667
      vertex 0 0 6.66667
    endloop
  endfacet
  facet normal 0 0 1
    outer loop
      vertex 6.6903 -5.54329 6.66667
      vertex 0 0 6.66667
      vertex 6.5 -6.5 6.66667
    endloop
  endfacet
  facet normal 0 0 1
    outer loop
      vertex 7.23223 -4.73223 6.66667
      vertex 0 0 6.66667
      vertex 6.6903 -5.54329 6.66667
    endloop
  endfacet
  facet normal 0 0 1
    outer loop
      vertex 8.04329 -4.1903 6.66667
      vertex 0 0 6.66667
      vertex 7.23223 -4.73223 6.66667
    endloop
  endfacet
  facet normal 0 0 1
    outer loop
      vertex 9 -4 6.66667
      vertex 0 0 6.66667
      vertex 8.04329 -4.1903 6.66667
    endloop
  endfacet
  facet normal 0 0 1
    outer loop
      vertex 9.95671 -4.1903 6.66667
      vertex 0 0 6.66667
      vertex 9 -4 6.66667
    endloop
  endfacet
  facet normal 0 0 1
    outer loop
      vertex 40 0 6.66667
      vertex 33.3097 -7.45671 6.66667
      vertex 40 -30 6.66667
    endloop
  endfacet
  facet normal -0 0 1
    outer loop
      vertex 33.3097 -24.4567 6.66667
      vertex 40 -30 6.66667
      vertex 33.5 -23.5 6.66667
    endloop
  endfacet
  facet normal -0 0 1
    outer loop
      vertex 32.7678 -25.2678 6.66667
      vertex 40 -30 6.66667
      vertex 33.3097 -24.4567 6.66667
    endloop
  endfacet
  facet normal -0 0 1
    outer loop
      vertex 31.9567 -25.8097 6.66667
      vertex 40 -30 6.66667
      vertex 32.7678 -25.2678 6.66667
    endloop
  endfacet
  facet normal -0 0 1
    outer loop
      vertex 31 -26 6.66667
      vertex 40 -30 6.66667
      vertex 31.9567 -25.8097 6.66667
    endloop
  endfacet
  facet normal 0 0 1
    outer loop
      vertex 30.0433 -25.8097 6.66667
      vertex 40 -30 6.66667
      vertex 31 -26 6.66667
    endloop
  endfacet
  facet normal 0 0 1
    outer loop
      vertex 28.6903 -22.5433 6.66667
      vertex 22.5 -23.5 6.66667
      vertex 28.5 -23.5 6.66667
    endloop
  endfacet
  facet normal 0 0 1
    outer loop
      vertex 28.5 -23.5 6.66667
      vertex 22.5 -23.5 6.66667
      vertex 28.6903 -24.4567 6.66667
    endloop
  endfacet
  facet normal 0 0 1
    outer loop
      vertex 22.3097 -24.4567 6.66667
      vertex 28.6903 -24.4567 6.66667
      vertex 22.5 -23.5 6.66667
    endloop
  endfacet
  facet normal 0 0 1
    outer loop
      vertex 28.6903 -24.4567 6.66667
      vertex 22.3097 -24.4567 6.66667
      vertex 29.2322 -25.2678 6.66667
    endloop
  endfacet
  facet normal 0 0 1
    outer loop
      vertex 21.7678 -25.2678 6.66667
      vertex 29.2322 -25.2678 6.66667
      vertex 22.3097 -24.4567 6.66667
    endloop
  endfacet
  facet normal 0 0 1
    outer loop
      vertex 29.2322 -25.2678 6.66667
      vertex 21.7678 -25.2678 6.66667
      vertex 30.0433 -25.8097 6.66667
    endloop
  endfacet
  facet normal 0 0 1
    outer loop
      vertex 20.9567 -25.8097 6.66667
      vertex 30.0433 -25.8097 6.66667
      vertex 21.7678 -25.2678 6.66667
    endloop
  endfacet
  facet normal 0 0 1
    outer loop
      vertex 30.0433 -25.8097 6.66667
      vertex 20.9567 -25.8097 6.66667
      vertex 40 -30 6.66667
    endloop
  endfacet
  facet normal -0 0 1
    outer loop
      vertex 20 -26 6.66667
      vertex 40 -30 6.66667
      vertex 20.9567 -25.8097 6.66667
    endloop
  endfacet
  facet normal 0 0 1
    outer loop
      vertex 0 -30 6.66667
      vertex 20 -26 6.66667
      vertex 19.0433 -25.8097 6.66667
    endloop
  endfacet
  facet normal 0 0 1
    outer loop
      vertex 17.6903 -22.5433 6.66667
      vertex 11.5 -23.5 6.66667
      vertex 17.5 -23.5 6.66667
    endloop
  endfacet
  facet normal 0 0 1
    outer loop
      vertex 17.5 -23.5 6.66667
      vertex 11.5 -23.5 6.66667
      vertex 17.6903 -24.4567 6.66667
    endloop
  endfacet
  facet normal 0 0 1
    outer loop
      vertex 11.3097 -24.4567 6.66667
      vertex 17.6903 -24.4567 6.66667
      vertex 11.5 -23.5 6.66667
    endloop
  endfacet
  facet normal 0 0 1
    outer loop
      vertex 17.6903 -24.4567 6.66667
      vertex 11.3097 -24.4567 6.66667
      vertex 18.2322 -25.2678 6.66667
    endloop
  endfacet
  facet normal 0 0 1
    outer loop
      vertex 10.7678 -25.2678 6.66667
      vertex 18.2322 -25.2678 6.66667
      vertex 11.3097 -24.4567 6.66667
    endloop
  endfacet
  facet normal 0 0 1
    outer loop
      vertex 18.2322 -25.2678 6.66667
      vertex 10.7678 -25.2678 6.66667
      vertex 19.0433 -25.8097 6.66667
    endloop
  endfacet
  facet normal 0 0 1
    outer loop
      vertex 9.95671 -25.8097 6.66667
      vertex 19.0433 -25.8097 6.66667
      vertex 10.7678 -25.2678 6.66667
    endloop
  endfacet
  facet normal 0 0 1
    outer loop
      vertex 0 -30 6.66667
      vertex 19.0433 -25.8097 6.66667
      vertex 9.95671 -25.8097 6.66667
    endloop
  endfacet
  facet normal 0 0 1
    outer loop
      vertex 0 -30 6.66667
      vertex 9.95671 -25.8097 6.66667
      vertex 9 -26 6.66667
    endloop
  endfacet
  facet normal 0 0 1
    outer loop
      vertex 6.6903 -22.5433 6.66667
      vertex 0 -30 6.66667
      vertex 6.5 -23.5 6.66667
    endloop
  endfacet
  facet normal 0 0 1
    outer loop
      vertex 20 -26 6.66667
      vertex 0 -30 6.66667
      vertex 40 -30 6.66667
    endloop
  endfacet
  facet normal 0 0 1
    outer loop
      vertex 8.04329 -25.8097 6.66667
      vertex 0 -30 6.66667
      vertex 9 -26 6.66667
    endloop
  endfacet
  facet normal 0 0 1
    outer loop
      vertex 7.23223 -25.2678 6.66667
      vertex 0 -30 6.66667
      vertex 8.04329 -25.8097 6.66667
    endloop
  endfacet
  facet normal 0 0 1
    outer loop
      vertex 6.6903 -24.4567 6.66667
      vertex 0 -30 6.66667
      vertex 7.23223 -25.2678 6.66667
    endloop
  endfacet
  facet normal 0 0 1
    outer loop
      vertex 6.5 -23.5 6.66667
      vertex 0 -30 6.66667
      vertex 6.6903 -24.4567 6.66667
    endloop
  endfacet
  facet normal 1 -0 0
    outer loop
      vertex 40 -30 6.66667
      vertex 40 0 0
      vertex 40 0 6.66667
    endloop
  endfacet
  facet normal 1 0 0
    outer loop
      vertex 40 0 0
      vertex 40 -30 6.66667
      vertex 40 -30 0
    endloop
  endfacet
  facet normal 0 1 -0
    outer loop
      vertex 40 0 0
      vertex 0 0 6.66667
      vertex 40 0 6.66667
    endloop
  endfacet
  facet normal 0 1 0
    outer loop
      vertex 0 0 6.66667
      vertex 40 0 0
      vertex 0 0 0
    endloop
  endfacet
  facet normal 0 0 -1
    outer loop
      vertex 19.0433 -21.1903 0
      vertex 9.95671 -21.1903 0
      vertex 19.0433 -8.8097 0
    endloop
  endfacet
  facet normal 0 0 -1
    outer loop
      vertex 18.2322 -8.26777 0
      vertex 11.3097 -7.45671 0
      vertex 11.5 -6.5 0
    endloop
  endfacet
  facet normal 0 0 -1
    outer loop
      vertex 9.95671 -8.8097 0
      vertex 19.0433 -8.8097 0
      vertex 9.95671 -21.1903 0
    endloop
  endfacet
  facet normal 0 0 -1
    outer loop
      vertex 18.2322 -8.26777 0
      vertex 10.7678 -8.26777 0
      vertex 11.3097 -7.45671 0
    endloop
  endfacet
  facet normal 0 0 -1
    outer loop
      vertex 19.0433 -8.8097 0
      vertex 9.95671 -8.8097 0
      vertex 18.2322 -8.26777 0
    endloop
  endfacet
  facet normal -0 0 -1
    outer loop
      vertex 18.2322 -8.26777 0
      vertex 9.95671 -8.8097 0
      vertex 10.7678 -8.26777 0
    endloop
  endfacet
  facet normal 0 0 -1
    outer loop
      vertex 9 -21 0
      vertex 9.95671 -8.8097 0
      vertex 9.95671 -21.1903 0
    endloop
  endfacet
  facet normal 0 0 -1
    outer loop
      vertex 9 -21 0
      vertex 9 -9 0
      vertex 9.95671 -8.8097 0
    endloop
  endfacet
  facet normal 0 0 -1
    outer loop
      vertex 8.04329 -21.1903 0
      vertex 9 -9 0
      vertex 9 -21 0
    endloop
  endfacet
  facet normal 0 0 -1
    outer loop
      vertex 8.04329 -21.1903 0
      vertex 8.04329 -8.8097 0
      vertex 9 -9 0
    endloop
  endfacet
  facet normal 0 0 -1
    outer loop
      vertex 7.23223 -21.7322 0
      vertex 8.04329 -8.8097 0
      vertex 8.04329 -21.1903 0
    endloop
  endfacet
  facet normal 0 0 -1
    outer loop
      vertex 7.23223 -21.7322 0
      vertex 7.23223 -8.26777 0
      vertex 8.04329 -8.8097 0
    endloop
  endfacet
  facet normal 0 0 -1
    outer loop
      vertex 6.6903 -22.5433 0
      vertex 7.23223 -8.26777 0
      vertex 7.23223 -21.7322 0
    endloop
  endfacet
  facet normal 0 0 -1
    outer loop
      vertex 6.6903 -22.5433 0
      vertex 6.6903 -7.45671 0
      vertex 7.23223 -8.26777 0
    endloop
  endfacet
  facet normal 0 0 -1
    outer loop
      vertex 0 -30 0
      vertex 6.6903 -22.5433 0
      vertex 6.5 -23.5 0
    endloop
  endfacet
  facet normal -0 0 -1
    outer loop
      vertex 6.6903 -22.5433 0
      vertex 0 -30 0
      vertex 6.6903 -7.45671 0
    endloop
  endfacet
  facet normal 0 0 -1
    outer loop
      vertex 30.0433 -21.1903 0
      vertex 20.9567 -21.1903 0
      vertex 30.0433 -8.8097 0
    endloop
  endfacet
  facet normal 0 0 -1
    outer loop
      vertex 29.2322 -8.26777 0
      vertex 22.3097 -7.45671 0
      vertex 22.5 -6.5 0
    endloop
  endfacet
  facet normal 0 0 -1
    outer loop
      vertex 20.9567 -8.8097 0
      vertex 30.0433 -8.8097 0
      vertex 20.9567 -21.1903 0
    endloop
  endfacet
  facet normal 0 0 -1
    outer loop
      vertex 29.2322 -8.26777 0
      vertex 21.7678 -8.26777 0
      vertex 22.3097 -7.45671 0
    endloop
  endfacet
  facet normal 0 0 -1
    outer loop
      vertex 30.0433 -8.8097 0
      vertex 20.9567 -8.8097 0
      vertex 29.2322 -8.26777 0
    endloop
  endfacet
  facet normal -0 0 -1
    outer loop
      vertex 29.2322 -8.26777 0
      vertex 20.9567 -8.8097 0
      vertex 21.7678 -8.26777 0
    endloop
  endfacet
  facet normal 0 0 -1
    outer loop
      vertex 20 -21 0
      vertex 20.9567 -8.8097 0
      vertex 20.9567 -21.1903 0
    endloop
  endfacet
  facet normal 0 0 -1
    outer loop
      vertex 20 -21 0
      vertex 20 -9 0
      vertex 20.9567 -8.8097 0
    endloop
  endfacet
  facet normal 0 0 -1
    outer loop
      vertex 19.0433 -21.1903 0
      vertex 20 -9 0
      vertex 20 -21 0
    endloop
  endfacet
  facet normal 0 0 -1
    outer loop
      vertex 19.0433 -21.1903 0
      vertex 19.0433 -8.8097 0
      vertex 20 -9 0
    endloop
  endfacet
  facet normal 0 0 -1
    outer loop
      vertex 10.7678 -21.7322 0
      vertex 19.0433 -21.1903 0
      vertex 18.2322 -21.7322 0
    endloop
  endfacet
  facet normal 0 0 -1
    outer loop
      vertex 9.95671 -21.1903 0
      vertex 19.0433 -21.1903 0
      vertex 10.7678 -21.7322 0
    endloop
  endfacet
  facet normal 0 0 -1
    outer loop
      vertex 11.3097 -22.5433 0
      vertex 17.6903 -22.5433 0
      vertex 11.5 -23.5 0
    endloop
  endfacet
  facet normal 0 0 -1
    outer loop
      vertex 17.6903 -22.5433 0
      vertex 11.3097 -22.5433 0
      vertex 18.2322 -21.7322 0
    endloop
  endfacet
  facet normal 0 0 -1
    outer loop
      vertex 11.5 -23.5 0
      vertex 17.6903 -22.5433 0
      vertex 17.5 -23.5 0
    endloop
  endfacet
  facet normal 0 0 -1
    outer loop
      vertex 10.7678 -21.7322 0
      vertex 18.2322 -21.7322 0
      vertex 11.3097 -22.5433 0
    endloop
  endfacet
  facet normal 0 0 -1
    outer loop
      vertex 33.3097 -7.45671 0
      vertex 40 0 0
      vertex 33.3097 -22.5433 0
    endloop
  endfacet
  facet normal 0 0 -1
    outer loop
      vertex 40 0 0
      vertex 33.3097 -7.45671 0
      vertex 33.5 -6.5 0
    endloop
  endfacet
  facet normal 0 0 -1
    outer loop
      vertex 32.7678 -21.7322 0
      vertex 33.3097 -7.45671 0
      vertex 33.3097 -22.5433 0
    endloop
  endfacet
  facet normal 0 0 -1
    outer loop
      vertex 32.7678 -21.7322 0
      vertex 32.7678 -8.26777 0
      vertex 33.3097 -7.45671 0
    endloop
  endfacet
  facet normal 0 0 -1
    outer loop
      vertex 31.9567 -21.1903 0
      vertex 32.7678 -8.26777 0
      vertex 32.7678 -21.7322 0
    endloop
  endfacet
  facet normal 0 0 -1
    outer loop
      vertex 31.9567 -21.1903 0
      vertex 31.9567 -8.8097 0
      vertex 32.7678 -8.26777 0
    endloop
  endfacet
  facet normal 0 0 -1
    outer loop
      vertex 31 -21 0
      vertex 31.9567 -8.8097 0
      vertex 31.9567 -21.1903 0
    endloop
  endfacet
  facet normal 0 0 -1
    outer loop
      vertex 31 -21 0
      vertex 31 -9 0
      vertex 31.9567 -8.8097 0
    endloop
  endfacet
  facet normal 0 0 -1
    outer loop
      vertex 30.0433 -21.1903 0
      vertex 31 -9 0
      vertex 31 -21 0
    endloop
  endfacet
  facet normal 0 0 -1
    outer loop
      vertex 30.0433 -21.1903 0
      vertex 30.0433 -8.8097 0
      vertex 31 -9 0
    endloop
  endfacet
  facet normal 0 0 -1
    outer loop
      vertex 21.7678 -21.7322 0
      vertex 30.0433 -21.1903 0
      vertex 29.2322 -21.7322 0
    endloop
  endfacet
  facet normal 0 0 -1
    outer loop
      vertex 20.9567 -21.1903 0
      vertex 30.0433 -21.1903 0
      vertex 21.7678 -21.7322 0
    endloop
  endfacet
  facet normal 0 0 -1
    outer loop
      vertex 22.3097 -22.5433 0
      vertex 28.6903 -22.5433 0
      vertex 22.5 -23.5 0
    endloop
  endfacet
  facet normal 0 0 -1
    outer loop
      vertex 28.6903 -22.5433 0
      vertex 22.3097 -22.5433 0
      vertex 29.2322 -21.7322 0
    endloop
  endfacet
  facet normal 0 0 -1
    outer loop
      vertex 22.5 -23.5 0
      vertex 28.6903 -22.5433 0
      vertex 28.5 -23.5 0
    endloop
  endfacet
  facet normal 0 0 -1
    outer loop
      vertex 21.7678 -21.7322 0
      vertex 29.2322 -21.7322 0
      vertex 22.3097 -22.5433 0
    endloop
  endfacet
  facet normal 0 0 -1
    outer loop
      vertex 33.3097 -22.5433 0
      vertex 40 -30 0
      vertex 33.5 -23.5 0
    endloop
  endfacet
  facet normal 0 0 -1
    outer loop
      vertex 40 -30 0
      vertex 33.3097 -24.4567 0
      vertex 33.5 -23.5 0
    endloop
  endfacet
  facet normal 0 0 -1
    outer loop
      vertex 40 -30 0
      vertex 32.7678 -25.2678 0
      vertex 33.3097 -24.4567 0
    endloop
  endfacet
  facet normal 0 0 -1
    outer loop
      vertex 40 -30 0
      vertex 31.9567 -25.8097 0
      vertex 32.7678 -25.2678 0
    endloop
  endfacet
  facet normal 0 0 -1
    outer loop
      vertex 40 -30 0
      vertex 31 -26 0
      vertex 31.9567 -25.8097 0
    endloop
  endfacet
  facet normal 0 0 -1
    outer loop
      vertex 40 -30 0
      vertex 30.0433 -25.8097 0
      vertex 31 -26 0
    endloop
  endfacet
  facet normal 0 0 -1
    outer loop
      vertex 29.2322 -8.26777 0
      vertex 22.5 -6.5 0
      vertex 28.6903 -7.45671 0
    endloop
  endfacet
  facet normal 0 0 -1
    outer loop
      vertex 28.6903 -24.4567 0
      vertex 22.5 -23.5 0
      vertex 28.5 -23.5 0
    endloop
  endfacet
  facet normal 0 0 -1
    outer loop
      vertex 22.3097 -24.4567 0
      vertex 28.6903 -24.4567 0
      vertex 29.2322 -25.2678 0
    endloop
  endfacet
  facet normal 0 0 -1
    outer loop
      vertex 21.7678 -25.2678 0
      vertex 29.2322 -25.2678 0
      vertex 30.0433 -25.8097 0
    endloop
  endfacet
  facet normal 0 0 -1
    outer loop
      vertex 20.9567 -25.8097 0
      vertex 30.0433 -25.8097 0
      vertex 40 -30 0
    endloop
  endfacet
  facet normal 0 0 -1
    outer loop
      vertex 28.6903 -24.4567 0
      vertex 22.3097 -24.4567 0
      vertex 22.5 -23.5 0
    endloop
  endfacet
  facet normal 0 0 -1
    outer loop
      vertex 29.2322 -25.2678 0
      vertex 21.7678 -25.2678 0
      vertex 22.3097 -24.4567 0
    endloop
  endfacet
  facet normal 0 0 -1
    outer loop
      vertex 30.0433 -25.8097 0
      vertex 20.9567 -25.8097 0
      vertex 21.7678 -25.2678 0
    endloop
  endfacet
  facet normal 0 0 -1
    outer loop
      vertex 40 -30 0
      vertex 20 -26 0
      vertex 20.9567 -25.8097 0
    endloop
  endfacet
  facet normal 0 0 -1
    outer loop
      vertex 0 -30 0
      vertex 20 -26 0
      vertex 40 -30 0
    endloop
  endfacet
  facet normal 0 0 -1
    outer loop
      vertex 18.2322 -8.26777 0
      vertex 11.5 -6.5 0
      vertex 17.6903 -7.45671 0
    endloop
  endfacet
  facet normal 0 0 -1
    outer loop
      vertex 17.6903 -24.4567 0
      vertex 11.5 -23.5 0
      vertex 17.5 -23.5 0
    endloop
  endfacet
  facet normal 0 0 -1
    outer loop
      vertex 11.3097 -24.4567 0
      vertex 17.6903 -24.4567 0
      vertex 18.2322 -25.2678 0
    endloop
  endfacet
  facet normal 0 0 -1
    outer loop
      vertex 10.7678 -25.2678 0
      vertex 18.2322 -25.2678 0
      vertex 19.0433 -25.8097 0
    endloop
  endfacet
  facet normal 0 0 -1
    outer loop
      vertex 17.6903 -24.4567 0
      vertex 11.3097 -24.4567 0
      vertex 11.5 -23.5 0
    endloop
  endfacet
  facet normal -0 0 -1
    outer loop
      vertex 20 -26 0
      vertex 0 -30 0
      vertex 19.0433 -25.8097 0
    endloop
  endfacet
  facet normal 0 0 -1
    outer loop
      vertex 18.2322 -25.2678 0
      vertex 10.7678 -25.2678 0
      vertex 11.3097 -24.4567 0
    endloop
  endfacet
  facet normal 0 0 -1
    outer loop
      vertex 19.0433 -25.8097 0
      vertex 9.95671 -25.8097 0
      vertex 10.7678 -25.2678 0
    endloop
  endfacet
  facet normal -0 0 -1
    outer loop
      vertex 19.0433 -25.8097 0
      vertex 0 -30 0
      vertex 9.95671 -25.8097 0
    endloop
  endfacet
  facet normal 0 0 -1
    outer loop
      vertex 0 0 0
      vertex 6.6903 -7.45671 0
      vertex 0 -30 0
    endloop
  endfacet
  facet normal -0 0 -1
    outer loop
      vertex 6.6903 -24.4567 0
      vertex 0 -30 0
      vertex 6.5 -23.5 0
    endloop
  endfacet
  facet normal -0 0 -1
    outer loop
      vertex 7.23223 -25.2678 0
      vertex 0 -30 0
      vertex 6.6903 -24.4567 0
    endloop
  endfacet
  facet normal -0 0 -1
    outer loop
      vertex 8.04329 -25.8097 0
      vertex 0 -30 0
      vertex 7.23223 -25.2678 0
    endloop
  endfacet
  facet normal -0 0 -1
    outer loop
      vertex 9 -26 0
      vertex 0 -30 0
      vertex 8.04329 -25.8097 0
    endloop
  endfacet
  facet normal 0 0 -1
    outer loop
      vertex 9.95671 -25.8097 0
      vertex 0 -30 0
      vertex 9 -26 0
    endloop
  endfacet
  facet normal 0 0 -1
    outer loop
      vertex 40 -30 0
      vertex 33.3097 -22.5433 0
      vertex 40 0 0
    endloop
  endfacet
  facet normal 0 0 -1
    outer loop
      vertex 33.3097 -5.54329 0
      vertex 40 0 0
      vertex 33.5 -6.5 0
    endloop
  endfacet
  facet normal 0 0 -1
    outer loop
      vertex 32.7678 -4.73223 0
      vertex 40 0 0
      vertex 33.3097 -5.54329 0
    endloop
  endfacet
  facet normal 0 0 -1
    outer loop
      vertex 31.9567 -4.1903 0
      vertex 40 0 0
      vertex 32.7678 -4.73223 0
    endloop
  endfacet
  facet normal 0 0 -1
    outer loop
      vertex 31 -4 0
      vertex 40 0 0
      vertex 31.9567 -4.1903 0
    endloop
  endfacet
  facet normal 0 0 -1
    outer loop
      vertex 30.0433 -4.1903 0
      vertex 40 0 0
      vertex 31 -4 0
    endloop
  endfacet
  facet normal 0 0 -1
    outer loop
      vertex 28.6903 -7.45671 0
      vertex 22.5 -6.5 0
      vertex 28.5 -6.5 0
    endloop
  endfacet
  facet normal 0 0 -1
    outer loop
      vertex 28.5 -6.5 0
      vertex 22.5 -6.5 0
      vertex 28.6903 -5.54329 0
    endloop
  endfacet
  facet normal 0 0 -1
    outer loop
      vertex 22.3097 -5.54329 0
      vertex 28.6903 -5.54329 0
      vertex 22.5 -6.5 0
    endloop
  endfacet
  facet normal 0 0 -1
    outer loop
      vertex 28.6903 -5.54329 0
      vertex 22.3097 -5.54329 0
      vertex 29.2322 -4.73223 0
    endloop
  endfacet
  facet normal 0 0 -1
    outer loop
      vertex 21.7678 -4.73223 0
      vertex 29.2322 -4.73223 0
      vertex 22.3097 -5.54329 0
    endloop
  endfacet
  facet normal 0 0 -1
    outer loop
      vertex 29.2322 -4.73223 0
      vertex 21.7678 -4.73223 0
      vertex 30.0433 -4.1903 0
    endloop
  endfacet
  facet normal 0 0 -1
    outer loop
      vertex 20.9567 -4.1903 0
      vertex 30.0433 -4.1903 0
      vertex 21.7678 -4.73223 0
    endloop
  endfacet
  facet normal 0 0 -1
    outer loop
      vertex 30.0433 -4.1903 0
      vertex 20.9567 -4.1903 0
      vertex 40 0 0
    endloop
  endfacet
  facet normal 0 0 -1
    outer loop
      vertex 20 -4 0
      vertex 40 0 0
      vertex 20.9567 -4.1903 0
    endloop
  endfacet
  facet normal 0 0 -1
    outer loop
      vertex 0 0 0
      vertex 20 -4 0
      vertex 19.0433 -4.1903 0
    endloop
  endfacet
  facet normal 0 0 -1
    outer loop
      vertex 17.6903 -7.45671 0
      vertex 11.5 -6.5 0
      vertex 17.5 -6.5 0
    endloop
  endfacet
  facet normal 0 0 -1
    outer loop
      vertex 17.5 -6.5 0
      vertex 11.5 -6.5 0
      vertex 17.6903 -5.54329 0
    endloop
  endfacet
  facet normal 0 0 -1
    outer loop
      vertex 11.3097 -5.54329 0
      vertex 17.6903 -5.54329 0
      vertex 11.5 -6.5 0
    endloop
  endfacet
  facet normal 0 0 -1
    outer loop
      vertex 17.6903 -5.54329 0
      vertex 11.3097 -5.54329 0
      vertex 18.2322 -4.73223 0
    endloop
  endfacet
  facet normal 0 0 -1
    outer loop
      vertex 10.7678 -4.73223 0
      vertex 18.2322 -4.73223 0
      vertex 11.3097 -5.54329 0
    endloop
  endfacet
  facet normal 0 0 -1
    outer loop
      vertex 18.2322 -4.73223 0
      vertex 10.7678 -4.73223 0
      vertex 19.0433 -4.1903 0
    endloop
  endfacet
  facet normal 0 0 -1
    outer loop
      vertex 9.95671 -4.1903 0
      vertex 19.0433 -4.1903 0
      vertex 10.7678 -4.73223 0
    endloop
  endfacet
  facet normal 0 0 -1
    outer loop
      vertex 0 0 0
      vertex 19.0433 -4.1903 0
      vertex 9.95671 -4.1903 0
    endloop
  endfacet
  facet normal 0 0 -1
    outer loop
      vertex 0 0 0
      vertex 9.95671 -4.1903 0
      vertex 9 -4 0
    endloop
  endfacet
  facet normal 0 0 -1
    outer loop
      vertex 6.6903 -7.45671 0
      vertex 0 0 0
      vertex 6.5 -6.5 0
    endloop
  endfacet
  facet normal 0 0 -1
    outer loop
      vertex 20 -4 0
      vertex 0 0 0
      vertex 40 0 0
    endloop
  endfacet
  facet normal 0 0 -1
    outer loop
      vertex 8.04329 -4.1903 0
      vertex 0 0 0
      vertex 9 -4 0
    endloop
  endfacet
  facet normal 0 0 -1
    outer loop
      vertex 7.23223 -4.73223 0
      vertex 0 0 0
      vertex 8.04329 -4.1903 0
    endloop
  endfacet
  facet normal 0 0 -1
    outer loop
      vertex 6.6903 -5.54329 0
      vertex 0 0 0
      vertex 7.23223 -4.73223 0
    endloop
  endfacet
  facet normal 0 0 -1
    outer loop
      vertex 6.5 -6.5 0
      vertex 0 0 0
      vertex 6.6903 -5.54329 0
    endloop
  endfacet
  facet normal 0 -1 0
    outer loop
      vertex 0 -30 0
      vertex 40 -30 6.66667
      vertex 0 -30 6.66667
    endloop
  endfacet
  facet normal 0 -1 -0
    outer loop
      vertex 40 -30 6.66667
      vertex 0 -30 0
      vertex 40 -30 0
    endloop
  endfacet
  facet normal -0.980786 -0.195089 0
    outer loop
      vertex 11.5 -6.5 0
      vertex 11.3097 -5.54329 6.66667
      vertex 11.3097 -5.54329 0
    endloop
  endfacet
  facet normal -0.980786 -0.195089 0
    outer loop
      vertex 11.3097 -5.54329 6.66667
      vertex 11.5 -6.5 0
      vertex 11.5 -6.5 6.66667
    endloop
  endfacet
  facet normal 0.980786 0.195089 0
    outer loop
      vertex 6.6903 -7.45671 6.66667
      vertex 6.5 -6.5 0
      vertex 6.5 -6.5 6.66667
    endloop
  endfacet
  facet normal 0.980786 0.195089 0
    outer loop
      vertex 6.5 -6.5 0
      vertex 6.6903 -7.45671 6.66667
      vertex 6.6903 -7.45671 0
    endloop
  endfacet
  facet normal 0.195089 -0.980786 0
    outer loop
      vertex 8.04329 -4.1903 0
      vertex 9 -4 6.66667
      vertex 8.04329 -4.1903 6.66667
    endloop
  endfacet
  facet normal 0.195089 -0.980786 0
    outer loop
      vertex 9 -4 6.66667
      vertex 8.04329 -4.1903 0
      vertex 9 -4 0
    endloop
  endfacet
  facet normal -0.195089 0.980786 0
    outer loop
      vertex 9.95671 -8.8097 0
      vertex 9 -9 6.66667
      vertex 9.95671 -8.8097 6.66667
    endloop
  endfacet
  facet normal -0.195089 0.980786 0
    outer loop
      vertex 9 -9 6.66667
      vertex 9.95671 -8.8097 0
      vertex 9 -9 0
    endloop
  endfacet
  facet normal -0.555554 0.831481 0
    outer loop
      vertex 10.7678 -8.26777 0
      vertex 9.95671 -8.8097 6.66667
      vertex 10.7678 -8.26777 6.66667
    endloop
  endfacet
  facet normal -0.555554 0.831481 0
    outer loop
      vertex 9.95671 -8.8097 6.66667
      vertex 10.7678 -8.26777 0
      vertex 9.95671 -8.8097 0
    endloop
  endfacet
  facet normal -0.555554 -0.831481 0
    outer loop
      vertex 9.95671 -4.1903 0
      vertex 10.7678 -4.73223 6.66667
      vertex 9.95671 -4.1903 6.66667
    endloop
  endfacet
  facet normal -0.555554 -0.831481 -0
    outer loop
      vertex 10.7678 -4.73223 6.66667
      vertex 9.95671 -4.1903 0
      vertex 10.7678 -4.73223 0
    endloop
  endfacet
  facet normal -0.831485 -0.555547 0
    outer loop
      vertex 11.3097 -5.54329 0
      vertex 10.7678 -4.73223 6.66667
      vertex 10.7678 -4.73223 0
    endloop
  endfacet
  facet normal -0.831485 -0.555547 0
    outer loop
      vertex 10.7678 -4.73223 6.66667
      vertex 11.3097 -5.54329 0
      vertex 11.3097 -5.54329 6.66667
    endloop
  endfacet
  facet normal -0.195089 -0.980786 0
    outer loop
      vertex 9 -4 0
      vertex 9.95671 -4.1903 6.66667
      vertex 9 -4 6.66667
    endloop
  endfacet
  facet normal -0.195089 -0.980786 -0
    outer loop
      vertex 9.95671 -4.1903 6.66667
      vertex 9 -4 0
      vertex 9.95671 -4.1903 0
    endloop
  endfacet
  facet normal 0.831471 -0.555568 0
    outer loop
      vertex 6.6903 -5.54329 6.66667
      vertex 7.23223 -4.73223 0
      vertex 7.23223 -4.73223 6.66667
    endloop
  endfacet
  facet normal 0.831471 -0.555568 0
    outer loop
      vertex 7.23223 -4.73223 0
      vertex 6.6903 -5.54329 6.66667
      vertex 6.6903 -5.54329 0
    endloop
  endfacet
  facet normal 0.980786 -0.195089 0
    outer loop
      vertex 6.5 -6.5 6.66667
      vertex 6.6903 -5.54329 0
      vertex 6.6903 -5.54329 6.66667
    endloop
  endfacet
  facet normal 0.980786 -0.195089 0
    outer loop
      vertex 6.6903 -5.54329 0
      vertex 6.5 -6.5 6.66667
      vertex 6.5 -6.5 0
    endloop
  endfacet
  facet normal 0.555568 -0.831471 0
    outer loop
      vertex 7.23223 -4.73223 0
      vertex 8.04329 -4.1903 6.66667
      vertex 7.23223 -4.73223 6.66667
    endloop
  endfacet
  facet normal 0.555568 -0.831471 0
    outer loop
      vertex 8.04329 -4.1903 6.66667
      vertex 7.23223 -4.73223 0
      vertex 8.04329 -4.1903 0
    endloop
  endfacet
  facet normal 0.831471 0.555568 0
    outer loop
      vertex 7.23223 -8.26777 6.66667
      vertex 6.6903 -7.45671 0
      vertex 6.6903 -7.45671 6.66667
    endloop
  endfacet
  facet normal 0.831471 0.555568 0
    outer loop
      vertex 6.6903 -7.45671 0
      vertex 7.23223 -8.26777 6.66667
      vertex 7.23223 -8.26777 0
    endloop
  endfacet
  facet normal -0.831485 0.555547 0
    outer loop
      vertex 10.7678 -8.26777 0
      vertex 11.3097 -7.45671 6.66667
      vertex 11.3097 -7.45671 0
    endloop
  endfacet
  facet normal -0.831485 0.555547 0
    outer loop
      vertex 11.3097 -7.45671 6.66667
      vertex 10.7678 -8.26777 0
      vertex 10.7678 -8.26777 6.66667
    endloop
  endfacet
  facet normal -0.980786 0.195089 0
    outer loop
      vertex 11.3097 -7.45671 0
      vertex 11.5 -6.5 6.66667
      vertex 11.5 -6.5 0
    endloop
  endfacet
  facet normal -0.980786 0.195089 0
    outer loop
      vertex 11.5 -6.5 6.66667
      vertex 11.3097 -7.45671 0
      vertex 11.3097 -7.45671 6.66667
    endloop
  endfacet
  facet normal 0.195089 0.980786 -0
    outer loop
      vertex 9 -9 0
      vertex 8.04329 -8.8097 6.66667
      vertex 9 -9 6.66667
    endloop
  endfacet
  facet normal 0.195089 0.980786 0
    outer loop
      vertex 8.04329 -8.8097 6.66667
      vertex 9 -9 0
      vertex 8.04329 -8.8097 0
    endloop
  endfacet
  facet normal 0.555568 0.831471 -0
    outer loop
      vertex 8.04329 -8.8097 0
      vertex 7.23223 -8.26777 6.66667
      vertex 8.04329 -8.8097 6.66667
    endloop
  endfacet
  facet normal 0.555568 0.831471 0
    outer loop
      vertex 7.23223 -8.26777 6.66667
      vertex 8.04329 -8.8097 0
      vertex 7.23223 -8.26777 0
    endloop
  endfacet
  facet normal -0.980786 -0.195089 0
    outer loop
      vertex 33.5 -6.5 0
      vertex 33.3097 -5.54329 6.66667
      vertex 33.3097 -5.54329 0
    endloop
  endfacet
  facet normal -0.980786 -0.195089 0
    outer loop
      vertex 33.3097 -5.54329 6.66667
      vertex 33.5 -6.5 0
      vertex 33.5 -6.5 6.66667
    endloop
  endfacet
  facet normal 0.195091 -0.980785 0
    outer loop
      vertex 30.0433 -4.1903 0
      vertex 31 -4 6.66667
      vertex 30.0433 -4.1903 6.66667
    endloop
  endfacet
  facet normal 0.195091 -0.980785 0
    outer loop
      vertex 31 -4 6.66667
      vertex 30.0433 -4.1903 0
      vertex 31 -4 0
    endloop
  endfacet
  facet normal -0.195091 0.980785 0
    outer loop
      vertex 31.9567 -8.8097 0
      vertex 31 -9 6.66667
      vertex 31.9567 -8.8097 6.66667
    endloop
  endfacet
  facet normal -0.195091 0.980785 0
    outer loop
      vertex 31 -9 6.66667
      vertex 31.9567 -8.8097 0
      vertex 31 -9 0
    endloop
  endfacet
  facet normal -0.555549 0.831484 0
    outer loop
      vertex 32.7678 -8.26777 0
      vertex 31.9567 -8.8097 6.66667
      vertex 32.7678 -8.26777 6.66667
    endloop
  endfacet
  facet normal -0.555549 0.831484 0
    outer loop
      vertex 31.9567 -8.8097 6.66667
      vertex 32.7678 -8.26777 0
      vertex 31.9567 -8.8097 0
    endloop
  endfacet
  facet normal -0.555549 -0.831484 0
    outer loop
      vertex 31.9567 -4.1903 0
      vertex 32.7678 -4.73223 6.66667
      vertex 31.9567 -4.1903 6.66667
    endloop
  endfacet
  facet normal -0.555549 -0.831484 -0
    outer loop
      vertex 32.7678 -4.73223 6.66667
      vertex 31.9567 -4.1903 0
      vertex 32.7678 -4.73223 0
    endloop
  endfacet
  facet normal -0.831485 -0.555547 0
    outer loop
      vertex 33.3097 -5.54329 0
      vertex 32.7678 -4.73223 6.66667
      vertex 32.7678 -4.73223 0
    endloop
  endfacet
  facet normal -0.831485 -0.555547 0
    outer loop
      vertex 32.7678 -4.73223 6.66667
      vertex 33.3097 -5.54329 0
      vertex 33.3097 -5.54329 6.66667
    endloop
  endfacet
  facet normal -0.195091 -0.980785 0
    outer loop
      vertex 31 -4 0
      vertex 31.9567 -4.1903 6.66667
      vertex 31 -4 6.66667
    endloop
  endfacet
  facet normal -0.195091 -0.980785 -0
    outer loop
      vertex 31.9567 -4.1903 6.66667
      vertex 31 -4 0
      vertex 31.9567 -4.1903 0
    endloop
  endfacet
  facet normal 0.831485 -0.555547 0
    outer loop
      vertex 28.6903 -5.54329 6.66667
      vertex 29.2322 -4.73223 0
      vertex 29.2322 -4.73223 6.66667
    endloop
  endfacet
  facet normal 0.831485 -0.555547 0
    outer loop
      vertex 29.2322 -4.73223 0
      vertex 28.6903 -5.54329 6.66667
      vertex 28.6903 -5.54329 0
    endloop
  endfacet
  facet normal 0.980786 -0.195089 0
    outer loop
      vertex 28.5 -6.5 6.66667
      vertex 28.6903 -5.54329 0
      vertex 28.6903 -5.54329 6.66667
    endloop
  endfacet
  facet normal 0.980786 -0.195089 0
    outer loop
      vertex 28.6903 -5.54329 0
      vertex 28.5 -6.5 6.66667
      vertex 28.5 -6.5 0
    endloop
  endfacet
  facet normal 0.555549 -0.831484 0
    outer loop
      vertex 29.2322 -4.73223 0
      vertex 30.0433 -4.1903 6.66667
      vertex 29.2322 -4.73223 6.66667
    endloop
  endfacet
  facet normal 0.555549 -0.831484 0
    outer loop
      vertex 30.0433 -4.1903 6.66667
      vertex 29.2322 -4.73223 0
      vertex 30.0433 -4.1903 0
    endloop
  endfacet
  facet normal -0.980786 0.195089 0
    outer loop
      vertex 33.3097 -7.45671 0
      vertex 33.5 -6.5 6.66667
      vertex 33.5 -6.5 0
    endloop
  endfacet
  facet normal -0.980786 0.195089 0
    outer loop
      vertex 33.5 -6.5 6.66667
      vertex 33.3097 -7.45671 0
      vertex 33.3097 -7.45671 6.66667
    endloop
  endfacet
  facet normal 0.980786 0.195089 0
    outer loop
      vertex 28.6903 -7.45671 6.66667
      vertex 28.5 -6.5 0
      vertex 28.5 -6.5 6.66667
    endloop
  endfacet
  facet normal 0.980786 0.195089 0
    outer loop
      vertex 28.5 -6.5 0
      vertex 28.6903 -7.45671 6.66667
      vertex 28.6903 -7.45671 0
    endloop
  endfacet
  facet normal -0.831485 0.555547 0
    outer loop
      vertex 32.7678 -8.26777 0
      vertex 33.3097 -7.45671 6.66667
      vertex 33.3097 -7.45671 0
    endloop
  endfacet
  facet normal -0.831485 0.555547 0
    outer loop
      vertex 33.3097 -7.45671 6.66667
      vertex 32.7678 -8.26777 0
      vertex 32.7678 -8.26777 6.66667
    endloop
  endfacet
  facet normal 0.195091 0.980785 -0
    outer loop
      vertex 31 -9 0
      vertex 30.0433 -8.8097 6.66667
      vertex 31 -9 6.66667
    endloop
  endfacet
  facet normal 0.195091 0.980785 0
    outer loop
      vertex 30.0433 -8.8097 6.66667
      vertex 31 -9 0
      vertex 30.0433 -8.8097 0
    endloop
  endfacet
  facet normal 0.555549 0.831484 -0
    outer loop
      vertex 30.0433 -8.8097 0
      vertex 29.2322 -8.26777 6.66667
      vertex 30.0433 -8.8097 6.66667
    endloop
  endfacet
  facet normal 0.555549 0.831484 0
    outer loop
      vertex 29.2322 -8.26777 6.66667
      vertex 30.0433 -8.8097 0
      vertex 29.2322 -8.26777 0
    endloop
  endfacet
  facet normal 0.831485 0.555547 0
    outer loop
      vertex 29.2322 -8.26777 6.66667
      vertex 28.6903 -7.45671 0
      vertex 28.6903 -7.45671 6.66667
    endloop
  endfacet
  facet normal 0.831485 0.555547 0
    outer loop
      vertex 28.6903 -7.45671 0
      vertex 29.2322 -8.26777 6.66667
      vertex 29.2322 -8.26777 0
    endloop
  endfacet
  facet normal -0.980785 -0.195091 0
    outer loop
      vertex 11.5 -23.5 0
      vertex 11.3097 -22.5433 6.66667
      vertex 11.3097 -22.5433 0
    endloop
  endfacet
  facet normal -0.980785 -0.195091 0
    outer loop
      vertex 11.3097 -22.5433 6.66667
      vertex 11.5 -23.5 0
      vertex 11.5 -23.5 6.66667
    endloop
  endfacet
  facet normal 0.195089 -0.980786 0
    outer loop
      vertex 8.04329 -21.1903 0
      vertex 9 -21 6.66667
      vertex 8.04329 -21.1903 6.66667
    endloop
  endfacet
  facet normal 0.195089 -0.980786 0
    outer loop
      vertex 9 -21 6.66667
      vertex 8.04329 -21.1903 0
      vertex 9 -21 0
    endloop
  endfacet
  facet normal -0.195089 0.980786 0
    outer loop
      vertex 9.95671 -25.8097 0
      vertex 9 -26 6.66667
      vertex 9.95671 -25.8097 6.66667
    endloop
  endfacet
  facet normal -0.195089 0.980786 0
    outer loop
      vertex 9 -26 6.66667
      vertex 9.95671 -25.8097 0
      vertex 9 -26 0
    endloop
  endfacet
  facet normal -0.555533 0.831495 0
    outer loop
      vertex 10.7678 -25.2678 0
      vertex 9.95671 -25.8097 6.66667
      vertex 10.7678 -25.2678 6.66667
    endloop
  endfacet
  facet normal -0.555533 0.831495 0
    outer loop
      vertex 9.95671 -25.8097 6.66667
      vertex 10.7678 -25.2678 0
      vertex 9.95671 -25.8097 0
    endloop
  endfacet
  facet normal -0.555533 -0.831495 0
    outer loop
      vertex 9.95671 -21.1903 0
      vertex 10.7678 -21.7322 6.66667
      vertex 9.95671 -21.1903 6.66667
    endloop
  endfacet
  facet normal -0.555533 -0.831495 -0
    outer loop
      vertex 10.7678 -21.7322 6.66667
      vertex 9.95671 -21.1903 0
      vertex 10.7678 -21.7322 0
    endloop
  endfacet
  facet normal -0.831498 -0.555528 0
    outer loop
      vertex 11.3097 -22.5433 0
      vertex 10.7678 -21.7322 6.66667
      vertex 10.7678 -21.7322 0
    endloop
  endfacet
  facet normal -0.831498 -0.555528 0
    outer loop
      vertex 10.7678 -21.7322 6.66667
      vertex 11.3097 -22.5433 0
      vertex 11.3097 -22.5433 6.66667
    endloop
  endfacet
  facet normal -0.195089 -0.980786 0
    outer loop
      vertex 9 -21 0
      vertex 9.95671 -21.1903 6.66667
      vertex 9 -21 6.66667
    endloop
  endfacet
  facet normal -0.195089 -0.980786 -0
    outer loop
      vertex 9.95671 -21.1903 6.66667
      vertex 9 -21 0
      vertex 9.95671 -21.1903 0
    endloop
  endfacet
  facet normal 0.831484 -0.555549 0
    outer loop
      vertex 6.6903 -22.5433 6.66667
      vertex 7.23223 -21.7322 0
      vertex 7.23223 -21.7322 6.66667
    endloop
  endfacet
  facet normal 0.831484 -0.555549 0
    outer loop
      vertex 7.23223 -21.7322 0
      vertex 6.6903 -22.5433 6.66667
      vertex 6.6903 -22.5433 0
    endloop
  endfacet
  facet normal 0.980785 -0.195091 0
    outer loop
      vertex 6.5 -23.5 6.66667
      vertex 6.6903 -22.5433 0
      vertex 6.6903 -22.5433 6.66667
    endloop
  endfacet
  facet normal 0.980785 -0.195091 0
    outer loop
      vertex 6.6903 -22.5433 0
      vertex 6.5 -23.5 6.66667
      vertex 6.5 -23.5 0
    endloop
  endfacet
  facet normal 0.555547 -0.831485 0
    outer loop
      vertex 7.23223 -21.7322 0
      vertex 8.04329 -21.1903 6.66667
      vertex 7.23223 -21.7322 6.66667
    endloop
  endfacet
  facet normal 0.555547 -0.831485 0
    outer loop
      vertex 8.04329 -21.1903 6.66667
      vertex 7.23223 -21.7322 0
      vertex 8.04329 -21.1903 0
    endloop
  endfacet
  facet normal -0.980785 0.195091 0
    outer loop
      vertex 11.3097 -24.4567 0
      vertex 11.5 -23.5 6.66667
      vertex 11.5 -23.5 0
    endloop
  endfacet
  facet normal -0.980785 0.195091 0
    outer loop
      vertex 11.5 -23.5 6.66667
      vertex 11.3097 -24.4567 0
      vertex 11.3097 -24.4567 6.66667
    endloop
  endfacet
  facet normal 0.980785 0.195091 0
    outer loop
      vertex 6.6903 -24.4567 6.66667
      vertex 6.5 -23.5 0
      vertex 6.5 -23.5 6.66667
    endloop
  endfacet
  facet normal 0.980785 0.195091 0
    outer loop
      vertex 6.5 -23.5 0
      vertex 6.6903 -24.4567 6.66667
      vertex 6.6903 -24.4567 0
    endloop
  endfacet
  facet normal -0.831498 0.555528 0
    outer loop
      vertex 10.7678 -25.2678 0
      vertex 11.3097 -24.4567 6.66667
      vertex 11.3097 -24.4567 0
    endloop
  endfacet
  facet normal -0.831498 0.555528 0
    outer loop
      vertex 11.3097 -24.4567 6.66667
      vertex 10.7678 -25.2678 0
      vertex 10.7678 -25.2678 6.66667
    endloop
  endfacet
  facet normal 0.195089 0.980786 -0
    outer loop
      vertex 9 -26 0
      vertex 8.04329 -25.8097 6.66667
      vertex 9 -26 6.66667
    endloop
  endfacet
  facet normal 0.195089 0.980786 0
    outer loop
      vertex 8.04329 -25.8097 6.66667
      vertex 9 -26 0
      vertex 8.04329 -25.8097 0
    endloop
  endfacet
  facet normal 0.555547 0.831485 -0
    outer loop
      vertex 8.04329 -25.8097 0
      vertex 7.23223 -25.2678 6.66667
      vertex 8.04329 -25.8097 6.66667
    endloop
  endfacet
  facet normal 0.555547 0.831485 0
    outer loop
      vertex 7.23223 -25.2678 6.66667
      vertex 8.04329 -25.8097 0
      vertex 7.23223 -25.2678 0
    endloop
  endfacet
  facet normal 0.831484 0.555549 0
    outer loop
      vertex 7.23223 -25.2678 6.66667
      vertex 6.6903 -24.4567 0
      vertex 6.6903 -24.4567 6.66667
    endloop
  endfacet
  facet normal 0.831484 0.555549 0
    outer loop
      vertex 6.6903 -24.4567 0
      vertex 7.23223 -25.2678 6.66667
      vertex 7.23223 -25.2678 0
    endloop
  endfacet
  facet normal -0.980785 -0.195091 0
    outer loop
      vertex 33.5 -23.5 0
      vertex 33.3097 -22.5433 6.66667
      vertex 33.3097 -22.5433 0
    endloop
  endfacet
  facet normal -0.980785 -0.195091 0
    outer loop
      vertex 33.3097 -22.5433 6.66667
      vertex 33.5 -23.5 0
      vertex 33.5 -23.5 6.66667
    endloop
  endfacet
  facet normal 0.195091 -0.980785 0
    outer loop
      vertex 30.0433 -21.1903 0
      vertex 31 -21 6.66667
      vertex 30.0433 -21.1903 6.66667
    endloop
  endfacet
  facet normal 0.195091 -0.980785 0
    outer loop
      vertex 31 -21 6.66667
      vertex 30.0433 -21.1903 0
      vertex 31 -21 0
    endloop
  endfacet
  facet normal -0.195091 0.980785 0
    outer loop
      vertex 31.9567 -25.8097 0
      vertex 31 -26 6.66667
      vertex 31.9567 -25.8097 6.66667
    endloop
  endfacet
  facet normal -0.195091 0.980785 0
    outer loop
      vertex 31 -26 6.66667
      vertex 31.9567 -25.8097 0
      vertex 31 -26 0
    endloop
  endfacet
  facet normal -0.555528 0.831498 0
    outer loop
      vertex 32.7678 -25.2678 0
      vertex 31.9567 -25.8097 6.66667
      vertex 32.7678 -25.2678 6.66667
    endloop
  endfacet
  facet normal -0.555528 0.831498 0
    outer loop
      vertex 31.9567 -25.8097 6.66667
      vertex 32.7678 -25.2678 0
      vertex 31.9567 -25.8097 0
    endloop
  endfacet
  facet normal -0.555528 -0.831498 0
    outer loop
      vertex 31.9567 -21.1903 0
      vertex 32.7678 -21.7322 6.66667
      vertex 31.9567 -21.1903 6.66667
    endloop
  endfacet
  facet normal -0.555528 -0.831498 -0
    outer loop
      vertex 32.7678 -21.7322 6.66667
      vertex 31.9567 -21.1903 0
      vertex 32.7678 -21.7322 0
    endloop
  endfacet
  facet normal -0.831498 -0.555528 0
    outer loop
      vertex 33.3097 -22.5433 0
      vertex 32.7678 -21.7322 6.66667
      vertex 32.7678 -21.7322 0
    endloop
  endfacet
  facet normal -0.831498 -0.555528 0
    outer loop
      vertex 32.7678 -21.7322 6.66667
      vertex 33.3097 -22.5433 0
      vertex 33.3097 -22.5433 6.66667
    endloop
  endfacet
  facet normal -0.195091 -0.980785 0
    outer loop
      vertex 31 -21 0
      vertex 31.9567 -21.1903 6.66667
      vertex 31 -21 6.66667
    endloop
  endfacet
  facet normal -0.195091 -0.980785 -0
    outer loop
      vertex 31.9567 -21.1903 6.66667
      vertex 31 -21 0
      vertex 31.9567 -21.1903 0
    endloop
  endfacet
  facet normal 0.831498 -0.555528 0
    outer loop
      vertex 28.6903 -22.5433 6.66667
      vertex 29.2322 -21.7322 0
      vertex 29.2322 -21.7322 6.66667
    endloop
  endfacet
  facet normal 0.831498 -0.555528 0
    outer loop
      vertex 29.2322 -21.7322 0
      vertex 28.6903 -22.5433 6.66667
      vertex 28.6903 -22.5433 0
    endloop
  endfacet
  facet normal 0.980785 -0.195091 0
    outer loop
      vertex 28.5 -23.5 6.66667
      vertex 28.6903 -22.5433 0
      vertex 28.6903 -22.5433 6.66667
    endloop
  endfacet
  facet normal 0.980785 -0.195091 0
    outer loop
      vertex 28.6903 -22.5433 0
      vertex 28.5 -23.5 6.66667
      vertex 28.5 -23.5 0
    endloop
  endfacet
  facet normal 0.555528 -0.831498 0
    outer loop
      vertex 29.2322 -21.7322 0
      vertex 30.0433 -21.1903 6.66667
      vertex 29.2322 -21.7322 6.66667
    endloop
  endfacet
  facet normal 0.555528 -0.831498 0
    outer loop
      vertex 30.0433 -21.1903 6.66667
      vertex 29.2322 -21.7322 0
      vertex 30.0433 -21.1903 0
    endloop
  endfacet
  facet normal 0.980785 0.195091 0
    outer loop
      vertex 28.6903 -24.4567 6.66667
      vertex 28.5 -23.5 0
      vertex 28.5 -23.5 6.66667
    endloop
  endfacet
  facet normal 0.980785 0.195091 0
    outer loop
      vertex 28.5 -23.5 0
      vertex 28.6903 -24.4567 6.66667
      vertex 28.6903 -24.4567 0
    endloop
  endfacet
  facet normal -0.831498 0.555528 0
    outer loop
      vertex 32.7678 -25.2678 0
      vertex 33.3097 -24.4567 6.66667
      vertex 33.3097 -24.4567 0
    endloop
  endfacet
  facet normal -0.831498 0.555528 0
    outer loop
      vertex 33.3097 -24.4567 6.66667
      vertex 32.7678 -25.2678 0
      vertex 32.7678 -25.2678 6.66667
    endloop
  endfacet
  facet normal -0.980785 0.195091 0
    outer loop
      vertex 33.3097 -24.4567 0
      vertex 33.5 -23.5 6.66667
      vertex 33.5 -23.5 0
    endloop
  endfacet
  facet normal -0.980785 0.195091 0
    outer loop
      vertex 33.5 -23.5 6.66667
      vertex 33.3097 -24.4567 0
      vertex 33.3097 -24.4567 6.66667
    endloop
  endfacet
  facet normal 0.195091 0.980785 -0
    outer loop
      vertex 31 -26 0
      vertex 30.0433 -25.8097 6.66667
      vertex 31 -26 6.66667
    endloop
  endfacet
  facet normal 0.195091 0.980785 0
    outer loop
      vertex 30.0433 -25.8097 6.66667
      vertex 31 -26 0
      vertex 30.0433 -25.8097 0
    endloop
  endfacet
  facet normal 0.555528 0.831498 -0
    outer loop
      vertex 30.0433 -25.8097 0
      vertex 29.2322 -25.2678 6.66667
      vertex 30.0433 -25.8097 6.66667
    endloop
  endfacet
  facet normal 0.555528 0.831498 0
    outer loop
      vertex 29.2322 -25.2678 6.66667
      vertex 30.0433 -25.8097 0
      vertex 29.2322 -25.2678 0
    endloop
  endfacet
  facet normal 0.831498 0.555528 0
    outer loop
      vertex 29.2322 -25.2678 6.66667
      vertex 28.6903 -24.4567 0
      vertex 28.6903 -24.4567 6.66667
    endloop
  endfacet
  facet normal 0.831498 0.555528 0
    outer loop
      vertex 28.6903 -24.4567 0
      vertex 29.2322 -25.2678 6.66667
      vertex 29.2322 -25.2678 0
    endloop
  endfacet
  facet normal -0.980786 -0.195089 0
    outer loop
      vertex 22.5 -6.5 0
      vertex 22.3097 -5.54329 6.66667
      vertex 22.3097 -5.54329 0
    endloop
  endfacet
  facet normal -0.980786 -0.195089 0
    outer loop
      vertex 22.3097 -5.54329 6.66667
      vertex 22.5 -6.5 0
      vertex 22.5 -6.5 6.66667
    endloop
  endfacet
  facet normal 0.980786 0.195089 0
    outer loop
      vertex 17.6903 -7.45671 6.66667
      vertex 17.5 -6.5 0
      vertex 17.5 -6.5 6.66667
    endloop
  endfacet
  facet normal 0.980786 0.195089 0
    outer loop
      vertex 17.5 -6.5 0
      vertex 17.6903 -7.45671 6.66667
      vertex 17.6903 -7.45671 0
    endloop
  endfacet
  facet normal 0.195091 -0.980785 0
    outer loop
      vertex 19.0433 -4.1903 0
      vertex 20 -4 6.66667
      vertex 19.0433 -4.1903 6.66667
    endloop
  endfacet
  facet normal 0.195091 -0.980785 0
    outer loop
      vertex 20 -4 6.66667
      vertex 19.0433 -4.1903 0
      vertex 20 -4 0
    endloop
  endfacet
  facet normal -0.195091 0.980785 0
    outer loop
      vertex 20.9567 -8.8097 0
      vertex 20 -9 6.66667
      vertex 20.9567 -8.8097 6.66667
    endloop
  endfacet
  facet normal -0.195091 0.980785 0
    outer loop
      vertex 20 -9 6.66667
      vertex 20.9567 -8.8097 0
      vertex 20 -9 0
    endloop
  endfacet
  facet normal -0.555549 0.831484 0
    outer loop
      vertex 21.7678 -8.26777 0
      vertex 20.9567 -8.8097 6.66667
      vertex 21.7678 -8.26777 6.66667
    endloop
  endfacet
  facet normal -0.555549 0.831484 0
    outer loop
      vertex 20.9567 -8.8097 6.66667
      vertex 21.7678 -8.26777 0
      vertex 20.9567 -8.8097 0
    endloop
  endfacet
  facet normal -0.555549 -0.831484 0
    outer loop
      vertex 20.9567 -4.1903 0
      vertex 21.7678 -4.73223 6.66667
      vertex 20.9567 -4.1903 6.66667
    endloop
  endfacet
  facet normal -0.555549 -0.831484 -0
    outer loop
      vertex 21.7678 -4.73223 6.66667
      vertex 20.9567 -4.1903 0
      vertex 21.7678 -4.73223 0
    endloop
  endfacet
  facet normal -0.831485 -0.555547 0
    outer loop
      vertex 22.3097 -5.54329 0
      vertex 21.7678 -4.73223 6.66667
      vertex 21.7678 -4.73223 0
    endloop
  endfacet
  facet normal -0.831485 -0.555547 0
    outer loop
      vertex 21.7678 -4.73223 6.66667
      vertex 22.3097 -5.54329 0
      vertex 22.3097 -5.54329 6.66667
    endloop
  endfacet
  facet normal -0.195091 -0.980785 0
    outer loop
      vertex 20 -4 0
      vertex 20.9567 -4.1903 6.66667
      vertex 20 -4 6.66667
    endloop
  endfacet
  facet normal -0.195091 -0.980785 -0
    outer loop
      vertex 20.9567 -4.1903 6.66667
      vertex 20 -4 0
      vertex 20.9567 -4.1903 0
    endloop
  endfacet
  facet normal 0.831485 -0.555547 0
    outer loop
      vertex 17.6903 -5.54329 6.66667
      vertex 18.2322 -4.73223 0
      vertex 18.2322 -4.73223 6.66667
    endloop
  endfacet
  facet normal 0.831485 -0.555547 0
    outer loop
      vertex 18.2322 -4.73223 0
      vertex 17.6903 -5.54329 6.66667
      vertex 17.6903 -5.54329 0
    endloop
  endfacet
  facet normal 0.980786 -0.195089 0
    outer loop
      vertex 17.5 -6.5 6.66667
      vertex 17.6903 -5.54329 0
      vertex 17.6903 -5.54329 6.66667
    endloop
  endfacet
  facet normal 0.980786 -0.195089 0
    outer loop
      vertex 17.6903 -5.54329 0
      vertex 17.5 -6.5 6.66667
      vertex 17.5 -6.5 0
    endloop
  endfacet
  facet normal 0.555549 -0.831484 0
    outer loop
      vertex 18.2322 -4.73223 0
      vertex 19.0433 -4.1903 6.66667
      vertex 18.2322 -4.73223 6.66667
    endloop
  endfacet
  facet normal 0.555549 -0.831484 0
    outer loop
      vertex 19.0433 -4.1903 6.66667
      vertex 18.2322 -4.73223 0
      vertex 19.0433 -4.1903 0
    endloop
  endfacet
  facet normal -0.980786 0.195089 0
    outer loop
      vertex 22.3097 -7.45671 0
      vertex 22.5 -6.5 6.66667
      vertex 22.5 -6.5 0
    endloop
  endfacet
  facet normal -0.980786 0.195089 0
    outer loop
      vertex 22.5 -6.5 6.66667
      vertex 22.3097 -7.45671 0
      vertex 22.3097 -7.45671 6.66667
    endloop
  endfacet
  facet normal -0.831485 0.555547 0
    outer loop
      vertex 21.7678 -8.26777 0
      vertex 22.3097 -7.45671 6.66667
      vertex 22.3097 -7.45671 0
    endloop
  endfacet
  facet normal -0.831485 0.555547 0
    outer loop
      vertex 22.3097 -7.45671 6.66667
      vertex 21.7678 -8.26777 0
      vertex 21.7678 -8.26777 6.66667
    endloop
  endfacet
  facet normal 0.195091 0.980785 -0
    outer loop
      vertex 20 -9 0
      vertex 19.0433 -8.8097 6.66667
      vertex 20 -9 6.66667
    endloop
  endfacet
  facet normal 0.195091 0.980785 0
    outer loop
      vertex 19.0433 -8.8097 6.66667
      vertex 20 -9 0
      vertex 19.0433 -8.8097 0
    endloop
  endfacet
  facet normal 0.555549 0.831484 -0
    outer loop
      vertex 19.0433 -8.8097 0
      vertex 18.2322 -8.26777 6.66667
      vertex 19.0433 -8.8097 6.66667
    endloop
  endfacet
  facet normal 0.555549 0.831484 0
    outer loop
      vertex 18.2322 -8.26777 6.66667
      vertex 19.0433 -8.8097 0
      vertex 18.2322 -8.26777 0
    endloop
  endfacet
  facet normal 0.831485 0.555547 0
    outer loop
      vertex 18.2322 -8.26777 6.66667
      vertex 17.6903 -7.45671 0
      vertex 17.6903 -7.45671 6.66667
    endloop
  endfacet
  facet normal 0.831485 0.555547 0
    outer loop
      vertex 17.6903 -7.45671 0
      vertex 18.2322 -8.26777 6.66667
      vertex 18.2322 -8.26777 0
    endloop
  endfacet
  facet normal -0.980785 -0.195091 0
    outer loop
      vertex 22.5 -23.5 0
      vertex 22.3097 -22.5433 6.66667
      vertex 22.3097 -22.5433 0
    endloop
  endfacet
  facet normal -0.980785 -0.195091 0
    outer loop
      vertex 22.3097 -22.5433 6.66667
      vertex 22.5 -23.5 0
      vertex 22.5 -23.5 6.66667
    endloop
  endfacet
  facet normal 0.195091 -0.980785 0
    outer loop
      vertex 19.0433 -21.1903 0
      vertex 20 -21 6.66667
      vertex 19.0433 -21.1903 6.66667
    endloop
  endfacet
  facet normal 0.195091 -0.980785 0
    outer loop
      vertex 20 -21 6.66667
      vertex 19.0433 -21.1903 0
      vertex 20 -21 0
    endloop
  endfacet
  facet normal -0.195091 0.980785 0
    outer loop
      vertex 20.9567 -25.8097 0
      vertex 20 -26 6.66667
      vertex 20.9567 -25.8097 6.66667
    endloop
  endfacet
  facet normal -0.195091 0.980785 0
    outer loop
      vertex 20 -26 6.66667
      vertex 20.9567 -25.8097 0
      vertex 20 -26 0
    endloop
  endfacet
  facet normal -0.555528 0.831498 0
    outer loop
      vertex 21.7678 -25.2678 0
      vertex 20.9567 -25.8097 6.66667
      vertex 21.7678 -25.2678 6.66667
    endloop
  endfacet
  facet normal -0.555528 0.831498 0
    outer loop
      vertex 20.9567 -25.8097 6.66667
      vertex 21.7678 -25.2678 0
      vertex 20.9567 -25.8097 0
    endloop
  endfacet
  facet normal -0.555528 -0.831498 0
    outer loop
      vertex 20.9567 -21.1903 0
      vertex 21.7678 -21.7322 6.66667
      vertex 20.9567 -21.1903 6.66667
    endloop
  endfacet
  facet normal -0.555528 -0.831498 -0
    outer loop
      vertex 21.7678 -21.7322 6.66667
      vertex 20.9567 -21.1903 0
      vertex 21.7678 -21.7322 0
    endloop
  endfacet
  facet normal -0.831498 -0.555528 0
    outer loop
      vertex 22.3097 -22.5433 0
      vertex 21.7678 -21.7322 6.66667
      vertex 21.7678 -21.7322 0
    endloop
  endfacet
  facet normal -0.831498 -0.555528 0
    outer loop
      vertex 21.7678 -21.7322 6.66667
      vertex 22.3097 -22.5433 0
      vertex 22.3097 -22.5433 6.66667
    endloop
  endfacet
  facet normal -0.195091 -0.980785 0
    outer loop
      vertex 20 -21 0
      vertex 20.9567 -21.1903 6.66667
      vertex 20 -21 6.66667
    endloop
  endfacet
  facet normal -0.195091 -0.980785 -0
    outer loop
      vertex 20.9567 -21.1903 6.66667
      vertex 20 -21 0
      vertex 20.9567 -21.1903 0
    endloop
  endfacet
  facet normal 0.831498 -0.555528 0
    outer loop
      vertex 17.6903 -22.5433 6.66667
      vertex 18.2322 -21.7322 0
      vertex 18.2322 -21.7322 6.66667
    endloop
  endfacet
  facet normal 0.831498 -0.555528 0
    outer loop
      vertex 18.2322 -21.7322 0
      vertex 17.6903 -22.5433 6.66667
      vertex 17.6903 -22.5433 0
    endloop
  endfacet
  facet normal 0.980785 -0.195091 0
    outer loop
      vertex 17.5 -23.5 6.66667
      vertex 17.6903 -22.5433 0
      vertex 17.6903 -22.5433 6.66667
    endloop
  endfacet
  facet normal 0.980785 -0.195091 0
    outer loop
      vertex 17.6903 -22.5433 0
      vertex 17.5 -23.5 6.66667
      vertex 17.5 -23.5 0
    endloop
  endfacet
  facet normal 0.555528 -0.831498 0
    outer loop
      vertex 18.2322 -21.7322 0
      vertex 19.0433 -21.1903 6.66667
      vertex 18.2322 -21.7322 6.66667
    endloop
  endfacet
  facet normal 0.555528 -0.831498 0
    outer loop
      vertex 19.0433 -21.1903 6.66667
      vertex 18.2322 -21.7322 0
      vertex 19.0433 -21.1903 0
    endloop
  endfacet
  facet normal 0.980785 0.195091 0
    outer loop
      vertex 17.6903 -24.4567 6.66667
      vertex 17.5 -23.5 0
      vertex 17.5 -23.5 6.66667
    endloop
  endfacet
  facet normal 0.980785 0.195091 0
    outer loop
      vertex 17.5 -23.5 0
      vertex 17.6903 -24.4567 6.66667
      vertex 17.6903 -24.4567 0
    endloop
  endfacet
  facet normal -0.831498 0.555528 0
    outer loop
      vertex 21.7678 -25.2678 0
      vertex 22.3097 -24.4567 6.66667
      vertex 22.3097 -24.4567 0
    endloop
  endfacet
  facet normal -0.831498 0.555528 0
    outer loop
      vertex 22.3097 -24.4567 6.66667
      vertex 21.7678 -25.2678 0
      vertex 21.7678 -25.2678 6.66667
    endloop
  endfacet
  facet normal -0.980785 0.195091 0
    outer loop
      vertex 22.3097 -24.4567 0
      vertex 22.5 -23.5 6.66667
      vertex 22.5 -23.5 0
    endloop
  endfacet
  facet normal -0.980785 0.195091 0
    outer loop
      vertex 22.5 -23.5 6.66667
      vertex 22.3097 -24.4567 0
      vertex 22.3097 -24.4567 6.66667
    endloop
  endfacet
  facet normal 0.195091 0.980785 -0
    outer loop
      vertex 20 -26 0
      vertex 19.0433 -25.8097 6.66667
      vertex 20 -26 6.66667
    endloop
  endfacet
  facet normal 0.195091 0.980785 0
    outer loop
      vertex 19.0433 -25.8097 6.66667
      vertex 20 -26 0
      vertex 19.0433 -25.8097 0
    endloop
  endfacet
  facet normal 0.555528 0.831498 -0
    outer loop
      vertex 19.0433 -25.8097 0
      vertex 18.2322 -25.2678 6.66667
      vertex 19.0433 -25.8097 6.66667
    endloop
  endfacet
  facet normal 0.555528 0.831498 0
    outer loop
      vertex 18.2322 -25.2678 6.66667
      vertex 19.0433 -25.8097 0
      vertex 18.2322 -25.2678 0
    endloop
  endfacet
  facet normal 0.831498 0.555528 0
    outer loop
      vertex 18.2322 -25.2678 6.66667
      vertex 17.6903 -24.4567 0
      vertex 17.6903 -24.4567 6.66667
    endloop
  endfacet
  facet normal 0.831498 0.555528 0
    outer loop
      vertex 17.6903 -24.4567 0
      vertex 18.2322 -25.2678 6.66667
      vertex 18.2322 -25.2678 0
    endloop
  endfacet
endsolid OpenSCAD_Model
