solid OpenSCAD_Model
  facet normal -1 0 0
    outer loop
      vertex 0 -36 0
      vertex 0 40.8 10
      vertex 0 40.8 0
    endloop
  endfacet
  facet normal -1 -0 0
    outer loop
      vertex 0 40.8 10
      vertex 0 -36 0
      vertex 0 -36 10
    endloop
  endfacet
  facet normal 0 0 1
    outer loop
      vertex 13.6213 -20.1213 10
      vertex 26.3787 -20.1213 10
      vertex 14.2716 -19.148 10
    endloop
  endfacet
  facet normal 0 0 1
    outer loop
      vertex 26.3787 -20.1213 10
      vertex 14.2716 -28.8519 10
      vertex 14.5 -30 10
    endloop
  endfacet
  facet normal 0 0 1
    outer loop
      vertex 13.6213 -27.8787 10
      vertex 26.3787 -20.1213 10
      vertex 13.6213 -20.1213 10
    endloop
  endfacet
  facet normal 0 0 1
    outer loop
      vertex 26.3787 -20.1213 10
      vertex 13.6213 -27.8787 10
      vertex 14.2716 -28.8519 10
    endloop
  endfacet
  facet normal -0 0 1
    outer loop
      vertex 12.648 -20.7716 10
      vertex 13.6213 -27.8787 10
      vertex 13.6213 -20.1213 10
    endloop
  endfacet
  facet normal 0 0 1
    outer loop
      vertex 12.648 -20.7716 10
      vertex 12.648 -27.2284 10
      vertex 13.6213 -27.8787 10
    endloop
  endfacet
  facet normal -0 0 1
    outer loop
      vertex 11.5 -21 10
      vertex 12.648 -27.2284 10
      vertex 12.648 -20.7716 10
    endloop
  endfacet
  facet normal 0 0 1
    outer loop
      vertex 11.5 -21 10
      vertex 11.5 -27 10
      vertex 12.648 -27.2284 10
    endloop
  endfacet
  facet normal 0 0 1
    outer loop
      vertex 10.3519 -20.7716 10
      vertex 11.5 -27 10
      vertex 11.5 -21 10
    endloop
  endfacet
  facet normal 0 0 1
    outer loop
      vertex 10.3519 -20.7716 10
      vertex 10.3519 -27.2284 10
      vertex 11.5 -27 10
    endloop
  endfacet
  facet normal 0 0 1
    outer loop
      vertex 9.37868 -20.1213 10
      vertex 10.3519 -27.2284 10
      vertex 10.3519 -20.7716 10
    endloop
  endfacet
  facet normal 0 0 1
    outer loop
      vertex 9.37868 -20.1213 10
      vertex 9.37868 -27.8787 10
      vertex 10.3519 -27.2284 10
    endloop
  endfacet
  facet normal 0 0 1
    outer loop
      vertex 8.72836 -19.148 10
      vertex 9.37868 -27.8787 10
      vertex 9.37868 -20.1213 10
    endloop
  endfacet
  facet normal 0 0 1
    outer loop
      vertex 8.72836 -19.148 10
      vertex 8.72836 -28.8519 10
      vertex 9.37868 -27.8787 10
    endloop
  endfacet
  facet normal 0 0 1
    outer loop
      vertex 0 -36 10
      vertex 8.72836 -19.148 10
      vertex 8.5 -18 10
    endloop
  endfacet
  facet normal 0 0 1
    outer loop
      vertex 8.72836 -19.148 10
      vertex 0 -36 10
      vertex 8.72836 -28.8519 10
    endloop
  endfacet
  facet normal -0 0 1
    outer loop
      vertex 10.995 17.9979 10
      vertex 26.3787 -3.87868 10
      vertex 11.8385 18.5615 10
    endloop
  endfacet
  facet normal 0 0 1
    outer loop
      vertex 26.3787 -3.87868 10
      vertex 10.995 17.9979 10
      vertex 25.7284 -4.85195 10
    endloop
  endfacet
  facet normal -0 0 1
    outer loop
      vertex 10 17.8 10
      vertex 25.7284 -4.85195 10
      vertex 10.995 17.9979 10
    endloop
  endfacet
  facet normal 0 0 1
    outer loop
      vertex 25.7284 -4.85195 10
      vertex 11.5 -15 10
      vertex 12.648 -15.2284 10
    endloop
  endfacet
  facet normal 0 0 1
    outer loop
      vertex 25.7284 -4.85195 10
      vertex 10 17.8 10
      vertex 11.5 -15 10
    endloop
  endfacet
  facet normal 0 0 1
    outer loop
      vertex 11.5 -15 10
      vertex 10 17.8 10
      vertex 10.3519 -15.2284 10
    endloop
  endfacet
  facet normal 0 0 1
    outer loop
      vertex 9.00502 17.9979 10
      vertex 10.3519 -15.2284 10
      vertex 10 17.8 10
    endloop
  endfacet
  facet normal 0 0 1
    outer loop
      vertex 10.3519 -15.2284 10
      vertex 9.00502 17.9979 10
      vertex 9.37868 -15.8787 10
    endloop
  endfacet
  facet normal 0 0 1
    outer loop
      vertex 8.16152 18.5615 10
      vertex 9.37868 -15.8787 10
      vertex 9.00502 17.9979 10
    endloop
  endfacet
  facet normal 0 0 1
    outer loop
      vertex 9.37868 -15.8787 10
      vertex 8.16152 18.5615 10
      vertex 8.72836 -16.8519 10
    endloop
  endfacet
  facet normal 0 0 1
    outer loop
      vertex 0 -36 10
      vertex 8.72836 -16.8519 10
      vertex 7.59791 19.405 10
    endloop
  endfacet
  facet normal 0 0 1
    outer loop
      vertex 7.59791 19.405 10
      vertex 8.72836 -16.8519 10
      vertex 8.16152 18.5615 10
    endloop
  endfacet
  facet normal -0 0 1
    outer loop
      vertex 31.2716 -7.14805 10
      vertex 31.5 -18 10
      vertex 31.5 -6 10
    endloop
  endfacet
  facet normal 0 0 1
    outer loop
      vertex 31.2716 -7.14805 10
      vertex 31.2716 -16.8519 10
      vertex 31.5 -18 10
    endloop
  endfacet
  facet normal -0 0 1
    outer loop
      vertex 30.6213 -8.12132 10
      vertex 31.2716 -16.8519 10
      vertex 31.2716 -7.14805 10
    endloop
  endfacet
  facet normal 0 0 1
    outer loop
      vertex 30.6213 -8.12132 10
      vertex 30.6213 -15.8787 10
      vertex 31.2716 -16.8519 10
    endloop
  endfacet
  facet normal -0 0 1
    outer loop
      vertex 29.648 -8.77164 10
      vertex 30.6213 -15.8787 10
      vertex 30.6213 -8.12132 10
    endloop
  endfacet
  facet normal 0 0 1
    outer loop
      vertex 29.648 -8.77164 10
      vertex 29.648 -15.2284 10
      vertex 30.6213 -15.8787 10
    endloop
  endfacet
  facet normal -0 0 1
    outer loop
      vertex 28.5 -9 10
      vertex 29.648 -15.2284 10
      vertex 29.648 -8.77164 10
    endloop
  endfacet
  facet normal 0 0 1
    outer loop
      vertex 28.5 -9 10
      vertex 28.5 -15 10
      vertex 29.648 -15.2284 10
    endloop
  endfacet
  facet normal 0 0 1
    outer loop
      vertex 27.3519 -8.77164 10
      vertex 28.5 -15 10
      vertex 28.5 -9 10
    endloop
  endfacet
  facet normal 0 0 1
    outer loop
      vertex 27.3519 -8.77164 10
      vertex 27.3519 -15.2284 10
      vertex 28.5 -15 10
    endloop
  endfacet
  facet normal 0 0 1
    outer loop
      vertex 26.3787 -8.12132 10
      vertex 27.3519 -15.2284 10
      vertex 27.3519 -8.77164 10
    endloop
  endfacet
  facet normal 0 0 1
    outer loop
      vertex 26.3787 -8.12132 10
      vertex 26.3787 -15.8787 10
      vertex 27.3519 -15.2284 10
    endloop
  endfacet
  facet normal 0 0 1
    outer loop
      vertex 13.6213 -15.8787 10
      vertex 26.3787 -8.12132 10
      vertex 25.7284 -7.14805 10
    endloop
  endfacet
  facet normal 0 0 1
    outer loop
      vertex 26.3787 -8.12132 10
      vertex 13.6213 -15.8787 10
      vertex 26.3787 -15.8787 10
    endloop
  endfacet
  facet normal 0 0 1
    outer loop
      vertex 12.648 -15.2284 10
      vertex 25.7284 -7.14805 10
      vertex 25.5 -6 10
    endloop
  endfacet
  facet normal 0 0 1
    outer loop
      vertex 26.3787 -15.8787 10
      vertex 13.6213 -15.8787 10
      vertex 25.7284 -16.8519 10
    endloop
  endfacet
  facet normal 0 0 1
    outer loop
      vertex 32.4021 19.405 10
      vertex 31.2716 -4.85195 10
      vertex 31.5 -6 10
    endloop
  endfacet
  facet normal 0 0 1
    outer loop
      vertex 30.6213 -3.87868 10
      vertex 31.8385 18.5615 10
      vertex 30.995 17.9979 10
    endloop
  endfacet
  facet normal 0 0 1
    outer loop
      vertex 31.8385 18.5615 10
      vertex 30.6213 -3.87868 10
      vertex 31.2716 -4.85195 10
    endloop
  endfacet
  facet normal 0 0 1
    outer loop
      vertex 29.648 -3.22836 10
      vertex 30.995 17.9979 10
      vertex 30 17.8 10
    endloop
  endfacet
  facet normal 0 0 1
    outer loop
      vertex 30.995 17.9979 10
      vertex 29.648 -3.22836 10
      vertex 30.6213 -3.87868 10
    endloop
  endfacet
  facet normal 0 0 1
    outer loop
      vertex 28.5 -3 10
      vertex 30 17.8 10
      vertex 29.005 17.9979 10
    endloop
  endfacet
  facet normal 0 0 1
    outer loop
      vertex 30 17.8 10
      vertex 28.5 -3 10
      vertex 29.648 -3.22836 10
    endloop
  endfacet
  facet normal 0 0 1
    outer loop
      vertex 27.3519 -3.22836 10
      vertex 29.005 17.9979 10
      vertex 28.1615 18.5615 10
    endloop
  endfacet
  facet normal 0 0 1
    outer loop
      vertex 12.4021 19.405 10
      vertex 27.5979 19.405 10
      vertex 12.6 20.4 10
    endloop
  endfacet
  facet normal -0 0 1
    outer loop
      vertex 12.6 20.4 10
      vertex 27.5979 19.405 10
      vertex 27.4 20.4 10
    endloop
  endfacet
  facet normal 0 0 1
    outer loop
      vertex 29.005 17.9979 10
      vertex 27.3519 -3.22836 10
      vertex 28.5 -3 10
    endloop
  endfacet
  facet normal -0 0 1
    outer loop
      vertex 31.5 -6 10
      vertex 40 -36 10
      vertex 40 40.8 10
    endloop
  endfacet
  facet normal 0 0 1
    outer loop
      vertex 40 -36 10
      vertex 36.2716 -28.8519 10
      vertex 36.5 -30 10
    endloop
  endfacet
  facet normal 0 0 1
    outer loop
      vertex 40 -36 10
      vertex 31.5 -6 10
      vertex 36.2716 -28.8519 10
    endloop
  endfacet
  facet normal 0 0 1
    outer loop
      vertex 36.2716 -28.8519 10
      vertex 31.5 -6 10
      vertex 35.6213 -27.8787 10
    endloop
  endfacet
  facet normal -0 0 1
    outer loop
      vertex 31.5 -18 10
      vertex 35.6213 -27.8787 10
      vertex 31.5 -6 10
    endloop
  endfacet
  facet normal 0 0 1
    outer loop
      vertex 31.5 -6 10
      vertex 40 40.8 10
      vertex 32.6 20.4 10
    endloop
  endfacet
  facet normal 0 0 1
    outer loop
      vertex 40 40.8 10
      vertex 32.4021 21.395 10
      vertex 32.6 20.4 10
    endloop
  endfacet
  facet normal 0 0 1
    outer loop
      vertex 40 40.8 10
      vertex 31.8385 22.2385 10
      vertex 32.4021 21.395 10
    endloop
  endfacet
  facet normal 0 0 1
    outer loop
      vertex 40 40.8 10
      vertex 30.995 22.8021 10
      vertex 31.8385 22.2385 10
    endloop
  endfacet
  facet normal 0 0 1
    outer loop
      vertex 40 40.8 10
      vertex 30 23 10
      vertex 30.995 22.8021 10
    endloop
  endfacet
  facet normal 0 0 1
    outer loop
      vertex 40 40.8 10
      vertex 29.005 22.8021 10
      vertex 30 23 10
    endloop
  endfacet
  facet normal 0 0 1
    outer loop
      vertex 10.995 22.8021 10
      vertex 29.005 22.8021 10
      vertex 40 40.8 10
    endloop
  endfacet
  facet normal 0 0 1
    outer loop
      vertex 29.005 22.8021 10
      vertex 10.995 22.8021 10
      vertex 28.1615 22.2385 10
    endloop
  endfacet
  facet normal 0 0 1
    outer loop
      vertex 27.5979 19.405 10
      vertex 12.4021 19.405 10
      vertex 28.1615 18.5615 10
    endloop
  endfacet
  facet normal 0 0 1
    outer loop
      vertex 11.8385 18.5615 10
      vertex 28.1615 18.5615 10
      vertex 12.4021 19.405 10
    endloop
  endfacet
  facet normal 0 0 1
    outer loop
      vertex 28.1615 18.5615 10
      vertex 11.8385 18.5615 10
      vertex 27.3519 -3.22836 10
    endloop
  endfacet
  facet normal 0 0 1
    outer loop
      vertex 25.7284 -16.8519 10
      vertex 14.2716 -16.8519 10
      vertex 25.5 -18 10
    endloop
  endfacet
  facet normal 0 0 1
    outer loop
      vertex 27.3519 -3.22836 10
      vertex 11.8385 18.5615 10
      vertex 26.3787 -3.87868 10
    endloop
  endfacet
  facet normal 0 0 1
    outer loop
      vertex 12.6 20.4 10
      vertex 27.4 20.4 10
      vertex 27.5979 21.395 10
    endloop
  endfacet
  facet normal 0 0 1
    outer loop
      vertex 25.5 -18 10
      vertex 14.2716 -16.8519 10
      vertex 14.5 -18 10
    endloop
  endfacet
  facet normal 0 0 1
    outer loop
      vertex 25.7284 -16.8519 10
      vertex 13.6213 -15.8787 10
      vertex 14.2716 -16.8519 10
    endloop
  endfacet
  facet normal 0 0 1
    outer loop
      vertex 25.7284 -7.14805 10
      vertex 12.648 -15.2284 10
      vertex 13.6213 -15.8787 10
    endloop
  endfacet
  facet normal 0 0 1
    outer loop
      vertex 25.7284 -4.85195 10
      vertex 12.648 -15.2284 10
      vertex 25.5 -6 10
    endloop
  endfacet
  facet normal 0 -0 1
    outer loop
      vertex 11.8385 22.2385 10
      vertex 28.1615 22.2385 10
      vertex 10.995 22.8021 10
    endloop
  endfacet
  facet normal 0 0 1
    outer loop
      vertex 27.5979 21.395 10
      vertex 12.4021 21.395 10
      vertex 12.6 20.4 10
    endloop
  endfacet
  facet normal 0 0 1
    outer loop
      vertex 27.5979 21.395 10
      vertex 11.8385 22.2385 10
      vertex 12.4021 21.395 10
    endloop
  endfacet
  facet normal 0 0 1
    outer loop
      vertex 28.1615 22.2385 10
      vertex 11.8385 22.2385 10
      vertex 27.5979 21.395 10
    endloop
  endfacet
  facet normal -0 0 1
    outer loop
      vertex 0 40.8 10
      vertex 10.995 22.8021 10
      vertex 40 40.8 10
    endloop
  endfacet
  facet normal 0 0 1
    outer loop
      vertex 10.995 22.8021 10
      vertex 0 40.8 10
      vertex 10 23 10
    endloop
  endfacet
  facet normal 0 0 1
    outer loop
      vertex 7.59791 21.395 10
      vertex 0 40.8 10
      vertex 7.4 20.4 10
    endloop
  endfacet
  facet normal 0 0 1
    outer loop
      vertex 8.16152 22.2385 10
      vertex 0 40.8 10
      vertex 7.59791 21.395 10
    endloop
  endfacet
  facet normal 0 0 1
    outer loop
      vertex 9.00502 22.8021 10
      vertex 0 40.8 10
      vertex 8.16152 22.2385 10
    endloop
  endfacet
  facet normal 0 0 1
    outer loop
      vertex 10 23 10
      vertex 0 40.8 10
      vertex 9.00502 22.8021 10
    endloop
  endfacet
  facet normal -0 0 1
    outer loop
      vertex 36.2716 -31.148 10
      vertex 40 -36 10
      vertex 36.5 -30 10
    endloop
  endfacet
  facet normal -0 0 1
    outer loop
      vertex 35.6213 -32.1213 10
      vertex 40 -36 10
      vertex 36.2716 -31.148 10
    endloop
  endfacet
  facet normal -0 0 1
    outer loop
      vertex 34.648 -32.7716 10
      vertex 40 -36 10
      vertex 35.6213 -32.1213 10
    endloop
  endfacet
  facet normal -0 0 1
    outer loop
      vertex 33.5 -33 10
      vertex 40 -36 10
      vertex 34.648 -32.7716 10
    endloop
  endfacet
  facet normal 0 0 1
    outer loop
      vertex 32.352 -32.7716 10
      vertex 40 -36 10
      vertex 33.5 -33 10
    endloop
  endfacet
  facet normal 0 0 1
    outer loop
      vertex 27.3519 -20.7716 10
      vertex 30.7284 -28.8519 10
      vertex 28.5 -21 10
    endloop
  endfacet
  facet normal 0 0 1
    outer loop
      vertex 14.5 -30 10
      vertex 30.7284 -28.8519 10
      vertex 27.3519 -20.7716 10
    endloop
  endfacet
  facet normal 0 0 1
    outer loop
      vertex 30.7284 -28.8519 10
      vertex 14.5 -30 10
      vertex 30.5 -30 10
    endloop
  endfacet
  facet normal 0 0 1
    outer loop
      vertex 14.5 -30 10
      vertex 27.3519 -20.7716 10
      vertex 26.3787 -20.1213 10
    endloop
  endfacet
  facet normal -0 0 1
    outer loop
      vertex 14.2716 -19.148 10
      vertex 26.3787 -20.1213 10
      vertex 25.7284 -19.148 10
    endloop
  endfacet
  facet normal -0 0 1
    outer loop
      vertex 14.5 -18 10
      vertex 25.7284 -19.148 10
      vertex 25.5 -18 10
    endloop
  endfacet
  facet normal 0 0 1
    outer loop
      vertex 14.2716 -19.148 10
      vertex 25.7284 -19.148 10
      vertex 14.5 -18 10
    endloop
  endfacet
  facet normal 0 0 1
    outer loop
      vertex 30.5 -30 10
      vertex 14.5 -30 10
      vertex 30.7284 -31.148 10
    endloop
  endfacet
  facet normal 0 0 1
    outer loop
      vertex 14.2716 -31.148 10
      vertex 30.7284 -31.148 10
      vertex 14.5 -30 10
    endloop
  endfacet
  facet normal 0 0 1
    outer loop
      vertex 30.7284 -31.148 10
      vertex 14.2716 -31.148 10
      vertex 31.3787 -32.1213 10
    endloop
  endfacet
  facet normal 0 0 1
    outer loop
      vertex 13.6213 -32.1213 10
      vertex 31.3787 -32.1213 10
      vertex 14.2716 -31.148 10
    endloop
  endfacet
  facet normal 0 0 1
    outer loop
      vertex 31.3787 -32.1213 10
      vertex 13.6213 -32.1213 10
      vertex 32.352 -32.7716 10
    endloop
  endfacet
  facet normal 0 0 1
    outer loop
      vertex 12.648 -32.7716 10
      vertex 32.352 -32.7716 10
      vertex 13.6213 -32.1213 10
    endloop
  endfacet
  facet normal 0 0 1
    outer loop
      vertex 32.352 -32.7716 10
      vertex 12.648 -32.7716 10
      vertex 40 -36 10
    endloop
  endfacet
  facet normal -0 0 1
    outer loop
      vertex 11.5 -33 10
      vertex 40 -36 10
      vertex 12.648 -32.7716 10
    endloop
  endfacet
  facet normal 0 0 1
    outer loop
      vertex 8.72836 -16.8519 10
      vertex 0 -36 10
      vertex 8.5 -18 10
    endloop
  endfacet
  facet normal 0 0 1
    outer loop
      vertex 0 40.8 10
      vertex 7.59791 19.405 10
      vertex 7.4 20.4 10
    endloop
  endfacet
  facet normal 0 0 1
    outer loop
      vertex 7.59791 19.405 10
      vertex 0 40.8 10
      vertex 0 -36 10
    endloop
  endfacet
  facet normal 0 0 1
    outer loop
      vertex 11.5 -33 10
      vertex 0 -36 10
      vertex 40 -36 10
    endloop
  endfacet
  facet normal 0 0 1
    outer loop
      vertex 10.3519 -32.7716 10
      vertex 0 -36 10
      vertex 11.5 -33 10
    endloop
  endfacet
  facet normal 0 0 1
    outer loop
      vertex 9.37868 -32.1213 10
      vertex 0 -36 10
      vertex 10.3519 -32.7716 10
    endloop
  endfacet
  facet normal 0 0 1
    outer loop
      vertex 8.72836 -31.148 10
      vertex 0 -36 10
      vertex 9.37868 -32.1213 10
    endloop
  endfacet
  facet normal 0 0 1
    outer loop
      vertex 8.5 -30 10
      vertex 0 -36 10
      vertex 8.72836 -31.148 10
    endloop
  endfacet
  facet normal 0 0 1
    outer loop
      vertex 8.72836 -28.8519 10
      vertex 0 -36 10
      vertex 8.5 -30 10
    endloop
  endfacet
  facet normal 0 0 1
    outer loop
      vertex 31.5 -6 10
      vertex 32.6 20.4 10
      vertex 32.4021 19.405 10
    endloop
  endfacet
  facet normal 0 0 1
    outer loop
      vertex 35.6213 -27.8787 10
      vertex 31.5 -18 10
      vertex 34.648 -27.2284 10
    endloop
  endfacet
  facet normal 0 0 1
    outer loop
      vertex 31.2716 -4.85195 10
      vertex 32.4021 19.405 10
      vertex 31.8385 18.5615 10
    endloop
  endfacet
  facet normal -0 0 1
    outer loop
      vertex 31.2716 -19.148 10
      vertex 34.648 -27.2284 10
      vertex 31.5 -18 10
    endloop
  endfacet
  facet normal 0 0 1
    outer loop
      vertex 34.648 -27.2284 10
      vertex 31.2716 -19.148 10
      vertex 33.5 -27 10
    endloop
  endfacet
  facet normal -0 0 1
    outer loop
      vertex 30.6213 -20.1213 10
      vertex 33.5 -27 10
      vertex 31.2716 -19.148 10
    endloop
  endfacet
  facet normal 0 0 1
    outer loop
      vertex 33.5 -27 10
      vertex 30.6213 -20.1213 10
      vertex 32.352 -27.2284 10
    endloop
  endfacet
  facet normal -0 0 1
    outer loop
      vertex 29.648 -20.7716 10
      vertex 32.352 -27.2284 10
      vertex 30.6213 -20.1213 10
    endloop
  endfacet
  facet normal 0 0 1
    outer loop
      vertex 32.352 -27.2284 10
      vertex 29.648 -20.7716 10
      vertex 31.3787 -27.8787 10
    endloop
  endfacet
  facet normal -0 0 1
    outer loop
      vertex 28.5 -21 10
      vertex 31.3787 -27.8787 10
      vertex 29.648 -20.7716 10
    endloop
  endfacet
  facet normal 0 0 1
    outer loop
      vertex 31.3787 -27.8787 10
      vertex 28.5 -21 10
      vertex 30.7284 -28.8519 10
    endloop
  endfacet
  facet normal 1 -0 0
    outer loop
      vertex 40 -36 10
      vertex 40 40.8 0
      vertex 40 40.8 10
    endloop
  endfacet
  facet normal 1 0 0
    outer loop
      vertex 40 40.8 0
      vertex 40 -36 10
      vertex 40 -36 0
    endloop
  endfacet
  facet normal 0 0 -1
    outer loop
      vertex 27.5979 19.405 0
      vertex 12.4021 19.405 0
      vertex 12.6 20.4 0
    endloop
  endfacet
  facet normal 0 0 -1
    outer loop
      vertex 25.7284 -4.85195 0
      vertex 11.8385 18.5615 0
      vertex 12.4021 19.405 0
    endloop
  endfacet
  facet normal 0 0 -1
    outer loop
      vertex 10 17.8 0
      vertex 25.7284 -4.85195 0
      vertex 11.5 -15 0
    endloop
  endfacet
  facet normal 0 0 -1
    outer loop
      vertex 25.7284 -4.85195 0
      vertex 10.995 17.9979 0
      vertex 11.8385 18.5615 0
    endloop
  endfacet
  facet normal 0 0 -1
    outer loop
      vertex 10 17.8 0
      vertex 11.5 -15 0
      vertex 10.3519 -15.2284 0
    endloop
  endfacet
  facet normal 0 0 -1
    outer loop
      vertex 25.7284 -4.85195 0
      vertex 10 17.8 0
      vertex 10.995 17.9979 0
    endloop
  endfacet
  facet normal 0 0 -1
    outer loop
      vertex 9.00502 17.9979 0
      vertex 10.3519 -15.2284 0
      vertex 9.37868 -15.8787 0
    endloop
  endfacet
  facet normal 0 0 -1
    outer loop
      vertex 10.3519 -15.2284 0
      vertex 9.00502 17.9979 0
      vertex 10 17.8 0
    endloop
  endfacet
  facet normal 0 0 -1
    outer loop
      vertex 8.16152 18.5615 0
      vertex 9.37868 -15.8787 0
      vertex 8.72836 -16.8519 0
    endloop
  endfacet
  facet normal 0 0 -1
    outer loop
      vertex 0 -36 0
      vertex 8.72836 -16.8519 0
      vertex 8.5 -18 0
    endloop
  endfacet
  facet normal 0 0 -1
    outer loop
      vertex 9.37868 -15.8787 0
      vertex 8.16152 18.5615 0
      vertex 9.00502 17.9979 0
    endloop
  endfacet
  facet normal 0 0 -1
    outer loop
      vertex 13.6213 -20.1213 0
      vertex 26.3787 -20.1213 0
      vertex 13.6213 -27.8787 0
    endloop
  endfacet
  facet normal 0 0 -1
    outer loop
      vertex 25.7284 -19.148 0
      vertex 14.2716 -19.148 0
      vertex 14.5 -18 0
    endloop
  endfacet
  facet normal 0 0 -1
    outer loop
      vertex 26.3787 -20.1213 0
      vertex 13.6213 -20.1213 0
      vertex 25.7284 -19.148 0
    endloop
  endfacet
  facet normal -0 0 -1
    outer loop
      vertex 25.7284 -19.148 0
      vertex 13.6213 -20.1213 0
      vertex 14.2716 -19.148 0
    endloop
  endfacet
  facet normal 0 0 -1
    outer loop
      vertex 12.648 -27.2284 0
      vertex 13.6213 -20.1213 0
      vertex 13.6213 -27.8787 0
    endloop
  endfacet
  facet normal 0 0 -1
    outer loop
      vertex 12.648 -27.2284 0
      vertex 12.648 -20.7716 0
      vertex 13.6213 -20.1213 0
    endloop
  endfacet
  facet normal 0 0 -1
    outer loop
      vertex 11.5 -27 0
      vertex 12.648 -20.7716 0
      vertex 12.648 -27.2284 0
    endloop
  endfacet
  facet normal 0 0 -1
    outer loop
      vertex 11.5 -27 0
      vertex 11.5 -21 0
      vertex 12.648 -20.7716 0
    endloop
  endfacet
  facet normal 0 0 -1
    outer loop
      vertex 10.3519 -27.2284 0
      vertex 11.5 -21 0
      vertex 11.5 -27 0
    endloop
  endfacet
  facet normal 0 0 -1
    outer loop
      vertex 10.3519 -27.2284 0
      vertex 10.3519 -20.7716 0
      vertex 11.5 -21 0
    endloop
  endfacet
  facet normal 0 0 -1
    outer loop
      vertex 9.37868 -27.8787 0
      vertex 10.3519 -20.7716 0
      vertex 10.3519 -27.2284 0
    endloop
  endfacet
  facet normal 0 0 -1
    outer loop
      vertex 9.37868 -27.8787 0
      vertex 9.37868 -20.1213 0
      vertex 10.3519 -20.7716 0
    endloop
  endfacet
  facet normal 0 0 -1
    outer loop
      vertex 8.72836 -28.8519 0
      vertex 9.37868 -20.1213 0
      vertex 9.37868 -27.8787 0
    endloop
  endfacet
  facet normal 0 0 -1
    outer loop
      vertex 8.72836 -28.8519 0
      vertex 8.72836 -19.148 0
      vertex 9.37868 -20.1213 0
    endloop
  endfacet
  facet normal 0 0 -1
    outer loop
      vertex 0 -36 0
      vertex 8.72836 -28.8519 0
      vertex 8.5 -30 0
    endloop
  endfacet
  facet normal -0 0 -1
    outer loop
      vertex 8.72836 -28.8519 0
      vertex 0 -36 0
      vertex 8.72836 -19.148 0
    endloop
  endfacet
  facet normal 0 0 -1
    outer loop
      vertex 31.2716 -16.8519 0
      vertex 31.5 -6 0
      vertex 31.5 -18 0
    endloop
  endfacet
  facet normal 0 0 -1
    outer loop
      vertex 31.2716 -16.8519 0
      vertex 31.2716 -7.14805 0
      vertex 31.5 -6 0
    endloop
  endfacet
  facet normal 0 0 -1
    outer loop
      vertex 30.6213 -15.8787 0
      vertex 31.2716 -7.14805 0
      vertex 31.2716 -16.8519 0
    endloop
  endfacet
  facet normal 0 0 -1
    outer loop
      vertex 30.6213 -15.8787 0
      vertex 30.6213 -8.12132 0
      vertex 31.2716 -7.14805 0
    endloop
  endfacet
  facet normal 0 0 -1
    outer loop
      vertex 29.648 -15.2284 0
      vertex 30.6213 -8.12132 0
      vertex 30.6213 -15.8787 0
    endloop
  endfacet
  facet normal 0 0 -1
    outer loop
      vertex 29.648 -15.2284 0
      vertex 29.648 -8.77164 0
      vertex 30.6213 -8.12132 0
    endloop
  endfacet
  facet normal 0 0 -1
    outer loop
      vertex 28.5 -15 0
      vertex 29.648 -8.77164 0
      vertex 29.648 -15.2284 0
    endloop
  endfacet
  facet normal 0 0 -1
    outer loop
      vertex 28.5 -15 0
      vertex 28.5 -9 0
      vertex 29.648 -8.77164 0
    endloop
  endfacet
  facet normal 0 0 -1
    outer loop
      vertex 27.3519 -15.2284 0
      vertex 28.5 -9 0
      vertex 28.5 -15 0
    endloop
  endfacet
  facet normal 0 0 -1
    outer loop
      vertex 27.3519 -15.2284 0
      vertex 27.3519 -8.77164 0
      vertex 28.5 -9 0
    endloop
  endfacet
  facet normal 0 0 -1
    outer loop
      vertex 26.3787 -15.8787 0
      vertex 27.3519 -8.77164 0
      vertex 27.3519 -15.2284 0
    endloop
  endfacet
  facet normal 0 0 -1
    outer loop
      vertex 26.3787 -15.8787 0
      vertex 26.3787 -8.12132 0
      vertex 27.3519 -8.77164 0
    endloop
  endfacet
  facet normal 0 0 -1
    outer loop
      vertex 13.6213 -15.8787 0
      vertex 26.3787 -15.8787 0
      vertex 25.7284 -16.8519 0
    endloop
  endfacet
  facet normal 0 0 -1
    outer loop
      vertex 26.3787 -15.8787 0
      vertex 13.6213 -15.8787 0
      vertex 26.3787 -8.12132 0
    endloop
  endfacet
  facet normal 0 0 -1
    outer loop
      vertex 14.2716 -16.8519 0
      vertex 25.7284 -16.8519 0
      vertex 25.5 -18 0
    endloop
  endfacet
  facet normal 0 0 -1
    outer loop
      vertex 13.6213 -15.8787 0
      vertex 25.7284 -16.8519 0
      vertex 14.2716 -16.8519 0
    endloop
  endfacet
  facet normal 0 0 -1
    outer loop
      vertex 40 40.8 0
      vertex 32.4021 19.405 0
      vertex 32.6 20.4 0
    endloop
  endfacet
  facet normal 0 0 -1
    outer loop
      vertex 30.6213 -20.1213 0
      vertex 33.5 -27 0
      vertex 32.352 -27.2284 0
    endloop
  endfacet
  facet normal 0 0 -1
    outer loop
      vertex 34.648 -27.2284 0
      vertex 31.5 -6 0
      vertex 32.4021 19.405 0
    endloop
  endfacet
  facet normal 0 0 -1
    outer loop
      vertex 34.648 -27.2284 0
      vertex 31.5 -18 0
      vertex 31.5 -6 0
    endloop
  endfacet
  facet normal 0 0 -1
    outer loop
      vertex 29.648 -20.7716 0
      vertex 32.352 -27.2284 0
      vertex 31.3787 -27.8787 0
    endloop
  endfacet
  facet normal 0 0 -1
    outer loop
      vertex 34.648 -27.2284 0
      vertex 31.2716 -19.148 0
      vertex 31.5 -18 0
    endloop
  endfacet
  facet normal 0 0 -1
    outer loop
      vertex 28.5 -21 0
      vertex 31.3787 -27.8787 0
      vertex 30.7284 -28.8519 0
    endloop
  endfacet
  facet normal 0 0 -1
    outer loop
      vertex 33.5 -27 0
      vertex 30.6213 -20.1213 0
      vertex 31.2716 -19.148 0
    endloop
  endfacet
  facet normal 0 0 -1
    outer loop
      vertex 14.5 -30 0
      vertex 30.7284 -28.8519 0
      vertex 30.5 -30 0
    endloop
  endfacet
  facet normal 0 0 -1
    outer loop
      vertex 32.352 -27.2284 0
      vertex 29.648 -20.7716 0
      vertex 30.6213 -20.1213 0
    endloop
  endfacet
  facet normal 0 0 -1
    outer loop
      vertex 36.2716 -28.8519 0
      vertex 40 -36 0
      vertex 36.5 -30 0
    endloop
  endfacet
  facet normal 0 0 -1
    outer loop
      vertex 40 -36 0
      vertex 36.2716 -31.148 0
      vertex 36.5 -30 0
    endloop
  endfacet
  facet normal 0 0 -1
    outer loop
      vertex 40 -36 0
      vertex 35.6213 -32.1213 0
      vertex 36.2716 -31.148 0
    endloop
  endfacet
  facet normal 0 0 -1
    outer loop
      vertex 40 -36 0
      vertex 34.648 -32.7716 0
      vertex 35.6213 -32.1213 0
    endloop
  endfacet
  facet normal 0 0 -1
    outer loop
      vertex 40 -36 0
      vertex 33.5 -33 0
      vertex 34.648 -32.7716 0
    endloop
  endfacet
  facet normal 0 0 -1
    outer loop
      vertex 40 -36 0
      vertex 32.352 -32.7716 0
      vertex 33.5 -33 0
    endloop
  endfacet
  facet normal 0 0 -1
    outer loop
      vertex 31.3787 -27.8787 0
      vertex 28.5 -21 0
      vertex 29.648 -20.7716 0
    endloop
  endfacet
  facet normal 0 0 -1
    outer loop
      vertex 14.5 -30 0
      vertex 30.5 -30 0
      vertex 30.7284 -31.148 0
    endloop
  endfacet
  facet normal 0 0 -1
    outer loop
      vertex 30.7284 -28.8519 0
      vertex 27.3519 -20.7716 0
      vertex 28.5 -21 0
    endloop
  endfacet
  facet normal 0 0 -1
    outer loop
      vertex 14.2716 -28.8519 0
      vertex 30.7284 -28.8519 0
      vertex 14.5 -30 0
    endloop
  endfacet
  facet normal 0 0 -1
    outer loop
      vertex 30.7284 -28.8519 0
      vertex 14.2716 -28.8519 0
      vertex 27.3519 -20.7716 0
    endloop
  endfacet
  facet normal 0 0 -1
    outer loop
      vertex 25.7284 -19.148 0
      vertex 14.5 -18 0
      vertex 25.5 -18 0
    endloop
  endfacet
  facet normal 0 0 -1
    outer loop
      vertex 13.6213 -27.8787 0
      vertex 26.3787 -20.1213 0
      vertex 14.2716 -28.8519 0
    endloop
  endfacet
  facet normal -0 0 -1
    outer loop
      vertex 27.3519 -20.7716 0
      vertex 14.2716 -28.8519 0
      vertex 26.3787 -20.1213 0
    endloop
  endfacet
  facet normal 0 0 -1
    outer loop
      vertex 14.2716 -31.148 0
      vertex 30.7284 -31.148 0
      vertex 31.3787 -32.1213 0
    endloop
  endfacet
  facet normal 0 0 -1
    outer loop
      vertex 13.6213 -32.1213 0
      vertex 31.3787 -32.1213 0
      vertex 32.352 -32.7716 0
    endloop
  endfacet
  facet normal 0 0 -1
    outer loop
      vertex 12.648 -32.7716 0
      vertex 32.352 -32.7716 0
      vertex 40 -36 0
    endloop
  endfacet
  facet normal 0 0 -1
    outer loop
      vertex 30.7284 -31.148 0
      vertex 14.2716 -31.148 0
      vertex 14.5 -30 0
    endloop
  endfacet
  facet normal 0 0 -1
    outer loop
      vertex 31.3787 -32.1213 0
      vertex 13.6213 -32.1213 0
      vertex 14.2716 -31.148 0
    endloop
  endfacet
  facet normal 0 0 -1
    outer loop
      vertex 32.352 -32.7716 0
      vertex 12.648 -32.7716 0
      vertex 13.6213 -32.1213 0
    endloop
  endfacet
  facet normal 0 0 -1
    outer loop
      vertex 40 -36 0
      vertex 11.5 -33 0
      vertex 12.648 -32.7716 0
    endloop
  endfacet
  facet normal -0 0 -1
    outer loop
      vertex 8.72836 -19.148 0
      vertex 0 -36 0
      vertex 8.5 -18 0
    endloop
  endfacet
  facet normal -0 0 -1
    outer loop
      vertex 8.72836 -16.8519 0
      vertex 0 -36 0
      vertex 7.59791 19.405 0
    endloop
  endfacet
  facet normal 0 0 -1
    outer loop
      vertex 8.72836 -16.8519 0
      vertex 7.59791 19.405 0
      vertex 8.16152 18.5615 0
    endloop
  endfacet
  facet normal 0 0 -1
    outer loop
      vertex 0 40.8 0
      vertex 7.59791 19.405 0
      vertex 0 -36 0
    endloop
  endfacet
  facet normal -0 0 -1
    outer loop
      vertex 8.72836 -31.148 0
      vertex 0 -36 0
      vertex 8.5 -30 0
    endloop
  endfacet
  facet normal -0 0 -1
    outer loop
      vertex 9.37868 -32.1213 0
      vertex 0 -36 0
      vertex 8.72836 -31.148 0
    endloop
  endfacet
  facet normal -0 0 -1
    outer loop
      vertex 10.3519 -32.7716 0
      vertex 0 -36 0
      vertex 9.37868 -32.1213 0
    endloop
  endfacet
  facet normal -0 0 -1
    outer loop
      vertex 11.5 -33 0
      vertex 0 -36 0
      vertex 10.3519 -32.7716 0
    endloop
  endfacet
  facet normal 0 0 -1
    outer loop
      vertex 0 -36 0
      vertex 11.5 -33 0
      vertex 40 -36 0
    endloop
  endfacet
  facet normal 0 0 -1
    outer loop
      vertex 32.4021 19.405 0
      vertex 40 -36 0
      vertex 36.2716 -28.8519 0
    endloop
  endfacet
  facet normal 0 0 -1
    outer loop
      vertex 32.4021 19.405 0
      vertex 36.2716 -28.8519 0
      vertex 35.6213 -27.8787 0
    endloop
  endfacet
  facet normal 0 0 -1
    outer loop
      vertex 32.4021 19.405 0
      vertex 35.6213 -27.8787 0
      vertex 34.648 -27.2284 0
    endloop
  endfacet
  facet normal 0 0 -1
    outer loop
      vertex 31.2716 -19.148 0
      vertex 34.648 -27.2284 0
      vertex 33.5 -27 0
    endloop
  endfacet
  facet normal 0 0 -1
    outer loop
      vertex 32.4021 19.405 0
      vertex 40 40.8 0
      vertex 40 -36 0
    endloop
  endfacet
  facet normal 0 0 -1
    outer loop
      vertex 32.4021 21.395 0
      vertex 40 40.8 0
      vertex 32.6 20.4 0
    endloop
  endfacet
  facet normal 0 0 -1
    outer loop
      vertex 31.8385 22.2385 0
      vertex 40 40.8 0
      vertex 32.4021 21.395 0
    endloop
  endfacet
  facet normal 0 0 -1
    outer loop
      vertex 30.995 22.8021 0
      vertex 40 40.8 0
      vertex 31.8385 22.2385 0
    endloop
  endfacet
  facet normal 0 0 -1
    outer loop
      vertex 30 23 0
      vertex 40 40.8 0
      vertex 30.995 22.8021 0
    endloop
  endfacet
  facet normal 0 0 -1
    outer loop
      vertex 29.005 22.8021 0
      vertex 40 40.8 0
      vertex 30 23 0
    endloop
  endfacet
  facet normal 0 0 -1
    outer loop
      vertex 10.995 22.8021 0
      vertex 29.005 22.8021 0
      vertex 28.1615 22.2385 0
    endloop
  endfacet
  facet normal 0 0 -1
    outer loop
      vertex 11.8385 22.2385 0
      vertex 28.1615 22.2385 0
      vertex 27.5979 21.395 0
    endloop
  endfacet
  facet normal 0 0 -1
    outer loop
      vertex 12.4021 19.405 0
      vertex 27.5979 19.405 0
      vertex 28.1615 18.5615 0
    endloop
  endfacet
  facet normal 0 0 -1
    outer loop
      vertex 12.4021 19.405 0
      vertex 26.3787 -3.87868 0
      vertex 25.7284 -4.85195 0
    endloop
  endfacet
  facet normal 0 0 -1
    outer loop
      vertex 11.5 -15 0
      vertex 25.5 -6 0
      vertex 12.648 -15.2284 0
    endloop
  endfacet
  facet normal 0 0 -1
    outer loop
      vertex 14.2716 -16.8519 0
      vertex 25.5 -18 0
      vertex 14.5 -18 0
    endloop
  endfacet
  facet normal -0 0 -1
    outer loop
      vertex 26.3787 -8.12132 0
      vertex 13.6213 -15.8787 0
      vertex 25.7284 -7.14805 0
    endloop
  endfacet
  facet normal 0 0 -1
    outer loop
      vertex 12.648 -15.2284 0
      vertex 25.7284 -7.14805 0
      vertex 13.6213 -15.8787 0
    endloop
  endfacet
  facet normal -0 0 -1
    outer loop
      vertex 25.7284 -7.14805 0
      vertex 12.648 -15.2284 0
      vertex 25.5 -6 0
    endloop
  endfacet
  facet normal -0 0 -1
    outer loop
      vertex 25.5 -6 0
      vertex 11.5 -15 0
      vertex 25.7284 -4.85195 0
    endloop
  endfacet
  facet normal 0 0 -1
    outer loop
      vertex 27.5979 19.405 0
      vertex 12.6 20.4 0
      vertex 27.4 20.4 0
    endloop
  endfacet
  facet normal 0 0 -1
    outer loop
      vertex 27.4 20.4 0
      vertex 12.6 20.4 0
      vertex 27.5979 21.395 0
    endloop
  endfacet
  facet normal 0 0 -1
    outer loop
      vertex 12.4021 21.395 0
      vertex 27.5979 21.395 0
      vertex 12.6 20.4 0
    endloop
  endfacet
  facet normal 0 0 -1
    outer loop
      vertex 11.8385 22.2385 0
      vertex 27.5979 21.395 0
      vertex 12.4021 21.395 0
    endloop
  endfacet
  facet normal 0 0 -1
    outer loop
      vertex 28.1615 22.2385 0
      vertex 11.8385 22.2385 0
      vertex 10.995 22.8021 0
    endloop
  endfacet
  facet normal 0 0 -1
    outer loop
      vertex 29.005 22.8021 0
      vertex 10.995 22.8021 0
      vertex 40 40.8 0
    endloop
  endfacet
  facet normal 0 0 -1
    outer loop
      vertex 0 40.8 0
      vertex 10.995 22.8021 0
      vertex 10 23 0
    endloop
  endfacet
  facet normal 0 0 -1
    outer loop
      vertex 0 40.8 0
      vertex 10 23 0
      vertex 9.00502 22.8021 0
    endloop
  endfacet
  facet normal 0 0 -1
    outer loop
      vertex 10.995 22.8021 0
      vertex 0 40.8 0
      vertex 40 40.8 0
    endloop
  endfacet
  facet normal 0 0 -1
    outer loop
      vertex 8.16152 22.2385 0
      vertex 0 40.8 0
      vertex 9.00502 22.8021 0
    endloop
  endfacet
  facet normal 0 0 -1
    outer loop
      vertex 7.59791 21.395 0
      vertex 0 40.8 0
      vertex 8.16152 22.2385 0
    endloop
  endfacet
  facet normal 0 0 -1
    outer loop
      vertex 7.4 20.4 0
      vertex 0 40.8 0
      vertex 7.59791 21.395 0
    endloop
  endfacet
  facet normal 0 0 -1
    outer loop
      vertex 7.59791 19.405 0
      vertex 0 40.8 0
      vertex 7.4 20.4 0
    endloop
  endfacet
  facet normal 0 0 -1
    outer loop
      vertex 31.2716 -4.85195 0
      vertex 32.4021 19.405 0
      vertex 31.5 -6 0
    endloop
  endfacet
  facet normal 0 0 -1
    outer loop
      vertex 32.4021 19.405 0
      vertex 31.2716 -4.85195 0
      vertex 31.8385 18.5615 0
    endloop
  endfacet
  facet normal 0 0 -1
    outer loop
      vertex 30.6213 -3.87868 0
      vertex 31.8385 18.5615 0
      vertex 31.2716 -4.85195 0
    endloop
  endfacet
  facet normal 0 0 -1
    outer loop
      vertex 31.8385 18.5615 0
      vertex 30.6213 -3.87868 0
      vertex 30.995 17.9979 0
    endloop
  endfacet
  facet normal 0 0 -1
    outer loop
      vertex 29.648 -3.22836 0
      vertex 30.995 17.9979 0
      vertex 30.6213 -3.87868 0
    endloop
  endfacet
  facet normal 0 0 -1
    outer loop
      vertex 30.995 17.9979 0
      vertex 29.648 -3.22836 0
      vertex 30 17.8 0
    endloop
  endfacet
  facet normal 0 0 -1
    outer loop
      vertex 28.5 -3 0
      vertex 30 17.8 0
      vertex 29.648 -3.22836 0
    endloop
  endfacet
  facet normal -0 0 -1
    outer loop
      vertex 30 17.8 0
      vertex 28.5 -3 0
      vertex 29.005 17.9979 0
    endloop
  endfacet
  facet normal 0 0 -1
    outer loop
      vertex 27.3519 -3.22836 0
      vertex 29.005 17.9979 0
      vertex 28.5 -3 0
    endloop
  endfacet
  facet normal -0 0 -1
    outer loop
      vertex 29.005 17.9979 0
      vertex 27.3519 -3.22836 0
      vertex 28.1615 18.5615 0
    endloop
  endfacet
  facet normal 0 0 -1
    outer loop
      vertex 12.4021 19.405 0
      vertex 27.3519 -3.22836 0
      vertex 26.3787 -3.87868 0
    endloop
  endfacet
  facet normal 0 0 -1
    outer loop
      vertex 27.3519 -3.22836 0
      vertex 12.4021 19.405 0
      vertex 28.1615 18.5615 0
    endloop
  endfacet
  facet normal 0 1 -0
    outer loop
      vertex 40 40.8 0
      vertex 0 40.8 10
      vertex 40 40.8 10
    endloop
  endfacet
  facet normal 0 1 0
    outer loop
      vertex 0 40.8 10
      vertex 40 40.8 0
      vertex 0 40.8 0
    endloop
  endfacet
  facet normal -0.980789 -0.195073 0
    outer loop
      vertex 12.6 20.4 0
      vertex 12.4021 21.395 10
      vertex 12.4021 21.395 0
    endloop
  endfacet
  facet normal -0.980789 -0.195073 0
    outer loop
      vertex 12.4021 21.395 10
      vertex 12.6 20.4 0
      vertex 12.6 20.4 10
    endloop
  endfacet
  facet normal 0.980787 -0.195083 0
    outer loop
      vertex 7.4 20.4 10
      vertex 7.59791 21.395 0
      vertex 7.59791 21.395 10
    endloop
  endfacet
  facet normal 0.980787 -0.195083 0
    outer loop
      vertex 7.59791 21.395 0
      vertex 7.4 20.4 10
      vertex 7.4 20.4 0
    endloop
  endfacet
  facet normal -0.195073 -0.980789 0
    outer loop
      vertex 10 23 0
      vertex 10.995 22.8021 10
      vertex 10 23 10
    endloop
  endfacet
  facet normal -0.195073 -0.980789 -0
    outer loop
      vertex 10.995 22.8021 10
      vertex 10 23 0
      vertex 10.995 22.8021 0
    endloop
  endfacet
  facet normal -0.831474 -0.555564 0
    outer loop
      vertex 12.4021 21.395 0
      vertex 11.8385 22.2385 10
      vertex 11.8385 22.2385 0
    endloop
  endfacet
  facet normal -0.831474 -0.555564 0
    outer loop
      vertex 11.8385 22.2385 10
      vertex 12.4021 21.395 0
      vertex 12.4021 21.395 10
    endloop
  endfacet
  facet normal -0.195073 0.980789 0
    outer loop
      vertex 10.995 17.9979 0
      vertex 10 17.8 10
      vertex 10.995 17.9979 10
    endloop
  endfacet
  facet normal -0.195073 0.980789 0
    outer loop
      vertex 10 17.8 10
      vertex 10.995 17.9979 0
      vertex 10 17.8 0
    endloop
  endfacet
  facet normal -0.555564 -0.831474 0
    outer loop
      vertex 10.995 22.8021 0
      vertex 11.8385 22.2385 10
      vertex 10.995 22.8021 10
    endloop
  endfacet
  facet normal -0.555564 -0.831474 -0
    outer loop
      vertex 11.8385 22.2385 10
      vertex 10.995 22.8021 0
      vertex 11.8385 22.2385 0
    endloop
  endfacet
  facet normal 0.555564 -0.831474 0
    outer loop
      vertex 8.16152 22.2385 0
      vertex 9.00502 22.8021 10
      vertex 8.16152 22.2385 10
    endloop
  endfacet
  facet normal 0.555564 -0.831474 0
    outer loop
      vertex 9.00502 22.8021 10
      vertex 8.16152 22.2385 0
      vertex 9.00502 22.8021 0
    endloop
  endfacet
  facet normal 0.831469 -0.555571 0
    outer loop
      vertex 7.59791 21.395 10
      vertex 8.16152 22.2385 0
      vertex 8.16152 22.2385 10
    endloop
  endfacet
  facet normal 0.831469 -0.555571 0
    outer loop
      vertex 8.16152 22.2385 0
      vertex 7.59791 21.395 10
      vertex 7.59791 21.395 0
    endloop
  endfacet
  facet normal 0.195077 -0.980788 0
    outer loop
      vertex 9.00502 22.8021 0
      vertex 10 23 10
      vertex 9.00502 22.8021 10
    endloop
  endfacet
  facet normal 0.195077 -0.980788 0
    outer loop
      vertex 10 23 10
      vertex 9.00502 22.8021 0
      vertex 10 23 0
    endloop
  endfacet
  facet normal -0.831474 0.555564 0
    outer loop
      vertex 11.8385 18.5615 0
      vertex 12.4021 19.405 10
      vertex 12.4021 19.405 0
    endloop
  endfacet
  facet normal -0.831474 0.555564 0
    outer loop
      vertex 12.4021 19.405 10
      vertex 11.8385 18.5615 0
      vertex 11.8385 18.5615 10
    endloop
  endfacet
  facet normal 0.555564 0.831474 -0
    outer loop
      vertex 9.00502 17.9979 0
      vertex 8.16152 18.5615 10
      vertex 9.00502 17.9979 10
    endloop
  endfacet
  facet normal 0.555564 0.831474 0
    outer loop
      vertex 8.16152 18.5615 10
      vertex 9.00502 17.9979 0
      vertex 8.16152 18.5615 0
    endloop
  endfacet
  facet normal 0.980787 0.195083 0
    outer loop
      vertex 7.59791 19.405 10
      vertex 7.4 20.4 0
      vertex 7.4 20.4 10
    endloop
  endfacet
  facet normal 0.980787 0.195083 0
    outer loop
      vertex 7.4 20.4 0
      vertex 7.59791 19.405 10
      vertex 7.59791 19.405 0
    endloop
  endfacet
  facet normal -0.980789 0.195073 0
    outer loop
      vertex 12.4021 19.405 0
      vertex 12.6 20.4 10
      vertex 12.6 20.4 0
    endloop
  endfacet
  facet normal -0.980789 0.195073 0
    outer loop
      vertex 12.6 20.4 10
      vertex 12.4021 19.405 0
      vertex 12.4021 19.405 10
    endloop
  endfacet
  facet normal -0.555564 0.831474 0
    outer loop
      vertex 11.8385 18.5615 0
      vertex 10.995 17.9979 10
      vertex 11.8385 18.5615 10
    endloop
  endfacet
  facet normal -0.555564 0.831474 0
    outer loop
      vertex 10.995 17.9979 10
      vertex 11.8385 18.5615 0
      vertex 10.995 17.9979 0
    endloop
  endfacet
  facet normal 0.195077 0.980788 -0
    outer loop
      vertex 10 17.8 0
      vertex 9.00502 17.9979 10
      vertex 10 17.8 10
    endloop
  endfacet
  facet normal 0.195077 0.980788 0
    outer loop
      vertex 9.00502 17.9979 10
      vertex 10 17.8 0
      vertex 9.00502 17.9979 0
    endloop
  endfacet
  facet normal 0.831469 0.555571 0
    outer loop
      vertex 8.16152 18.5615 10
      vertex 7.59791 19.405 0
      vertex 7.59791 19.405 10
    endloop
  endfacet
  facet normal 0.831469 0.555571 0
    outer loop
      vertex 7.59791 19.405 0
      vertex 8.16152 18.5615 10
      vertex 8.16152 18.5615 0
    endloop
  endfacet
  facet normal 0.980789 -0.195073 0
    outer loop
      vertex 27.4 20.4 10
      vertex 27.5979 21.395 0
      vertex 27.5979 21.395 10
    endloop
  endfacet
  facet normal 0.980789 -0.195073 0
    outer loop
      vertex 27.5979 21.395 0
      vertex 27.4 20.4 10
      vertex 27.4 20.4 0
    endloop
  endfacet
  facet normal -0.195073 -0.980789 0
    outer loop
      vertex 30 23 0
      vertex 30.995 22.8021 10
      vertex 30 23 10
    endloop
  endfacet
  facet normal -0.195073 -0.980789 -0
    outer loop
      vertex 30.995 22.8021 10
      vertex 30 23 0
      vertex 30.995 22.8021 0
    endloop
  endfacet
  facet normal -0.831474 -0.555564 0
    outer loop
      vertex 32.4021 21.395 0
      vertex 31.8385 22.2385 10
      vertex 31.8385 22.2385 0
    endloop
  endfacet
  facet normal -0.831474 -0.555564 0
    outer loop
      vertex 31.8385 22.2385 10
      vertex 32.4021 21.395 0
      vertex 32.4021 21.395 10
    endloop
  endfacet
  facet normal -0.195073 0.980789 0
    outer loop
      vertex 30.995 17.9979 0
      vertex 30 17.8 10
      vertex 30.995 17.9979 10
    endloop
  endfacet
  facet normal -0.195073 0.980789 0
    outer loop
      vertex 30 17.8 10
      vertex 30.995 17.9979 0
      vertex 30 17.8 0
    endloop
  endfacet
  facet normal 0.195073 0.980789 -0
    outer loop
      vertex 30 17.8 0
      vertex 29.005 17.9979 10
      vertex 30 17.8 10
    endloop
  endfacet
  facet normal 0.195073 0.980789 0
    outer loop
      vertex 29.005 17.9979 10
      vertex 30 17.8 0
      vertex 29.005 17.9979 0
    endloop
  endfacet
  facet normal 0.195073 -0.980789 0
    outer loop
      vertex 29.005 22.8021 0
      vertex 30 23 10
      vertex 29.005 22.8021 10
    endloop
  endfacet
  facet normal 0.195073 -0.980789 0
    outer loop
      vertex 30 23 10
      vertex 29.005 22.8021 0
      vertex 30 23 0
    endloop
  endfacet
  facet normal 0.555564 -0.831474 0
    outer loop
      vertex 28.1615 22.2385 0
      vertex 29.005 22.8021 10
      vertex 28.1615 22.2385 10
    endloop
  endfacet
  facet normal 0.555564 -0.831474 0
    outer loop
      vertex 29.005 22.8021 10
      vertex 28.1615 22.2385 0
      vertex 29.005 22.8021 0
    endloop
  endfacet
  facet normal -0.980789 0.195073 0
    outer loop
      vertex 32.4021 19.405 0
      vertex 32.6 20.4 10
      vertex 32.6 20.4 0
    endloop
  endfacet
  facet normal -0.980789 0.195073 0
    outer loop
      vertex 32.6 20.4 10
      vertex 32.4021 19.405 0
      vertex 32.4021 19.405 10
    endloop
  endfacet
  facet normal 0.980789 0.195073 0
    outer loop
      vertex 27.5979 19.405 10
      vertex 27.4 20.4 0
      vertex 27.4 20.4 10
    endloop
  endfacet
  facet normal 0.980789 0.195073 0
    outer loop
      vertex 27.4 20.4 0
      vertex 27.5979 19.405 10
      vertex 27.5979 19.405 0
    endloop
  endfacet
  facet normal 0.555564 0.831474 -0
    outer loop
      vertex 29.005 17.9979 0
      vertex 28.1615 18.5615 10
      vertex 29.005 17.9979 10
    endloop
  endfacet
  facet normal 0.555564 0.831474 0
    outer loop
      vertex 28.1615 18.5615 10
      vertex 29.005 17.9979 0
      vertex 28.1615 18.5615 0
    endloop
  endfacet
  facet normal -0.555564 -0.831474 0
    outer loop
      vertex 30.995 22.8021 0
      vertex 31.8385 22.2385 10
      vertex 30.995 22.8021 10
    endloop
  endfacet
  facet normal -0.555564 -0.831474 -0
    outer loop
      vertex 31.8385 22.2385 10
      vertex 30.995 22.8021 0
      vertex 31.8385 22.2385 0
    endloop
  endfacet
  facet normal 0.831474 -0.555564 0
    outer loop
      vertex 27.5979 21.395 10
      vertex 28.1615 22.2385 0
      vertex 28.1615 22.2385 10
    endloop
  endfacet
  facet normal 0.831474 -0.555564 0
    outer loop
      vertex 28.1615 22.2385 0
      vertex 27.5979 21.395 10
      vertex 27.5979 21.395 0
    endloop
  endfacet
  facet normal -0.980789 -0.195073 0
    outer loop
      vertex 32.6 20.4 0
      vertex 32.4021 21.395 10
      vertex 32.4021 21.395 0
    endloop
  endfacet
  facet normal -0.980789 -0.195073 0
    outer loop
      vertex 32.4021 21.395 10
      vertex 32.6 20.4 0
      vertex 32.6 20.4 10
    endloop
  endfacet
  facet normal -0.555564 0.831474 0
    outer loop
      vertex 31.8385 18.5615 0
      vertex 30.995 17.9979 10
      vertex 31.8385 18.5615 10
    endloop
  endfacet
  facet normal -0.555564 0.831474 0
    outer loop
      vertex 30.995 17.9979 10
      vertex 31.8385 18.5615 0
      vertex 30.995 17.9979 0
    endloop
  endfacet
  facet normal 0.831474 0.555564 0
    outer loop
      vertex 28.1615 18.5615 10
      vertex 27.5979 19.405 0
      vertex 27.5979 19.405 10
    endloop
  endfacet
  facet normal 0.831474 0.555564 0
    outer loop
      vertex 27.5979 19.405 0
      vertex 28.1615 18.5615 10
      vertex 28.1615 18.5615 0
    endloop
  endfacet
  facet normal -0.831474 0.555564 0
    outer loop
      vertex 31.8385 18.5615 0
      vertex 32.4021 19.405 10
      vertex 32.4021 19.405 0
    endloop
  endfacet
  facet normal -0.831474 0.555564 0
    outer loop
      vertex 32.4021 19.405 10
      vertex 31.8385 18.5615 0
      vertex 31.8385 18.5615 10
    endloop
  endfacet
  facet normal 0 -1 0
    outer loop
      vertex 0 -36 0
      vertex 40 -36 10
      vertex 0 -36 10
    endloop
  endfacet
  facet normal 0 -1 -0
    outer loop
      vertex 40 -36 10
      vertex 0 -36 0
      vertex 40 -36 0
    endloop
  endfacet
  facet normal -0.980779 -0.195122 0
    outer loop
      vertex 31.5 -6 0
      vertex 31.2716 -4.85195 10
      vertex 31.2716 -4.85195 0
    endloop
  endfacet
  facet normal -0.980779 -0.195122 0
    outer loop
      vertex 31.2716 -4.85195 10
      vertex 31.5 -6 0
      vertex 31.5 -6 10
    endloop
  endfacet
  facet normal 0.195081 -0.980787 0
    outer loop
      vertex 27.3519 -3.22836 0
      vertex 28.5 -3 10
      vertex 27.3519 -3.22836 10
    endloop
  endfacet
  facet normal 0.195081 -0.980787 0
    outer loop
      vertex 28.5 -3 10
      vertex 27.3519 -3.22836 0
      vertex 28.5 -3 0
    endloop
  endfacet
  facet normal 0.980779 0.195122 0
    outer loop
      vertex 25.7284 -7.14805 10
      vertex 25.5 -6 0
      vertex 25.5 -6 10
    endloop
  endfacet
  facet normal 0.980779 0.195122 0
    outer loop
      vertex 25.5 -6 0
      vertex 25.7284 -7.14805 10
      vertex 25.7284 -7.14805 0
    endloop
  endfacet
  facet normal -0.555559 -0.831477 0
    outer loop
      vertex 29.648 -3.22836 0
      vertex 30.6213 -3.87868 10
      vertex 29.648 -3.22836 10
    endloop
  endfacet
  facet normal -0.555559 -0.831477 -0
    outer loop
      vertex 30.6213 -3.87868 10
      vertex 29.648 -3.22836 0
      vertex 30.6213 -3.87868 0
    endloop
  endfacet
  facet normal -0.831477 -0.555559 0
    outer loop
      vertex 31.2716 -4.85195 0
      vertex 30.6213 -3.87868 10
      vertex 30.6213 -3.87868 0
    endloop
  endfacet
  facet normal -0.831477 -0.555559 0
    outer loop
      vertex 30.6213 -3.87868 10
      vertex 31.2716 -4.85195 0
      vertex 31.2716 -4.85195 10
    endloop
  endfacet
  facet normal 0.555599 -0.83145 0
    outer loop
      vertex 26.3787 -3.87868 0
      vertex 27.3519 -3.22836 10
      vertex 26.3787 -3.87868 10
    endloop
  endfacet
  facet normal 0.555599 -0.83145 0
    outer loop
      vertex 27.3519 -3.22836 10
      vertex 26.3787 -3.87868 0
      vertex 27.3519 -3.22836 0
    endloop
  endfacet
  facet normal 0.980779 -0.195122 0
    outer loop
      vertex 25.5 -6 10
      vertex 25.7284 -4.85195 0
      vertex 25.7284 -4.85195 10
    endloop
  endfacet
  facet normal 0.980779 -0.195122 0
    outer loop
      vertex 25.7284 -4.85195 0
      vertex 25.5 -6 10
      vertex 25.5 -6 0
    endloop
  endfacet
  facet normal 0.831477 -0.555559 0
    outer loop
      vertex 25.7284 -4.85195 10
      vertex 26.3787 -3.87868 0
      vertex 26.3787 -3.87868 10
    endloop
  endfacet
  facet normal 0.831477 -0.555559 0
    outer loop
      vertex 26.3787 -3.87868 0
      vertex 25.7284 -4.85195 10
      vertex 25.7284 -4.85195 0
    endloop
  endfacet
  facet normal -0.980779 0.195122 0
    outer loop
      vertex 31.2716 -7.14805 0
      vertex 31.5 -6 10
      vertex 31.5 -6 0
    endloop
  endfacet
  facet normal -0.980779 0.195122 0
    outer loop
      vertex 31.5 -6 10
      vertex 31.2716 -7.14805 0
      vertex 31.2716 -7.14805 10
    endloop
  endfacet
  facet normal 0.831477 0.555559 0
    outer loop
      vertex 26.3787 -8.12132 10
      vertex 25.7284 -7.14805 0
      vertex 25.7284 -7.14805 10
    endloop
  endfacet
  facet normal 0.831477 0.555559 0
    outer loop
      vertex 25.7284 -7.14805 0
      vertex 26.3787 -8.12132 10
      vertex 26.3787 -8.12132 0
    endloop
  endfacet
  facet normal -0.195097 0.980784 0
    outer loop
      vertex 29.648 -8.77164 0
      vertex 28.5 -9 10
      vertex 29.648 -8.77164 10
    endloop
  endfacet
  facet normal -0.195097 0.980784 0
    outer loop
      vertex 28.5 -9 10
      vertex 29.648 -8.77164 0
      vertex 28.5 -9 0
    endloop
  endfacet
  facet normal 0.555599 0.83145 -0
    outer loop
      vertex 27.3519 -8.77164 0
      vertex 26.3787 -8.12132 10
      vertex 27.3519 -8.77164 10
    endloop
  endfacet
  facet normal 0.555599 0.83145 0
    outer loop
      vertex 26.3787 -8.12132 10
      vertex 27.3519 -8.77164 0
      vertex 26.3787 -8.12132 0
    endloop
  endfacet
  facet normal -0.195097 -0.980784 0
    outer loop
      vertex 28.5 -3 0
      vertex 29.648 -3.22836 10
      vertex 28.5 -3 10
    endloop
  endfacet
  facet normal -0.195097 -0.980784 -0
    outer loop
      vertex 29.648 -3.22836 10
      vertex 28.5 -3 0
      vertex 29.648 -3.22836 0
    endloop
  endfacet
  facet normal 0.195081 0.980787 -0
    outer loop
      vertex 28.5 -9 0
      vertex 27.3519 -8.77164 10
      vertex 28.5 -9 10
    endloop
  endfacet
  facet normal 0.195081 0.980787 0
    outer loop
      vertex 27.3519 -8.77164 10
      vertex 28.5 -9 0
      vertex 27.3519 -8.77164 0
    endloop
  endfacet
  facet normal -0.555559 0.831477 0
    outer loop
      vertex 30.6213 -8.12132 0
      vertex 29.648 -8.77164 10
      vertex 30.6213 -8.12132 10
    endloop
  endfacet
  facet normal -0.555559 0.831477 0
    outer loop
      vertex 29.648 -8.77164 10
      vertex 30.6213 -8.12132 0
      vertex 29.648 -8.77164 0
    endloop
  endfacet
  facet normal -0.831477 0.555559 0
    outer loop
      vertex 30.6213 -8.12132 0
      vertex 31.2716 -7.14805 10
      vertex 31.2716 -7.14805 0
    endloop
  endfacet
  facet normal -0.831477 0.555559 0
    outer loop
      vertex 31.2716 -7.14805 10
      vertex 30.6213 -8.12132 0
      vertex 30.6213 -8.12132 10
    endloop
  endfacet
  facet normal -0.980781 -0.195114 0
    outer loop
      vertex 14.5 -30 0
      vertex 14.2716 -28.8519 10
      vertex 14.2716 -28.8519 0
    endloop
  endfacet
  facet normal -0.980781 -0.195114 0
    outer loop
      vertex 14.2716 -28.8519 10
      vertex 14.5 -30 0
      vertex 14.5 -30 10
    endloop
  endfacet
  facet normal 0.195114 -0.980781 0
    outer loop
      vertex 10.3519 -27.2284 0
      vertex 11.5 -27 10
      vertex 10.3519 -27.2284 10
    endloop
  endfacet
  facet normal 0.195114 -0.980781 0
    outer loop
      vertex 11.5 -27 10
      vertex 10.3519 -27.2284 0
      vertex 11.5 -27 0
    endloop
  endfacet
  facet normal 0.980784 0.195097 0
    outer loop
      vertex 8.72836 -31.148 10
      vertex 8.5 -30 0
      vertex 8.5 -30 10
    endloop
  endfacet
  facet normal 0.980784 0.195097 0
    outer loop
      vertex 8.5 -30 0
      vertex 8.72836 -31.148 10
      vertex 8.72836 -31.148 0
    endloop
  endfacet
  facet normal -0.555548 -0.831485 0
    outer loop
      vertex 12.648 -27.2284 0
      vertex 13.6213 -27.8787 10
      vertex 12.648 -27.2284 10
    endloop
  endfacet
  facet normal -0.555548 -0.831485 -0
    outer loop
      vertex 13.6213 -27.8787 10
      vertex 12.648 -27.2284 0
      vertex 13.6213 -27.8787 0
    endloop
  endfacet
  facet normal -0.831458 -0.555587 0
    outer loop
      vertex 14.2716 -28.8519 0
      vertex 13.6213 -27.8787 10
      vertex 13.6213 -27.8787 0
    endloop
  endfacet
  facet normal -0.831458 -0.555587 0
    outer loop
      vertex 13.6213 -27.8787 10
      vertex 14.2716 -28.8519 0
      vertex 14.2716 -28.8519 10
    endloop
  endfacet
  facet normal 0.555579 -0.831464 0
    outer loop
      vertex 9.37868 -27.8787 0
      vertex 10.3519 -27.2284 10
      vertex 9.37868 -27.8787 10
    endloop
  endfacet
  facet normal 0.555579 -0.831464 0
    outer loop
      vertex 10.3519 -27.2284 10
      vertex 9.37868 -27.8787 0
      vertex 10.3519 -27.2284 0
    endloop
  endfacet
  facet normal 0.980787 -0.195081 0
    outer loop
      vertex 8.5 -30 10
      vertex 8.72836 -28.8519 0
      vertex 8.72836 -28.8519 10
    endloop
  endfacet
  facet normal 0.980787 -0.195081 0
    outer loop
      vertex 8.72836 -28.8519 0
      vertex 8.5 -30 10
      vertex 8.5 -30 0
    endloop
  endfacet
  facet normal 0.83145 -0.555599 0
    outer loop
      vertex 8.72836 -28.8519 10
      vertex 9.37868 -27.8787 0
      vertex 9.37868 -27.8787 10
    endloop
  endfacet
  facet normal 0.83145 -0.555599 0
    outer loop
      vertex 9.37868 -27.8787 0
      vertex 8.72836 -28.8519 10
      vertex 8.72836 -28.8519 0
    endloop
  endfacet
  facet normal -0.980777 0.19513 0
    outer loop
      vertex 14.2716 -31.148 0
      vertex 14.5 -30 10
      vertex 14.5 -30 0
    endloop
  endfacet
  facet normal -0.980777 0.19513 0
    outer loop
      vertex 14.5 -30 10
      vertex 14.2716 -31.148 0
      vertex 14.2716 -31.148 10
    endloop
  endfacet
  facet normal 0.831477 0.555559 0
    outer loop
      vertex 9.37868 -32.1213 10
      vertex 8.72836 -31.148 0
      vertex 8.72836 -31.148 10
    endloop
  endfacet
  facet normal 0.831477 0.555559 0
    outer loop
      vertex 8.72836 -31.148 0
      vertex 9.37868 -32.1213 10
      vertex 9.37868 -32.1213 0
    endloop
  endfacet
  facet normal -0.19513 0.980777 0
    outer loop
      vertex 12.648 -32.7716 0
      vertex 11.5 -33 10
      vertex 12.648 -32.7716 10
    endloop
  endfacet
  facet normal -0.19513 0.980777 0
    outer loop
      vertex 11.5 -33 10
      vertex 12.648 -32.7716 0
      vertex 11.5 -33 0
    endloop
  endfacet
  facet normal 0.555579 0.831464 -0
    outer loop
      vertex 10.3519 -32.7716 0
      vertex 9.37868 -32.1213 10
      vertex 10.3519 -32.7716 10
    endloop
  endfacet
  facet normal 0.555579 0.831464 0
    outer loop
      vertex 9.37868 -32.1213 10
      vertex 10.3519 -32.7716 0
      vertex 9.37868 -32.1213 0
    endloop
  endfacet
  facet normal -0.19513 -0.980777 0
    outer loop
      vertex 11.5 -27 0
      vertex 12.648 -27.2284 10
      vertex 11.5 -27 10
    endloop
  endfacet
  facet normal -0.19513 -0.980777 -0
    outer loop
      vertex 12.648 -27.2284 10
      vertex 11.5 -27 0
      vertex 12.648 -27.2284 0
    endloop
  endfacet
  facet normal 0.195114 0.980781 -0
    outer loop
      vertex 11.5 -33 0
      vertex 10.3519 -32.7716 10
      vertex 11.5 -33 10
    endloop
  endfacet
  facet normal 0.195114 0.980781 0
    outer loop
      vertex 10.3519 -32.7716 10
      vertex 11.5 -33 0
      vertex 10.3519 -32.7716 0
    endloop
  endfacet
  facet normal -0.555548 0.831485 0
    outer loop
      vertex 13.6213 -32.1213 0
      vertex 12.648 -32.7716 10
      vertex 13.6213 -32.1213 10
    endloop
  endfacet
  facet normal -0.555548 0.831485 0
    outer loop
      vertex 12.648 -32.7716 10
      vertex 13.6213 -32.1213 0
      vertex 12.648 -32.7716 0
    endloop
  endfacet
  facet normal -0.831485 0.555548 0
    outer loop
      vertex 13.6213 -32.1213 0
      vertex 14.2716 -31.148 10
      vertex 14.2716 -31.148 0
    endloop
  endfacet
  facet normal -0.831485 0.555548 0
    outer loop
      vertex 14.2716 -31.148 10
      vertex 13.6213 -32.1213 0
      vertex 13.6213 -32.1213 10
    endloop
  endfacet
  facet normal -0.980781 -0.195114 0
    outer loop
      vertex 36.5 -30 0
      vertex 36.2716 -28.8519 10
      vertex 36.2716 -28.8519 0
    endloop
  endfacet
  facet normal -0.980781 -0.195114 0
    outer loop
      vertex 36.2716 -28.8519 10
      vertex 36.5 -30 0
      vertex 36.5 -30 10
    endloop
  endfacet
  facet normal 0.19513 -0.980777 0
    outer loop
      vertex 32.352 -27.2284 0
      vertex 33.5 -27 10
      vertex 32.352 -27.2284 10
    endloop
  endfacet
  facet normal 0.19513 -0.980777 0
    outer loop
      vertex 33.5 -27 10
      vertex 32.352 -27.2284 0
      vertex 33.5 -27 0
    endloop
  endfacet
  facet normal 0.980777 0.19513 0
    outer loop
      vertex 30.7284 -31.148 10
      vertex 30.5 -30 0
      vertex 30.5 -30 10
    endloop
  endfacet
  facet normal 0.980777 0.19513 0
    outer loop
      vertex 30.5 -30 0
      vertex 30.7284 -31.148 10
      vertex 30.7284 -31.148 0
    endloop
  endfacet
  facet normal -0.555548 -0.831485 0
    outer loop
      vertex 34.648 -27.2284 0
      vertex 35.6213 -27.8787 10
      vertex 34.648 -27.2284 10
    endloop
  endfacet
  facet normal -0.555548 -0.831485 -0
    outer loop
      vertex 35.6213 -27.8787 10
      vertex 34.648 -27.2284 0
      vertex 35.6213 -27.8787 0
    endloop
  endfacet
  facet normal -0.831458 -0.555587 0
    outer loop
      vertex 36.2716 -28.8519 0
      vertex 35.6213 -27.8787 10
      vertex 35.6213 -27.8787 0
    endloop
  endfacet
  facet normal -0.831458 -0.555587 0
    outer loop
      vertex 35.6213 -27.8787 10
      vertex 36.2716 -28.8519 0
      vertex 36.2716 -28.8519 10
    endloop
  endfacet
  facet normal -0.19513 -0.980777 0
    outer loop
      vertex 33.5 -27 0
      vertex 34.648 -27.2284 10
      vertex 33.5 -27 10
    endloop
  endfacet
  facet normal -0.19513 -0.980777 -0
    outer loop
      vertex 34.648 -27.2284 10
      vertex 33.5 -27 0
      vertex 34.648 -27.2284 0
    endloop
  endfacet
  facet normal 0.555548 -0.831485 0
    outer loop
      vertex 31.3787 -27.8787 0
      vertex 32.352 -27.2284 10
      vertex 31.3787 -27.8787 10
    endloop
  endfacet
  facet normal 0.555548 -0.831485 0
    outer loop
      vertex 32.352 -27.2284 10
      vertex 31.3787 -27.8787 0
      vertex 32.352 -27.2284 0
    endloop
  endfacet
  facet normal 0.980781 -0.195114 0
    outer loop
      vertex 30.5 -30 10
      vertex 30.7284 -28.8519 0
      vertex 30.7284 -28.8519 10
    endloop
  endfacet
  facet normal 0.980781 -0.195114 0
    outer loop
      vertex 30.7284 -28.8519 0
      vertex 30.5 -30 10
      vertex 30.5 -30 0
    endloop
  endfacet
  facet normal 0.831458 -0.555587 0
    outer loop
      vertex 30.7284 -28.8519 10
      vertex 31.3787 -27.8787 0
      vertex 31.3787 -27.8787 10
    endloop
  endfacet
  facet normal 0.831458 -0.555587 0
    outer loop
      vertex 31.3787 -27.8787 0
      vertex 30.7284 -28.8519 10
      vertex 30.7284 -28.8519 0
    endloop
  endfacet
  facet normal -0.980777 0.19513 0
    outer loop
      vertex 36.2716 -31.148 0
      vertex 36.5 -30 10
      vertex 36.5 -30 0
    endloop
  endfacet
  facet normal -0.980777 0.19513 0
    outer loop
      vertex 36.5 -30 10
      vertex 36.2716 -31.148 0
      vertex 36.2716 -31.148 10
    endloop
  endfacet
  facet normal 0.831485 0.555548 0
    outer loop
      vertex 31.3787 -32.1213 10
      vertex 30.7284 -31.148 0
      vertex 30.7284 -31.148 10
    endloop
  endfacet
  facet normal 0.831485 0.555548 0
    outer loop
      vertex 30.7284 -31.148 0
      vertex 31.3787 -32.1213 10
      vertex 31.3787 -32.1213 0
    endloop
  endfacet
  facet normal -0.19513 0.980777 0
    outer loop
      vertex 34.648 -32.7716 0
      vertex 33.5 -33 10
      vertex 34.648 -32.7716 10
    endloop
  endfacet
  facet normal -0.19513 0.980777 0
    outer loop
      vertex 33.5 -33 10
      vertex 34.648 -32.7716 0
      vertex 33.5 -33 0
    endloop
  endfacet
  facet normal 0.555548 0.831485 -0
    outer loop
      vertex 32.352 -32.7716 0
      vertex 31.3787 -32.1213 10
      vertex 32.352 -32.7716 10
    endloop
  endfacet
  facet normal 0.555548 0.831485 0
    outer loop
      vertex 31.3787 -32.1213 10
      vertex 32.352 -32.7716 0
      vertex 31.3787 -32.1213 0
    endloop
  endfacet
  facet normal 0.19513 0.980777 -0
    outer loop
      vertex 33.5 -33 0
      vertex 32.352 -32.7716 10
      vertex 33.5 -33 10
    endloop
  endfacet
  facet normal 0.19513 0.980777 0
    outer loop
      vertex 32.352 -32.7716 10
      vertex 33.5 -33 0
      vertex 32.352 -32.7716 0
    endloop
  endfacet
  facet normal -0.555548 0.831485 0
    outer loop
      vertex 35.6213 -32.1213 0
      vertex 34.648 -32.7716 10
      vertex 35.6213 -32.1213 10
    endloop
  endfacet
  facet normal -0.555548 0.831485 0
    outer loop
      vertex 34.648 -32.7716 10
      vertex 35.6213 -32.1213 0
      vertex 34.648 -32.7716 0
    endloop
  endfacet
  facet normal -0.831485 0.555548 0
    outer loop
      vertex 35.6213 -32.1213 0
      vertex 36.2716 -31.148 10
      vertex 36.2716 -31.148 0
    endloop
  endfacet
  facet normal -0.831485 0.555548 0
    outer loop
      vertex 36.2716 -31.148 10
      vertex 35.6213 -32.1213 0
      vertex 35.6213 -32.1213 10
    endloop
  endfacet
  facet normal -0.980781 -0.195114 0
    outer loop
      vertex 14.5 -18 0
      vertex 14.2716 -16.8519 10
      vertex 14.2716 -16.8519 0
    endloop
  endfacet
  facet normal -0.980781 -0.195114 0
    outer loop
      vertex 14.2716 -16.8519 10
      vertex 14.5 -18 0
      vertex 14.5 -18 10
    endloop
  endfacet
  facet normal 0.195114 -0.980781 0
    outer loop
      vertex 10.3519 -15.2284 0
      vertex 11.5 -15 10
      vertex 10.3519 -15.2284 10
    endloop
  endfacet
  facet normal 0.195114 -0.980781 0
    outer loop
      vertex 11.5 -15 10
      vertex 10.3519 -15.2284 0
      vertex 11.5 -15 0
    endloop
  endfacet
  facet normal 0.980784 0.195097 0
    outer loop
      vertex 8.72836 -19.148 10
      vertex 8.5 -18 0
      vertex 8.5 -18 10
    endloop
  endfacet
  facet normal 0.980784 0.195097 0
    outer loop
      vertex 8.5 -18 0
      vertex 8.72836 -19.148 10
      vertex 8.72836 -19.148 0
    endloop
  endfacet
  facet normal -0.555548 -0.831485 0
    outer loop
      vertex 12.648 -15.2284 0
      vertex 13.6213 -15.8787 10
      vertex 12.648 -15.2284 10
    endloop
  endfacet
  facet normal -0.555548 -0.831485 -0
    outer loop
      vertex 13.6213 -15.8787 10
      vertex 12.648 -15.2284 0
      vertex 13.6213 -15.8787 0
    endloop
  endfacet
  facet normal -0.831458 -0.555587 0
    outer loop
      vertex 14.2716 -16.8519 0
      vertex 13.6213 -15.8787 10
      vertex 13.6213 -15.8787 0
    endloop
  endfacet
  facet normal -0.831458 -0.555587 0
    outer loop
      vertex 13.6213 -15.8787 10
      vertex 14.2716 -16.8519 0
      vertex 14.2716 -16.8519 10
    endloop
  endfacet
  facet normal -0.19513 -0.980777 0
    outer loop
      vertex 11.5 -15 0
      vertex 12.648 -15.2284 10
      vertex 11.5 -15 10
    endloop
  endfacet
  facet normal -0.19513 -0.980777 -0
    outer loop
      vertex 12.648 -15.2284 10
      vertex 11.5 -15 0
      vertex 12.648 -15.2284 0
    endloop
  endfacet
  facet normal 0.555579 -0.831464 0
    outer loop
      vertex 9.37868 -15.8787 0
      vertex 10.3519 -15.2284 10
      vertex 9.37868 -15.8787 10
    endloop
  endfacet
  facet normal 0.555579 -0.831464 0
    outer loop
      vertex 10.3519 -15.2284 10
      vertex 9.37868 -15.8787 0
      vertex 10.3519 -15.2284 0
    endloop
  endfacet
  facet normal 0.980787 -0.195081 0
    outer loop
      vertex 8.5 -18 10
      vertex 8.72836 -16.8519 0
      vertex 8.72836 -16.8519 10
    endloop
  endfacet
  facet normal 0.980787 -0.195081 0
    outer loop
      vertex 8.72836 -16.8519 0
      vertex 8.5 -18 10
      vertex 8.5 -18 0
    endloop
  endfacet
  facet normal 0.83145 -0.555599 0
    outer loop
      vertex 8.72836 -16.8519 10
      vertex 9.37868 -15.8787 0
      vertex 9.37868 -15.8787 10
    endloop
  endfacet
  facet normal 0.83145 -0.555599 0
    outer loop
      vertex 9.37868 -15.8787 0
      vertex 8.72836 -16.8519 10
      vertex 8.72836 -16.8519 0
    endloop
  endfacet
  facet normal -0.980777 0.19513 0
    outer loop
      vertex 14.2716 -19.148 0
      vertex 14.5 -18 10
      vertex 14.5 -18 0
    endloop
  endfacet
  facet normal -0.980777 0.19513 0
    outer loop
      vertex 14.5 -18 10
      vertex 14.2716 -19.148 0
      vertex 14.2716 -19.148 10
    endloop
  endfacet
  facet normal 0.831477 0.555559 0
    outer loop
      vertex 9.37868 -20.1213 10
      vertex 8.72836 -19.148 0
      vertex 8.72836 -19.148 10
    endloop
  endfacet
  facet normal 0.831477 0.555559 0
    outer loop
      vertex 8.72836 -19.148 0
      vertex 9.37868 -20.1213 10
      vertex 9.37868 -20.1213 0
    endloop
  endfacet
  facet normal -0.19513 0.980777 0
    outer loop
      vertex 12.648 -20.7716 0
      vertex 11.5 -21 10
      vertex 12.648 -20.7716 10
    endloop
  endfacet
  facet normal -0.19513 0.980777 0
    outer loop
      vertex 11.5 -21 10
      vertex 12.648 -20.7716 0
      vertex 11.5 -21 0
    endloop
  endfacet
  facet normal 0.555579 0.831464 -0
    outer loop
      vertex 10.3519 -20.7716 0
      vertex 9.37868 -20.1213 10
      vertex 10.3519 -20.7716 10
    endloop
  endfacet
  facet normal 0.555579 0.831464 0
    outer loop
      vertex 9.37868 -20.1213 10
      vertex 10.3519 -20.7716 0
      vertex 9.37868 -20.1213 0
    endloop
  endfacet
  facet normal 0.195114 0.980781 -0
    outer loop
      vertex 11.5 -21 0
      vertex 10.3519 -20.7716 10
      vertex 11.5 -21 10
    endloop
  endfacet
  facet normal 0.195114 0.980781 0
    outer loop
      vertex 10.3519 -20.7716 10
      vertex 11.5 -21 0
      vertex 10.3519 -20.7716 0
    endloop
  endfacet
  facet normal -0.555548 0.831485 0
    outer loop
      vertex 13.6213 -20.1213 0
      vertex 12.648 -20.7716 10
      vertex 13.6213 -20.1213 10
    endloop
  endfacet
  facet normal -0.555548 0.831485 0
    outer loop
      vertex 12.648 -20.7716 10
      vertex 13.6213 -20.1213 0
      vertex 12.648 -20.7716 0
    endloop
  endfacet
  facet normal -0.831485 0.555548 0
    outer loop
      vertex 13.6213 -20.1213 0
      vertex 14.2716 -19.148 10
      vertex 14.2716 -19.148 0
    endloop
  endfacet
  facet normal -0.831485 0.555548 0
    outer loop
      vertex 14.2716 -19.148 10
      vertex 13.6213 -20.1213 0
      vertex 13.6213 -20.1213 10
    endloop
  endfacet
  facet normal -0.980781 -0.195114 0
    outer loop
      vertex 31.5 -18 0
      vertex 31.2716 -16.8519 10
      vertex 31.2716 -16.8519 0
    endloop
  endfacet
  facet normal -0.980781 -0.195114 0
    outer loop
      vertex 31.2716 -16.8519 10
      vertex 31.5 -18 0
      vertex 31.5 -18 10
    endloop
  endfacet
  facet normal 0.195114 -0.980781 0
    outer loop
      vertex 27.3519 -15.2284 0
      vertex 28.5 -15 10
      vertex 27.3519 -15.2284 10
    endloop
  endfacet
  facet normal 0.195114 -0.980781 0
    outer loop
      vertex 28.5 -15 10
      vertex 27.3519 -15.2284 0
      vertex 28.5 -15 0
    endloop
  endfacet
  facet normal 0.980777 0.19513 0
    outer loop
      vertex 25.7284 -19.148 10
      vertex 25.5 -18 0
      vertex 25.5 -18 10
    endloop
  endfacet
  facet normal 0.980777 0.19513 0
    outer loop
      vertex 25.5 -18 0
      vertex 25.7284 -19.148 10
      vertex 25.7284 -19.148 0
    endloop
  endfacet
  facet normal -0.555548 -0.831485 0
    outer loop
      vertex 29.648 -15.2284 0
      vertex 30.6213 -15.8787 10
      vertex 29.648 -15.2284 10
    endloop
  endfacet
  facet normal -0.555548 -0.831485 -0
    outer loop
      vertex 30.6213 -15.8787 10
      vertex 29.648 -15.2284 0
      vertex 30.6213 -15.8787 0
    endloop
  endfacet
  facet normal -0.831458 -0.555587 0
    outer loop
      vertex 31.2716 -16.8519 0
      vertex 30.6213 -15.8787 10
      vertex 30.6213 -15.8787 0
    endloop
  endfacet
  facet normal -0.831458 -0.555587 0
    outer loop
      vertex 30.6213 -15.8787 10
      vertex 31.2716 -16.8519 0
      vertex 31.2716 -16.8519 10
    endloop
  endfacet
  facet normal 0.555587 -0.831458 0
    outer loop
      vertex 26.3787 -15.8787 0
      vertex 27.3519 -15.2284 10
      vertex 26.3787 -15.8787 10
    endloop
  endfacet
  facet normal 0.555587 -0.831458 0
    outer loop
      vertex 27.3519 -15.2284 10
      vertex 26.3787 -15.8787 0
      vertex 27.3519 -15.2284 0
    endloop
  endfacet
  facet normal 0.980781 -0.195114 0
    outer loop
      vertex 25.5 -18 10
      vertex 25.7284 -16.8519 0
      vertex 25.7284 -16.8519 10
    endloop
  endfacet
  facet normal 0.980781 -0.195114 0
    outer loop
      vertex 25.7284 -16.8519 0
      vertex 25.5 -18 10
      vertex 25.5 -18 0
    endloop
  endfacet
  facet normal 0.831458 -0.555587 0
    outer loop
      vertex 25.7284 -16.8519 10
      vertex 26.3787 -15.8787 0
      vertex 26.3787 -15.8787 10
    endloop
  endfacet
  facet normal 0.831458 -0.555587 0
    outer loop
      vertex 26.3787 -15.8787 0
      vertex 25.7284 -16.8519 10
      vertex 25.7284 -16.8519 0
    endloop
  endfacet
  facet normal -0.980777 0.19513 0
    outer loop
      vertex 31.2716 -19.148 0
      vertex 31.5 -18 10
      vertex 31.5 -18 0
    endloop
  endfacet
  facet normal -0.980777 0.19513 0
    outer loop
      vertex 31.5 -18 10
      vertex 31.2716 -19.148 0
      vertex 31.2716 -19.148 10
    endloop
  endfacet
  facet normal 0.831485 0.555548 0
    outer loop
      vertex 26.3787 -20.1213 10
      vertex 25.7284 -19.148 0
      vertex 25.7284 -19.148 10
    endloop
  endfacet
  facet normal 0.831485 0.555548 0
    outer loop
      vertex 25.7284 -19.148 0
      vertex 26.3787 -20.1213 10
      vertex 26.3787 -20.1213 0
    endloop
  endfacet
  facet normal -0.19513 0.980777 0
    outer loop
      vertex 29.648 -20.7716 0
      vertex 28.5 -21 10
      vertex 29.648 -20.7716 10
    endloop
  endfacet
  facet normal -0.19513 0.980777 0
    outer loop
      vertex 28.5 -21 10
      vertex 29.648 -20.7716 0
      vertex 28.5 -21 0
    endloop
  endfacet
  facet normal 0.555587 0.831458 -0
    outer loop
      vertex 27.3519 -20.7716 0
      vertex 26.3787 -20.1213 10
      vertex 27.3519 -20.7716 10
    endloop
  endfacet
  facet normal 0.555587 0.831458 0
    outer loop
      vertex 26.3787 -20.1213 10
      vertex 27.3519 -20.7716 0
      vertex 26.3787 -20.1213 0
    endloop
  endfacet
  facet normal -0.19513 -0.980777 0
    outer loop
      vertex 28.5 -15 0
      vertex 29.648 -15.2284 10
      vertex 28.5 -15 10
    endloop
  endfacet
  facet normal -0.19513 -0.980777 -0
    outer loop
      vertex 29.648 -15.2284 10
      vertex 28.5 -15 0
      vertex 29.648 -15.2284 0
    endloop
  endfacet
  facet normal 0.195114 0.980781 -0
    outer loop
      vertex 28.5 -21 0
      vertex 27.3519 -20.7716 10
      vertex 28.5 -21 10
    endloop
  endfacet
  facet normal 0.195114 0.980781 0
    outer loop
      vertex 27.3519 -20.7716 10
      vertex 28.5 -21 0
      vertex 27.3519 -20.7716 0
    endloop
  endfacet
  facet normal -0.555548 0.831485 0
    outer loop
      vertex 30.6213 -20.1213 0
      vertex 29.648 -20.7716 10
      vertex 30.6213 -20.1213 10
    endloop
  endfacet
  facet normal -0.555548 0.831485 0
    outer loop
      vertex 29.648 -20.7716 10
      vertex 30.6213 -20.1213 0
      vertex 29.648 -20.7716 0
    endloop
  endfacet
  facet normal -0.831485 0.555548 0
    outer loop
      vertex 30.6213 -20.1213 0
      vertex 31.2716 -19.148 10
      vertex 31.2716 -19.148 0
    endloop
  endfacet
  facet normal -0.831485 0.555548 0
    outer loop
      vertex 31.2716 -19.148 10
      vertex 30.6213 -20.1213 0
      vertex 30.6213 -20.1213 10
    endloop
  endfacet
endsolid OpenSCAD_Model
