solid OpenSCAD_Model
  facet normal -1 0 0
    outer loop
      vertex 0 -36 0
      vertex 0 40.8 8
      vertex 0 40.8 0
    endloop
  endfacet
  facet normal -1 -0 0
    outer loop
      vertex 0 40.8 8
      vertex 0 -36 0
      vertex 0 -36 8
    endloop
  endfacet
  facet normal 0 0 1
    outer loop
      vertex 13.6213 -20.1213 8
      vertex 26.3787 -20.1213 8
      vertex 14.2716 -19.148 8
    endloop
  endfacet
  facet normal 0 0 1
    outer loop
      vertex 26.3787 -20.1213 8
      vertex 14.2716 -28.8519 8
      vertex 14.5 -30 8
    endloop
  endfacet
  facet normal 0 0 1
    outer loop
      vertex 13.6213 -27.8787 8
      vertex 26.3787 -20.1213 8
      vertex 13.6213 -20.1213 8
    endloop
  endfacet
  facet normal 0 0 1
    outer loop
      vertex 26.3787 -20.1213 8
      vertex 13.6213 -27.8787 8
      vertex 14.2716 -28.8519 8
    endloop
  endfacet
  facet normal -0 0 1
    outer loop
      vertex 12.648 -20.7716 8
      vertex 13.6213 -27.8787 8
      vertex 13.6213 -20.1213 8
    endloop
  endfacet
  facet normal 0 0 1
    outer loop
      vertex 12.648 -20.7716 8
      vertex 12.648 -27.2284 8
      vertex 13.6213 -27.8787 8
    endloop
  endfacet
  facet normal -0 0 1
    outer loop
      vertex 11.5 -21 8
      vertex 12.648 -27.2284 8
      vertex 12.648 -20.7716 8
    endloop
  endfacet
  facet normal 0 0 1
    outer loop
      vertex 11.5 -21 8
      vertex 11.5 -27 8
      vertex 12.648 -27.2284 8
    endloop
  endfacet
  facet normal 0 0 1
    outer loop
      vertex 10.3519 -20.7716 8
      vertex 11.5 -27 8
      vertex 11.5 -21 8
    endloop
  endfacet
  facet normal 0 0 1
    outer loop
      vertex 10.3519 -20.7716 8
      vertex 10.3519 -27.2284 8
      vertex 11.5 -27 8
    endloop
  endfacet
  facet normal 0 0 1
    outer loop
      vertex 9.37868 -20.1213 8
      vertex 10.3519 -27.2284 8
      vertex 10.3519 -20.7716 8
    endloop
  endfacet
  facet normal 0 0 1
    outer loop
      vertex 9.37868 -20.1213 8
      vertex 9.37868 -27.8787 8
      vertex 10.3519 -27.2284 8
    endloop
  endfacet
  facet normal 0 0 1
    outer loop
      vertex 8.72836 -19.148 8
      vertex 9.37868 -27.8787 8
      vertex 9.37868 -20.1213 8
    endloop
  endfacet
  facet normal 0 0 1
    outer loop
      vertex 8.72836 -19.148 8
      vertex 8.72836 -28.8519 8
      vertex 9.37868 -27.8787 8
    endloop
  endfacet
  facet normal 0 0 1
    outer loop
      vertex 0 -36 8
      vertex 8.72836 -19.148 8
      vertex 8.5 -18 8
    endloop
  endfacet
  facet normal 0 0 1
    outer loop
      vertex 8.72836 -19.148 8
      vertex 0 -36 8
      vertex 8.72836 -28.8519 8
    endloop
  endfacet
  facet normal -0 0 1
    outer loop
      vertex 11.1863 17.536 8
      vertex 26.3787 -3.87868 8
      vertex 12.192 18.208 8
    endloop
  endfacet
  facet normal 0 0 1
    outer loop
      vertex 26.3787 -3.87868 8
      vertex 11.1863 17.536 8
      vertex 25.7284 -4.85195 8
    endloop
  endfacet
  facet normal 0 0 1
    outer loop
      vertex 25.7284 -4.85195 8
      vertex 12.648 -15.2284 8
      vertex 13.6213 -15.8787 8
    endloop
  endfacet
  facet normal -0 0 1
    outer loop
      vertex 10 17.3 8
      vertex 25.7284 -4.85195 8
      vertex 11.1863 17.536 8
    endloop
  endfacet
  facet normal 0 0 1
    outer loop
      vertex 25.7284 -4.85195 8
      vertex 11.5 -15 8
      vertex 12.648 -15.2284 8
    endloop
  endfacet
  facet normal 0 0 1
    outer loop
      vertex 25.7284 -4.85195 8
      vertex 10 17.3 8
      vertex 11.5 -15 8
    endloop
  endfacet
  facet normal 0 0 1
    outer loop
      vertex 11.5 -15 8
      vertex 10 17.3 8
      vertex 10.3519 -15.2284 8
    endloop
  endfacet
  facet normal 0 0 1
    outer loop
      vertex 8.81368 17.536 8
      vertex 10.3519 -15.2284 8
      vertex 10 17.3 8
    endloop
  endfacet
  facet normal 0 0 1
    outer loop
      vertex 10.3519 -15.2284 8
      vertex 8.81368 17.536 8
      vertex 9.37868 -15.8787 8
    endloop
  endfacet
  facet normal 0 0 1
    outer loop
      vertex 7.80797 18.208 8
      vertex 9.37868 -15.8787 8
      vertex 8.81368 17.536 8
    endloop
  endfacet
  facet normal 0 0 1
    outer loop
      vertex 9.37868 -15.8787 8
      vertex 7.80797 18.208 8
      vertex 8.72836 -16.8519 8
    endloop
  endfacet
  facet normal 0 0 1
    outer loop
      vertex 0 -36 8
      vertex 8.72836 -16.8519 8
      vertex 7.13597 19.2137 8
    endloop
  endfacet
  facet normal 0 0 1
    outer loop
      vertex 7.13597 19.2137 8
      vertex 8.72836 -16.8519 8
      vertex 7.80797 18.208 8
    endloop
  endfacet
  facet normal -0 0 1
    outer loop
      vertex 31.2716 -7.14805 8
      vertex 31.5 -18 8
      vertex 31.5 -6 8
    endloop
  endfacet
  facet normal 0 0 1
    outer loop
      vertex 31.2716 -7.14805 8
      vertex 31.2716 -16.8519 8
      vertex 31.5 -18 8
    endloop
  endfacet
  facet normal -0 0 1
    outer loop
      vertex 30.6213 -8.12132 8
      vertex 31.2716 -16.8519 8
      vertex 31.2716 -7.14805 8
    endloop
  endfacet
  facet normal 0 0 1
    outer loop
      vertex 30.6213 -8.12132 8
      vertex 30.6213 -15.8787 8
      vertex 31.2716 -16.8519 8
    endloop
  endfacet
  facet normal -0 0 1
    outer loop
      vertex 29.648 -8.77164 8
      vertex 30.6213 -15.8787 8
      vertex 30.6213 -8.12132 8
    endloop
  endfacet
  facet normal 0 0 1
    outer loop
      vertex 29.648 -8.77164 8
      vertex 29.648 -15.2284 8
      vertex 30.6213 -15.8787 8
    endloop
  endfacet
  facet normal -0 0 1
    outer loop
      vertex 28.5 -9 8
      vertex 29.648 -15.2284 8
      vertex 29.648 -8.77164 8
    endloop
  endfacet
  facet normal 0 0 1
    outer loop
      vertex 28.5 -9 8
      vertex 28.5 -15 8
      vertex 29.648 -15.2284 8
    endloop
  endfacet
  facet normal 0 0 1
    outer loop
      vertex 27.3519 -8.77164 8
      vertex 28.5 -15 8
      vertex 28.5 -9 8
    endloop
  endfacet
  facet normal 0 0 1
    outer loop
      vertex 27.3519 -8.77164 8
      vertex 27.3519 -15.2284 8
      vertex 28.5 -15 8
    endloop
  endfacet
  facet normal 0 0 1
    outer loop
      vertex 26.3787 -8.12132 8
      vertex 27.3519 -15.2284 8
      vertex 27.3519 -8.77164 8
    endloop
  endfacet
  facet normal 0 0 1
    outer loop
      vertex 26.3787 -8.12132 8
      vertex 26.3787 -15.8787 8
      vertex 27.3519 -15.2284 8
    endloop
  endfacet
  facet normal 0 0 1
    outer loop
      vertex 13.6213 -15.8787 8
      vertex 26.3787 -8.12132 8
      vertex 25.7284 -7.14805 8
    endloop
  endfacet
  facet normal 0 0 1
    outer loop
      vertex 26.3787 -8.12132 8
      vertex 13.6213 -15.8787 8
      vertex 26.3787 -15.8787 8
    endloop
  endfacet
  facet normal 0 0 1
    outer loop
      vertex 13.6213 -15.8787 8
      vertex 25.7284 -7.14805 8
      vertex 25.5 -6 8
    endloop
  endfacet
  facet normal 0 0 1
    outer loop
      vertex 26.3787 -15.8787 8
      vertex 13.6213 -15.8787 8
      vertex 25.7284 -16.8519 8
    endloop
  endfacet
  facet normal 0 0 1
    outer loop
      vertex 32.864 19.2137 8
      vertex 31.2716 -4.85195 8
      vertex 31.5 -6 8
    endloop
  endfacet
  facet normal 0 0 1
    outer loop
      vertex 30.6213 -3.87868 8
      vertex 32.192 18.208 8
      vertex 31.1863 17.536 8
    endloop
  endfacet
  facet normal 0 0 1
    outer loop
      vertex 32.192 18.208 8
      vertex 30.6213 -3.87868 8
      vertex 31.2716 -4.85195 8
    endloop
  endfacet
  facet normal 0 0 1
    outer loop
      vertex 29.648 -3.22836 8
      vertex 31.1863 17.536 8
      vertex 30 17.3 8
    endloop
  endfacet
  facet normal 0 0 1
    outer loop
      vertex 31.1863 17.536 8
      vertex 29.648 -3.22836 8
      vertex 30.6213 -3.87868 8
    endloop
  endfacet
  facet normal 0 0 1
    outer loop
      vertex 28.5 -3 8
      vertex 30 17.3 8
      vertex 28.8137 17.536 8
    endloop
  endfacet
  facet normal 0 0 1
    outer loop
      vertex 30 17.3 8
      vertex 28.5 -3 8
      vertex 29.648 -3.22836 8
    endloop
  endfacet
  facet normal 0 0 1
    outer loop
      vertex 27.3519 -3.22836 8
      vertex 28.8137 17.536 8
      vertex 27.808 18.208 8
    endloop
  endfacet
  facet normal 0 0 1
    outer loop
      vertex 28.8137 17.536 8
      vertex 27.3519 -3.22836 8
      vertex 28.5 -3 8
    endloop
  endfacet
  facet normal 0 0 1
    outer loop
      vertex 12.864 19.2137 8
      vertex 27.136 19.2137 8
      vertex 13.1 20.4 8
    endloop
  endfacet
  facet normal -0 0 1
    outer loop
      vertex 13.1 20.4 8
      vertex 27.136 19.2137 8
      vertex 26.9 20.4 8
    endloop
  endfacet
  facet normal 0 0 1
    outer loop
      vertex 27.136 19.2137 8
      vertex 12.864 19.2137 8
      vertex 27.808 18.208 8
    endloop
  endfacet
  facet normal -0 0 1
    outer loop
      vertex 33.1 20.4 8
      vertex 40 -36 8
      vertex 40 40.8 8
    endloop
  endfacet
  facet normal 0 0 1
    outer loop
      vertex 40 -36 8
      vertex 36.2716 -28.8519 8
      vertex 36.5 -30 8
    endloop
  endfacet
  facet normal 0 0 1
    outer loop
      vertex 40 -36 8
      vertex 31.5 -6 8
      vertex 36.2716 -28.8519 8
    endloop
  endfacet
  facet normal 0 0 1
    outer loop
      vertex 36.2716 -28.8519 8
      vertex 31.5 -6 8
      vertex 35.6213 -27.8787 8
    endloop
  endfacet
  facet normal -0 0 1
    outer loop
      vertex 31.5 -18 8
      vertex 35.6213 -27.8787 8
      vertex 31.5 -6 8
    endloop
  endfacet
  facet normal -0 0 1
    outer loop
      vertex 32.864 19.2137 8
      vertex 40 -36 8
      vertex 33.1 20.4 8
    endloop
  endfacet
  facet normal 0 0 1
    outer loop
      vertex 40 40.8 8
      vertex 32.864 21.5863 8
      vertex 33.1 20.4 8
    endloop
  endfacet
  facet normal 0 0 1
    outer loop
      vertex 40 40.8 8
      vertex 32.192 22.592 8
      vertex 32.864 21.5863 8
    endloop
  endfacet
  facet normal 0 0 1
    outer loop
      vertex 40 40.8 8
      vertex 31.1863 23.264 8
      vertex 32.192 22.592 8
    endloop
  endfacet
  facet normal 0 0 1
    outer loop
      vertex 40 40.8 8
      vertex 30 23.5 8
      vertex 31.1863 23.264 8
    endloop
  endfacet
  facet normal 0 0 1
    outer loop
      vertex 40 40.8 8
      vertex 28.8137 23.264 8
      vertex 30 23.5 8
    endloop
  endfacet
  facet normal 0 0 1
    outer loop
      vertex 11.1863 23.264 8
      vertex 28.8137 23.264 8
      vertex 40 40.8 8
    endloop
  endfacet
  facet normal 0 0 1
    outer loop
      vertex 12.192 18.208 8
      vertex 27.808 18.208 8
      vertex 12.864 19.2137 8
    endloop
  endfacet
  facet normal 0 0 1
    outer loop
      vertex 27.808 18.208 8
      vertex 12.192 18.208 8
      vertex 27.3519 -3.22836 8
    endloop
  endfacet
  facet normal 0 0 1
    outer loop
      vertex 25.7284 -16.8519 8
      vertex 14.2716 -16.8519 8
      vertex 25.5 -18 8
    endloop
  endfacet
  facet normal 0 0 1
    outer loop
      vertex 27.3519 -3.22836 8
      vertex 12.192 18.208 8
      vertex 26.3787 -3.87868 8
    endloop
  endfacet
  facet normal 0 0 1
    outer loop
      vertex 13.1 20.4 8
      vertex 26.9 20.4 8
      vertex 27.136 21.5863 8
    endloop
  endfacet
  facet normal 0 0 1
    outer loop
      vertex 25.5 -18 8
      vertex 14.2716 -16.8519 8
      vertex 14.5 -18 8
    endloop
  endfacet
  facet normal 0 0 1
    outer loop
      vertex 25.7284 -16.8519 8
      vertex 13.6213 -15.8787 8
      vertex 14.2716 -16.8519 8
    endloop
  endfacet
  facet normal 0 0 1
    outer loop
      vertex 25.7284 -4.85195 8
      vertex 13.6213 -15.8787 8
      vertex 25.5 -6 8
    endloop
  endfacet
  facet normal 0 0 1
    outer loop
      vertex 12.864 21.5863 8
      vertex 27.136 21.5863 8
      vertex 27.808 22.592 8
    endloop
  endfacet
  facet normal 0 0 1
    outer loop
      vertex 28.8137 23.264 8
      vertex 11.1863 23.264 8
      vertex 27.808 22.592 8
    endloop
  endfacet
  facet normal 0 0 1
    outer loop
      vertex 27.136 21.5863 8
      vertex 12.864 21.5863 8
      vertex 13.1 20.4 8
    endloop
  endfacet
  facet normal 0 0 1
    outer loop
      vertex 27.808 22.592 8
      vertex 12.192 22.592 8
      vertex 12.864 21.5863 8
    endloop
  endfacet
  facet normal 0 0 1
    outer loop
      vertex 27.808 22.592 8
      vertex 11.1863 23.264 8
      vertex 12.192 22.592 8
    endloop
  endfacet
  facet normal -0 0 1
    outer loop
      vertex 0 40.8 8
      vertex 11.1863 23.264 8
      vertex 40 40.8 8
    endloop
  endfacet
  facet normal 0 0 1
    outer loop
      vertex 11.1863 23.264 8
      vertex 0 40.8 8
      vertex 10 23.5 8
    endloop
  endfacet
  facet normal 0 0 1
    outer loop
      vertex 7.13597 21.5863 8
      vertex 0 40.8 8
      vertex 6.9 20.4 8
    endloop
  endfacet
  facet normal 0 0 1
    outer loop
      vertex 7.80797 22.592 8
      vertex 0 40.8 8
      vertex 7.13597 21.5863 8
    endloop
  endfacet
  facet normal 0 0 1
    outer loop
      vertex 8.81368 23.264 8
      vertex 0 40.8 8
      vertex 7.80797 22.592 8
    endloop
  endfacet
  facet normal 0 0 1
    outer loop
      vertex 10 23.5 8
      vertex 0 40.8 8
      vertex 8.81368 23.264 8
    endloop
  endfacet
  facet normal -0 0 1
    outer loop
      vertex 36.2716 -31.148 8
      vertex 40 -36 8
      vertex 36.5 -30 8
    endloop
  endfacet
  facet normal -0 0 1
    outer loop
      vertex 35.6213 -32.1213 8
      vertex 40 -36 8
      vertex 36.2716 -31.148 8
    endloop
  endfacet
  facet normal -0 0 1
    outer loop
      vertex 34.648 -32.7716 8
      vertex 40 -36 8
      vertex 35.6213 -32.1213 8
    endloop
  endfacet
  facet normal -0 0 1
    outer loop
      vertex 33.5 -33 8
      vertex 40 -36 8
      vertex 34.648 -32.7716 8
    endloop
  endfacet
  facet normal 0 0 1
    outer loop
      vertex 32.352 -32.7716 8
      vertex 40 -36 8
      vertex 33.5 -33 8
    endloop
  endfacet
  facet normal 0 0 1
    outer loop
      vertex 27.3519 -20.7716 8
      vertex 30.7284 -28.8519 8
      vertex 28.5 -21 8
    endloop
  endfacet
  facet normal 0 0 1
    outer loop
      vertex 14.5 -30 8
      vertex 30.7284 -28.8519 8
      vertex 27.3519 -20.7716 8
    endloop
  endfacet
  facet normal 0 0 1
    outer loop
      vertex 30.7284 -28.8519 8
      vertex 14.5 -30 8
      vertex 30.5 -30 8
    endloop
  endfacet
  facet normal 0 0 1
    outer loop
      vertex 14.5 -30 8
      vertex 27.3519 -20.7716 8
      vertex 26.3787 -20.1213 8
    endloop
  endfacet
  facet normal -0 0 1
    outer loop
      vertex 14.2716 -19.148 8
      vertex 26.3787 -20.1213 8
      vertex 25.7284 -19.148 8
    endloop
  endfacet
  facet normal -0 0 1
    outer loop
      vertex 14.5 -18 8
      vertex 25.7284 -19.148 8
      vertex 25.5 -18 8
    endloop
  endfacet
  facet normal 0 0 1
    outer loop
      vertex 14.2716 -19.148 8
      vertex 25.7284 -19.148 8
      vertex 14.5 -18 8
    endloop
  endfacet
  facet normal 0 0 1
    outer loop
      vertex 30.5 -30 8
      vertex 14.5 -30 8
      vertex 30.7284 -31.148 8
    endloop
  endfacet
  facet normal 0 0 1
    outer loop
      vertex 14.2716 -31.148 8
      vertex 30.7284 -31.148 8
      vertex 14.5 -30 8
    endloop
  endfacet
  facet normal 0 0 1
    outer loop
      vertex 30.7284 -31.148 8
      vertex 14.2716 -31.148 8
      vertex 31.3787 -32.1213 8
    endloop
  endfacet
  facet normal 0 0 1
    outer loop
      vertex 13.6213 -32.1213 8
      vertex 31.3787 -32.1213 8
      vertex 14.2716 -31.148 8
    endloop
  endfacet
  facet normal 0 0 1
    outer loop
      vertex 31.3787 -32.1213 8
      vertex 13.6213 -32.1213 8
      vertex 32.352 -32.7716 8
    endloop
  endfacet
  facet normal 0 0 1
    outer loop
      vertex 12.648 -32.7716 8
      vertex 32.352 -32.7716 8
      vertex 13.6213 -32.1213 8
    endloop
  endfacet
  facet normal 0 0 1
    outer loop
      vertex 32.352 -32.7716 8
      vertex 12.648 -32.7716 8
      vertex 40 -36 8
    endloop
  endfacet
  facet normal -0 0 1
    outer loop
      vertex 11.5 -33 8
      vertex 40 -36 8
      vertex 12.648 -32.7716 8
    endloop
  endfacet
  facet normal 0 0 1
    outer loop
      vertex 8.72836 -16.8519 8
      vertex 0 -36 8
      vertex 8.5 -18 8
    endloop
  endfacet
  facet normal 0 0 1
    outer loop
      vertex 0 -36 8
      vertex 7.13597 19.2137 8
      vertex 6.9 20.4 8
    endloop
  endfacet
  facet normal 0 0 1
    outer loop
      vertex 0 -36 8
      vertex 6.9 20.4 8
      vertex 0 40.8 8
    endloop
  endfacet
  facet normal 0 0 1
    outer loop
      vertex 11.5 -33 8
      vertex 0 -36 8
      vertex 40 -36 8
    endloop
  endfacet
  facet normal 0 0 1
    outer loop
      vertex 10.3519 -32.7716 8
      vertex 0 -36 8
      vertex 11.5 -33 8
    endloop
  endfacet
  facet normal 0 0 1
    outer loop
      vertex 9.37868 -32.1213 8
      vertex 0 -36 8
      vertex 10.3519 -32.7716 8
    endloop
  endfacet
  facet normal 0 0 1
    outer loop
      vertex 8.72836 -31.148 8
      vertex 0 -36 8
      vertex 9.37868 -32.1213 8
    endloop
  endfacet
  facet normal 0 0 1
    outer loop
      vertex 8.5 -30 8
      vertex 0 -36 8
      vertex 8.72836 -31.148 8
    endloop
  endfacet
  facet normal 0 0 1
    outer loop
      vertex 8.72836 -28.8519 8
      vertex 0 -36 8
      vertex 8.5 -30 8
    endloop
  endfacet
  facet normal 0 0 1
    outer loop
      vertex 40 -36 8
      vertex 32.864 19.2137 8
      vertex 31.5 -6 8
    endloop
  endfacet
  facet normal 0 0 1
    outer loop
      vertex 35.6213 -27.8787 8
      vertex 31.5 -18 8
      vertex 34.648 -27.2284 8
    endloop
  endfacet
  facet normal 0 0 1
    outer loop
      vertex 31.2716 -4.85195 8
      vertex 32.864 19.2137 8
      vertex 32.192 18.208 8
    endloop
  endfacet
  facet normal -0 0 1
    outer loop
      vertex 31.2716 -19.148 8
      vertex 34.648 -27.2284 8
      vertex 31.5 -18 8
    endloop
  endfacet
  facet normal 0 0 1
    outer loop
      vertex 34.648 -27.2284 8
      vertex 31.2716 -19.148 8
      vertex 33.5 -27 8
    endloop
  endfacet
  facet normal -0 0 1
    outer loop
      vertex 30.6213 -20.1213 8
      vertex 33.5 -27 8
      vertex 31.2716 -19.148 8
    endloop
  endfacet
  facet normal 0 0 1
    outer loop
      vertex 33.5 -27 8
      vertex 30.6213 -20.1213 8
      vertex 32.352 -27.2284 8
    endloop
  endfacet
  facet normal -0 0 1
    outer loop
      vertex 29.648 -20.7716 8
      vertex 32.352 -27.2284 8
      vertex 30.6213 -20.1213 8
    endloop
  endfacet
  facet normal 0 0 1
    outer loop
      vertex 32.352 -27.2284 8
      vertex 29.648 -20.7716 8
      vertex 31.3787 -27.8787 8
    endloop
  endfacet
  facet normal -0 0 1
    outer loop
      vertex 28.5 -21 8
      vertex 31.3787 -27.8787 8
      vertex 29.648 -20.7716 8
    endloop
  endfacet
  facet normal 0 0 1
    outer loop
      vertex 31.3787 -27.8787 8
      vertex 28.5 -21 8
      vertex 30.7284 -28.8519 8
    endloop
  endfacet
  facet normal 1 -0 0
    outer loop
      vertex 40 -36 8
      vertex 40 40.8 0
      vertex 40 40.8 8
    endloop
  endfacet
  facet normal 1 0 0
    outer loop
      vertex 40 40.8 0
      vertex 40 -36 8
      vertex 40 -36 0
    endloop
  endfacet
  facet normal 0 1 -0
    outer loop
      vertex 40 40.8 0
      vertex 0 40.8 8
      vertex 40 40.8 8
    endloop
  endfacet
  facet normal 0 1 0
    outer loop
      vertex 0 40.8 8
      vertex 40 40.8 0
      vertex 0 40.8 0
    endloop
  endfacet
  facet normal 0 0 -1
    outer loop
      vertex 27.136 19.2137 0
      vertex 12.864 19.2137 0
      vertex 13.1 20.4 0
    endloop
  endfacet
  facet normal -0 0 -1
    outer loop
      vertex 25.5 -6 0
      vertex 11.5 -15 0
      vertex 25.7284 -4.85195 0
    endloop
  endfacet
  facet normal 0 0 -1
    outer loop
      vertex 25.7284 -4.85195 0
      vertex 12.192 18.208 0
      vertex 12.864 19.2137 0
    endloop
  endfacet
  facet normal 0 0 -1
    outer loop
      vertex 10 17.3 0
      vertex 25.7284 -4.85195 0
      vertex 11.5 -15 0
    endloop
  endfacet
  facet normal 0 0 -1
    outer loop
      vertex 25.7284 -4.85195 0
      vertex 11.1863 17.536 0
      vertex 12.192 18.208 0
    endloop
  endfacet
  facet normal 0 0 -1
    outer loop
      vertex 10 17.3 0
      vertex 11.5 -15 0
      vertex 10.3519 -15.2284 0
    endloop
  endfacet
  facet normal 0 0 -1
    outer loop
      vertex 25.7284 -4.85195 0
      vertex 10 17.3 0
      vertex 11.1863 17.536 0
    endloop
  endfacet
  facet normal 0 0 -1
    outer loop
      vertex 8.81368 17.536 0
      vertex 10.3519 -15.2284 0
      vertex 9.37868 -15.8787 0
    endloop
  endfacet
  facet normal 0 0 -1
    outer loop
      vertex 10.3519 -15.2284 0
      vertex 8.81368 17.536 0
      vertex 10 17.3 0
    endloop
  endfacet
  facet normal 0 0 -1
    outer loop
      vertex 7.80797 18.208 0
      vertex 9.37868 -15.8787 0
      vertex 8.72836 -16.8519 0
    endloop
  endfacet
  facet normal 0 0 -1
    outer loop
      vertex 0 -36 0
      vertex 8.72836 -16.8519 0
      vertex 8.5 -18 0
    endloop
  endfacet
  facet normal 0 0 -1
    outer loop
      vertex 9.37868 -15.8787 0
      vertex 7.80797 18.208 0
      vertex 8.81368 17.536 0
    endloop
  endfacet
  facet normal 0 0 -1
    outer loop
      vertex 13.6213 -20.1213 0
      vertex 26.3787 -20.1213 0
      vertex 13.6213 -27.8787 0
    endloop
  endfacet
  facet normal 0 0 -1
    outer loop
      vertex 25.7284 -19.148 0
      vertex 14.2716 -19.148 0
      vertex 14.5 -18 0
    endloop
  endfacet
  facet normal 0 0 -1
    outer loop
      vertex 26.3787 -20.1213 0
      vertex 13.6213 -20.1213 0
      vertex 25.7284 -19.148 0
    endloop
  endfacet
  facet normal -0 0 -1
    outer loop
      vertex 25.7284 -19.148 0
      vertex 13.6213 -20.1213 0
      vertex 14.2716 -19.148 0
    endloop
  endfacet
  facet normal 0 0 -1
    outer loop
      vertex 12.648 -27.2284 0
      vertex 13.6213 -20.1213 0
      vertex 13.6213 -27.8787 0
    endloop
  endfacet
  facet normal 0 0 -1
    outer loop
      vertex 12.648 -27.2284 0
      vertex 12.648 -20.7716 0
      vertex 13.6213 -20.1213 0
    endloop
  endfacet
  facet normal 0 0 -1
    outer loop
      vertex 11.5 -27 0
      vertex 12.648 -20.7716 0
      vertex 12.648 -27.2284 0
    endloop
  endfacet
  facet normal 0 0 -1
    outer loop
      vertex 11.5 -27 0
      vertex 11.5 -21 0
      vertex 12.648 -20.7716 0
    endloop
  endfacet
  facet normal 0 0 -1
    outer loop
      vertex 10.3519 -27.2284 0
      vertex 11.5 -21 0
      vertex 11.5 -27 0
    endloop
  endfacet
  facet normal 0 0 -1
    outer loop
      vertex 10.3519 -27.2284 0
      vertex 10.3519 -20.7716 0
      vertex 11.5 -21 0
    endloop
  endfacet
  facet normal 0 0 -1
    outer loop
      vertex 9.37868 -27.8787 0
      vertex 10.3519 -20.7716 0
      vertex 10.3519 -27.2284 0
    endloop
  endfacet
  facet normal 0 0 -1
    outer loop
      vertex 9.37868 -27.8787 0
      vertex 9.37868 -20.1213 0
      vertex 10.3519 -20.7716 0
    endloop
  endfacet
  facet normal 0 0 -1
    outer loop
      vertex 8.72836 -28.8519 0
      vertex 9.37868 -20.1213 0
      vertex 9.37868 -27.8787 0
    endloop
  endfacet
  facet normal 0 0 -1
    outer loop
      vertex 8.72836 -28.8519 0
      vertex 8.72836 -19.148 0
      vertex 9.37868 -20.1213 0
    endloop
  endfacet
  facet normal 0 0 -1
    outer loop
      vertex 0 -36 0
      vertex 8.72836 -28.8519 0
      vertex 8.5 -30 0
    endloop
  endfacet
  facet normal -0 0 -1
    outer loop
      vertex 8.72836 -28.8519 0
      vertex 0 -36 0
      vertex 8.72836 -19.148 0
    endloop
  endfacet
  facet normal 0 0 -1
    outer loop
      vertex 31.2716 -16.8519 0
      vertex 31.5 -6 0
      vertex 31.5 -18 0
    endloop
  endfacet
  facet normal 0 0 -1
    outer loop
      vertex 31.2716 -16.8519 0
      vertex 31.2716 -7.14805 0
      vertex 31.5 -6 0
    endloop
  endfacet
  facet normal 0 0 -1
    outer loop
      vertex 30.6213 -15.8787 0
      vertex 31.2716 -7.14805 0
      vertex 31.2716 -16.8519 0
    endloop
  endfacet
  facet normal 0 0 -1
    outer loop
      vertex 30.6213 -15.8787 0
      vertex 30.6213 -8.12132 0
      vertex 31.2716 -7.14805 0
    endloop
  endfacet
  facet normal 0 0 -1
    outer loop
      vertex 29.648 -15.2284 0
      vertex 30.6213 -8.12132 0
      vertex 30.6213 -15.8787 0
    endloop
  endfacet
  facet normal 0 0 -1
    outer loop
      vertex 29.648 -15.2284 0
      vertex 29.648 -8.77164 0
      vertex 30.6213 -8.12132 0
    endloop
  endfacet
  facet normal 0 0 -1
    outer loop
      vertex 28.5 -15 0
      vertex 29.648 -8.77164 0
      vertex 29.648 -15.2284 0
    endloop
  endfacet
  facet normal 0 0 -1
    outer loop
      vertex 28.5 -15 0
      vertex 28.5 -9 0
      vertex 29.648 -8.77164 0
    endloop
  endfacet
  facet normal 0 0 -1
    outer loop
      vertex 27.3519 -15.2284 0
      vertex 28.5 -9 0
      vertex 28.5 -15 0
    endloop
  endfacet
  facet normal 0 0 -1
    outer loop
      vertex 27.3519 -15.2284 0
      vertex 27.3519 -8.77164 0
      vertex 28.5 -9 0
    endloop
  endfacet
  facet normal 0 0 -1
    outer loop
      vertex 26.3787 -15.8787 0
      vertex 27.3519 -8.77164 0
      vertex 27.3519 -15.2284 0
    endloop
  endfacet
  facet normal 0 0 -1
    outer loop
      vertex 26.3787 -15.8787 0
      vertex 26.3787 -8.12132 0
      vertex 27.3519 -8.77164 0
    endloop
  endfacet
  facet normal 0 0 -1
    outer loop
      vertex 13.6213 -15.8787 0
      vertex 26.3787 -15.8787 0
      vertex 25.7284 -16.8519 0
    endloop
  endfacet
  facet normal 0 0 -1
    outer loop
      vertex 26.3787 -15.8787 0
      vertex 13.6213 -15.8787 0
      vertex 26.3787 -8.12132 0
    endloop
  endfacet
  facet normal 0 0 -1
    outer loop
      vertex 14.2716 -16.8519 0
      vertex 25.7284 -16.8519 0
      vertex 25.5 -18 0
    endloop
  endfacet
  facet normal 0 0 -1
    outer loop
      vertex 13.6213 -15.8787 0
      vertex 25.7284 -16.8519 0
      vertex 14.2716 -16.8519 0
    endloop
  endfacet
  facet normal 0 0 -1
    outer loop
      vertex 40 -36 0
      vertex 32.864 19.2137 0
      vertex 33.1 20.4 0
    endloop
  endfacet
  facet normal 0 0 -1
    outer loop
      vertex 30.6213 -20.1213 0
      vertex 33.5 -27 0
      vertex 32.352 -27.2284 0
    endloop
  endfacet
  facet normal 0 0 -1
    outer loop
      vertex 34.648 -27.2284 0
      vertex 31.5 -6 0
      vertex 32.864 19.2137 0
    endloop
  endfacet
  facet normal 0 0 -1
    outer loop
      vertex 34.648 -27.2284 0
      vertex 31.5 -18 0
      vertex 31.5 -6 0
    endloop
  endfacet
  facet normal 0 0 -1
    outer loop
      vertex 29.648 -20.7716 0
      vertex 32.352 -27.2284 0
      vertex 31.3787 -27.8787 0
    endloop
  endfacet
  facet normal 0 0 -1
    outer loop
      vertex 34.648 -27.2284 0
      vertex 31.2716 -19.148 0
      vertex 31.5 -18 0
    endloop
  endfacet
  facet normal 0 0 -1
    outer loop
      vertex 28.5 -21 0
      vertex 31.3787 -27.8787 0
      vertex 30.7284 -28.8519 0
    endloop
  endfacet
  facet normal 0 0 -1
    outer loop
      vertex 33.5 -27 0
      vertex 30.6213 -20.1213 0
      vertex 31.2716 -19.148 0
    endloop
  endfacet
  facet normal 0 0 -1
    outer loop
      vertex 14.5 -30 0
      vertex 30.7284 -28.8519 0
      vertex 30.5 -30 0
    endloop
  endfacet
  facet normal 0 0 -1
    outer loop
      vertex 32.352 -27.2284 0
      vertex 29.648 -20.7716 0
      vertex 30.6213 -20.1213 0
    endloop
  endfacet
  facet normal 0 0 -1
    outer loop
      vertex 36.2716 -28.8519 0
      vertex 40 -36 0
      vertex 36.5 -30 0
    endloop
  endfacet
  facet normal 0 0 -1
    outer loop
      vertex 40 -36 0
      vertex 36.2716 -31.148 0
      vertex 36.5 -30 0
    endloop
  endfacet
  facet normal 0 0 -1
    outer loop
      vertex 40 -36 0
      vertex 35.6213 -32.1213 0
      vertex 36.2716 -31.148 0
    endloop
  endfacet
  facet normal 0 0 -1
    outer loop
      vertex 40 -36 0
      vertex 34.648 -32.7716 0
      vertex 35.6213 -32.1213 0
    endloop
  endfacet
  facet normal 0 0 -1
    outer loop
      vertex 40 -36 0
      vertex 33.5 -33 0
      vertex 34.648 -32.7716 0
    endloop
  endfacet
  facet normal 0 0 -1
    outer loop
      vertex 40 -36 0
      vertex 32.352 -32.7716 0
      vertex 33.5 -33 0
    endloop
  endfacet
  facet normal 0 0 -1
    outer loop
      vertex 31.3787 -27.8787 0
      vertex 28.5 -21 0
      vertex 29.648 -20.7716 0
    endloop
  endfacet
  facet normal 0 0 -1
    outer loop
      vertex 14.5 -30 0
      vertex 30.5 -30 0
      vertex 30.7284 -31.148 0
    endloop
  endfacet
  facet normal 0 0 -1
    outer loop
      vertex 30.7284 -28.8519 0
      vertex 27.3519 -20.7716 0
      vertex 28.5 -21 0
    endloop
  endfacet
  facet normal 0 0 -1
    outer loop
      vertex 14.2716 -28.8519 0
      vertex 30.7284 -28.8519 0
      vertex 14.5 -30 0
    endloop
  endfacet
  facet normal 0 0 -1
    outer loop
      vertex 30.7284 -28.8519 0
      vertex 14.2716 -28.8519 0
      vertex 27.3519 -20.7716 0
    endloop
  endfacet
  facet normal 0 0 -1
    outer loop
      vertex 25.7284 -19.148 0
      vertex 14.5 -18 0
      vertex 25.5 -18 0
    endloop
  endfacet
  facet normal 0 0 -1
    outer loop
      vertex 13.6213 -27.8787 0
      vertex 26.3787 -20.1213 0
      vertex 14.2716 -28.8519 0
    endloop
  endfacet
  facet normal -0 0 -1
    outer loop
      vertex 27.3519 -20.7716 0
      vertex 14.2716 -28.8519 0
      vertex 26.3787 -20.1213 0
    endloop
  endfacet
  facet normal 0 0 -1
    outer loop
      vertex 14.2716 -31.148 0
      vertex 30.7284 -31.148 0
      vertex 31.3787 -32.1213 0
    endloop
  endfacet
  facet normal 0 0 -1
    outer loop
      vertex 13.6213 -32.1213 0
      vertex 31.3787 -32.1213 0
      vertex 32.352 -32.7716 0
    endloop
  endfacet
  facet normal 0 0 -1
    outer loop
      vertex 12.648 -32.7716 0
      vertex 32.352 -32.7716 0
      vertex 40 -36 0
    endloop
  endfacet
  facet normal 0 0 -1
    outer loop
      vertex 30.7284 -31.148 0
      vertex 14.2716 -31.148 0
      vertex 14.5 -30 0
    endloop
  endfacet
  facet normal 0 0 -1
    outer loop
      vertex 31.3787 -32.1213 0
      vertex 13.6213 -32.1213 0
      vertex 14.2716 -31.148 0
    endloop
  endfacet
  facet normal 0 0 -1
    outer loop
      vertex 32.352 -32.7716 0
      vertex 12.648 -32.7716 0
      vertex 13.6213 -32.1213 0
    endloop
  endfacet
  facet normal 0 0 -1
    outer loop
      vertex 40 -36 0
      vertex 11.5 -33 0
      vertex 12.648 -32.7716 0
    endloop
  endfacet
  facet normal -0 0 -1
    outer loop
      vertex 8.72836 -19.148 0
      vertex 0 -36 0
      vertex 8.5 -18 0
    endloop
  endfacet
  facet normal -0 0 -1
    outer loop
      vertex 8.72836 -16.8519 0
      vertex 0 -36 0
      vertex 7.13597 19.2137 0
    endloop
  endfacet
  facet normal 0 0 -1
    outer loop
      vertex 8.72836 -16.8519 0
      vertex 7.13597 19.2137 0
      vertex 7.80797 18.208 0
    endloop
  endfacet
  facet normal -0 0 -1
    outer loop
      vertex 7.13597 19.2137 0
      vertex 0 -36 0
      vertex 6.9 20.4 0
    endloop
  endfacet
  facet normal -0 0 -1
    outer loop
      vertex 8.72836 -31.148 0
      vertex 0 -36 0
      vertex 8.5 -30 0
    endloop
  endfacet
  facet normal -0 0 -1
    outer loop
      vertex 9.37868 -32.1213 0
      vertex 0 -36 0
      vertex 8.72836 -31.148 0
    endloop
  endfacet
  facet normal -0 0 -1
    outer loop
      vertex 10.3519 -32.7716 0
      vertex 0 -36 0
      vertex 9.37868 -32.1213 0
    endloop
  endfacet
  facet normal -0 0 -1
    outer loop
      vertex 11.5 -33 0
      vertex 0 -36 0
      vertex 10.3519 -32.7716 0
    endloop
  endfacet
  facet normal 0 0 -1
    outer loop
      vertex 0 -36 0
      vertex 11.5 -33 0
      vertex 40 -36 0
    endloop
  endfacet
  facet normal 0 0 -1
    outer loop
      vertex 32.864 19.2137 0
      vertex 40 -36 0
      vertex 36.2716 -28.8519 0
    endloop
  endfacet
  facet normal 0 0 -1
    outer loop
      vertex 32.864 19.2137 0
      vertex 36.2716 -28.8519 0
      vertex 35.6213 -27.8787 0
    endloop
  endfacet
  facet normal 0 0 -1
    outer loop
      vertex 32.864 19.2137 0
      vertex 35.6213 -27.8787 0
      vertex 34.648 -27.2284 0
    endloop
  endfacet
  facet normal 0 0 -1
    outer loop
      vertex 31.2716 -19.148 0
      vertex 34.648 -27.2284 0
      vertex 33.5 -27 0
    endloop
  endfacet
  facet normal 0 0 -1
    outer loop
      vertex 40 -36 0
      vertex 33.1 20.4 0
      vertex 40 40.8 0
    endloop
  endfacet
  facet normal 0 0 -1
    outer loop
      vertex 32.864 21.5863 0
      vertex 40 40.8 0
      vertex 33.1 20.4 0
    endloop
  endfacet
  facet normal 0 0 -1
    outer loop
      vertex 32.192 22.592 0
      vertex 40 40.8 0
      vertex 32.864 21.5863 0
    endloop
  endfacet
  facet normal 0 0 -1
    outer loop
      vertex 31.1863 23.264 0
      vertex 40 40.8 0
      vertex 32.192 22.592 0
    endloop
  endfacet
  facet normal 0 0 -1
    outer loop
      vertex 30 23.5 0
      vertex 40 40.8 0
      vertex 31.1863 23.264 0
    endloop
  endfacet
  facet normal 0 0 -1
    outer loop
      vertex 28.8137 23.264 0
      vertex 40 40.8 0
      vertex 30 23.5 0
    endloop
  endfacet
  facet normal 0 0 -1
    outer loop
      vertex 11.1863 23.264 0
      vertex 28.8137 23.264 0
      vertex 27.808 22.592 0
    endloop
  endfacet
  facet normal 0 0 -1
    outer loop
      vertex 12.864 19.2137 0
      vertex 27.136 19.2137 0
      vertex 27.808 18.208 0
    endloop
  endfacet
  facet normal -0 0 -1
    outer loop
      vertex 25.7284 -7.14805 0
      vertex 12.648 -15.2284 0
      vertex 25.5 -6 0
    endloop
  endfacet
  facet normal 0 0 -1
    outer loop
      vertex 14.2716 -16.8519 0
      vertex 25.5 -18 0
      vertex 14.5 -18 0
    endloop
  endfacet
  facet normal -0 0 -1
    outer loop
      vertex 26.3787 -8.12132 0
      vertex 13.6213 -15.8787 0
      vertex 25.7284 -7.14805 0
    endloop
  endfacet
  facet normal 0 0 -1
    outer loop
      vertex 12.648 -15.2284 0
      vertex 25.7284 -7.14805 0
      vertex 13.6213 -15.8787 0
    endloop
  endfacet
  facet normal 0 0 -1
    outer loop
      vertex 11.5 -15 0
      vertex 25.5 -6 0
      vertex 12.648 -15.2284 0
    endloop
  endfacet
  facet normal 0 0 -1
    outer loop
      vertex 27.136 19.2137 0
      vertex 13.1 20.4 0
      vertex 26.9 20.4 0
    endloop
  endfacet
  facet normal 0 0 -1
    outer loop
      vertex 26.9 20.4 0
      vertex 13.1 20.4 0
      vertex 27.136 21.5863 0
    endloop
  endfacet
  facet normal 0 0 -1
    outer loop
      vertex 12.864 21.5863 0
      vertex 27.136 21.5863 0
      vertex 13.1 20.4 0
    endloop
  endfacet
  facet normal 0 0 -1
    outer loop
      vertex 27.136 21.5863 0
      vertex 12.864 21.5863 0
      vertex 27.808 22.592 0
    endloop
  endfacet
  facet normal 0 0 -1
    outer loop
      vertex 12.192 22.592 0
      vertex 27.808 22.592 0
      vertex 12.864 21.5863 0
    endloop
  endfacet
  facet normal 0 0 -1
    outer loop
      vertex 11.1863 23.264 0
      vertex 27.808 22.592 0
      vertex 12.192 22.592 0
    endloop
  endfacet
  facet normal 0 0 -1
    outer loop
      vertex 28.8137 23.264 0
      vertex 11.1863 23.264 0
      vertex 40 40.8 0
    endloop
  endfacet
  facet normal 0 0 -1
    outer loop
      vertex 0 40.8 0
      vertex 11.1863 23.264 0
      vertex 10 23.5 0
    endloop
  endfacet
  facet normal 0 0 -1
    outer loop
      vertex 0 40.8 0
      vertex 10 23.5 0
      vertex 8.81368 23.264 0
    endloop
  endfacet
  facet normal 0 0 -1
    outer loop
      vertex 11.1863 23.264 0
      vertex 0 40.8 0
      vertex 40 40.8 0
    endloop
  endfacet
  facet normal 0 0 -1
    outer loop
      vertex 7.80797 22.592 0
      vertex 0 40.8 0
      vertex 8.81368 23.264 0
    endloop
  endfacet
  facet normal 0 0 -1
    outer loop
      vertex 7.13597 21.5863 0
      vertex 0 40.8 0
      vertex 7.80797 22.592 0
    endloop
  endfacet
  facet normal 0 0 -1
    outer loop
      vertex 6.9 20.4 0
      vertex 0 40.8 0
      vertex 7.13597 21.5863 0
    endloop
  endfacet
  facet normal 0 0 -1
    outer loop
      vertex 0 40.8 0
      vertex 6.9 20.4 0
      vertex 0 -36 0
    endloop
  endfacet
  facet normal 0 0 -1
    outer loop
      vertex 31.2716 -4.85195 0
      vertex 32.864 19.2137 0
      vertex 31.5 -6 0
    endloop
  endfacet
  facet normal 0 0 -1
    outer loop
      vertex 32.864 19.2137 0
      vertex 31.2716 -4.85195 0
      vertex 32.192 18.208 0
    endloop
  endfacet
  facet normal 0 0 -1
    outer loop
      vertex 30.6213 -3.87868 0
      vertex 32.192 18.208 0
      vertex 31.2716 -4.85195 0
    endloop
  endfacet
  facet normal 0 0 -1
    outer loop
      vertex 32.192 18.208 0
      vertex 30.6213 -3.87868 0
      vertex 31.1863 17.536 0
    endloop
  endfacet
  facet normal 0 0 -1
    outer loop
      vertex 29.648 -3.22836 0
      vertex 31.1863 17.536 0
      vertex 30.6213 -3.87868 0
    endloop
  endfacet
  facet normal 0 0 -1
    outer loop
      vertex 31.1863 17.536 0
      vertex 29.648 -3.22836 0
      vertex 30 17.3 0
    endloop
  endfacet
  facet normal 0 0 -1
    outer loop
      vertex 28.5 -3 0
      vertex 30 17.3 0
      vertex 29.648 -3.22836 0
    endloop
  endfacet
  facet normal -0 0 -1
    outer loop
      vertex 30 17.3 0
      vertex 28.5 -3 0
      vertex 28.8137 17.536 0
    endloop
  endfacet
  facet normal 0 0 -1
    outer loop
      vertex 27.3519 -3.22836 0
      vertex 28.8137 17.536 0
      vertex 28.5 -3 0
    endloop
  endfacet
  facet normal -0 0 -1
    outer loop
      vertex 28.8137 17.536 0
      vertex 27.3519 -3.22836 0
      vertex 27.808 18.208 0
    endloop
  endfacet
  facet normal 0 0 -1
    outer loop
      vertex 12.864 19.2137 0
      vertex 27.3519 -3.22836 0
      vertex 26.3787 -3.87868 0
    endloop
  endfacet
  facet normal 0 0 -1
    outer loop
      vertex 27.3519 -3.22836 0
      vertex 12.864 19.2137 0
      vertex 27.808 18.208 0
    endloop
  endfacet
  facet normal 0 0 -1
    outer loop
      vertex 12.864 19.2137 0
      vertex 26.3787 -3.87868 0
      vertex 25.7284 -4.85195 0
    endloop
  endfacet
  facet normal -0.98078 -0.195114 0
    outer loop
      vertex 13.1 20.4 0
      vertex 12.864 21.5863 8
      vertex 12.864 21.5863 0
    endloop
  endfacet
  facet normal -0.98078 -0.195114 0
    outer loop
      vertex 12.864 21.5863 8
      vertex 13.1 20.4 0
      vertex 13.1 20.4 8
    endloop
  endfacet
  facet normal 0.980785 -0.195091 0
    outer loop
      vertex 6.9 20.4 8
      vertex 7.13597 21.5863 0
      vertex 7.13597 21.5863 8
    endloop
  endfacet
  facet normal 0.980785 -0.195091 0
    outer loop
      vertex 7.13597 21.5863 0
      vertex 6.9 20.4 8
      vertex 6.9 20.4 0
    endloop
  endfacet
  facet normal -0.195114 -0.98078 0
    outer loop
      vertex 10 23.5 0
      vertex 11.1863 23.264 8
      vertex 10 23.5 8
    endloop
  endfacet
  facet normal -0.195114 -0.98078 -0
    outer loop
      vertex 11.1863 23.264 8
      vertex 10 23.5 0
      vertex 11.1863 23.264 0
    endloop
  endfacet
  facet normal -0.831465 -0.555578 0
    outer loop
      vertex 12.864 21.5863 0
      vertex 12.192 22.592 8
      vertex 12.192 22.592 0
    endloop
  endfacet
  facet normal -0.831465 -0.555578 0
    outer loop
      vertex 12.192 22.592 8
      vertex 12.864 21.5863 0
      vertex 12.864 21.5863 8
    endloop
  endfacet
  facet normal 0.195111 0.980781 -0
    outer loop
      vertex 10 17.3 0
      vertex 8.81368 17.536 8
      vertex 10 17.3 8
    endloop
  endfacet
  facet normal 0.195111 0.980781 0
    outer loop
      vertex 8.81368 17.536 8
      vertex 10 17.3 0
      vertex 8.81368 17.536 0
    endloop
  endfacet
  facet normal -0.555578 -0.831465 0
    outer loop
      vertex 11.1863 23.264 0
      vertex 12.192 22.592 8
      vertex 11.1863 23.264 8
    endloop
  endfacet
  facet normal -0.555578 -0.831465 -0
    outer loop
      vertex 12.192 22.592 8
      vertex 11.1863 23.264 0
      vertex 12.192 22.592 0
    endloop
  endfacet
  facet normal 0.195111 -0.980781 0
    outer loop
      vertex 8.81368 23.264 0
      vertex 10 23.5 8
      vertex 8.81368 23.264 8
    endloop
  endfacet
  facet normal 0.195111 -0.980781 0
    outer loop
      vertex 10 23.5 8
      vertex 8.81368 23.264 0
      vertex 10 23.5 0
    endloop
  endfacet
  facet normal 0.555574 -0.831467 0
    outer loop
      vertex 7.80797 22.592 0
      vertex 8.81368 23.264 8
      vertex 7.80797 22.592 8
    endloop
  endfacet
  facet normal 0.555574 -0.831467 0
    outer loop
      vertex 8.81368 23.264 8
      vertex 7.80797 22.592 0
      vertex 8.81368 23.264 0
    endloop
  endfacet
  facet normal -0.195114 0.98078 0
    outer loop
      vertex 11.1863 17.536 0
      vertex 10 17.3 8
      vertex 11.1863 17.536 8
    endloop
  endfacet
  facet normal -0.195114 0.98078 0
    outer loop
      vertex 10 17.3 8
      vertex 11.1863 17.536 0
      vertex 10 17.3 0
    endloop
  endfacet
  facet normal -0.555578 0.831465 0
    outer loop
      vertex 12.192 18.208 0
      vertex 11.1863 17.536 8
      vertex 12.192 18.208 8
    endloop
  endfacet
  facet normal -0.555578 0.831465 0
    outer loop
      vertex 11.1863 17.536 8
      vertex 12.192 18.208 0
      vertex 11.1863 17.536 0
    endloop
  endfacet
  facet normal 0.980785 0.195091 0
    outer loop
      vertex 7.13597 19.2137 8
      vertex 6.9 20.4 0
      vertex 6.9 20.4 8
    endloop
  endfacet
  facet normal 0.980785 0.195091 0
    outer loop
      vertex 6.9 20.4 0
      vertex 7.13597 19.2137 8
      vertex 7.13597 19.2137 0
    endloop
  endfacet
  facet normal 0.555574 0.831467 -0
    outer loop
      vertex 8.81368 17.536 0
      vertex 7.80797 18.208 8
      vertex 8.81368 17.536 8
    endloop
  endfacet
  facet normal 0.555574 0.831467 0
    outer loop
      vertex 7.80797 18.208 8
      vertex 8.81368 17.536 0
      vertex 7.80797 18.208 0
    endloop
  endfacet
  facet normal 0.831465 0.555578 0
    outer loop
      vertex 7.80797 18.208 8
      vertex 7.13597 19.2137 0
      vertex 7.13597 19.2137 8
    endloop
  endfacet
  facet normal 0.831465 0.555578 0
    outer loop
      vertex 7.13597 19.2137 0
      vertex 7.80797 18.208 8
      vertex 7.80797 18.208 0
    endloop
  endfacet
  facet normal 0.831465 -0.555578 0
    outer loop
      vertex 7.13597 21.5863 8
      vertex 7.80797 22.592 0
      vertex 7.80797 22.592 8
    endloop
  endfacet
  facet normal 0.831465 -0.555578 0
    outer loop
      vertex 7.80797 22.592 0
      vertex 7.13597 21.5863 8
      vertex 7.13597 21.5863 0
    endloop
  endfacet
  facet normal -0.831465 0.555578 0
    outer loop
      vertex 12.192 18.208 0
      vertex 12.864 19.2137 8
      vertex 12.864 19.2137 0
    endloop
  endfacet
  facet normal -0.831465 0.555578 0
    outer loop
      vertex 12.864 19.2137 8
      vertex 12.192 18.208 0
      vertex 12.192 18.208 8
    endloop
  endfacet
  facet normal -0.98078 0.195114 0
    outer loop
      vertex 12.864 19.2137 0
      vertex 13.1 20.4 8
      vertex 13.1 20.4 0
    endloop
  endfacet
  facet normal -0.98078 0.195114 0
    outer loop
      vertex 13.1 20.4 8
      vertex 12.864 19.2137 0
      vertex 12.864 19.2137 8
    endloop
  endfacet
  facet normal -0.98078 -0.195114 0
    outer loop
      vertex 33.1 20.4 0
      vertex 32.864 21.5863 8
      vertex 32.864 21.5863 0
    endloop
  endfacet
  facet normal -0.98078 -0.195114 0
    outer loop
      vertex 32.864 21.5863 8
      vertex 33.1 20.4 0
      vertex 33.1 20.4 8
    endloop
  endfacet
  facet normal 0.98078 -0.195114 0
    outer loop
      vertex 26.9 20.4 8
      vertex 27.136 21.5863 0
      vertex 27.136 21.5863 8
    endloop
  endfacet
  facet normal 0.98078 -0.195114 0
    outer loop
      vertex 27.136 21.5863 0
      vertex 26.9 20.4 8
      vertex 26.9 20.4 0
    endloop
  endfacet
  facet normal -0.195114 -0.98078 0
    outer loop
      vertex 30 23.5 0
      vertex 31.1863 23.264 8
      vertex 30 23.5 8
    endloop
  endfacet
  facet normal -0.195114 -0.98078 -0
    outer loop
      vertex 31.1863 23.264 8
      vertex 30 23.5 0
      vertex 31.1863 23.264 0
    endloop
  endfacet
  facet normal -0.831465 -0.555578 0
    outer loop
      vertex 32.864 21.5863 0
      vertex 32.192 22.592 8
      vertex 32.192 22.592 0
    endloop
  endfacet
  facet normal -0.831465 -0.555578 0
    outer loop
      vertex 32.192 22.592 8
      vertex 32.864 21.5863 0
      vertex 32.864 21.5863 8
    endloop
  endfacet
  facet normal -0.555578 -0.831465 0
    outer loop
      vertex 31.1863 23.264 0
      vertex 32.192 22.592 8
      vertex 31.1863 23.264 8
    endloop
  endfacet
  facet normal -0.555578 -0.831465 -0
    outer loop
      vertex 32.192 22.592 8
      vertex 31.1863 23.264 0
      vertex 32.192 22.592 0
    endloop
  endfacet
  facet normal 0.555578 -0.831465 0
    outer loop
      vertex 27.808 22.592 0
      vertex 28.8137 23.264 8
      vertex 27.808 22.592 8
    endloop
  endfacet
  facet normal 0.555578 -0.831465 0
    outer loop
      vertex 28.8137 23.264 8
      vertex 27.808 22.592 0
      vertex 28.8137 23.264 0
    endloop
  endfacet
  facet normal 0.831465 -0.555578 0
    outer loop
      vertex 27.136 21.5863 8
      vertex 27.808 22.592 0
      vertex 27.808 22.592 8
    endloop
  endfacet
  facet normal 0.831465 -0.555578 0
    outer loop
      vertex 27.808 22.592 0
      vertex 27.136 21.5863 8
      vertex 27.136 21.5863 0
    endloop
  endfacet
  facet normal 0.195114 -0.98078 0
    outer loop
      vertex 28.8137 23.264 0
      vertex 30 23.5 8
      vertex 28.8137 23.264 8
    endloop
  endfacet
  facet normal 0.195114 -0.98078 0
    outer loop
      vertex 30 23.5 8
      vertex 28.8137 23.264 0
      vertex 30 23.5 0
    endloop
  endfacet
  facet normal -0.195114 0.98078 0
    outer loop
      vertex 31.1863 17.536 0
      vertex 30 17.3 8
      vertex 31.1863 17.536 8
    endloop
  endfacet
  facet normal -0.195114 0.98078 0
    outer loop
      vertex 30 17.3 8
      vertex 31.1863 17.536 0
      vertex 30 17.3 0
    endloop
  endfacet
  facet normal -0.831465 0.555578 0
    outer loop
      vertex 32.192 18.208 0
      vertex 32.864 19.2137 8
      vertex 32.864 19.2137 0
    endloop
  endfacet
  facet normal -0.831465 0.555578 0
    outer loop
      vertex 32.864 19.2137 8
      vertex 32.192 18.208 0
      vertex 32.192 18.208 8
    endloop
  endfacet
  facet normal 0.555578 0.831465 -0
    outer loop
      vertex 28.8137 17.536 0
      vertex 27.808 18.208 8
      vertex 28.8137 17.536 8
    endloop
  endfacet
  facet normal 0.555578 0.831465 0
    outer loop
      vertex 27.808 18.208 8
      vertex 28.8137 17.536 0
      vertex 27.808 18.208 0
    endloop
  endfacet
  facet normal 0.98078 0.195114 0
    outer loop
      vertex 27.136 19.2137 8
      vertex 26.9 20.4 0
      vertex 26.9 20.4 8
    endloop
  endfacet
  facet normal 0.98078 0.195114 0
    outer loop
      vertex 26.9 20.4 0
      vertex 27.136 19.2137 8
      vertex 27.136 19.2137 0
    endloop
  endfacet
  facet normal -0.98078 0.195114 0
    outer loop
      vertex 32.864 19.2137 0
      vertex 33.1 20.4 8
      vertex 33.1 20.4 0
    endloop
  endfacet
  facet normal -0.98078 0.195114 0
    outer loop
      vertex 33.1 20.4 8
      vertex 32.864 19.2137 0
      vertex 32.864 19.2137 8
    endloop
  endfacet
  facet normal -0.555578 0.831465 0
    outer loop
      vertex 32.192 18.208 0
      vertex 31.1863 17.536 8
      vertex 32.192 18.208 8
    endloop
  endfacet
  facet normal -0.555578 0.831465 0
    outer loop
      vertex 31.1863 17.536 8
      vertex 32.192 18.208 0
      vertex 31.1863 17.536 0
    endloop
  endfacet
  facet normal 0.195114 0.98078 -0
    outer loop
      vertex 30 17.3 0
      vertex 28.8137 17.536 8
      vertex 30 17.3 8
    endloop
  endfacet
  facet normal 0.195114 0.98078 0
    outer loop
      vertex 28.8137 17.536 8
      vertex 30 17.3 0
      vertex 28.8137 17.536 0
    endloop
  endfacet
  facet normal 0.831465 0.555578 0
    outer loop
      vertex 27.808 18.208 8
      vertex 27.136 19.2137 0
      vertex 27.136 19.2137 8
    endloop
  endfacet
  facet normal 0.831465 0.555578 0
    outer loop
      vertex 27.136 19.2137 0
      vertex 27.808 18.208 8
      vertex 27.808 18.208 0
    endloop
  endfacet
  facet normal 0 -1 0
    outer loop
      vertex 0 -36 0
      vertex 40 -36 8
      vertex 0 -36 8
    endloop
  endfacet
  facet normal 0 -1 -0
    outer loop
      vertex 40 -36 8
      vertex 0 -36 0
      vertex 40 -36 0
    endloop
  endfacet
  facet normal -0.980779 -0.195122 0
    outer loop
      vertex 31.5 -6 0
      vertex 31.2716 -4.85195 8
      vertex 31.2716 -4.85195 0
    endloop
  endfacet
  facet normal -0.980779 -0.195122 0
    outer loop
      vertex 31.2716 -4.85195 8
      vertex 31.5 -6 0
      vertex 31.5 -6 8
    endloop
  endfacet
  facet normal 0.195081 -0.980787 0
    outer loop
      vertex 27.3519 -3.22836 0
      vertex 28.5 -3 8
      vertex 27.3519 -3.22836 8
    endloop
  endfacet
  facet normal 0.195081 -0.980787 0
    outer loop
      vertex 28.5 -3 8
      vertex 27.3519 -3.22836 0
      vertex 28.5 -3 0
    endloop
  endfacet
  facet normal 0.980779 0.195122 0
    outer loop
      vertex 25.7284 -7.14805 8
      vertex 25.5 -6 0
      vertex 25.5 -6 8
    endloop
  endfacet
  facet normal 0.980779 0.195122 0
    outer loop
      vertex 25.5 -6 0
      vertex 25.7284 -7.14805 8
      vertex 25.7284 -7.14805 0
    endloop
  endfacet
  facet normal -0.555559 -0.831477 0
    outer loop
      vertex 29.648 -3.22836 0
      vertex 30.6213 -3.87868 8
      vertex 29.648 -3.22836 8
    endloop
  endfacet
  facet normal -0.555559 -0.831477 -0
    outer loop
      vertex 30.6213 -3.87868 8
      vertex 29.648 -3.22836 0
      vertex 30.6213 -3.87868 0
    endloop
  endfacet
  facet normal -0.831477 -0.555559 0
    outer loop
      vertex 31.2716 -4.85195 0
      vertex 30.6213 -3.87868 8
      vertex 30.6213 -3.87868 0
    endloop
  endfacet
  facet normal -0.831477 -0.555559 0
    outer loop
      vertex 30.6213 -3.87868 8
      vertex 31.2716 -4.85195 0
      vertex 31.2716 -4.85195 8
    endloop
  endfacet
  facet normal -0.195097 -0.980784 0
    outer loop
      vertex 28.5 -3 0
      vertex 29.648 -3.22836 8
      vertex 28.5 -3 8
    endloop
  endfacet
  facet normal -0.195097 -0.980784 -0
    outer loop
      vertex 29.648 -3.22836 8
      vertex 28.5 -3 0
      vertex 29.648 -3.22836 0
    endloop
  endfacet
  facet normal 0.555599 -0.83145 0
    outer loop
      vertex 26.3787 -3.87868 0
      vertex 27.3519 -3.22836 8
      vertex 26.3787 -3.87868 8
    endloop
  endfacet
  facet normal 0.555599 -0.83145 0
    outer loop
      vertex 27.3519 -3.22836 8
      vertex 26.3787 -3.87868 0
      vertex 27.3519 -3.22836 0
    endloop
  endfacet
  facet normal 0.831477 -0.555559 0
    outer loop
      vertex 25.7284 -4.85195 8
      vertex 26.3787 -3.87868 0
      vertex 26.3787 -3.87868 8
    endloop
  endfacet
  facet normal 0.831477 -0.555559 0
    outer loop
      vertex 26.3787 -3.87868 0
      vertex 25.7284 -4.85195 8
      vertex 25.7284 -4.85195 0
    endloop
  endfacet
  facet normal -0.980779 0.195122 0
    outer loop
      vertex 31.2716 -7.14805 0
      vertex 31.5 -6 8
      vertex 31.5 -6 0
    endloop
  endfacet
  facet normal -0.980779 0.195122 0
    outer loop
      vertex 31.5 -6 8
      vertex 31.2716 -7.14805 0
      vertex 31.2716 -7.14805 8
    endloop
  endfacet
  facet normal 0.831477 0.555559 0
    outer loop
      vertex 26.3787 -8.12132 8
      vertex 25.7284 -7.14805 0
      vertex 25.7284 -7.14805 8
    endloop
  endfacet
  facet normal 0.831477 0.555559 0
    outer loop
      vertex 25.7284 -7.14805 0
      vertex 26.3787 -8.12132 8
      vertex 26.3787 -8.12132 0
    endloop
  endfacet
  facet normal -0.195097 0.980784 0
    outer loop
      vertex 29.648 -8.77164 0
      vertex 28.5 -9 8
      vertex 29.648 -8.77164 8
    endloop
  endfacet
  facet normal -0.195097 0.980784 0
    outer loop
      vertex 28.5 -9 8
      vertex 29.648 -8.77164 0
      vertex 28.5 -9 0
    endloop
  endfacet
  facet normal 0.555599 0.83145 -0
    outer loop
      vertex 27.3519 -8.77164 0
      vertex 26.3787 -8.12132 8
      vertex 27.3519 -8.77164 8
    endloop
  endfacet
  facet normal 0.555599 0.83145 0
    outer loop
      vertex 26.3787 -8.12132 8
      vertex 27.3519 -8.77164 0
      vertex 26.3787 -8.12132 0
    endloop
  endfacet
  facet normal 0.980779 -0.195122 0
    outer loop
      vertex 25.5 -6 8
      vertex 25.7284 -4.85195 0
      vertex 25.7284 -4.85195 8
    endloop
  endfacet
  facet normal 0.980779 -0.195122 0
    outer loop
      vertex 25.7284 -4.85195 0
      vertex 25.5 -6 8
      vertex 25.5 -6 0
    endloop
  endfacet
  facet normal 0.195081 0.980787 -0
    outer loop
      vertex 28.5 -9 0
      vertex 27.3519 -8.77164 8
      vertex 28.5 -9 8
    endloop
  endfacet
  facet normal 0.195081 0.980787 0
    outer loop
      vertex 27.3519 -8.77164 8
      vertex 28.5 -9 0
      vertex 27.3519 -8.77164 0
    endloop
  endfacet
  facet normal -0.555559 0.831477 0
    outer loop
      vertex 30.6213 -8.12132 0
      vertex 29.648 -8.77164 8
      vertex 30.6213 -8.12132 8
    endloop
  endfacet
  facet normal -0.555559 0.831477 0
    outer loop
      vertex 29.648 -8.77164 8
      vertex 30.6213 -8.12132 0
      vertex 29.648 -8.77164 0
    endloop
  endfacet
  facet normal -0.831477 0.555559 0
    outer loop
      vertex 30.6213 -8.12132 0
      vertex 31.2716 -7.14805 8
      vertex 31.2716 -7.14805 0
    endloop
  endfacet
  facet normal -0.831477 0.555559 0
    outer loop
      vertex 31.2716 -7.14805 8
      vertex 30.6213 -8.12132 0
      vertex 30.6213 -8.12132 8
    endloop
  endfacet
  facet normal -0.980781 -0.195114 0
    outer loop
      vertex 14.5 -30 0
      vertex 14.2716 -28.8519 8
      vertex 14.2716 -28.8519 0
    endloop
  endfacet
  facet normal -0.980781 -0.195114 0
    outer loop
      vertex 14.2716 -28.8519 8
      vertex 14.5 -30 0
      vertex 14.5 -30 8
    endloop
  endfacet
  facet normal 0.195114 -0.980781 0
    outer loop
      vertex 10.3519 -27.2284 0
      vertex 11.5 -27 8
      vertex 10.3519 -27.2284 8
    endloop
  endfacet
  facet normal 0.195114 -0.980781 0
    outer loop
      vertex 11.5 -27 8
      vertex 10.3519 -27.2284 0
      vertex 11.5 -27 0
    endloop
  endfacet
  facet normal 0.980784 0.195097 0
    outer loop
      vertex 8.72836 -31.148 8
      vertex 8.5 -30 0
      vertex 8.5 -30 8
    endloop
  endfacet
  facet normal 0.980784 0.195097 0
    outer loop
      vertex 8.5 -30 0
      vertex 8.72836 -31.148 8
      vertex 8.72836 -31.148 0
    endloop
  endfacet
  facet normal -0.555548 -0.831485 0
    outer loop
      vertex 12.648 -27.2284 0
      vertex 13.6213 -27.8787 8
      vertex 12.648 -27.2284 8
    endloop
  endfacet
  facet normal -0.555548 -0.831485 -0
    outer loop
      vertex 13.6213 -27.8787 8
      vertex 12.648 -27.2284 0
      vertex 13.6213 -27.8787 0
    endloop
  endfacet
  facet normal -0.831458 -0.555587 0
    outer loop
      vertex 14.2716 -28.8519 0
      vertex 13.6213 -27.8787 8
      vertex 13.6213 -27.8787 0
    endloop
  endfacet
  facet normal -0.831458 -0.555587 0
    outer loop
      vertex 13.6213 -27.8787 8
      vertex 14.2716 -28.8519 0
      vertex 14.2716 -28.8519 8
    endloop
  endfacet
  facet normal 0.555579 -0.831464 0
    outer loop
      vertex 9.37868 -27.8787 0
      vertex 10.3519 -27.2284 8
      vertex 9.37868 -27.8787 8
    endloop
  endfacet
  facet normal 0.555579 -0.831464 0
    outer loop
      vertex 10.3519 -27.2284 8
      vertex 9.37868 -27.8787 0
      vertex 10.3519 -27.2284 0
    endloop
  endfacet
  facet normal 0.83145 -0.555599 0
    outer loop
      vertex 8.72836 -28.8519 8
      vertex 9.37868 -27.8787 0
      vertex 9.37868 -27.8787 8
    endloop
  endfacet
  facet normal 0.83145 -0.555599 0
    outer loop
      vertex 9.37868 -27.8787 0
      vertex 8.72836 -28.8519 8
      vertex 8.72836 -28.8519 0
    endloop
  endfacet
  facet normal -0.980777 0.19513 0
    outer loop
      vertex 14.2716 -31.148 0
      vertex 14.5 -30 8
      vertex 14.5 -30 0
    endloop
  endfacet
  facet normal -0.980777 0.19513 0
    outer loop
      vertex 14.5 -30 8
      vertex 14.2716 -31.148 0
      vertex 14.2716 -31.148 8
    endloop
  endfacet
  facet normal 0.831477 0.555559 0
    outer loop
      vertex 9.37868 -32.1213 8
      vertex 8.72836 -31.148 0
      vertex 8.72836 -31.148 8
    endloop
  endfacet
  facet normal 0.831477 0.555559 0
    outer loop
      vertex 8.72836 -31.148 0
      vertex 9.37868 -32.1213 8
      vertex 9.37868 -32.1213 0
    endloop
  endfacet
  facet normal -0.19513 0.980777 0
    outer loop
      vertex 12.648 -32.7716 0
      vertex 11.5 -33 8
      vertex 12.648 -32.7716 8
    endloop
  endfacet
  facet normal -0.19513 0.980777 0
    outer loop
      vertex 11.5 -33 8
      vertex 12.648 -32.7716 0
      vertex 11.5 -33 0
    endloop
  endfacet
  facet normal 0.555579 0.831464 -0
    outer loop
      vertex 10.3519 -32.7716 0
      vertex 9.37868 -32.1213 8
      vertex 10.3519 -32.7716 8
    endloop
  endfacet
  facet normal 0.555579 0.831464 0
    outer loop
      vertex 9.37868 -32.1213 8
      vertex 10.3519 -32.7716 0
      vertex 9.37868 -32.1213 0
    endloop
  endfacet
  facet normal -0.19513 -0.980777 0
    outer loop
      vertex 11.5 -27 0
      vertex 12.648 -27.2284 8
      vertex 11.5 -27 8
    endloop
  endfacet
  facet normal -0.19513 -0.980777 -0
    outer loop
      vertex 12.648 -27.2284 8
      vertex 11.5 -27 0
      vertex 12.648 -27.2284 0
    endloop
  endfacet
  facet normal 0.980787 -0.195081 0
    outer loop
      vertex 8.5 -30 8
      vertex 8.72836 -28.8519 0
      vertex 8.72836 -28.8519 8
    endloop
  endfacet
  facet normal 0.980787 -0.195081 0
    outer loop
      vertex 8.72836 -28.8519 0
      vertex 8.5 -30 8
      vertex 8.5 -30 0
    endloop
  endfacet
  facet normal 0.195114 0.980781 -0
    outer loop
      vertex 11.5 -33 0
      vertex 10.3519 -32.7716 8
      vertex 11.5 -33 8
    endloop
  endfacet
  facet normal 0.195114 0.980781 0
    outer loop
      vertex 10.3519 -32.7716 8
      vertex 11.5 -33 0
      vertex 10.3519 -32.7716 0
    endloop
  endfacet
  facet normal -0.555548 0.831485 0
    outer loop
      vertex 13.6213 -32.1213 0
      vertex 12.648 -32.7716 8
      vertex 13.6213 -32.1213 8
    endloop
  endfacet
  facet normal -0.555548 0.831485 0
    outer loop
      vertex 12.648 -32.7716 8
      vertex 13.6213 -32.1213 0
      vertex 12.648 -32.7716 0
    endloop
  endfacet
  facet normal -0.831485 0.555548 0
    outer loop
      vertex 13.6213 -32.1213 0
      vertex 14.2716 -31.148 8
      vertex 14.2716 -31.148 0
    endloop
  endfacet
  facet normal -0.831485 0.555548 0
    outer loop
      vertex 14.2716 -31.148 8
      vertex 13.6213 -32.1213 0
      vertex 13.6213 -32.1213 8
    endloop
  endfacet
  facet normal -0.980781 -0.195114 0
    outer loop
      vertex 36.5 -30 0
      vertex 36.2716 -28.8519 8
      vertex 36.2716 -28.8519 0
    endloop
  endfacet
  facet normal -0.980781 -0.195114 0
    outer loop
      vertex 36.2716 -28.8519 8
      vertex 36.5 -30 0
      vertex 36.5 -30 8
    endloop
  endfacet
  facet normal 0.19513 -0.980777 0
    outer loop
      vertex 32.352 -27.2284 0
      vertex 33.5 -27 8
      vertex 32.352 -27.2284 8
    endloop
  endfacet
  facet normal 0.19513 -0.980777 0
    outer loop
      vertex 33.5 -27 8
      vertex 32.352 -27.2284 0
      vertex 33.5 -27 0
    endloop
  endfacet
  facet normal 0.980777 0.19513 0
    outer loop
      vertex 30.7284 -31.148 8
      vertex 30.5 -30 0
      vertex 30.5 -30 8
    endloop
  endfacet
  facet normal 0.980777 0.19513 0
    outer loop
      vertex 30.5 -30 0
      vertex 30.7284 -31.148 8
      vertex 30.7284 -31.148 0
    endloop
  endfacet
  facet normal -0.555548 -0.831485 0
    outer loop
      vertex 34.648 -27.2284 0
      vertex 35.6213 -27.8787 8
      vertex 34.648 -27.2284 8
    endloop
  endfacet
  facet normal -0.555548 -0.831485 -0
    outer loop
      vertex 35.6213 -27.8787 8
      vertex 34.648 -27.2284 0
      vertex 35.6213 -27.8787 0
    endloop
  endfacet
  facet normal -0.831458 -0.555587 0
    outer loop
      vertex 36.2716 -28.8519 0
      vertex 35.6213 -27.8787 8
      vertex 35.6213 -27.8787 0
    endloop
  endfacet
  facet normal -0.831458 -0.555587 0
    outer loop
      vertex 35.6213 -27.8787 8
      vertex 36.2716 -28.8519 0
      vertex 36.2716 -28.8519 8
    endloop
  endfacet
  facet normal -0.19513 -0.980777 0
    outer loop
      vertex 33.5 -27 0
      vertex 34.648 -27.2284 8
      vertex 33.5 -27 8
    endloop
  endfacet
  facet normal -0.19513 -0.980777 -0
    outer loop
      vertex 34.648 -27.2284 8
      vertex 33.5 -27 0
      vertex 34.648 -27.2284 0
    endloop
  endfacet
  facet normal 0.555548 -0.831485 0
    outer loop
      vertex 31.3787 -27.8787 0
      vertex 32.352 -27.2284 8
      vertex 31.3787 -27.8787 8
    endloop
  endfacet
  facet normal 0.555548 -0.831485 0
    outer loop
      vertex 32.352 -27.2284 8
      vertex 31.3787 -27.8787 0
      vertex 32.352 -27.2284 0
    endloop
  endfacet
  facet normal 0.831458 -0.555587 0
    outer loop
      vertex 30.7284 -28.8519 8
      vertex 31.3787 -27.8787 0
      vertex 31.3787 -27.8787 8
    endloop
  endfacet
  facet normal 0.831458 -0.555587 0
    outer loop
      vertex 31.3787 -27.8787 0
      vertex 30.7284 -28.8519 8
      vertex 30.7284 -28.8519 0
    endloop
  endfacet
  facet normal -0.980777 0.19513 0
    outer loop
      vertex 36.2716 -31.148 0
      vertex 36.5 -30 8
      vertex 36.5 -30 0
    endloop
  endfacet
  facet normal -0.980777 0.19513 0
    outer loop
      vertex 36.5 -30 8
      vertex 36.2716 -31.148 0
      vertex 36.2716 -31.148 8
    endloop
  endfacet
  facet normal 0.831485 0.555548 0
    outer loop
      vertex 31.3787 -32.1213 8
      vertex 30.7284 -31.148 0
      vertex 30.7284 -31.148 8
    endloop
  endfacet
  facet normal 0.831485 0.555548 0
    outer loop
      vertex 30.7284 -31.148 0
      vertex 31.3787 -32.1213 8
      vertex 31.3787 -32.1213 0
    endloop
  endfacet
  facet normal -0.19513 0.980777 0
    outer loop
      vertex 34.648 -32.7716 0
      vertex 33.5 -33 8
      vertex 34.648 -32.7716 8
    endloop
  endfacet
  facet normal -0.19513 0.980777 0
    outer loop
      vertex 33.5 -33 8
      vertex 34.648 -32.7716 0
      vertex 33.5 -33 0
    endloop
  endfacet
  facet normal 0.555548 0.831485 -0
    outer loop
      vertex 32.352 -32.7716 0
      vertex 31.3787 -32.1213 8
      vertex 32.352 -32.7716 8
    endloop
  endfacet
  facet normal 0.555548 0.831485 0
    outer loop
      vertex 31.3787 -32.1213 8
      vertex 32.352 -32.7716 0
      vertex 31.3787 -32.1213 0
    endloop
  endfacet
  facet normal 0.980781 -0.195114 0
    outer loop
      vertex 30.5 -30 8
      vertex 30.7284 -28.8519 0
      vertex 30.7284 -28.8519 8
    endloop
  endfacet
  facet normal 0.980781 -0.195114 0
    outer loop
      vertex 30.7284 -28.8519 0
      vertex 30.5 -30 8
      vertex 30.5 -30 0
    endloop
  endfacet
  facet normal 0.19513 0.980777 -0
    outer loop
      vertex 33.5 -33 0
      vertex 32.352 -32.7716 8
      vertex 33.5 -33 8
    endloop
  endfacet
  facet normal 0.19513 0.980777 0
    outer loop
      vertex 32.352 -32.7716 8
      vertex 33.5 -33 0
      vertex 32.352 -32.7716 0
    endloop
  endfacet
  facet normal -0.555548 0.831485 0
    outer loop
      vertex 35.6213 -32.1213 0
      vertex 34.648 -32.7716 8
      vertex 35.6213 -32.1213 8
    endloop
  endfacet
  facet normal -0.555548 0.831485 0
    outer loop
      vertex 34.648 -32.7716 8
      vertex 35.6213 -32.1213 0
      vertex 34.648 -32.7716 0
    endloop
  endfacet
  facet normal -0.831485 0.555548 0
    outer loop
      vertex 35.6213 -32.1213 0
      vertex 36.2716 -31.148 8
      vertex 36.2716 -31.148 0
    endloop
  endfacet
  facet normal -0.831485 0.555548 0
    outer loop
      vertex 36.2716 -31.148 8
      vertex 35.6213 -32.1213 0
      vertex 35.6213 -32.1213 8
    endloop
  endfacet
  facet normal -0.980781 -0.195114 0
    outer loop
      vertex 14.5 -18 0
      vertex 14.2716 -16.8519 8
      vertex 14.2716 -16.8519 0
    endloop
  endfacet
  facet normal -0.980781 -0.195114 0
    outer loop
      vertex 14.2716 -16.8519 8
      vertex 14.5 -18 0
      vertex 14.5 -18 8
    endloop
  endfacet
  facet normal 0.980784 0.195097 0
    outer loop
      vertex 8.72836 -19.148 8
      vertex 8.5 -18 0
      vertex 8.5 -18 8
    endloop
  endfacet
  facet normal 0.980784 0.195097 0
    outer loop
      vertex 8.5 -18 0
      vertex 8.72836 -19.148 8
      vertex 8.72836 -19.148 0
    endloop
  endfacet
  facet normal -0.19513 0.980777 0
    outer loop
      vertex 12.648 -20.7716 0
      vertex 11.5 -21 8
      vertex 12.648 -20.7716 8
    endloop
  endfacet
  facet normal -0.19513 0.980777 0
    outer loop
      vertex 11.5 -21 8
      vertex 12.648 -20.7716 0
      vertex 11.5 -21 0
    endloop
  endfacet
  facet normal 0.195114 -0.980781 0
    outer loop
      vertex 10.3519 -15.2284 0
      vertex 11.5 -15 8
      vertex 10.3519 -15.2284 8
    endloop
  endfacet
  facet normal 0.195114 -0.980781 0
    outer loop
      vertex 11.5 -15 8
      vertex 10.3519 -15.2284 0
      vertex 11.5 -15 0
    endloop
  endfacet
  facet normal -0.555548 -0.831485 0
    outer loop
      vertex 12.648 -15.2284 0
      vertex 13.6213 -15.8787 8
      vertex 12.648 -15.2284 8
    endloop
  endfacet
  facet normal -0.555548 -0.831485 -0
    outer loop
      vertex 13.6213 -15.8787 8
      vertex 12.648 -15.2284 0
      vertex 13.6213 -15.8787 0
    endloop
  endfacet
  facet normal -0.831458 -0.555587 0
    outer loop
      vertex 14.2716 -16.8519 0
      vertex 13.6213 -15.8787 8
      vertex 13.6213 -15.8787 0
    endloop
  endfacet
  facet normal -0.831458 -0.555587 0
    outer loop
      vertex 13.6213 -15.8787 8
      vertex 14.2716 -16.8519 0
      vertex 14.2716 -16.8519 8
    endloop
  endfacet
  facet normal -0.19513 -0.980777 0
    outer loop
      vertex 11.5 -15 0
      vertex 12.648 -15.2284 8
      vertex 11.5 -15 8
    endloop
  endfacet
  facet normal -0.19513 -0.980777 -0
    outer loop
      vertex 12.648 -15.2284 8
      vertex 11.5 -15 0
      vertex 12.648 -15.2284 0
    endloop
  endfacet
  facet normal 0.83145 -0.555599 0
    outer loop
      vertex 8.72836 -16.8519 8
      vertex 9.37868 -15.8787 0
      vertex 9.37868 -15.8787 8
    endloop
  endfacet
  facet normal 0.83145 -0.555599 0
    outer loop
      vertex 9.37868 -15.8787 0
      vertex 8.72836 -16.8519 8
      vertex 8.72836 -16.8519 0
    endloop
  endfacet
  facet normal 0.980787 -0.195081 0
    outer loop
      vertex 8.5 -18 8
      vertex 8.72836 -16.8519 0
      vertex 8.72836 -16.8519 8
    endloop
  endfacet
  facet normal 0.980787 -0.195081 0
    outer loop
      vertex 8.72836 -16.8519 0
      vertex 8.5 -18 8
      vertex 8.5 -18 0
    endloop
  endfacet
  facet normal 0.555579 -0.831464 0
    outer loop
      vertex 9.37868 -15.8787 0
      vertex 10.3519 -15.2284 8
      vertex 9.37868 -15.8787 8
    endloop
  endfacet
  facet normal 0.555579 -0.831464 0
    outer loop
      vertex 10.3519 -15.2284 8
      vertex 9.37868 -15.8787 0
      vertex 10.3519 -15.2284 0
    endloop
  endfacet
  facet normal -0.980777 0.19513 0
    outer loop
      vertex 14.2716 -19.148 0
      vertex 14.5 -18 8
      vertex 14.5 -18 0
    endloop
  endfacet
  facet normal -0.980777 0.19513 0
    outer loop
      vertex 14.5 -18 8
      vertex 14.2716 -19.148 0
      vertex 14.2716 -19.148 8
    endloop
  endfacet
  facet normal -0.555548 0.831485 0
    outer loop
      vertex 13.6213 -20.1213 0
      vertex 12.648 -20.7716 8
      vertex 13.6213 -20.1213 8
    endloop
  endfacet
  facet normal -0.555548 0.831485 0
    outer loop
      vertex 12.648 -20.7716 8
      vertex 13.6213 -20.1213 0
      vertex 12.648 -20.7716 0
    endloop
  endfacet
  facet normal 0.195114 0.980781 -0
    outer loop
      vertex 11.5 -21 0
      vertex 10.3519 -20.7716 8
      vertex 11.5 -21 8
    endloop
  endfacet
  facet normal 0.195114 0.980781 0
    outer loop
      vertex 10.3519 -20.7716 8
      vertex 11.5 -21 0
      vertex 10.3519 -20.7716 0
    endloop
  endfacet
  facet normal 0.555579 0.831464 -0
    outer loop
      vertex 10.3519 -20.7716 0
      vertex 9.37868 -20.1213 8
      vertex 10.3519 -20.7716 8
    endloop
  endfacet
  facet normal 0.555579 0.831464 0
    outer loop
      vertex 9.37868 -20.1213 8
      vertex 10.3519 -20.7716 0
      vertex 9.37868 -20.1213 0
    endloop
  endfacet
  facet normal 0.831477 0.555559 0
    outer loop
      vertex 9.37868 -20.1213 8
      vertex 8.72836 -19.148 0
      vertex 8.72836 -19.148 8
    endloop
  endfacet
  facet normal 0.831477 0.555559 0
    outer loop
      vertex 8.72836 -19.148 0
      vertex 9.37868 -20.1213 8
      vertex 9.37868 -20.1213 0
    endloop
  endfacet
  facet normal -0.831485 0.555548 0
    outer loop
      vertex 13.6213 -20.1213 0
      vertex 14.2716 -19.148 8
      vertex 14.2716 -19.148 0
    endloop
  endfacet
  facet normal -0.831485 0.555548 0
    outer loop
      vertex 14.2716 -19.148 8
      vertex 13.6213 -20.1213 0
      vertex 13.6213 -20.1213 8
    endloop
  endfacet
  facet normal -0.980781 -0.195114 0
    outer loop
      vertex 31.5 -18 0
      vertex 31.2716 -16.8519 8
      vertex 31.2716 -16.8519 0
    endloop
  endfacet
  facet normal -0.980781 -0.195114 0
    outer loop
      vertex 31.2716 -16.8519 8
      vertex 31.5 -18 0
      vertex 31.5 -18 8
    endloop
  endfacet
  facet normal 0.980777 0.19513 0
    outer loop
      vertex 25.7284 -19.148 8
      vertex 25.5 -18 0
      vertex 25.5 -18 8
    endloop
  endfacet
  facet normal 0.980777 0.19513 0
    outer loop
      vertex 25.5 -18 0
      vertex 25.7284 -19.148 8
      vertex 25.7284 -19.148 0
    endloop
  endfacet
  facet normal -0.19513 0.980777 0
    outer loop
      vertex 29.648 -20.7716 0
      vertex 28.5 -21 8
      vertex 29.648 -20.7716 8
    endloop
  endfacet
  facet normal -0.19513 0.980777 0
    outer loop
      vertex 28.5 -21 8
      vertex 29.648 -20.7716 0
      vertex 28.5 -21 0
    endloop
  endfacet
  facet normal 0.195114 -0.980781 0
    outer loop
      vertex 27.3519 -15.2284 0
      vertex 28.5 -15 8
      vertex 27.3519 -15.2284 8
    endloop
  endfacet
  facet normal 0.195114 -0.980781 0
    outer loop
      vertex 28.5 -15 8
      vertex 27.3519 -15.2284 0
      vertex 28.5 -15 0
    endloop
  endfacet
  facet normal -0.555548 -0.831485 0
    outer loop
      vertex 29.648 -15.2284 0
      vertex 30.6213 -15.8787 8
      vertex 29.648 -15.2284 8
    endloop
  endfacet
  facet normal -0.555548 -0.831485 -0
    outer loop
      vertex 30.6213 -15.8787 8
      vertex 29.648 -15.2284 0
      vertex 30.6213 -15.8787 0
    endloop
  endfacet
  facet normal -0.831458 -0.555587 0
    outer loop
      vertex 31.2716 -16.8519 0
      vertex 30.6213 -15.8787 8
      vertex 30.6213 -15.8787 0
    endloop
  endfacet
  facet normal -0.831458 -0.555587 0
    outer loop
      vertex 30.6213 -15.8787 8
      vertex 31.2716 -16.8519 0
      vertex 31.2716 -16.8519 8
    endloop
  endfacet
  facet normal -0.19513 -0.980777 0
    outer loop
      vertex 28.5 -15 0
      vertex 29.648 -15.2284 8
      vertex 28.5 -15 8
    endloop
  endfacet
  facet normal -0.19513 -0.980777 -0
    outer loop
      vertex 29.648 -15.2284 8
      vertex 28.5 -15 0
      vertex 29.648 -15.2284 0
    endloop
  endfacet
  facet normal 0.831458 -0.555587 0
    outer loop
      vertex 25.7284 -16.8519 8
      vertex 26.3787 -15.8787 0
      vertex 26.3787 -15.8787 8
    endloop
  endfacet
  facet normal 0.831458 -0.555587 0
    outer loop
      vertex 26.3787 -15.8787 0
      vertex 25.7284 -16.8519 8
      vertex 25.7284 -16.8519 0
    endloop
  endfacet
  facet normal 0.980781 -0.195114 0
    outer loop
      vertex 25.5 -18 8
      vertex 25.7284 -16.8519 0
      vertex 25.7284 -16.8519 8
    endloop
  endfacet
  facet normal 0.980781 -0.195114 0
    outer loop
      vertex 25.7284 -16.8519 0
      vertex 25.5 -18 8
      vertex 25.5 -18 0
    endloop
  endfacet
  facet normal 0.555587 -0.831458 0
    outer loop
      vertex 26.3787 -15.8787 0
      vertex 27.3519 -15.2284 8
      vertex 26.3787 -15.8787 8
    endloop
  endfacet
  facet normal 0.555587 -0.831458 0
    outer loop
      vertex 27.3519 -15.2284 8
      vertex 26.3787 -15.8787 0
      vertex 27.3519 -15.2284 0
    endloop
  endfacet
  facet normal -0.980777 0.19513 0
    outer loop
      vertex 31.2716 -19.148 0
      vertex 31.5 -18 8
      vertex 31.5 -18 0
    endloop
  endfacet
  facet normal -0.980777 0.19513 0
    outer loop
      vertex 31.5 -18 8
      vertex 31.2716 -19.148 0
      vertex 31.2716 -19.148 8
    endloop
  endfacet
  facet normal 0.831485 0.555548 0
    outer loop
      vertex 26.3787 -20.1213 8
      vertex 25.7284 -19.148 0
      vertex 25.7284 -19.148 8
    endloop
  endfacet
  facet normal 0.831485 0.555548 0
    outer loop
      vertex 25.7284 -19.148 0
      vertex 26.3787 -20.1213 8
      vertex 26.3787 -20.1213 0
    endloop
  endfacet
  facet normal -0.555548 0.831485 0
    outer loop
      vertex 30.6213 -20.1213 0
      vertex 29.648 -20.7716 8
      vertex 30.6213 -20.1213 8
    endloop
  endfacet
  facet normal -0.555548 0.831485 0
    outer loop
      vertex 29.648 -20.7716 8
      vertex 30.6213 -20.1213 0
      vertex 29.648 -20.7716 0
    endloop
  endfacet
  facet normal 0.195114 0.980781 -0
    outer loop
      vertex 28.5 -21 0
      vertex 27.3519 -20.7716 8
      vertex 28.5 -21 8
    endloop
  endfacet
  facet normal 0.195114 0.980781 0
    outer loop
      vertex 27.3519 -20.7716 8
      vertex 28.5 -21 0
      vertex 27.3519 -20.7716 0
    endloop
  endfacet
  facet normal 0.555587 0.831458 -0
    outer loop
      vertex 27.3519 -20.7716 0
      vertex 26.3787 -20.1213 8
      vertex 27.3519 -20.7716 8
    endloop
  endfacet
  facet normal 0.555587 0.831458 0
    outer loop
      vertex 26.3787 -20.1213 8
      vertex 27.3519 -20.7716 0
      vertex 26.3787 -20.1213 0
    endloop
  endfacet
  facet normal -0.831485 0.555548 0
    outer loop
      vertex 30.6213 -20.1213 0
      vertex 31.2716 -19.148 8
      vertex 31.2716 -19.148 0
    endloop
  endfacet
  facet normal -0.831485 0.555548 0
    outer loop
      vertex 31.2716 -19.148 8
      vertex 30.6213 -20.1213 0
      vertex 30.6213 -20.1213 8
    endloop
  endfacet
endsolid OpenSCAD_Model
