solid OpenSCAD_Model
  facet normal 0 1 0
    outer loop
      vertex 50 40 0
      vertex 0 40 0
      vertex 0 40 50
    endloop
  endfacet
  facet normal 0 0 -1
    outer loop
      vertex 50 0 0
      vertex 42.9 20 0
      vertex 50 40 0
    endloop
  endfacet
  facet normal 0 0 -1
    outer loop
      vertex 50 0 0
      vertex 42.6792 18.8902 0
      vertex 42.9 20 0
    endloop
  endfacet
  facet normal 0 0 -1
    outer loop
      vertex 50 0 0
      vertex 42.0506 17.9494 0
      vertex 42.6792 18.8902 0
    endloop
  endfacet
  facet normal 0 0 -1
    outer loop
      vertex 50 0 0
      vertex 41.1098 17.3207 0
      vertex 42.0506 17.9494 0
    endloop
  endfacet
  facet normal 0 0 -1
    outer loop
      vertex 50 0 0
      vertex 40 17.1 0
      vertex 41.1098 17.3207 0
    endloop
  endfacet
  facet normal 0 0 -1
    outer loop
      vertex 50 0 0
      vertex 38.8902 17.3207 0
      vertex 40 17.1 0
    endloop
  endfacet
  facet normal 0 0 -1
    outer loop
      vertex 21.1098 17.3207 0
      vertex 38.8902 17.3207 0
      vertex 50 0 0
    endloop
  endfacet
  facet normal 0 0 -1
    outer loop
      vertex 37.3207 18.8902 0
      vertex 22.9 20 0
      vertex 37.1 20 0
    endloop
  endfacet
  facet normal 0 0 -1
    outer loop
      vertex 22.6792 18.8902 0
      vertex 37.3207 18.8902 0
      vertex 37.9494 17.9494 0
    endloop
  endfacet
  facet normal 0 0 -1
    outer loop
      vertex 38.8902 17.3207 0
      vertex 21.1098 17.3207 0
      vertex 37.9494 17.9494 0
    endloop
  endfacet
  facet normal 0 0 -1
    outer loop
      vertex 37.3207 18.8902 0
      vertex 22.6792 18.8902 0
      vertex 22.9 20 0
    endloop
  endfacet
  facet normal 0 0 -1
    outer loop
      vertex 37.9494 17.9494 0
      vertex 22.0506 17.9494 0
      vertex 22.6792 18.8902 0
    endloop
  endfacet
  facet normal -0 0 -1
    outer loop
      vertex 37.9494 17.9494 0
      vertex 21.1098 17.3207 0
      vertex 22.0506 17.9494 0
    endloop
  endfacet
  facet normal 0 0 -1
    outer loop
      vertex 50 0 0
      vertex 20 17.1 0
      vertex 21.1098 17.3207 0
    endloop
  endfacet
  facet normal 0 0 -1
    outer loop
      vertex 0 0 0
      vertex 20 17.1 0
      vertex 50 0 0
    endloop
  endfacet
  facet normal -0 0 -1
    outer loop
      vertex 17.3207 18.8902 0
      vertex 0 0 0
      vertex 17.1 20 0
    endloop
  endfacet
  facet normal -0 0 -1
    outer loop
      vertex 17.9494 17.9494 0
      vertex 0 0 0
      vertex 17.3207 18.8902 0
    endloop
  endfacet
  facet normal -0 0 -1
    outer loop
      vertex 18.8902 17.3207 0
      vertex 0 0 0
      vertex 17.9494 17.9494 0
    endloop
  endfacet
  facet normal -0 0 -1
    outer loop
      vertex 20 17.1 0
      vertex 0 0 0
      vertex 18.8902 17.3207 0
    endloop
  endfacet
  facet normal 0 0 -1
    outer loop
      vertex 42.6792 21.1098 0
      vertex 50 40 0
      vertex 42.9 20 0
    endloop
  endfacet
  facet normal 0 0 -1
    outer loop
      vertex 42.0506 22.0506 0
      vertex 50 40 0
      vertex 42.6792 21.1098 0
    endloop
  endfacet
  facet normal 0 0 -1
    outer loop
      vertex 41.1098 22.6792 0
      vertex 50 40 0
      vertex 42.0506 22.0506 0
    endloop
  endfacet
  facet normal 0 0 -1
    outer loop
      vertex 40 22.9 0
      vertex 50 40 0
      vertex 41.1098 22.6792 0
    endloop
  endfacet
  facet normal 0 0 -1
    outer loop
      vertex 38.8902 22.6792 0
      vertex 50 40 0
      vertex 40 22.9 0
    endloop
  endfacet
  facet normal 0 0 -1
    outer loop
      vertex 21.1098 22.6792 0
      vertex 38.8902 22.6792 0
      vertex 37.9494 22.0506 0
    endloop
  endfacet
  facet normal 0 0 -1
    outer loop
      vertex 22.9 20 0
      vertex 37.3207 21.1098 0
      vertex 37.1 20 0
    endloop
  endfacet
  facet normal 0 0 -1
    outer loop
      vertex 22.6792 21.1098 0
      vertex 37.3207 21.1098 0
      vertex 22.9 20 0
    endloop
  endfacet
  facet normal 0 0 -1
    outer loop
      vertex 37.3207 21.1098 0
      vertex 22.6792 21.1098 0
      vertex 37.9494 22.0506 0
    endloop
  endfacet
  facet normal 0 0 -1
    outer loop
      vertex 22.0506 22.0506 0
      vertex 37.9494 22.0506 0
      vertex 22.6792 21.1098 0
    endloop
  endfacet
  facet normal 0 0 -1
    outer loop
      vertex 21.1098 22.6792 0
      vertex 37.9494 22.0506 0
      vertex 22.0506 22.0506 0
    endloop
  endfacet
  facet normal 0 0 -1
    outer loop
      vertex 38.8902 22.6792 0
      vertex 21.1098 22.6792 0
      vertex 50 40 0
    endloop
  endfacet
  facet normal 0 0 -1
    outer loop
      vertex 20 22.9 0
      vertex 50 40 0
      vertex 21.1098 22.6792 0
    endloop
  endfacet
  facet normal 0 0 -1
    outer loop
      vertex 0 40 0
      vertex 20 22.9 0
      vertex 18.8902 22.6792 0
    endloop
  endfacet
  facet normal 0 0 -1
    outer loop
      vertex 0 40 0
      vertex 17.1 20 0
      vertex 0 0 0
    endloop
  endfacet
  facet normal 0 0 -1
    outer loop
      vertex 17.1 20 0
      vertex 0 40 0
      vertex 17.3207 21.1098 0
    endloop
  endfacet
  facet normal 0 0 -1
    outer loop
      vertex 20 22.9 0
      vertex 0 40 0
      vertex 50 40 0
    endloop
  endfacet
  facet normal 0 0 -1
    outer loop
      vertex 17.9494 22.0506 0
      vertex 0 40 0
      vertex 18.8902 22.6792 0
    endloop
  endfacet
  facet normal 0 0 -1
    outer loop
      vertex 17.3207 21.1098 0
      vertex 0 40 0
      vertex 17.9494 22.0506 0
    endloop
  endfacet
  facet normal 0.707107 0 0.707107
    outer loop
      vertex 0 40 50
      vertex 5 30 45
      vertex 50 40 0
    endloop
  endfacet
  facet normal 0.707107 0 0.707107
    outer loop
      vertex 0 40 50
      vertex 5 10 45
      vertex 5 30 45
    endloop
  endfacet
  facet normal 0.707107 0 0.707107
    outer loop
      vertex 5 10 45
      vertex 0 0 50
      vertex 45 10 5
    endloop
  endfacet
  facet normal 0.707107 -0 0.707107
    outer loop
      vertex 0 0 50
      vertex 5 10 45
      vertex 0 40 50
    endloop
  endfacet
  facet normal 0.707107 0 0.707107
    outer loop
      vertex 45 30 5
      vertex 50 40 0
      vertex 5 30 45
    endloop
  endfacet
  facet normal 0.707107 -0 0.707107
    outer loop
      vertex 45 10 5
      vertex 50 40 0
      vertex 45 30 5
    endloop
  endfacet
  facet normal 0.707107 0 0.707107
    outer loop
      vertex 45 10 5
      vertex 50 0 0
      vertex 50 40 0
    endloop
  endfacet
  facet normal 0.707107 0 0.707107
    outer loop
      vertex 50 0 0
      vertex 45 10 5
      vertex 0 0 50
    endloop
  endfacet
  facet normal 0 -1 0
    outer loop
      vertex 0 0 50
      vertex 0 0 0
      vertex 50 0 0
    endloop
  endfacet
  facet normal -1 0 0
    outer loop
      vertex 0 22.6792 38.8902
      vertex 0 40 50
      vertex 0 22.6792 21.1098
    endloop
  endfacet
  facet normal -1 0 0
    outer loop
      vertex 0 40 50
      vertex 0 22.6792 38.8902
      vertex 0 22.9 40
    endloop
  endfacet
  facet normal -1 0 0
    outer loop
      vertex 0 22.0506 22.0506
      vertex 0 22.6792 38.8902
      vertex 0 22.6792 21.1098
    endloop
  endfacet
  facet normal -1 0 0
    outer loop
      vertex 0 22.0506 22.0506
      vertex 0 22.0506 37.9494
      vertex 0 22.6792 38.8902
    endloop
  endfacet
  facet normal -1 0 0
    outer loop
      vertex 0 21.1098 22.6792
      vertex 0 22.0506 37.9494
      vertex 0 22.0506 22.0506
    endloop
  endfacet
  facet normal -1 0 0
    outer loop
      vertex 0 21.1098 22.6792
      vertex 0 21.1098 37.3207
      vertex 0 22.0506 37.9494
    endloop
  endfacet
  facet normal -1 0 0
    outer loop
      vertex 0 20 22.9
      vertex 0 21.1098 37.3207
      vertex 0 21.1098 22.6792
    endloop
  endfacet
  facet normal -1 0 0
    outer loop
      vertex 0 20 22.9
      vertex 0 20 37.1
      vertex 0 21.1098 37.3207
    endloop
  endfacet
  facet normal -1 0 0
    outer loop
      vertex 0 18.8902 22.6792
      vertex 0 20 37.1
      vertex 0 20 22.9
    endloop
  endfacet
  facet normal -1 0 0
    outer loop
      vertex 0 18.8902 22.6792
      vertex 0 18.8902 37.3207
      vertex 0 20 37.1
    endloop
  endfacet
  facet normal -1 0 0
    outer loop
      vertex 0 17.9494 22.0506
      vertex 0 18.8902 37.3207
      vertex 0 18.8902 22.6792
    endloop
  endfacet
  facet normal -1 0 0
    outer loop
      vertex 0 17.9494 22.0506
      vertex 0 17.9494 37.9494
      vertex 0 18.8902 37.3207
    endloop
  endfacet
  facet normal -1 0 0
    outer loop
      vertex 0 17.3207 21.1098
      vertex 0 17.9494 37.9494
      vertex 0 17.9494 22.0506
    endloop
  endfacet
  facet normal -1 0 0
    outer loop
      vertex 0 17.3207 21.1098
      vertex 0 17.3207 38.8902
      vertex 0 17.9494 37.9494
    endloop
  endfacet
  facet normal -1 0 0
    outer loop
      vertex 0 0 50
      vertex 0 17.3207 21.1098
      vertex 0 17.1 20
    endloop
  endfacet
  facet normal -1 0 0
    outer loop
      vertex 0 17.3207 21.1098
      vertex 0 0 50
      vertex 0 17.3207 38.8902
    endloop
  endfacet
  facet normal -1 0 0
    outer loop
      vertex 0 40 0
      vertex 0 22.9 20
      vertex 0 40 50
    endloop
  endfacet
  facet normal -1 0 0
    outer loop
      vertex 0 40 0
      vertex 0 22.6792 18.8902
      vertex 0 22.9 20
    endloop
  endfacet
  facet normal -1 0 0
    outer loop
      vertex 0 40 0
      vertex 0 22.0506 17.9494
      vertex 0 22.6792 18.8902
    endloop
  endfacet
  facet normal -1 0 0
    outer loop
      vertex 0 40 0
      vertex 0 21.1098 17.3207
      vertex 0 22.0506 17.9494
    endloop
  endfacet
  facet normal -1 0 0
    outer loop
      vertex 0 40 0
      vertex 0 20 17.1
      vertex 0 21.1098 17.3207
    endloop
  endfacet
  facet normal -1 0 0
    outer loop
      vertex 0 0 0
      vertex 0 20 17.1
      vertex 0 40 0
    endloop
  endfacet
  facet normal -1 -0 0
    outer loop
      vertex 0 20 17.1
      vertex 0 0 0
      vertex 0 18.8902 17.3207
    endloop
  endfacet
  facet normal -1 0 0
    outer loop
      vertex 0 0 50
      vertex 0 17.1 20
      vertex 0 0 0
    endloop
  endfacet
  facet normal -1 -0 0
    outer loop
      vertex 0 17.3207 18.8902
      vertex 0 0 0
      vertex 0 17.1 20
    endloop
  endfacet
  facet normal -1 -0 0
    outer loop
      vertex 0 17.9494 17.9494
      vertex 0 0 0
      vertex 0 17.3207 18.8902
    endloop
  endfacet
  facet normal -1 -0 0
    outer loop
      vertex 0 18.8902 17.3207
      vertex 0 0 0
      vertex 0 17.9494 17.9494
    endloop
  endfacet
  facet normal -1 0 0
    outer loop
      vertex 0 22.6792 21.1098
      vertex 0 40 50
      vertex 0 22.9 20
    endloop
  endfacet
  facet normal -1 0 0
    outer loop
      vertex 0 22.6792 41.1098
      vertex 0 40 50
      vertex 0 22.9 40
    endloop
  endfacet
  facet normal -1 0 0
    outer loop
      vertex 0 22.0506 42.0506
      vertex 0 40 50
      vertex 0 22.6792 41.1098
    endloop
  endfacet
  facet normal -1 0 0
    outer loop
      vertex 0 21.1098 42.6792
      vertex 0 40 50
      vertex 0 22.0506 42.0506
    endloop
  endfacet
  facet normal -1 0 0
    outer loop
      vertex 0 20 42.9
      vertex 0 40 50
      vertex 0 21.1098 42.6792
    endloop
  endfacet
  facet normal -1 0 0
    outer loop
      vertex 0 0 50
      vertex 0 20 42.9
      vertex 0 18.8902 42.6792
    endloop
  endfacet
  facet normal -1 0 0
    outer loop
      vertex 0 17.3207 38.8902
      vertex 0 0 50
      vertex 0 17.1 40
    endloop
  endfacet
  facet normal -1 0 0
    outer loop
      vertex 0 20 42.9
      vertex 0 0 50
      vertex 0 40 50
    endloop
  endfacet
  facet normal -1 0 0
    outer loop
      vertex 0 17.9494 42.0506
      vertex 0 0 50
      vertex 0 18.8902 42.6792
    endloop
  endfacet
  facet normal -1 0 0
    outer loop
      vertex 0 17.3207 41.1098
      vertex 0 0 50
      vertex 0 17.9494 42.0506
    endloop
  endfacet
  facet normal -1 0 0
    outer loop
      vertex 0 17.1 40
      vertex 0 0 50
      vertex 0 17.3207 41.1098
    endloop
  endfacet
  facet normal -0.980777 -0.19513 0
    outer loop
      vertex 22.9 20 0
      vertex 22.6792 21.1098 5
      vertex 22.6792 21.1098 0
    endloop
  endfacet
  facet normal -0.980777 -0.19513 0
    outer loop
      vertex 22.6792 21.1098 5
      vertex 22.9 20 0
      vertex 22.9 20 5
    endloop
  endfacet
  facet normal 0.19513 -0.980777 0
    outer loop
      vertex 18.8902 22.6792 0
      vertex 20 22.9 5
      vertex 18.8902 22.6792 5
    endloop
  endfacet
  facet normal 0.19513 -0.980777 0
    outer loop
      vertex 20 22.9 5
      vertex 18.8902 22.6792 0
      vertex 20 22.9 0
    endloop
  endfacet
  facet normal -0.195045 0.980794 0
    outer loop
      vertex 21.1098 17.3207 0
      vertex 20 17.1 5
      vertex 21.1098 17.3207 5
    endloop
  endfacet
  facet normal -0.195045 0.980794 0
    outer loop
      vertex 20 17.1 5
      vertex 21.1098 17.3207 0
      vertex 20 17.1 0
    endloop
  endfacet
  facet normal -0.555618 0.831438 0
    outer loop
      vertex 22.0506 17.9494 0
      vertex 21.1098 17.3207 5
      vertex 22.0506 17.9494 5
    endloop
  endfacet
  facet normal -0.555618 0.831438 0
    outer loop
      vertex 21.1098 17.3207 5
      vertex 22.0506 17.9494 0
      vertex 21.1098 17.3207 0
    endloop
  endfacet
  facet normal -0.555557 -0.831479 0
    outer loop
      vertex 21.1098 22.6792 0
      vertex 22.0506 22.0506 5
      vertex 21.1098 22.6792 5
    endloop
  endfacet
  facet normal -0.555557 -0.831479 -0
    outer loop
      vertex 22.0506 22.0506 5
      vertex 21.1098 22.6792 0
      vertex 22.0506 22.0506 0
    endloop
  endfacet
  facet normal -0.831479 -0.555557 0
    outer loop
      vertex 22.6792 21.1098 0
      vertex 22.0506 22.0506 5
      vertex 22.0506 22.0506 0
    endloop
  endfacet
  facet normal -0.831479 -0.555557 0
    outer loop
      vertex 22.0506 22.0506 5
      vertex 22.6792 21.1098 0
      vertex 22.6792 21.1098 5
    endloop
  endfacet
  facet normal -0.19513 -0.980777 0
    outer loop
      vertex 20 22.9 0
      vertex 21.1098 22.6792 5
      vertex 20 22.9 5
    endloop
  endfacet
  facet normal -0.19513 -0.980777 -0
    outer loop
      vertex 21.1098 22.6792 5
      vertex 20 22.9 0
      vertex 21.1098 22.6792 0
    endloop
  endfacet
  facet normal 0.831438 -0.555618 0
    outer loop
      vertex 17.3207 21.1098 5
      vertex 17.9494 22.0506 0
      vertex 17.9494 22.0506 5
    endloop
  endfacet
  facet normal 0.831438 -0.555618 0
    outer loop
      vertex 17.9494 22.0506 0
      vertex 17.3207 21.1098 5
      vertex 17.3207 21.1098 0
    endloop
  endfacet
  facet normal 0.980794 -0.195045 0
    outer loop
      vertex 17.1 20 5
      vertex 17.3207 21.1098 0
      vertex 17.3207 21.1098 5
    endloop
  endfacet
  facet normal 0.980794 -0.195045 0
    outer loop
      vertex 17.3207 21.1098 0
      vertex 17.1 20 5
      vertex 17.1 20 0
    endloop
  endfacet
  facet normal 0.555557 -0.831479 0
    outer loop
      vertex 17.9494 22.0506 0
      vertex 18.8902 22.6792 5
      vertex 17.9494 22.0506 5
    endloop
  endfacet
  facet normal 0.555557 -0.831479 0
    outer loop
      vertex 18.8902 22.6792 5
      vertex 17.9494 22.0506 0
      vertex 18.8902 22.6792 0
    endloop
  endfacet
  facet normal -0.980777 0.19513 0
    outer loop
      vertex 22.6792 18.8902 0
      vertex 22.9 20 5
      vertex 22.9 20 0
    endloop
  endfacet
  facet normal -0.980777 0.19513 0
    outer loop
      vertex 22.9 20 5
      vertex 22.6792 18.8902 0
      vertex 22.6792 18.8902 5
    endloop
  endfacet
  facet normal 0.980794 0.195045 0
    outer loop
      vertex 17.3207 18.8902 5
      vertex 17.1 20 0
      vertex 17.1 20 5
    endloop
  endfacet
  facet normal 0.980794 0.195045 0
    outer loop
      vertex 17.1 20 0
      vertex 17.3207 18.8902 5
      vertex 17.3207 18.8902 0
    endloop
  endfacet
  facet normal -0.831479 0.555557 0
    outer loop
      vertex 22.0506 17.9494 0
      vertex 22.6792 18.8902 5
      vertex 22.6792 18.8902 0
    endloop
  endfacet
  facet normal -0.831479 0.555557 0
    outer loop
      vertex 22.6792 18.8902 5
      vertex 22.0506 17.9494 0
      vertex 22.0506 17.9494 5
    endloop
  endfacet
  facet normal 0.195045 0.980794 -0
    outer loop
      vertex 20 17.1 0
      vertex 18.8902 17.3207 5
      vertex 20 17.1 5
    endloop
  endfacet
  facet normal 0.195045 0.980794 0
    outer loop
      vertex 18.8902 17.3207 5
      vertex 20 17.1 0
      vertex 18.8902 17.3207 0
    endloop
  endfacet
  facet normal 0.555618 0.831438 -0
    outer loop
      vertex 18.8902 17.3207 0
      vertex 17.9494 17.9494 5
      vertex 18.8902 17.3207 5
    endloop
  endfacet
  facet normal 0.555618 0.831438 0
    outer loop
      vertex 17.9494 17.9494 5
      vertex 18.8902 17.3207 0
      vertex 17.9494 17.9494 0
    endloop
  endfacet
  facet normal 0.831438 0.555618 0
    outer loop
      vertex 17.9494 17.9494 5
      vertex 17.3207 18.8902 0
      vertex 17.3207 18.8902 5
    endloop
  endfacet
  facet normal 0.831438 0.555618 0
    outer loop
      vertex 17.3207 18.8902 0
      vertex 17.9494 17.9494 5
      vertex 17.9494 17.9494 0
    endloop
  endfacet
  facet normal -0.980777 -0.19513 0
    outer loop
      vertex 42.9 20 0
      vertex 42.6792 21.1098 5
      vertex 42.6792 21.1098 0
    endloop
  endfacet
  facet normal -0.980777 -0.19513 0
    outer loop
      vertex 42.6792 21.1098 5
      vertex 42.9 20 0
      vertex 42.9 20 5
    endloop
  endfacet
  facet normal 0.980794 0.195045 0
    outer loop
      vertex 37.3207 18.8902 5
      vertex 37.1 20 0
      vertex 37.1 20 5
    endloop
  endfacet
  facet normal 0.980794 0.195045 0
    outer loop
      vertex 37.1 20 0
      vertex 37.3207 18.8902 5
      vertex 37.3207 18.8902 0
    endloop
  endfacet
  facet normal 0.19513 -0.980777 0
    outer loop
      vertex 38.8902 22.6792 0
      vertex 40 22.9 5
      vertex 38.8902 22.6792 5
    endloop
  endfacet
  facet normal 0.19513 -0.980777 0
    outer loop
      vertex 40 22.9 5
      vertex 38.8902 22.6792 0
      vertex 40 22.9 0
    endloop
  endfacet
  facet normal -0.195045 0.980794 0
    outer loop
      vertex 41.1098 17.3207 0
      vertex 40 17.1 5
      vertex 41.1098 17.3207 5
    endloop
  endfacet
  facet normal -0.195045 0.980794 0
    outer loop
      vertex 40 17.1 5
      vertex 41.1098 17.3207 0
      vertex 40 17.1 0
    endloop
  endfacet
  facet normal -0.555618 0.831438 0
    outer loop
      vertex 42.0506 17.9494 0
      vertex 41.1098 17.3207 5
      vertex 42.0506 17.9494 5
    endloop
  endfacet
  facet normal -0.555618 0.831438 0
    outer loop
      vertex 41.1098 17.3207 5
      vertex 42.0506 17.9494 0
      vertex 41.1098 17.3207 0
    endloop
  endfacet
  facet normal -0.555557 -0.831479 0
    outer loop
      vertex 41.1098 22.6792 0
      vertex 42.0506 22.0506 5
      vertex 41.1098 22.6792 5
    endloop
  endfacet
  facet normal -0.555557 -0.831479 -0
    outer loop
      vertex 42.0506 22.0506 5
      vertex 41.1098 22.6792 0
      vertex 42.0506 22.0506 0
    endloop
  endfacet
  facet normal -0.831479 -0.555557 0
    outer loop
      vertex 42.6792 21.1098 0
      vertex 42.0506 22.0506 5
      vertex 42.0506 22.0506 0
    endloop
  endfacet
  facet normal -0.831479 -0.555557 0
    outer loop
      vertex 42.0506 22.0506 5
      vertex 42.6792 21.1098 0
      vertex 42.6792 21.1098 5
    endloop
  endfacet
  facet normal -0.19513 -0.980777 0
    outer loop
      vertex 40 22.9 0
      vertex 41.1098 22.6792 5
      vertex 40 22.9 5
    endloop
  endfacet
  facet normal -0.19513 -0.980777 -0
    outer loop
      vertex 41.1098 22.6792 5
      vertex 40 22.9 0
      vertex 41.1098 22.6792 0
    endloop
  endfacet
  facet normal 0.831438 -0.555618 0
    outer loop
      vertex 37.3207 21.1098 5
      vertex 37.9494 22.0506 0
      vertex 37.9494 22.0506 5
    endloop
  endfacet
  facet normal 0.831438 -0.555618 0
    outer loop
      vertex 37.9494 22.0506 0
      vertex 37.3207 21.1098 5
      vertex 37.3207 21.1098 0
    endloop
  endfacet
  facet normal 0.980794 -0.195045 0
    outer loop
      vertex 37.1 20 5
      vertex 37.3207 21.1098 0
      vertex 37.3207 21.1098 5
    endloop
  endfacet
  facet normal 0.980794 -0.195045 0
    outer loop
      vertex 37.3207 21.1098 0
      vertex 37.1 20 5
      vertex 37.1 20 0
    endloop
  endfacet
  facet normal 0.555557 -0.831479 0
    outer loop
      vertex 37.9494 22.0506 0
      vertex 38.8902 22.6792 5
      vertex 37.9494 22.0506 5
    endloop
  endfacet
  facet normal 0.555557 -0.831479 0
    outer loop
      vertex 38.8902 22.6792 5
      vertex 37.9494 22.0506 0
      vertex 38.8902 22.6792 0
    endloop
  endfacet
  facet normal -0.980777 0.19513 0
    outer loop
      vertex 42.6792 18.8902 0
      vertex 42.9 20 5
      vertex 42.9 20 0
    endloop
  endfacet
  facet normal -0.980777 0.19513 0
    outer loop
      vertex 42.9 20 5
      vertex 42.6792 18.8902 0
      vertex 42.6792 18.8902 5
    endloop
  endfacet
  facet normal -0.831479 0.555557 0
    outer loop
      vertex 42.0506 17.9494 0
      vertex 42.6792 18.8902 5
      vertex 42.6792 18.8902 0
    endloop
  endfacet
  facet normal -0.831479 0.555557 0
    outer loop
      vertex 42.6792 18.8902 5
      vertex 42.0506 17.9494 0
      vertex 42.0506 17.9494 5
    endloop
  endfacet
  facet normal 0.195045 0.980794 -0
    outer loop
      vertex 40 17.1 0
      vertex 38.8902 17.3207 5
      vertex 40 17.1 5
    endloop
  endfacet
  facet normal 0.195045 0.980794 0
    outer loop
      vertex 38.8902 17.3207 5
      vertex 40 17.1 0
      vertex 38.8902 17.3207 0
    endloop
  endfacet
  facet normal 0.555618 0.831438 -0
    outer loop
      vertex 38.8902 17.3207 0
      vertex 37.9494 17.9494 5
      vertex 38.8902 17.3207 5
    endloop
  endfacet
  facet normal 0.555618 0.831438 0
    outer loop
      vertex 37.9494 17.9494 5
      vertex 38.8902 17.3207 0
      vertex 37.9494 17.9494 0
    endloop
  endfacet
  facet normal 0.831438 0.555618 0
    outer loop
      vertex 37.9494 17.9494 5
      vertex 37.3207 18.8902 0
      vertex 37.3207 18.8902 5
    endloop
  endfacet
  facet normal 0.831438 0.555618 0
    outer loop
      vertex 37.3207 18.8902 0
      vertex 37.9494 17.9494 5
      vertex 37.9494 17.9494 0
    endloop
  endfacet
  facet normal 0 -0.195045 0.980794
    outer loop
      vertex 0 21.1098 17.3207
      vertex 5 20 17.1
      vertex 5 21.1098 17.3207
    endloop
  endfacet
  facet normal 0 -0.195045 0.980794
    outer loop
      vertex 5 20 17.1
      vertex 0 21.1098 17.3207
      vertex 0 20 17.1
    endloop
  endfacet
  facet normal 0 0.19513 -0.980777
    outer loop
      vertex 0 18.8902 22.6792
      vertex 5 20 22.9
      vertex 5 18.8902 22.6792
    endloop
  endfacet
  facet normal 0 0.19513 -0.980777
    outer loop
      vertex 5 20 22.9
      vertex 0 18.8902 22.6792
      vertex 0 20 22.9
    endloop
  endfacet
  facet normal 0 -0.980777 -0.19513
    outer loop
      vertex 0 22.9 20
      vertex 5 22.6792 21.1098
      vertex 0 22.6792 21.1098
    endloop
  endfacet
  facet normal 0 -0.980777 -0.19513
    outer loop
      vertex 5 22.6792 21.1098
      vertex 0 22.9 20
      vertex 5 22.9 20
    endloop
  endfacet
  facet normal 0 0.980794 0.195045
    outer loop
      vertex 5 17.3207 18.8902
      vertex 0 17.1 20
      vertex 5 17.1 20
    endloop
  endfacet
  facet normal 0 0.980794 0.195045
    outer loop
      vertex 0 17.1 20
      vertex 5 17.3207 18.8902
      vertex 0 17.3207 18.8902
    endloop
  endfacet
  facet normal 0 0.831438 0.555618
    outer loop
      vertex 5 17.9494 17.9494
      vertex 0 17.3207 18.8902
      vertex 5 17.3207 18.8902
    endloop
  endfacet
  facet normal 0 0.831438 0.555618
    outer loop
      vertex 0 17.3207 18.8902
      vertex 5 17.9494 17.9494
      vertex 0 17.9494 17.9494
    endloop
  endfacet
  facet normal 0 -0.555618 0.831438
    outer loop
      vertex 0 22.0506 17.9494
      vertex 5 21.1098 17.3207
      vertex 5 22.0506 17.9494
    endloop
  endfacet
  facet normal 0 -0.555618 0.831438
    outer loop
      vertex 5 21.1098 17.3207
      vertex 0 22.0506 17.9494
      vertex 0 21.1098 17.3207
    endloop
  endfacet
  facet normal 0 -0.980777 0.19513
    outer loop
      vertex 0 22.6792 18.8902
      vertex 5 22.9 20
      vertex 0 22.9 20
    endloop
  endfacet
  facet normal 0 -0.980777 0.19513
    outer loop
      vertex 5 22.9 20
      vertex 0 22.6792 18.8902
      vertex 5 22.6792 18.8902
    endloop
  endfacet
  facet normal 0 -0.555557 -0.831479
    outer loop
      vertex 0 21.1098 22.6792
      vertex 5 22.0506 22.0506
      vertex 5 21.1098 22.6792
    endloop
  endfacet
  facet normal -0 -0.555557 -0.831479
    outer loop
      vertex 5 22.0506 22.0506
      vertex 0 21.1098 22.6792
      vertex 0 22.0506 22.0506
    endloop
  endfacet
  facet normal 0 -0.19513 -0.980777
    outer loop
      vertex 0 20 22.9
      vertex 5 21.1098 22.6792
      vertex 5 20 22.9
    endloop
  endfacet
  facet normal -0 -0.19513 -0.980777
    outer loop
      vertex 5 21.1098 22.6792
      vertex 0 20 22.9
      vertex 0 21.1098 22.6792
    endloop
  endfacet
  facet normal 0 -0.831479 -0.555557
    outer loop
      vertex 0 22.6792 21.1098
      vertex 5 22.0506 22.0506
      vertex 0 22.0506 22.0506
    endloop
  endfacet
  facet normal 0 -0.831479 -0.555557
    outer loop
      vertex 5 22.0506 22.0506
      vertex 0 22.6792 21.1098
      vertex 5 22.6792 21.1098
    endloop
  endfacet
  facet normal -0 0.195045 0.980794
    outer loop
      vertex 0 20 17.1
      vertex 5 18.8902 17.3207
      vertex 5 20 17.1
    endloop
  endfacet
  facet normal 0 0.195045 0.980794
    outer loop
      vertex 5 18.8902 17.3207
      vertex 0 20 17.1
      vertex 0 18.8902 17.3207
    endloop
  endfacet
  facet normal 0 -0.831479 0.555557
    outer loop
      vertex 0 22.0506 17.9494
      vertex 5 22.6792 18.8902
      vertex 0 22.6792 18.8902
    endloop
  endfacet
  facet normal 0 -0.831479 0.555557
    outer loop
      vertex 5 22.6792 18.8902
      vertex 0 22.0506 17.9494
      vertex 5 22.0506 17.9494
    endloop
  endfacet
  facet normal -0 0.555618 0.831438
    outer loop
      vertex 0 18.8902 17.3207
      vertex 5 17.9494 17.9494
      vertex 5 18.8902 17.3207
    endloop
  endfacet
  facet normal 0 0.555618 0.831438
    outer loop
      vertex 5 17.9494 17.9494
      vertex 0 18.8902 17.3207
      vertex 0 17.9494 17.9494
    endloop
  endfacet
  facet normal 0 0.980794 -0.195045
    outer loop
      vertex 5 17.1 20
      vertex 0 17.3207 21.1098
      vertex 5 17.3207 21.1098
    endloop
  endfacet
  facet normal 0 0.980794 -0.195045
    outer loop
      vertex 0 17.3207 21.1098
      vertex 5 17.1 20
      vertex 0 17.1 20
    endloop
  endfacet
  facet normal 0 0.831438 -0.555618
    outer loop
      vertex 5 17.3207 21.1098
      vertex 0 17.9494 22.0506
      vertex 5 17.9494 22.0506
    endloop
  endfacet
  facet normal 0 0.831438 -0.555618
    outer loop
      vertex 0 17.9494 22.0506
      vertex 5 17.3207 21.1098
      vertex 0 17.3207 21.1098
    endloop
  endfacet
  facet normal 0 0.555557 -0.831479
    outer loop
      vertex 0 17.9494 22.0506
      vertex 5 18.8902 22.6792
      vertex 5 17.9494 22.0506
    endloop
  endfacet
  facet normal 0 0.555557 -0.831479
    outer loop
      vertex 5 18.8902 22.6792
      vertex 0 17.9494 22.0506
      vertex 0 18.8902 22.6792
    endloop
  endfacet
  facet normal 0 -0.195045 0.980794
    outer loop
      vertex 0 21.1098 37.3207
      vertex 5 20 37.1
      vertex 5 21.1098 37.3207
    endloop
  endfacet
  facet normal 0 -0.195045 0.980794
    outer loop
      vertex 5 20 37.1
      vertex 0 21.1098 37.3207
      vertex 0 20 37.1
    endloop
  endfacet
  facet normal 0 0.19513 -0.980777
    outer loop
      vertex 0 18.8902 42.6792
      vertex 5 20 42.9
      vertex 5 18.8902 42.6792
    endloop
  endfacet
  facet normal 0 0.19513 -0.980777
    outer loop
      vertex 5 20 42.9
      vertex 0 18.8902 42.6792
      vertex 0 20 42.9
    endloop
  endfacet
  facet normal 0 -0.980777 -0.19513
    outer loop
      vertex 0 22.9 40
      vertex 5 22.6792 41.1098
      vertex 0 22.6792 41.1098
    endloop
  endfacet
  facet normal 0 -0.980777 -0.19513
    outer loop
      vertex 5 22.6792 41.1098
      vertex 0 22.9 40
      vertex 5 22.9 40
    endloop
  endfacet
  facet normal 0 0.980794 0.195045
    outer loop
      vertex 5 17.3207 38.8902
      vertex 0 17.1 40
      vertex 5 17.1 40
    endloop
  endfacet
  facet normal 0 0.980794 0.195045
    outer loop
      vertex 0 17.1 40
      vertex 5 17.3207 38.8902
      vertex 0 17.3207 38.8902
    endloop
  endfacet
  facet normal 0 0.831438 0.555618
    outer loop
      vertex 5 17.9494 37.9494
      vertex 0 17.3207 38.8902
      vertex 5 17.3207 38.8902
    endloop
  endfacet
  facet normal 0 0.831438 0.555618
    outer loop
      vertex 0 17.3207 38.8902
      vertex 5 17.9494 37.9494
      vertex 0 17.9494 37.9494
    endloop
  endfacet
  facet normal 0 -0.555618 0.831438
    outer loop
      vertex 0 22.0506 37.9494
      vertex 5 21.1098 37.3207
      vertex 5 22.0506 37.9494
    endloop
  endfacet
  facet normal 0 -0.555618 0.831438
    outer loop
      vertex 5 21.1098 37.3207
      vertex 0 22.0506 37.9494
      vertex 0 21.1098 37.3207
    endloop
  endfacet
  facet normal 0 -0.980777 0.19513
    outer loop
      vertex 0 22.6792 38.8902
      vertex 5 22.9 40
      vertex 0 22.9 40
    endloop
  endfacet
  facet normal 0 -0.980777 0.19513
    outer loop
      vertex 5 22.9 40
      vertex 0 22.6792 38.8902
      vertex 5 22.6792 38.8902
    endloop
  endfacet
  facet normal 0 -0.555557 -0.831479
    outer loop
      vertex 0 21.1098 42.6792
      vertex 5 22.0506 42.0506
      vertex 5 21.1098 42.6792
    endloop
  endfacet
  facet normal -0 -0.555557 -0.831479
    outer loop
      vertex 5 22.0506 42.0506
      vertex 0 21.1098 42.6792
      vertex 0 22.0506 42.0506
    endloop
  endfacet
  facet normal 0 -0.19513 -0.980777
    outer loop
      vertex 0 20 42.9
      vertex 5 21.1098 42.6792
      vertex 5 20 42.9
    endloop
  endfacet
  facet normal -0 -0.19513 -0.980777
    outer loop
      vertex 5 21.1098 42.6792
      vertex 0 20 42.9
      vertex 0 21.1098 42.6792
    endloop
  endfacet
  facet normal 0 -0.831479 -0.555557
    outer loop
      vertex 0 22.6792 41.1098
      vertex 5 22.0506 42.0506
      vertex 0 22.0506 42.0506
    endloop
  endfacet
  facet normal 0 -0.831479 -0.555557
    outer loop
      vertex 5 22.0506 42.0506
      vertex 0 22.6792 41.1098
      vertex 5 22.6792 41.1098
    endloop
  endfacet
  facet normal -0 0.195045 0.980794
    outer loop
      vertex 0 20 37.1
      vertex 5 18.8902 37.3207
      vertex 5 20 37.1
    endloop
  endfacet
  facet normal 0 0.195045 0.980794
    outer loop
      vertex 5 18.8902 37.3207
      vertex 0 20 37.1
      vertex 0 18.8902 37.3207
    endloop
  endfacet
  facet normal 0 -0.831479 0.555557
    outer loop
      vertex 0 22.0506 37.9494
      vertex 5 22.6792 38.8902
      vertex 0 22.6792 38.8902
    endloop
  endfacet
  facet normal 0 -0.831479 0.555557
    outer loop
      vertex 5 22.6792 38.8902
      vertex 0 22.0506 37.9494
      vertex 5 22.0506 37.9494
    endloop
  endfacet
  facet normal -0 0.555618 0.831438
    outer loop
      vertex 0 18.8902 37.3207
      vertex 5 17.9494 37.9494
      vertex 5 18.8902 37.3207
    endloop
  endfacet
  facet normal 0 0.555618 0.831438
    outer loop
      vertex 5 17.9494 37.9494
      vertex 0 18.8902 37.3207
      vertex 0 17.9494 37.9494
    endloop
  endfacet
  facet normal 0 0.980794 -0.195045
    outer loop
      vertex 5 17.1 40
      vertex 0 17.3207 41.1098
      vertex 5 17.3207 41.1098
    endloop
  endfacet
  facet normal 0 0.980794 -0.195045
    outer loop
      vertex 0 17.3207 41.1098
      vertex 5 17.1 40
      vertex 0 17.1 40
    endloop
  endfacet
  facet normal 0 0.831438 -0.555618
    outer loop
      vertex 5 17.3207 41.1098
      vertex 0 17.9494 42.0506
      vertex 5 17.9494 42.0506
    endloop
  endfacet
  facet normal 0 0.831438 -0.555618
    outer loop
      vertex 0 17.9494 42.0506
      vertex 5 17.3207 41.1098
      vertex 0 17.3207 41.1098
    endloop
  endfacet
  facet normal 0 0.555557 -0.831479
    outer loop
      vertex 0 17.9494 42.0506
      vertex 5 18.8902 42.6792
      vertex 5 17.9494 42.0506
    endloop
  endfacet
  facet normal 0 0.555557 -0.831479
    outer loop
      vertex 5 18.8902 42.6792
      vertex 0 17.9494 42.0506
      vertex 0 18.8902 42.6792
    endloop
  endfacet
  facet normal 1 0 0
    outer loop
      vertex 5 22.6792 21.1098
      vertex 5 30 45
      vertex 5 22.6792 38.8902
    endloop
  endfacet
  facet normal 1 0 0
    outer loop
      vertex 5 30 45
      vertex 5 22.6792 21.1098
      vertex 5 22.9 20
    endloop
  endfacet
  facet normal 1 -0 0
    outer loop
      vertex 5 22.0506 37.9494
      vertex 5 22.6792 21.1098
      vertex 5 22.6792 38.8902
    endloop
  endfacet
  facet normal 1 0 0
    outer loop
      vertex 5 22.0506 37.9494
      vertex 5 22.0506 22.0506
      vertex 5 22.6792 21.1098
    endloop
  endfacet
  facet normal 1 -0 0
    outer loop
      vertex 5 21.1098 37.3207
      vertex 5 22.0506 22.0506
      vertex 5 22.0506 37.9494
    endloop
  endfacet
  facet normal 1 0 0
    outer loop
      vertex 5 21.1098 37.3207
      vertex 5 21.1098 22.6792
      vertex 5 22.0506 22.0506
    endloop
  endfacet
  facet normal 1 -0 0
    outer loop
      vertex 5 20 37.1
      vertex 5 21.1098 22.6792
      vertex 5 21.1098 37.3207
    endloop
  endfacet
  facet normal 1 0 0
    outer loop
      vertex 5 20 37.1
      vertex 5 20 22.9
      vertex 5 21.1098 22.6792
    endloop
  endfacet
  facet normal 1 0 0
    outer loop
      vertex 5 18.8902 37.3207
      vertex 5 20 22.9
      vertex 5 20 37.1
    endloop
  endfacet
  facet normal 1 0 0
    outer loop
      vertex 5 18.8902 37.3207
      vertex 5 18.8902 22.6792
      vertex 5 20 22.9
    endloop
  endfacet
  facet normal 1 0 0
    outer loop
      vertex 5 17.9494 37.9494
      vertex 5 18.8902 22.6792
      vertex 5 18.8902 37.3207
    endloop
  endfacet
  facet normal 1 0 0
    outer loop
      vertex 5 17.9494 37.9494
      vertex 5 17.9494 22.0506
      vertex 5 18.8902 22.6792
    endloop
  endfacet
  facet normal 1 0 0
    outer loop
      vertex 5 17.3207 38.8902
      vertex 5 17.9494 22.0506
      vertex 5 17.9494 37.9494
    endloop
  endfacet
  facet normal 1 0 0
    outer loop
      vertex 5 17.3207 38.8902
      vertex 5 17.3207 21.1098
      vertex 5 17.9494 22.0506
    endloop
  endfacet
  facet normal 1 0 0
    outer loop
      vertex 5 10 45
      vertex 5 17.3207 38.8902
      vertex 5 17.1 40
    endloop
  endfacet
  facet normal 1 0 0
    outer loop
      vertex 5 17.3207 38.8902
      vertex 5 10 45
      vertex 5 17.3207 21.1098
    endloop
  endfacet
  facet normal 1 0 0
    outer loop
      vertex 5 22.6792 38.8902
      vertex 5 30 45
      vertex 5 22.9 40
    endloop
  endfacet
  facet normal 1 0 0
    outer loop
      vertex 5 30 45
      vertex 5 22.6792 41.1098
      vertex 5 22.9 40
    endloop
  endfacet
  facet normal 1 0 0
    outer loop
      vertex 5 30 45
      vertex 5 22.0506 42.0506
      vertex 5 22.6792 41.1098
    endloop
  endfacet
  facet normal 1 0 0
    outer loop
      vertex 5 30 45
      vertex 5 21.1098 42.6792
      vertex 5 22.0506 42.0506
    endloop
  endfacet
  facet normal 1 0 0
    outer loop
      vertex 5 30 45
      vertex 5 20 42.9
      vertex 5 21.1098 42.6792
    endloop
  endfacet
  facet normal 1 -0 0
    outer loop
      vertex 5 10 45
      vertex 5 20 42.9
      vertex 5 30 45
    endloop
  endfacet
  facet normal 1 0 0
    outer loop
      vertex 5 17.3207 21.1098
      vertex 5 10 45
      vertex 5 17.1 20
    endloop
  endfacet
  facet normal 1 0 0
    outer loop
      vertex 5 17.3207 41.1098
      vertex 5 10 45
      vertex 5 17.1 40
    endloop
  endfacet
  facet normal 1 0 0
    outer loop
      vertex 5 17.9494 42.0506
      vertex 5 10 45
      vertex 5 17.3207 41.1098
    endloop
  endfacet
  facet normal 1 0 0
    outer loop
      vertex 5 18.8902 42.6792
      vertex 5 10 45
      vertex 5 17.9494 42.0506
    endloop
  endfacet
  facet normal 1 0 0
    outer loop
      vertex 5 20 42.9
      vertex 5 10 45
      vertex 5 18.8902 42.6792
    endloop
  endfacet
  facet normal 1 0 0
    outer loop
      vertex 5 30 45
      vertex 5 22.9 20
      vertex 5 30 5
    endloop
  endfacet
  facet normal 1 -0 0
    outer loop
      vertex 5 22.6792 18.8902
      vertex 5 30 5
      vertex 5 22.9 20
    endloop
  endfacet
  facet normal 1 -0 0
    outer loop
      vertex 5 22.0506 17.9494
      vertex 5 30 5
      vertex 5 22.6792 18.8902
    endloop
  endfacet
  facet normal 1 -0 0
    outer loop
      vertex 5 21.1098 17.3207
      vertex 5 30 5
      vertex 5 22.0506 17.9494
    endloop
  endfacet
  facet normal 1 -0 0
    outer loop
      vertex 5 20 17.1
      vertex 5 30 5
      vertex 5 21.1098 17.3207
    endloop
  endfacet
  facet normal 1 0 0
    outer loop
      vertex 5 10 5
      vertex 5 20 17.1
      vertex 5 18.8902 17.3207
    endloop
  endfacet
  facet normal 1 0 0
    outer loop
      vertex 5 10 5
      vertex 5 18.8902 17.3207
      vertex 5 17.9494 17.9494
    endloop
  endfacet
  facet normal 1 0 0
    outer loop
      vertex 5 10 5
      vertex 5 17.1 20
      vertex 5 10 45
    endloop
  endfacet
  facet normal 1 0 0
    outer loop
      vertex 5 20 17.1
      vertex 5 10 5
      vertex 5 30 5
    endloop
  endfacet
  facet normal 1 0 0
    outer loop
      vertex 5 17.3207 18.8902
      vertex 5 10 5
      vertex 5 17.9494 17.9494
    endloop
  endfacet
  facet normal 1 0 0
    outer loop
      vertex 5 17.1 20
      vertex 5 10 5
      vertex 5 17.3207 18.8902
    endloop
  endfacet
  facet normal 0 0 1
    outer loop
      vertex 45 30 5
      vertex 42.9 20 5
      vertex 45 10 5
    endloop
  endfacet
  facet normal 0 0 1
    outer loop
      vertex 45 30 5
      vertex 42.6792 21.1098 5
      vertex 42.9 20 5
    endloop
  endfacet
  facet normal 0 0 1
    outer loop
      vertex 45 30 5
      vertex 42.0506 22.0506 5
      vertex 42.6792 21.1098 5
    endloop
  endfacet
  facet normal 0 0 1
    outer loop
      vertex 45 30 5
      vertex 41.1098 22.6792 5
      vertex 42.0506 22.0506 5
    endloop
  endfacet
  facet normal 0 0 1
    outer loop
      vertex 45 30 5
      vertex 40 22.9 5
      vertex 41.1098 22.6792 5
    endloop
  endfacet
  facet normal 0 0 1
    outer loop
      vertex 45 30 5
      vertex 38.8902 22.6792 5
      vertex 40 22.9 5
    endloop
  endfacet
  facet normal 0 0 1
    outer loop
      vertex 21.1098 22.6792 5
      vertex 38.8902 22.6792 5
      vertex 45 30 5
    endloop
  endfacet
  facet normal 0 0 1
    outer loop
      vertex 37.3207 21.1098 5
      vertex 22.9 20 5
      vertex 37.1 20 5
    endloop
  endfacet
  facet normal 0 0 1
    outer loop
      vertex 22.6792 21.1098 5
      vertex 37.3207 21.1098 5
      vertex 37.9494 22.0506 5
    endloop
  endfacet
  facet normal 0 0 1
    outer loop
      vertex 38.8902 22.6792 5
      vertex 21.1098 22.6792 5
      vertex 37.9494 22.0506 5
    endloop
  endfacet
  facet normal 0 0 1
    outer loop
      vertex 37.3207 21.1098 5
      vertex 22.6792 21.1098 5
      vertex 22.9 20 5
    endloop
  endfacet
  facet normal 0 0 1
    outer loop
      vertex 37.9494 22.0506 5
      vertex 22.0506 22.0506 5
      vertex 22.6792 21.1098 5
    endloop
  endfacet
  facet normal 0 0 1
    outer loop
      vertex 37.9494 22.0506 5
      vertex 21.1098 22.6792 5
      vertex 22.0506 22.0506 5
    endloop
  endfacet
  facet normal 0 0 1
    outer loop
      vertex 45 30 5
      vertex 20 22.9 5
      vertex 21.1098 22.6792 5
    endloop
  endfacet
  facet normal -0 0 1
    outer loop
      vertex 5 30 5
      vertex 20 22.9 5
      vertex 45 30 5
    endloop
  endfacet
  facet normal 0 0 1
    outer loop
      vertex 17.3207 21.1098 5
      vertex 5 30 5
      vertex 17.1 20 5
    endloop
  endfacet
  facet normal 0 0 1
    outer loop
      vertex 17.9494 22.0506 5
      vertex 5 30 5
      vertex 17.3207 21.1098 5
    endloop
  endfacet
  facet normal 0 0 1
    outer loop
      vertex 18.8902 22.6792 5
      vertex 5 30 5
      vertex 17.9494 22.0506 5
    endloop
  endfacet
  facet normal 0 0 1
    outer loop
      vertex 20 22.9 5
      vertex 5 30 5
      vertex 18.8902 22.6792 5
    endloop
  endfacet
  facet normal -0 0 1
    outer loop
      vertex 42.6792 18.8902 5
      vertex 45 10 5
      vertex 42.9 20 5
    endloop
  endfacet
  facet normal -0 0 1
    outer loop
      vertex 42.0506 17.9494 5
      vertex 45 10 5
      vertex 42.6792 18.8902 5
    endloop
  endfacet
  facet normal -0 0 1
    outer loop
      vertex 41.1098 17.3207 5
      vertex 45 10 5
      vertex 42.0506 17.9494 5
    endloop
  endfacet
  facet normal -0 0 1
    outer loop
      vertex 40 17.1 5
      vertex 45 10 5
      vertex 41.1098 17.3207 5
    endloop
  endfacet
  facet normal 0 0 1
    outer loop
      vertex 38.8902 17.3207 5
      vertex 45 10 5
      vertex 40 17.1 5
    endloop
  endfacet
  facet normal 0 0 1
    outer loop
      vertex 21.1098 17.3207 5
      vertex 38.8902 17.3207 5
      vertex 37.9494 17.9494 5
    endloop
  endfacet
  facet normal -0 0 1
    outer loop
      vertex 22.9 20 5
      vertex 37.3207 18.8902 5
      vertex 37.1 20 5
    endloop
  endfacet
  facet normal 0 0 1
    outer loop
      vertex 22.6792 18.8902 5
      vertex 37.3207 18.8902 5
      vertex 22.9 20 5
    endloop
  endfacet
  facet normal 0 0 1
    outer loop
      vertex 37.3207 18.8902 5
      vertex 22.6792 18.8902 5
      vertex 37.9494 17.9494 5
    endloop
  endfacet
  facet normal 0 0 1
    outer loop
      vertex 22.0506 17.9494 5
      vertex 37.9494 17.9494 5
      vertex 22.6792 18.8902 5
    endloop
  endfacet
  facet normal 0 0 1
    outer loop
      vertex 21.1098 17.3207 5
      vertex 37.9494 17.9494 5
      vertex 22.0506 17.9494 5
    endloop
  endfacet
  facet normal 0 0 1
    outer loop
      vertex 38.8902 17.3207 5
      vertex 21.1098 17.3207 5
      vertex 45 10 5
    endloop
  endfacet
  facet normal -0 0 1
    outer loop
      vertex 20 17.1 5
      vertex 45 10 5
      vertex 21.1098 17.3207 5
    endloop
  endfacet
  facet normal 0 0 1
    outer loop
      vertex 5 10 5
      vertex 20 17.1 5
      vertex 18.8902 17.3207 5
    endloop
  endfacet
  facet normal 0 0 1
    outer loop
      vertex 5 10 5
      vertex 17.1 20 5
      vertex 5 30 5
    endloop
  endfacet
  facet normal 0 0 1
    outer loop
      vertex 17.1 20 5
      vertex 5 10 5
      vertex 17.3207 18.8902 5
    endloop
  endfacet
  facet normal 0 0 1
    outer loop
      vertex 20 17.1 5
      vertex 5 10 5
      vertex 45 10 5
    endloop
  endfacet
  facet normal 0 0 1
    outer loop
      vertex 17.9494 17.9494 5
      vertex 5 10 5
      vertex 18.8902 17.3207 5
    endloop
  endfacet
  facet normal 0 0 1
    outer loop
      vertex 17.3207 18.8902 5
      vertex 5 10 5
      vertex 17.9494 17.9494 5
    endloop
  endfacet
  facet normal 0 1 0
    outer loop
      vertex 5 10 45
      vertex 45 10 5
      vertex 5 10 5
    endloop
  endfacet
  facet normal 0 -1 0
    outer loop
      vertex 45 30 5
      vertex 5 30 45
      vertex 5 30 5
    endloop
  endfacet
endsolid OpenSCAD_Model
