solid OpenSCAD_Model
  facet normal 0 0 -1
    outer loop
      vertex 12.6792 48.8902 0
      vertex 19.9 60 0
      vertex 12.6792 31.1098 0
    endloop
  endfacet
  facet normal 0 0 -1
    outer loop
      vertex 19.9 60 0
      vertex 12.6792 48.8902 0
      vertex 12.9 50 0
    endloop
  endfacet
  facet normal 0 0 -1
    outer loop
      vertex 12.0506 32.0506 0
      vertex 12.6792 48.8902 0
      vertex 12.6792 31.1098 0
    endloop
  endfacet
  facet normal 0 0 -1
    outer loop
      vertex 12.0506 32.0506 0
      vertex 12.0506 47.9494 0
      vertex 12.6792 48.8902 0
    endloop
  endfacet
  facet normal 0 0 -1
    outer loop
      vertex 11.1098 32.6792 0
      vertex 12.0506 47.9494 0
      vertex 12.0506 32.0506 0
    endloop
  endfacet
  facet normal 0 0 -1
    outer loop
      vertex 11.1098 32.6792 0
      vertex 11.1098 47.3207 0
      vertex 12.0506 47.9494 0
    endloop
  endfacet
  facet normal 0 0 -1
    outer loop
      vertex 10 32.9 0
      vertex 11.1098 47.3207 0
      vertex 11.1098 32.6792 0
    endloop
  endfacet
  facet normal 0 0 -1
    outer loop
      vertex 10 32.9 0
      vertex 10 47.1 0
      vertex 11.1098 47.3207 0
    endloop
  endfacet
  facet normal 0 0 -1
    outer loop
      vertex 8.89022 32.6792 0
      vertex 10 47.1 0
      vertex 10 32.9 0
    endloop
  endfacet
  facet normal 0 0 -1
    outer loop
      vertex 8.89022 32.6792 0
      vertex 8.89022 47.3207 0
      vertex 10 47.1 0
    endloop
  endfacet
  facet normal 0 0 -1
    outer loop
      vertex 7.94939 32.0506 0
      vertex 8.89022 47.3207 0
      vertex 8.89022 32.6792 0
    endloop
  endfacet
  facet normal 0 0 -1
    outer loop
      vertex 7.94939 32.0506 0
      vertex 7.94939 47.9494 0
      vertex 8.89022 47.3207 0
    endloop
  endfacet
  facet normal 0 0 -1
    outer loop
      vertex 7.32075 31.1098 0
      vertex 7.94939 47.9494 0
      vertex 7.94939 32.0506 0
    endloop
  endfacet
  facet normal 0 0 -1
    outer loop
      vertex 7.32075 31.1098 0
      vertex 7.32075 48.8902 0
      vertex 7.94939 47.9494 0
    endloop
  endfacet
  facet normal 0 0 -1
    outer loop
      vertex 0 60 0
      vertex 7.32075 31.1098 0
      vertex 7.1 30 0
    endloop
  endfacet
  facet normal 0 0 -1
    outer loop
      vertex 7.32075 31.1098 0
      vertex 0 60 0
      vertex 7.32075 48.8902 0
    endloop
  endfacet
  facet normal 0 0 -1
    outer loop
      vertex 12.0506 12.0506 0
      vertex 27.9494 12.0506 0
      vertex 12.6792 11.1098 0
    endloop
  endfacet
  facet normal 0 0 -1
    outer loop
      vertex 27.9494 12.0506 0
      vertex 12.6792 28.8902 0
      vertex 12.9 30 0
    endloop
  endfacet
  facet normal 0 0 -1
    outer loop
      vertex 12.0506 27.9494 0
      vertex 27.9494 12.0506 0
      vertex 12.0506 12.0506 0
    endloop
  endfacet
  facet normal 0 0 -1
    outer loop
      vertex 27.9494 12.0506 0
      vertex 12.0506 27.9494 0
      vertex 12.6792 28.8902 0
    endloop
  endfacet
  facet normal 0 0 -1
    outer loop
      vertex 11.1098 12.6792 0
      vertex 12.0506 27.9494 0
      vertex 12.0506 12.0506 0
    endloop
  endfacet
  facet normal 0 0 -1
    outer loop
      vertex 11.1098 12.6792 0
      vertex 11.1098 27.3207 0
      vertex 12.0506 27.9494 0
    endloop
  endfacet
  facet normal 0 0 -1
    outer loop
      vertex 10 12.9 0
      vertex 11.1098 27.3207 0
      vertex 11.1098 12.6792 0
    endloop
  endfacet
  facet normal 0 0 -1
    outer loop
      vertex 10 12.9 0
      vertex 10 27.1 0
      vertex 11.1098 27.3207 0
    endloop
  endfacet
  facet normal 0 0 -1
    outer loop
      vertex 8.89022 12.6792 0
      vertex 10 27.1 0
      vertex 10 12.9 0
    endloop
  endfacet
  facet normal 0 0 -1
    outer loop
      vertex 8.89022 12.6792 0
      vertex 8.89022 27.3207 0
      vertex 10 27.1 0
    endloop
  endfacet
  facet normal 0 0 -1
    outer loop
      vertex 7.94939 12.0506 0
      vertex 8.89022 27.3207 0
      vertex 8.89022 12.6792 0
    endloop
  endfacet
  facet normal 0 0 -1
    outer loop
      vertex 7.94939 12.0506 0
      vertex 7.94939 27.9494 0
      vertex 8.89022 27.3207 0
    endloop
  endfacet
  facet normal 0 0 -1
    outer loop
      vertex 7.32075 11.1098 0
      vertex 7.94939 27.9494 0
      vertex 7.94939 12.0506 0
    endloop
  endfacet
  facet normal 0 0 -1
    outer loop
      vertex 7.32075 11.1098 0
      vertex 7.32075 28.8902 0
      vertex 7.94939 27.9494 0
    endloop
  endfacet
  facet normal 0 0 -1
    outer loop
      vertex 0 0 0
      vertex 7.32075 11.1098 0
      vertex 7.1 10 0
    endloop
  endfacet
  facet normal -0 0 -1
    outer loop
      vertex 7.32075 11.1098 0
      vertex 0 0 0
      vertex 7.32075 28.8902 0
    endloop
  endfacet
  facet normal 0 0 -1
    outer loop
      vertex 60 0 0
      vertex 52.9 10 0
      vertex 60 19.9 0
    endloop
  endfacet
  facet normal 0 0 -1
    outer loop
      vertex 60 0 0
      vertex 52.6792 8.89022 0
      vertex 52.9 10 0
    endloop
  endfacet
  facet normal 0 0 -1
    outer loop
      vertex 60 0 0
      vertex 52.0506 7.94939 0
      vertex 52.6792 8.89022 0
    endloop
  endfacet
  facet normal 0 0 -1
    outer loop
      vertex 60 0 0
      vertex 51.1098 7.32075 0
      vertex 52.0506 7.94939 0
    endloop
  endfacet
  facet normal 0 0 -1
    outer loop
      vertex 60 0 0
      vertex 50 7.1 0
      vertex 51.1098 7.32075 0
    endloop
  endfacet
  facet normal 0 0 -1
    outer loop
      vertex 60 0 0
      vertex 48.8902 7.32075 0
      vertex 50 7.1 0
    endloop
  endfacet
  facet normal 0 0 -1
    outer loop
      vertex 47.3207 8.89022 0
      vertex 32.9 10 0
      vertex 47.1 10 0
    endloop
  endfacet
  facet normal 0 0 -1
    outer loop
      vertex 32.6792 8.89022 0
      vertex 47.3207 8.89022 0
      vertex 47.9494 7.94939 0
    endloop
  endfacet
  facet normal 0 0 -1
    outer loop
      vertex 32.0506 7.94939 0
      vertex 47.9494 7.94939 0
      vertex 48.8902 7.32075 0
    endloop
  endfacet
  facet normal 0 0 -1
    outer loop
      vertex 31.1098 7.32075 0
      vertex 48.8902 7.32075 0
      vertex 60 0 0
    endloop
  endfacet
  facet normal 0 0 -1
    outer loop
      vertex 47.3207 8.89022 0
      vertex 32.6792 8.89022 0
      vertex 32.9 10 0
    endloop
  endfacet
  facet normal 0 0 -1
    outer loop
      vertex 47.9494 7.94939 0
      vertex 32.0506 7.94939 0
      vertex 32.6792 8.89022 0
    endloop
  endfacet
  facet normal 0 0 -1
    outer loop
      vertex 48.8902 7.32075 0
      vertex 31.1098 7.32075 0
      vertex 32.0506 7.94939 0
    endloop
  endfacet
  facet normal 0 0 -1
    outer loop
      vertex 60 0 0
      vertex 30 7.1 0
      vertex 31.1098 7.32075 0
    endloop
  endfacet
  facet normal 0 0 -1
    outer loop
      vertex 0 0 0
      vertex 30 7.1 0
      vertex 60 0 0
    endloop
  endfacet
  facet normal 0 0 -1
    outer loop
      vertex 27.9494 12.0506 0
      vertex 12.9 30 0
      vertex 28.8902 12.6792 0
    endloop
  endfacet
  facet normal 0 0 -1
    outer loop
      vertex 27.3207 8.89022 0
      vertex 12.9 10 0
      vertex 27.1 10 0
    endloop
  endfacet
  facet normal 0 0 -1
    outer loop
      vertex 12.6792 8.89022 0
      vertex 27.3207 8.89022 0
      vertex 27.9494 7.94939 0
    endloop
  endfacet
  facet normal 0 0 -1
    outer loop
      vertex 12.0506 7.94939 0
      vertex 27.9494 7.94939 0
      vertex 28.8902 7.32075 0
    endloop
  endfacet
  facet normal -0 0 -1
    outer loop
      vertex 30 7.1 0
      vertex 0 0 0
      vertex 28.8902 7.32075 0
    endloop
  endfacet
  facet normal 0 0 -1
    outer loop
      vertex 27.3207 8.89022 0
      vertex 12.6792 8.89022 0
      vertex 12.9 10 0
    endloop
  endfacet
  facet normal 0 0 -1
    outer loop
      vertex 27.9494 7.94939 0
      vertex 12.0506 7.94939 0
      vertex 12.6792 8.89022 0
    endloop
  endfacet
  facet normal 0 0 -1
    outer loop
      vertex 28.8902 7.32075 0
      vertex 11.1098 7.32075 0
      vertex 12.0506 7.94939 0
    endloop
  endfacet
  facet normal -0 0 -1
    outer loop
      vertex 28.8902 7.32075 0
      vertex 0 0 0
      vertex 11.1098 7.32075 0
    endloop
  endfacet
  facet normal -0 0 -1
    outer loop
      vertex 7.32075 28.8902 0
      vertex 0 0 0
      vertex 7.1 30 0
    endloop
  endfacet
  facet normal 0 0 -1
    outer loop
      vertex 0 60 0
      vertex 7.1 30 0
      vertex 0 0 0
    endloop
  endfacet
  facet normal -0 0 -1
    outer loop
      vertex 7.32075 8.89022 0
      vertex 0 0 0
      vertex 7.1 10 0
    endloop
  endfacet
  facet normal -0 0 -1
    outer loop
      vertex 7.94939 7.94939 0
      vertex 0 0 0
      vertex 7.32075 8.89022 0
    endloop
  endfacet
  facet normal -0 0 -1
    outer loop
      vertex 8.89022 7.32075 0
      vertex 0 0 0
      vertex 7.94939 7.94939 0
    endloop
  endfacet
  facet normal -0 0 -1
    outer loop
      vertex 10 7.1 0
      vertex 0 0 0
      vertex 8.89022 7.32075 0
    endloop
  endfacet
  facet normal 0 0 -1
    outer loop
      vertex 11.1098 7.32075 0
      vertex 0 0 0
      vertex 10 7.1 0
    endloop
  endfacet
  facet normal 0 0 -1
    outer loop
      vertex 52.6792 11.1098 0
      vertex 60 19.9 0
      vertex 52.9 10 0
    endloop
  endfacet
  facet normal 0 0 -1
    outer loop
      vertex 52.0506 12.0506 0
      vertex 60 19.9 0
      vertex 52.6792 11.1098 0
    endloop
  endfacet
  facet normal 0 0 -1
    outer loop
      vertex 51.1098 12.6792 0
      vertex 60 19.9 0
      vertex 52.0506 12.0506 0
    endloop
  endfacet
  facet normal 0 0 -1
    outer loop
      vertex 50 12.9 0
      vertex 60 19.9 0
      vertex 51.1098 12.6792 0
    endloop
  endfacet
  facet normal 0 0 -1
    outer loop
      vertex 48.8902 12.6792 0
      vertex 60 19.9 0
      vertex 50 12.9 0
    endloop
  endfacet
  facet normal 0 0 -1
    outer loop
      vertex 32.9 10 0
      vertex 47.3207 11.1098 0
      vertex 47.1 10 0
    endloop
  endfacet
  facet normal 0 0 -1
    outer loop
      vertex 32.6792 11.1098 0
      vertex 47.3207 11.1098 0
      vertex 32.9 10 0
    endloop
  endfacet
  facet normal 0 0 -1
    outer loop
      vertex 47.3207 11.1098 0
      vertex 32.6792 11.1098 0
      vertex 47.9494 12.0506 0
    endloop
  endfacet
  facet normal 0 0 -1
    outer loop
      vertex 32.0506 12.0506 0
      vertex 47.9494 12.0506 0
      vertex 32.6792 11.1098 0
    endloop
  endfacet
  facet normal 0 0 -1
    outer loop
      vertex 47.9494 12.0506 0
      vertex 32.0506 12.0506 0
      vertex 48.8902 12.6792 0
    endloop
  endfacet
  facet normal 0 0 -1
    outer loop
      vertex 31.1098 12.6792 0
      vertex 48.8902 12.6792 0
      vertex 32.0506 12.0506 0
    endloop
  endfacet
  facet normal 0 0 -1
    outer loop
      vertex 48.8902 12.6792 0
      vertex 31.1098 12.6792 0
      vertex 60 19.9 0
    endloop
  endfacet
  facet normal 0 0 -1
    outer loop
      vertex 12.6792 31.1098 0
      vertex 31.1098 12.6792 0
      vertex 30 12.9 0
    endloop
  endfacet
  facet normal 0 0 -1
    outer loop
      vertex 12.6792 31.1098 0
      vertex 30 12.9 0
      vertex 28.8902 12.6792 0
    endloop
  endfacet
  facet normal 0 0 -1
    outer loop
      vertex 12.9 10 0
      vertex 27.3207 11.1098 0
      vertex 27.1 10 0
    endloop
  endfacet
  facet normal 0 0 -1
    outer loop
      vertex 12.6792 11.1098 0
      vertex 27.3207 11.1098 0
      vertex 12.9 10 0
    endloop
  endfacet
  facet normal 0 0 -1
    outer loop
      vertex 27.3207 11.1098 0
      vertex 12.6792 11.1098 0
      vertex 27.9494 12.0506 0
    endloop
  endfacet
  facet normal 0 0 -1
    outer loop
      vertex 31.1098 12.6792 0
      vertex 19.9 60 0
      vertex 60 19.9 0
    endloop
  endfacet
  facet normal 0 0 -1
    outer loop
      vertex 19.9 60 0
      vertex 60.1 19.9 0
      vertex 60 19.9 0
    endloop
  endfacet
  facet normal 0 0 -1
    outer loop
      vertex 60.1 19.9 0
      vertex 19.9 60 0
      vertex 19.9 60.1 0
    endloop
  endfacet
  facet normal 0 0 -1
    outer loop
      vertex 12.6792 31.1098 0
      vertex 28.8902 12.6792 0
      vertex 12.9 30 0
    endloop
  endfacet
  facet normal 0 0 -1
    outer loop
      vertex 31.1098 12.6792 0
      vertex 12.6792 31.1098 0
      vertex 19.9 60 0
    endloop
  endfacet
  facet normal 0 0 -1
    outer loop
      vertex 12.6792 51.1098 0
      vertex 19.9 60 0
      vertex 12.9 50 0
    endloop
  endfacet
  facet normal 0 0 -1
    outer loop
      vertex 12.0506 52.0506 0
      vertex 19.9 60 0
      vertex 12.6792 51.1098 0
    endloop
  endfacet
  facet normal 0 0 -1
    outer loop
      vertex 11.1098 52.6792 0
      vertex 19.9 60 0
      vertex 12.0506 52.0506 0
    endloop
  endfacet
  facet normal 0 0 -1
    outer loop
      vertex 10 52.9 0
      vertex 19.9 60 0
      vertex 11.1098 52.6792 0
    endloop
  endfacet
  facet normal 0 0 -1
    outer loop
      vertex 0 60 0
      vertex 10 52.9 0
      vertex 8.89022 52.6792 0
    endloop
  endfacet
  facet normal 0 0 -1
    outer loop
      vertex 10 52.9 0
      vertex 0 60 0
      vertex 19.9 60 0
    endloop
  endfacet
  facet normal 0 0 -1
    outer loop
      vertex 7.94939 52.0506 0
      vertex 0 60 0
      vertex 8.89022 52.6792 0
    endloop
  endfacet
  facet normal 0 0 -1
    outer loop
      vertex 7.32075 51.1098 0
      vertex 0 60 0
      vertex 7.94939 52.0506 0
    endloop
  endfacet
  facet normal 0 0 -1
    outer loop
      vertex 7.1 50 0
      vertex 0 60 0
      vertex 7.32075 51.1098 0
    endloop
  endfacet
  facet normal 0 0 -1
    outer loop
      vertex 7.32075 48.8902 0
      vertex 0 60 0
      vertex 7.1 50 0
    endloop
  endfacet
  facet normal 0 -1 0
    outer loop
      vertex 0 0 0
      vertex 60 0 3
      vertex 0 0 3
    endloop
  endfacet
  facet normal 0 -1 -0
    outer loop
      vertex 60 0 3
      vertex 0 0 0
      vertex 60 0 0
    endloop
  endfacet
  facet normal 0.707107 0.707107 0
    outer loop
      vertex 60.1 19.9 3
      vertex 19.9 60.1 0
      vertex 19.9 60.1 3
    endloop
  endfacet
  facet normal 0.707107 0.707107 0
    outer loop
      vertex 19.9 60.1 0
      vertex 60.1 19.9 3
      vertex 60.1 19.9 0
    endloop
  endfacet
  facet normal -0 0 1
    outer loop
      vertex 12.0506 27.9494 3
      vertex 27.9494 12.0506 3
      vertex 12.6792 28.8902 3
    endloop
  endfacet
  facet normal 0 0 1
    outer loop
      vertex 27.9494 12.0506 3
      vertex 12.6792 11.1098 3
      vertex 12.9 10 3
    endloop
  endfacet
  facet normal 0 0 1
    outer loop
      vertex 12.0506 12.0506 3
      vertex 27.9494 12.0506 3
      vertex 12.0506 27.9494 3
    endloop
  endfacet
  facet normal 0 0 1
    outer loop
      vertex 27.9494 12.0506 3
      vertex 12.0506 12.0506 3
      vertex 12.6792 11.1098 3
    endloop
  endfacet
  facet normal -0 0 1
    outer loop
      vertex 11.1098 27.3207 3
      vertex 12.0506 12.0506 3
      vertex 12.0506 27.9494 3
    endloop
  endfacet
  facet normal 0 0 1
    outer loop
      vertex 11.1098 27.3207 3
      vertex 11.1098 12.6792 3
      vertex 12.0506 12.0506 3
    endloop
  endfacet
  facet normal -0 0 1
    outer loop
      vertex 10 27.1 3
      vertex 11.1098 12.6792 3
      vertex 11.1098 27.3207 3
    endloop
  endfacet
  facet normal 0 0 1
    outer loop
      vertex 10 27.1 3
      vertex 10 12.9 3
      vertex 11.1098 12.6792 3
    endloop
  endfacet
  facet normal 0 0 1
    outer loop
      vertex 8.89022 27.3207 3
      vertex 10 12.9 3
      vertex 10 27.1 3
    endloop
  endfacet
  facet normal 0 0 1
    outer loop
      vertex 8.89022 27.3207 3
      vertex 8.89022 12.6792 3
      vertex 10 12.9 3
    endloop
  endfacet
  facet normal 0 0 1
    outer loop
      vertex 7.94939 27.9494 3
      vertex 8.89022 12.6792 3
      vertex 8.89022 27.3207 3
    endloop
  endfacet
  facet normal 0 0 1
    outer loop
      vertex 7.94939 27.9494 3
      vertex 7.94939 12.0506 3
      vertex 8.89022 12.6792 3
    endloop
  endfacet
  facet normal 0 0 1
    outer loop
      vertex 7.32075 28.8902 3
      vertex 7.94939 12.0506 3
      vertex 7.94939 27.9494 3
    endloop
  endfacet
  facet normal 0 0 1
    outer loop
      vertex 7.32075 28.8902 3
      vertex 7.32075 11.1098 3
      vertex 7.94939 12.0506 3
    endloop
  endfacet
  facet normal 0 0 1
    outer loop
      vertex 0 0 3
      vertex 7.32075 28.8902 3
      vertex 7.1 30 3
    endloop
  endfacet
  facet normal 0 0 1
    outer loop
      vertex 7.32075 28.8902 3
      vertex 0 0 3
      vertex 7.32075 11.1098 3
    endloop
  endfacet
  facet normal 0 0 1
    outer loop
      vertex 12.6792 31.1098 3
      vertex 19.9 60 3
      vertex 12.6792 48.8902 3
    endloop
  endfacet
  facet normal 0 0 1
    outer loop
      vertex 19.9 60 3
      vertex 12.6792 31.1098 3
      vertex 12.9 30 3
    endloop
  endfacet
  facet normal -0 0 1
    outer loop
      vertex 12.0506 47.9494 3
      vertex 12.6792 31.1098 3
      vertex 12.6792 48.8902 3
    endloop
  endfacet
  facet normal 0 0 1
    outer loop
      vertex 12.0506 47.9494 3
      vertex 12.0506 32.0506 3
      vertex 12.6792 31.1098 3
    endloop
  endfacet
  facet normal -0 0 1
    outer loop
      vertex 11.1098 47.3207 3
      vertex 12.0506 32.0506 3
      vertex 12.0506 47.9494 3
    endloop
  endfacet
  facet normal 0 0 1
    outer loop
      vertex 11.1098 47.3207 3
      vertex 11.1098 32.6792 3
      vertex 12.0506 32.0506 3
    endloop
  endfacet
  facet normal -0 0 1
    outer loop
      vertex 10 47.1 3
      vertex 11.1098 32.6792 3
      vertex 11.1098 47.3207 3
    endloop
  endfacet
  facet normal 0 0 1
    outer loop
      vertex 10 47.1 3
      vertex 10 32.9 3
      vertex 11.1098 32.6792 3
    endloop
  endfacet
  facet normal 0 0 1
    outer loop
      vertex 8.89022 47.3207 3
      vertex 10 32.9 3
      vertex 10 47.1 3
    endloop
  endfacet
  facet normal 0 0 1
    outer loop
      vertex 8.89022 47.3207 3
      vertex 8.89022 32.6792 3
      vertex 10 32.9 3
    endloop
  endfacet
  facet normal 0 0 1
    outer loop
      vertex 7.94939 47.9494 3
      vertex 8.89022 32.6792 3
      vertex 8.89022 47.3207 3
    endloop
  endfacet
  facet normal 0 0 1
    outer loop
      vertex 7.94939 47.9494 3
      vertex 7.94939 32.0506 3
      vertex 8.89022 32.6792 3
    endloop
  endfacet
  facet normal 0 0 1
    outer loop
      vertex 7.32075 48.8902 3
      vertex 7.94939 32.0506 3
      vertex 7.94939 47.9494 3
    endloop
  endfacet
  facet normal 0 0 1
    outer loop
      vertex 7.32075 48.8902 3
      vertex 7.32075 31.1098 3
      vertex 7.94939 32.0506 3
    endloop
  endfacet
  facet normal 0 0 1
    outer loop
      vertex 0 60 3
      vertex 7.32075 48.8902 3
      vertex 7.1 50 3
    endloop
  endfacet
  facet normal 0 0 1
    outer loop
      vertex 7.32075 48.8902 3
      vertex 0 60 3
      vertex 7.32075 31.1098 3
    endloop
  endfacet
  facet normal 0 0 1
    outer loop
      vertex 19.9 60 3
      vertex 12.6792 51.1098 3
      vertex 12.9 50 3
    endloop
  endfacet
  facet normal 0 0 1
    outer loop
      vertex 19.9 60 3
      vertex 12.0506 52.0506 3
      vertex 12.6792 51.1098 3
    endloop
  endfacet
  facet normal 0 0 1
    outer loop
      vertex 19.9 60 3
      vertex 11.1098 52.6792 3
      vertex 12.0506 52.0506 3
    endloop
  endfacet
  facet normal 0 0 1
    outer loop
      vertex 19.9 60 3
      vertex 10 52.9 3
      vertex 11.1098 52.6792 3
    endloop
  endfacet
  facet normal -0 0 1
    outer loop
      vertex 0 60 3
      vertex 10 52.9 3
      vertex 19.9 60 3
    endloop
  endfacet
  facet normal 0 0 1
    outer loop
      vertex 7.32075 31.1098 3
      vertex 0 60 3
      vertex 7.1 30 3
    endloop
  endfacet
  facet normal 0 0 1
    outer loop
      vertex 0 0 3
      vertex 7.1 30 3
      vertex 0 60 3
    endloop
  endfacet
  facet normal 0 0 1
    outer loop
      vertex 7.32075 51.1098 3
      vertex 0 60 3
      vertex 7.1 50 3
    endloop
  endfacet
  facet normal 0 0 1
    outer loop
      vertex 7.94939 52.0506 3
      vertex 0 60 3
      vertex 7.32075 51.1098 3
    endloop
  endfacet
  facet normal 0 0 1
    outer loop
      vertex 8.89022 52.6792 3
      vertex 0 60 3
      vertex 7.94939 52.0506 3
    endloop
  endfacet
  facet normal 0 0 1
    outer loop
      vertex 10 52.9 3
      vertex 0 60 3
      vertex 8.89022 52.6792 3
    endloop
  endfacet
  facet normal 0 0 1
    outer loop
      vertex 60 19.9 3
      vertex 52.9 10 3
      vertex 60 0 3
    endloop
  endfacet
  facet normal 0 0 1
    outer loop
      vertex 60 19.9 3
      vertex 52.6792 11.1098 3
      vertex 52.9 10 3
    endloop
  endfacet
  facet normal 0 0 1
    outer loop
      vertex 60 19.9 3
      vertex 52.0506 12.0506 3
      vertex 52.6792 11.1098 3
    endloop
  endfacet
  facet normal 0 0 1
    outer loop
      vertex 60 19.9 3
      vertex 51.1098 12.6792 3
      vertex 52.0506 12.0506 3
    endloop
  endfacet
  facet normal 0 0 1
    outer loop
      vertex 60 19.9 3
      vertex 50 12.9 3
      vertex 51.1098 12.6792 3
    endloop
  endfacet
  facet normal 0 0 1
    outer loop
      vertex 60 19.9 3
      vertex 48.8902 12.6792 3
      vertex 50 12.9 3
    endloop
  endfacet
  facet normal 0 0 1
    outer loop
      vertex 47.3207 11.1098 3
      vertex 32.9 10 3
      vertex 47.1 10 3
    endloop
  endfacet
  facet normal 0 0 1
    outer loop
      vertex 32.6792 11.1098 3
      vertex 47.3207 11.1098 3
      vertex 47.9494 12.0506 3
    endloop
  endfacet
  facet normal 0 0 1
    outer loop
      vertex 32.0506 12.0506 3
      vertex 47.9494 12.0506 3
      vertex 48.8902 12.6792 3
    endloop
  endfacet
  facet normal 0 0 1
    outer loop
      vertex 31.1098 12.6792 3
      vertex 48.8902 12.6792 3
      vertex 60 19.9 3
    endloop
  endfacet
  facet normal 0 0 1
    outer loop
      vertex 47.3207 11.1098 3
      vertex 32.6792 11.1098 3
      vertex 32.9 10 3
    endloop
  endfacet
  facet normal 0 0 1
    outer loop
      vertex 47.9494 12.0506 3
      vertex 32.0506 12.0506 3
      vertex 32.6792 11.1098 3
    endloop
  endfacet
  facet normal 0 0 1
    outer loop
      vertex 48.8902 12.6792 3
      vertex 31.1098 12.6792 3
      vertex 32.0506 12.0506 3
    endloop
  endfacet
  facet normal 0 0 1
    outer loop
      vertex 12.9 30 3
      vertex 31.1098 12.6792 3
      vertex 60 19.9 3
    endloop
  endfacet
  facet normal 0 0 1
    outer loop
      vertex 31.1098 12.6792 3
      vertex 12.9 30 3
      vertex 30 12.9 3
    endloop
  endfacet
  facet normal -0 0 1
    outer loop
      vertex 12.6792 28.8902 3
      vertex 28.8902 12.6792 3
      vertex 12.9 30 3
    endloop
  endfacet
  facet normal 0 0 1
    outer loop
      vertex 30 12.9 3
      vertex 12.9 30 3
      vertex 28.8902 12.6792 3
    endloop
  endfacet
  facet normal -0 0 1
    outer loop
      vertex 12.9 30 3
      vertex 60 19.9 3
      vertex 19.9 60 3
    endloop
  endfacet
  facet normal -0 0 1
    outer loop
      vertex 19.9 60 3
      vertex 60 19.9 3
      vertex 19.9 60.1 3
    endloop
  endfacet
  facet normal 0 0 1
    outer loop
      vertex 19.9 60.1 3
      vertex 60 19.9 3
      vertex 60.1 19.9 3
    endloop
  endfacet
  facet normal -0 0 1
    outer loop
      vertex 52.6792 8.89022 3
      vertex 60 0 3
      vertex 52.9 10 3
    endloop
  endfacet
  facet normal -0 0 1
    outer loop
      vertex 52.0506 7.94939 3
      vertex 60 0 3
      vertex 52.6792 8.89022 3
    endloop
  endfacet
  facet normal -0 0 1
    outer loop
      vertex 51.1098 7.32075 3
      vertex 60 0 3
      vertex 52.0506 7.94939 3
    endloop
  endfacet
  facet normal -0 0 1
    outer loop
      vertex 50 7.1 3
      vertex 60 0 3
      vertex 51.1098 7.32075 3
    endloop
  endfacet
  facet normal 0 0 1
    outer loop
      vertex 48.8902 7.32075 3
      vertex 60 0 3
      vertex 50 7.1 3
    endloop
  endfacet
  facet normal -0 0 1
    outer loop
      vertex 32.9 10 3
      vertex 47.3207 8.89022 3
      vertex 47.1 10 3
    endloop
  endfacet
  facet normal 0 0 1
    outer loop
      vertex 32.6792 8.89022 3
      vertex 47.3207 8.89022 3
      vertex 32.9 10 3
    endloop
  endfacet
  facet normal 0 0 1
    outer loop
      vertex 47.3207 8.89022 3
      vertex 32.6792 8.89022 3
      vertex 47.9494 7.94939 3
    endloop
  endfacet
  facet normal 0 0 1
    outer loop
      vertex 32.0506 7.94939 3
      vertex 47.9494 7.94939 3
      vertex 32.6792 8.89022 3
    endloop
  endfacet
  facet normal 0 0 1
    outer loop
      vertex 47.9494 7.94939 3
      vertex 32.0506 7.94939 3
      vertex 48.8902 7.32075 3
    endloop
  endfacet
  facet normal 0 0 1
    outer loop
      vertex 31.1098 7.32075 3
      vertex 48.8902 7.32075 3
      vertex 32.0506 7.94939 3
    endloop
  endfacet
  facet normal 0 0 1
    outer loop
      vertex 48.8902 7.32075 3
      vertex 31.1098 7.32075 3
      vertex 60 0 3
    endloop
  endfacet
  facet normal -0 0 1
    outer loop
      vertex 30 7.1 3
      vertex 60 0 3
      vertex 31.1098 7.32075 3
    endloop
  endfacet
  facet normal 0 0 1
    outer loop
      vertex 0 0 3
      vertex 30 7.1 3
      vertex 28.8902 7.32075 3
    endloop
  endfacet
  facet normal 0 0 1
    outer loop
      vertex 28.8902 12.6792 3
      vertex 12.6792 28.8902 3
      vertex 27.9494 12.0506 3
    endloop
  endfacet
  facet normal 0 0 1
    outer loop
      vertex 12.6792 48.8902 3
      vertex 19.9 60 3
      vertex 12.9 50 3
    endloop
  endfacet
  facet normal 0 0 1
    outer loop
      vertex 27.9494 12.0506 3
      vertex 12.9 10 3
      vertex 27.3207 11.1098 3
    endloop
  endfacet
  facet normal 0 0 1
    outer loop
      vertex 27.3207 11.1098 3
      vertex 12.9 10 3
      vertex 27.1 10 3
    endloop
  endfacet
  facet normal 0 0 1
    outer loop
      vertex 27.1 10 3
      vertex 12.9 10 3
      vertex 27.3207 8.89022 3
    endloop
  endfacet
  facet normal 0 0 1
    outer loop
      vertex 12.6792 8.89022 3
      vertex 27.3207 8.89022 3
      vertex 12.9 10 3
    endloop
  endfacet
  facet normal 0 0 1
    outer loop
      vertex 27.3207 8.89022 3
      vertex 12.6792 8.89022 3
      vertex 27.9494 7.94939 3
    endloop
  endfacet
  facet normal 0 0 1
    outer loop
      vertex 12.0506 7.94939 3
      vertex 27.9494 7.94939 3
      vertex 12.6792 8.89022 3
    endloop
  endfacet
  facet normal 0 0 1
    outer loop
      vertex 27.9494 7.94939 3
      vertex 12.0506 7.94939 3
      vertex 28.8902 7.32075 3
    endloop
  endfacet
  facet normal 0 0 1
    outer loop
      vertex 11.1098 7.32075 3
      vertex 28.8902 7.32075 3
      vertex 12.0506 7.94939 3
    endloop
  endfacet
  facet normal 0 0 1
    outer loop
      vertex 0 0 3
      vertex 28.8902 7.32075 3
      vertex 11.1098 7.32075 3
    endloop
  endfacet
  facet normal 0 0 1
    outer loop
      vertex 0 0 3
      vertex 11.1098 7.32075 3
      vertex 10 7.1 3
    endloop
  endfacet
  facet normal 0 0 1
    outer loop
      vertex 30 7.1 3
      vertex 0 0 3
      vertex 60 0 3
    endloop
  endfacet
  facet normal 0 0 1
    outer loop
      vertex 8.89022 7.32075 3
      vertex 0 0 3
      vertex 10 7.1 3
    endloop
  endfacet
  facet normal 0 0 1
    outer loop
      vertex 7.94939 7.94939 3
      vertex 0 0 3
      vertex 8.89022 7.32075 3
    endloop
  endfacet
  facet normal 0 0 1
    outer loop
      vertex 7.32075 8.89022 3
      vertex 0 0 3
      vertex 7.94939 7.94939 3
    endloop
  endfacet
  facet normal 0 0 1
    outer loop
      vertex 7.1 10 3
      vertex 0 0 3
      vertex 7.32075 8.89022 3
    endloop
  endfacet
  facet normal 0 0 1
    outer loop
      vertex 7.32075 11.1098 3
      vertex 0 0 3
      vertex 7.1 10 3
    endloop
  endfacet
  facet normal -1 0 0
    outer loop
      vertex 0 0 0
      vertex 0 60 3
      vertex 0 60 0
    endloop
  endfacet
  facet normal -1 -0 0
    outer loop
      vertex 0 60 3
      vertex 0 0 0
      vertex 0 0 3
    endloop
  endfacet
  facet normal -0.980777 -0.19513 0
    outer loop
      vertex 12.9 10 0
      vertex 12.6792 11.1098 3
      vertex 12.6792 11.1098 0
    endloop
  endfacet
  facet normal -0.980777 -0.19513 0
    outer loop
      vertex 12.6792 11.1098 3
      vertex 12.9 10 0
      vertex 12.9 10 3
    endloop
  endfacet
  facet normal 0.195134 -0.980777 0
    outer loop
      vertex 8.89022 12.6792 0
      vertex 10 12.9 3
      vertex 8.89022 12.6792 3
    endloop
  endfacet
  facet normal 0.195134 -0.980777 0
    outer loop
      vertex 10 12.9 3
      vertex 8.89022 12.6792 0
      vertex 10 12.9 0
    endloop
  endfacet
  facet normal 0.980785 0.195091 0
    outer loop
      vertex 7.32075 8.89022 3
      vertex 7.1 10 0
      vertex 7.1 10 3
    endloop
  endfacet
  facet normal 0.980785 0.195091 0
    outer loop
      vertex 7.1 10 0
      vertex 7.32075 8.89022 3
      vertex 7.32075 8.89022 0
    endloop
  endfacet
  facet normal -0.555557 -0.831479 0
    outer loop
      vertex 11.1098 12.6792 0
      vertex 12.0506 12.0506 3
      vertex 11.1098 12.6792 3
    endloop
  endfacet
  facet normal -0.555557 -0.831479 -0
    outer loop
      vertex 12.0506 12.0506 3
      vertex 11.1098 12.6792 0
      vertex 12.0506 12.0506 0
    endloop
  endfacet
  facet normal -0.831479 -0.555557 0
    outer loop
      vertex 12.6792 11.1098 0
      vertex 12.0506 12.0506 3
      vertex 12.0506 12.0506 0
    endloop
  endfacet
  facet normal -0.831479 -0.555557 0
    outer loop
      vertex 12.0506 12.0506 3
      vertex 12.6792 11.1098 0
      vertex 12.6792 11.1098 3
    endloop
  endfacet
  facet normal 0.555544 -0.831487 0
    outer loop
      vertex 7.94939 12.0506 0
      vertex 8.89022 12.6792 3
      vertex 7.94939 12.0506 3
    endloop
  endfacet
  facet normal 0.555544 -0.831487 0
    outer loop
      vertex 8.89022 12.6792 3
      vertex 7.94939 12.0506 0
      vertex 8.89022 12.6792 0
    endloop
  endfacet
  facet normal 0.980786 -0.195088 0
    outer loop
      vertex 7.1 10 3
      vertex 7.32075 11.1098 0
      vertex 7.32075 11.1098 3
    endloop
  endfacet
  facet normal 0.980786 -0.195088 0
    outer loop
      vertex 7.32075 11.1098 0
      vertex 7.1 10 3
      vertex 7.1 10 0
    endloop
  endfacet
  facet normal 0.831462 -0.555581 0
    outer loop
      vertex 7.32075 11.1098 3
      vertex 7.94939 12.0506 0
      vertex 7.94939 12.0506 3
    endloop
  endfacet
  facet normal 0.831462 -0.555581 0
    outer loop
      vertex 7.94939 12.0506 0
      vertex 7.32075 11.1098 3
      vertex 7.32075 11.1098 0
    endloop
  endfacet
  facet normal 0.831471 0.555569 0
    outer loop
      vertex 7.94939 7.94939 3
      vertex 7.32075 8.89022 0
      vertex 7.32075 8.89022 3
    endloop
  endfacet
  facet normal 0.831471 0.555569 0
    outer loop
      vertex 7.32075 8.89022 0
      vertex 7.94939 7.94939 3
      vertex 7.94939 7.94939 0
    endloop
  endfacet
  facet normal -0.19513 -0.980777 0
    outer loop
      vertex 10 12.9 0
      vertex 11.1098 12.6792 3
      vertex 10 12.9 3
    endloop
  endfacet
  facet normal -0.19513 -0.980777 -0
    outer loop
      vertex 11.1098 12.6792 3
      vertex 10 12.9 0
      vertex 11.1098 12.6792 0
    endloop
  endfacet
  facet normal -0.555581 0.831462 0
    outer loop
      vertex 12.0506 7.94939 0
      vertex 11.1098 7.32075 3
      vertex 12.0506 7.94939 3
    endloop
  endfacet
  facet normal -0.555581 0.831462 0
    outer loop
      vertex 11.1098 7.32075 3
      vertex 12.0506 7.94939 0
      vertex 11.1098 7.32075 0
    endloop
  endfacet
  facet normal -0.831487 0.555544 0
    outer loop
      vertex 12.0506 7.94939 0
      vertex 12.6792 8.89022 3
      vertex 12.6792 8.89022 0
    endloop
  endfacet
  facet normal -0.831487 0.555544 0
    outer loop
      vertex 12.6792 8.89022 3
      vertex 12.0506 7.94939 0
      vertex 12.0506 7.94939 3
    endloop
  endfacet
  facet normal -0.980777 0.195134 0
    outer loop
      vertex 12.6792 8.89022 0
      vertex 12.9 10 3
      vertex 12.9 10 0
    endloop
  endfacet
  facet normal -0.980777 0.195134 0
    outer loop
      vertex 12.9 10 3
      vertex 12.6792 8.89022 0
      vertex 12.6792 8.89022 3
    endloop
  endfacet
  facet normal 0.555569 0.831471 -0
    outer loop
      vertex 8.89022 7.32075 0
      vertex 7.94939 7.94939 3
      vertex 8.89022 7.32075 3
    endloop
  endfacet
  facet normal 0.555569 0.831471 0
    outer loop
      vertex 7.94939 7.94939 3
      vertex 8.89022 7.32075 0
      vertex 7.94939 7.94939 0
    endloop
  endfacet
  facet normal -0.195088 0.980786 0
    outer loop
      vertex 11.1098 7.32075 0
      vertex 10 7.1 3
      vertex 11.1098 7.32075 3
    endloop
  endfacet
  facet normal -0.195088 0.980786 0
    outer loop
      vertex 10 7.1 3
      vertex 11.1098 7.32075 0
      vertex 10 7.1 0
    endloop
  endfacet
  facet normal 0.195091 0.980785 -0
    outer loop
      vertex 10 7.1 0
      vertex 8.89022 7.32075 3
      vertex 10 7.1 3
    endloop
  endfacet
  facet normal 0.195091 0.980785 0
    outer loop
      vertex 8.89022 7.32075 3
      vertex 10 7.1 0
      vertex 8.89022 7.32075 0
    endloop
  endfacet
  facet normal -0.980777 -0.19513 0
    outer loop
      vertex 32.9 10 0
      vertex 32.6792 11.1098 3
      vertex 32.6792 11.1098 0
    endloop
  endfacet
  facet normal -0.980777 -0.19513 0
    outer loop
      vertex 32.6792 11.1098 3
      vertex 32.9 10 0
      vertex 32.9 10 3
    endloop
  endfacet
  facet normal 0.19513 -0.980777 0
    outer loop
      vertex 28.8902 12.6792 0
      vertex 30 12.9 3
      vertex 28.8902 12.6792 3
    endloop
  endfacet
  facet normal 0.19513 -0.980777 0
    outer loop
      vertex 30 12.9 3
      vertex 28.8902 12.6792 0
      vertex 30 12.9 0
    endloop
  endfacet
  facet normal 0.980794 0.195049 0
    outer loop
      vertex 27.3207 8.89022 3
      vertex 27.1 10 0
      vertex 27.1 10 3
    endloop
  endfacet
  facet normal 0.980794 0.195049 0
    outer loop
      vertex 27.1 10 0
      vertex 27.3207 8.89022 3
      vertex 27.3207 8.89022 0
    endloop
  endfacet
  facet normal -0.555557 -0.831479 0
    outer loop
      vertex 31.1098 12.6792 0
      vertex 32.0506 12.0506 3
      vertex 31.1098 12.6792 3
    endloop
  endfacet
  facet normal -0.555557 -0.831479 -0
    outer loop
      vertex 32.0506 12.0506 3
      vertex 31.1098 12.6792 0
      vertex 32.0506 12.0506 0
    endloop
  endfacet
  facet normal -0.831479 -0.555557 0
    outer loop
      vertex 32.6792 11.1098 0
      vertex 32.0506 12.0506 3
      vertex 32.0506 12.0506 0
    endloop
  endfacet
  facet normal -0.831479 -0.555557 0
    outer loop
      vertex 32.0506 12.0506 3
      vertex 32.6792 11.1098 0
      vertex 32.6792 11.1098 3
    endloop
  endfacet
  facet normal 0.555557 -0.831479 0
    outer loop
      vertex 27.9494 12.0506 0
      vertex 28.8902 12.6792 3
      vertex 27.9494 12.0506 3
    endloop
  endfacet
  facet normal 0.555557 -0.831479 0
    outer loop
      vertex 28.8902 12.6792 3
      vertex 27.9494 12.0506 0
      vertex 28.8902 12.6792 0
    endloop
  endfacet
  facet normal 0.831438 -0.555618 0
    outer loop
      vertex 27.3207 11.1098 3
      vertex 27.9494 12.0506 0
      vertex 27.9494 12.0506 3
    endloop
  endfacet
  facet normal 0.831438 -0.555618 0
    outer loop
      vertex 27.9494 12.0506 0
      vertex 27.3207 11.1098 3
      vertex 27.3207 11.1098 0
    endloop
  endfacet
  facet normal 0.831446 0.555605 0
    outer loop
      vertex 27.9494 7.94939 3
      vertex 27.3207 8.89022 0
      vertex 27.3207 8.89022 3
    endloop
  endfacet
  facet normal 0.831446 0.555605 0
    outer loop
      vertex 27.3207 8.89022 0
      vertex 27.9494 7.94939 3
      vertex 27.9494 7.94939 0
    endloop
  endfacet
  facet normal -0.19513 -0.980777 0
    outer loop
      vertex 30 12.9 0
      vertex 31.1098 12.6792 3
      vertex 30 12.9 3
    endloop
  endfacet
  facet normal -0.19513 -0.980777 -0
    outer loop
      vertex 31.1098 12.6792 3
      vertex 30 12.9 0
      vertex 31.1098 12.6792 0
    endloop
  endfacet
  facet normal 0.980794 -0.195045 0
    outer loop
      vertex 27.1 10 3
      vertex 27.3207 11.1098 0
      vertex 27.3207 11.1098 3
    endloop
  endfacet
  facet normal 0.980794 -0.195045 0
    outer loop
      vertex 27.3207 11.1098 0
      vertex 27.1 10 3
      vertex 27.1 10 0
    endloop
  endfacet
  facet normal -0.555581 0.831462 0
    outer loop
      vertex 32.0506 7.94939 0
      vertex 31.1098 7.32075 3
      vertex 32.0506 7.94939 3
    endloop
  endfacet
  facet normal -0.555581 0.831462 0
    outer loop
      vertex 31.1098 7.32075 3
      vertex 32.0506 7.94939 0
      vertex 31.1098 7.32075 0
    endloop
  endfacet
  facet normal -0.831487 0.555544 0
    outer loop
      vertex 32.0506 7.94939 0
      vertex 32.6792 8.89022 3
      vertex 32.6792 8.89022 0
    endloop
  endfacet
  facet normal -0.831487 0.555544 0
    outer loop
      vertex 32.6792 8.89022 3
      vertex 32.0506 7.94939 0
      vertex 32.0506 7.94939 3
    endloop
  endfacet
  facet normal -0.980777 0.195134 0
    outer loop
      vertex 32.6792 8.89022 0
      vertex 32.9 10 3
      vertex 32.9 10 0
    endloop
  endfacet
  facet normal -0.980777 0.195134 0
    outer loop
      vertex 32.9 10 3
      vertex 32.6792 8.89022 0
      vertex 32.6792 8.89022 3
    endloop
  endfacet
  facet normal 0.555581 0.831462 -0
    outer loop
      vertex 28.8902 7.32075 0
      vertex 27.9494 7.94939 3
      vertex 28.8902 7.32075 3
    endloop
  endfacet
  facet normal 0.555581 0.831462 0
    outer loop
      vertex 27.9494 7.94939 3
      vertex 28.8902 7.32075 0
      vertex 27.9494 7.94939 0
    endloop
  endfacet
  facet normal -0.195088 0.980786 0
    outer loop
      vertex 31.1098 7.32075 0
      vertex 30 7.1 3
      vertex 31.1098 7.32075 3
    endloop
  endfacet
  facet normal -0.195088 0.980786 0
    outer loop
      vertex 30 7.1 3
      vertex 31.1098 7.32075 0
      vertex 30 7.1 0
    endloop
  endfacet
  facet normal 0.195088 0.980786 -0
    outer loop
      vertex 30 7.1 0
      vertex 28.8902 7.32075 3
      vertex 30 7.1 3
    endloop
  endfacet
  facet normal 0.195088 0.980786 0
    outer loop
      vertex 28.8902 7.32075 3
      vertex 30 7.1 0
      vertex 28.8902 7.32075 0
    endloop
  endfacet
  facet normal -0.980777 -0.19513 0
    outer loop
      vertex 52.9 10 0
      vertex 52.6792 11.1098 3
      vertex 52.6792 11.1098 0
    endloop
  endfacet
  facet normal -0.980777 -0.19513 0
    outer loop
      vertex 52.6792 11.1098 3
      vertex 52.9 10 0
      vertex 52.9 10 3
    endloop
  endfacet
  facet normal 0.19513 -0.980777 0
    outer loop
      vertex 48.8902 12.6792 0
      vertex 50 12.9 3
      vertex 48.8902 12.6792 3
    endloop
  endfacet
  facet normal 0.19513 -0.980777 0
    outer loop
      vertex 50 12.9 3
      vertex 48.8902 12.6792 0
      vertex 50 12.9 0
    endloop
  endfacet
  facet normal 0.980794 0.195049 0
    outer loop
      vertex 47.3207 8.89022 3
      vertex 47.1 10 0
      vertex 47.1 10 3
    endloop
  endfacet
  facet normal 0.980794 0.195049 0
    outer loop
      vertex 47.1 10 0
      vertex 47.3207 8.89022 3
      vertex 47.3207 8.89022 0
    endloop
  endfacet
  facet normal -0.555557 -0.831479 0
    outer loop
      vertex 51.1098 12.6792 0
      vertex 52.0506 12.0506 3
      vertex 51.1098 12.6792 3
    endloop
  endfacet
  facet normal -0.555557 -0.831479 -0
    outer loop
      vertex 52.0506 12.0506 3
      vertex 51.1098 12.6792 0
      vertex 52.0506 12.0506 0
    endloop
  endfacet
  facet normal -0.831479 -0.555557 0
    outer loop
      vertex 52.6792 11.1098 0
      vertex 52.0506 12.0506 3
      vertex 52.0506 12.0506 0
    endloop
  endfacet
  facet normal -0.831479 -0.555557 0
    outer loop
      vertex 52.0506 12.0506 3
      vertex 52.6792 11.1098 0
      vertex 52.6792 11.1098 3
    endloop
  endfacet
  facet normal 0.555557 -0.831479 0
    outer loop
      vertex 47.9494 12.0506 0
      vertex 48.8902 12.6792 3
      vertex 47.9494 12.0506 3
    endloop
  endfacet
  facet normal 0.555557 -0.831479 0
    outer loop
      vertex 48.8902 12.6792 3
      vertex 47.9494 12.0506 0
      vertex 48.8902 12.6792 0
    endloop
  endfacet
  facet normal 0.831438 -0.555618 0
    outer loop
      vertex 47.3207 11.1098 3
      vertex 47.9494 12.0506 0
      vertex 47.9494 12.0506 3
    endloop
  endfacet
  facet normal 0.831438 -0.555618 0
    outer loop
      vertex 47.9494 12.0506 0
      vertex 47.3207 11.1098 3
      vertex 47.3207 11.1098 0
    endloop
  endfacet
  facet normal 0.831446 0.555605 0
    outer loop
      vertex 47.9494 7.94939 3
      vertex 47.3207 8.89022 0
      vertex 47.3207 8.89022 3
    endloop
  endfacet
  facet normal 0.831446 0.555605 0
    outer loop
      vertex 47.3207 8.89022 0
      vertex 47.9494 7.94939 3
      vertex 47.9494 7.94939 0
    endloop
  endfacet
  facet normal -0.19513 -0.980777 0
    outer loop
      vertex 50 12.9 0
      vertex 51.1098 12.6792 3
      vertex 50 12.9 3
    endloop
  endfacet
  facet normal -0.19513 -0.980777 -0
    outer loop
      vertex 51.1098 12.6792 3
      vertex 50 12.9 0
      vertex 51.1098 12.6792 0
    endloop
  endfacet
  facet normal 0.980794 -0.195045 0
    outer loop
      vertex 47.1 10 3
      vertex 47.3207 11.1098 0
      vertex 47.3207 11.1098 3
    endloop
  endfacet
  facet normal 0.980794 -0.195045 0
    outer loop
      vertex 47.3207 11.1098 0
      vertex 47.1 10 3
      vertex 47.1 10 0
    endloop
  endfacet
  facet normal -0.555581 0.831462 0
    outer loop
      vertex 52.0506 7.94939 0
      vertex 51.1098 7.32075 3
      vertex 52.0506 7.94939 3
    endloop
  endfacet
  facet normal -0.555581 0.831462 0
    outer loop
      vertex 51.1098 7.32075 3
      vertex 52.0506 7.94939 0
      vertex 51.1098 7.32075 0
    endloop
  endfacet
  facet normal -0.831487 0.555544 0
    outer loop
      vertex 52.0506 7.94939 0
      vertex 52.6792 8.89022 3
      vertex 52.6792 8.89022 0
    endloop
  endfacet
  facet normal -0.831487 0.555544 0
    outer loop
      vertex 52.6792 8.89022 3
      vertex 52.0506 7.94939 0
      vertex 52.0506 7.94939 3
    endloop
  endfacet
  facet normal -0.980777 0.195134 0
    outer loop
      vertex 52.6792 8.89022 0
      vertex 52.9 10 3
      vertex 52.9 10 0
    endloop
  endfacet
  facet normal -0.980777 0.195134 0
    outer loop
      vertex 52.9 10 3
      vertex 52.6792 8.89022 0
      vertex 52.6792 8.89022 3
    endloop
  endfacet
  facet normal 0.555581 0.831462 -0
    outer loop
      vertex 48.8902 7.32075 0
      vertex 47.9494 7.94939 3
      vertex 48.8902 7.32075 3
    endloop
  endfacet
  facet normal 0.555581 0.831462 0
    outer loop
      vertex 47.9494 7.94939 3
      vertex 48.8902 7.32075 0
      vertex 47.9494 7.94939 0
    endloop
  endfacet
  facet normal -0.195088 0.980786 0
    outer loop
      vertex 51.1098 7.32075 0
      vertex 50 7.1 3
      vertex 51.1098 7.32075 3
    endloop
  endfacet
  facet normal -0.195088 0.980786 0
    outer loop
      vertex 50 7.1 3
      vertex 51.1098 7.32075 0
      vertex 50 7.1 0
    endloop
  endfacet
  facet normal 0.195088 0.980786 -0
    outer loop
      vertex 50 7.1 0
      vertex 48.8902 7.32075 3
      vertex 50 7.1 3
    endloop
  endfacet
  facet normal 0.195088 0.980786 0
    outer loop
      vertex 48.8902 7.32075 3
      vertex 50 7.1 0
      vertex 48.8902 7.32075 0
    endloop
  endfacet
  facet normal 1 -0 0
    outer loop
      vertex 60 0 3
      vertex 60 19.9 0
      vertex 60 19.9 3
    endloop
  endfacet
  facet normal 1 0 0
    outer loop
      vertex 60 19.9 0
      vertex 60 0 3
      vertex 60 0 0
    endloop
  endfacet
  facet normal 0 -1 0
    outer loop
      vertex 60 19.9 0
      vertex 60.1 19.9 3
      vertex 60 19.9 3
    endloop
  endfacet
  facet normal 0 -1 -0
    outer loop
      vertex 60.1 19.9 3
      vertex 60 19.9 0
      vertex 60.1 19.9 0
    endloop
  endfacet
  facet normal -0.980777 -0.19513 0
    outer loop
      vertex 12.9 30 0
      vertex 12.6792 31.1098 3
      vertex 12.6792 31.1098 0
    endloop
  endfacet
  facet normal -0.980777 -0.19513 0
    outer loop
      vertex 12.6792 31.1098 3
      vertex 12.9 30 0
      vertex 12.9 30 3
    endloop
  endfacet
  facet normal 0.195134 -0.980777 0
    outer loop
      vertex 8.89022 32.6792 0
      vertex 10 32.9 3
      vertex 8.89022 32.6792 3
    endloop
  endfacet
  facet normal 0.195134 -0.980777 0
    outer loop
      vertex 10 32.9 3
      vertex 8.89022 32.6792 0
      vertex 10 32.9 0
    endloop
  endfacet
  facet normal 0.980786 0.195088 0
    outer loop
      vertex 7.32075 28.8902 3
      vertex 7.1 30 0
      vertex 7.1 30 3
    endloop
  endfacet
  facet normal 0.980786 0.195088 0
    outer loop
      vertex 7.1 30 0
      vertex 7.32075 28.8902 3
      vertex 7.32075 28.8902 0
    endloop
  endfacet
  facet normal -0.555557 -0.831479 0
    outer loop
      vertex 11.1098 32.6792 0
      vertex 12.0506 32.0506 3
      vertex 11.1098 32.6792 3
    endloop
  endfacet
  facet normal -0.555557 -0.831479 -0
    outer loop
      vertex 12.0506 32.0506 3
      vertex 11.1098 32.6792 0
      vertex 12.0506 32.0506 0
    endloop
  endfacet
  facet normal -0.831479 -0.555557 0
    outer loop
      vertex 12.6792 31.1098 0
      vertex 12.0506 32.0506 3
      vertex 12.0506 32.0506 0
    endloop
  endfacet
  facet normal -0.831479 -0.555557 0
    outer loop
      vertex 12.0506 32.0506 3
      vertex 12.6792 31.1098 0
      vertex 12.6792 31.1098 3
    endloop
  endfacet
  facet normal 0.555544 -0.831487 0
    outer loop
      vertex 7.94939 32.0506 0
      vertex 8.89022 32.6792 3
      vertex 7.94939 32.0506 3
    endloop
  endfacet
  facet normal 0.555544 -0.831487 0
    outer loop
      vertex 8.89022 32.6792 3
      vertex 7.94939 32.0506 0
      vertex 8.89022 32.6792 0
    endloop
  endfacet
  facet normal 0.831462 -0.555581 0
    outer loop
      vertex 7.32075 31.1098 3
      vertex 7.94939 32.0506 0
      vertex 7.94939 32.0506 3
    endloop
  endfacet
  facet normal 0.831462 -0.555581 0
    outer loop
      vertex 7.94939 32.0506 0
      vertex 7.32075 31.1098 3
      vertex 7.32075 31.1098 0
    endloop
  endfacet
  facet normal 0.831462 0.555581 0
    outer loop
      vertex 7.94939 27.9494 3
      vertex 7.32075 28.8902 0
      vertex 7.32075 28.8902 3
    endloop
  endfacet
  facet normal 0.831462 0.555581 0
    outer loop
      vertex 7.32075 28.8902 0
      vertex 7.94939 27.9494 3
      vertex 7.94939 27.9494 0
    endloop
  endfacet
  facet normal -0.19513 -0.980777 0
    outer loop
      vertex 10 32.9 0
      vertex 11.1098 32.6792 3
      vertex 10 32.9 3
    endloop
  endfacet
  facet normal -0.19513 -0.980777 -0
    outer loop
      vertex 11.1098 32.6792 3
      vertex 10 32.9 0
      vertex 11.1098 32.6792 0
    endloop
  endfacet
  facet normal 0.980786 -0.195088 0
    outer loop
      vertex 7.1 30 3
      vertex 7.32075 31.1098 0
      vertex 7.32075 31.1098 3
    endloop
  endfacet
  facet normal 0.980786 -0.195088 0
    outer loop
      vertex 7.32075 31.1098 0
      vertex 7.1 30 3
      vertex 7.1 30 0
    endloop
  endfacet
  facet normal -0.555618 0.831438 0
    outer loop
      vertex 12.0506 27.9494 0
      vertex 11.1098 27.3207 3
      vertex 12.0506 27.9494 3
    endloop
  endfacet
  facet normal -0.555618 0.831438 0
    outer loop
      vertex 11.1098 27.3207 3
      vertex 12.0506 27.9494 0
      vertex 11.1098 27.3207 0
    endloop
  endfacet
  facet normal -0.831479 0.555557 0
    outer loop
      vertex 12.0506 27.9494 0
      vertex 12.6792 28.8902 3
      vertex 12.6792 28.8902 0
    endloop
  endfacet
  facet normal -0.831479 0.555557 0
    outer loop
      vertex 12.6792 28.8902 3
      vertex 12.0506 27.9494 0
      vertex 12.0506 27.9494 3
    endloop
  endfacet
  facet normal -0.980777 0.19513 0
    outer loop
      vertex 12.6792 28.8902 0
      vertex 12.9 30 3
      vertex 12.9 30 0
    endloop
  endfacet
  facet normal -0.980777 0.19513 0
    outer loop
      vertex 12.9 30 3
      vertex 12.6792 28.8902 0
      vertex 12.6792 28.8902 3
    endloop
  endfacet
  facet normal 0.555605 0.831446 -0
    outer loop
      vertex 8.89022 27.3207 0
      vertex 7.94939 27.9494 3
      vertex 8.89022 27.3207 3
    endloop
  endfacet
  facet normal 0.555605 0.831446 0
    outer loop
      vertex 7.94939 27.9494 3
      vertex 8.89022 27.3207 0
      vertex 7.94939 27.9494 0
    endloop
  endfacet
  facet normal -0.195045 0.980794 0
    outer loop
      vertex 11.1098 27.3207 0
      vertex 10 27.1 3
      vertex 11.1098 27.3207 3
    endloop
  endfacet
  facet normal -0.195045 0.980794 0
    outer loop
      vertex 10 27.1 3
      vertex 11.1098 27.3207 0
      vertex 10 27.1 0
    endloop
  endfacet
  facet normal 0.195049 0.980794 -0
    outer loop
      vertex 10 27.1 0
      vertex 8.89022 27.3207 3
      vertex 10 27.1 3
    endloop
  endfacet
  facet normal 0.195049 0.980794 0
    outer loop
      vertex 8.89022 27.3207 3
      vertex 10 27.1 0
      vertex 8.89022 27.3207 0
    endloop
  endfacet
  facet normal -0.980777 -0.19513 0
    outer loop
      vertex 12.9 50 0
      vertex 12.6792 51.1098 3
      vertex 12.6792 51.1098 0
    endloop
  endfacet
  facet normal -0.980777 -0.19513 0
    outer loop
      vertex 12.6792 51.1098 3
      vertex 12.9 50 0
      vertex 12.9 50 3
    endloop
  endfacet
  facet normal 0.195134 -0.980777 0
    outer loop
      vertex 8.89022 52.6792 0
      vertex 10 52.9 3
      vertex 8.89022 52.6792 3
    endloop
  endfacet
  facet normal 0.195134 -0.980777 0
    outer loop
      vertex 10 52.9 3
      vertex 8.89022 52.6792 0
      vertex 10 52.9 0
    endloop
  endfacet
  facet normal 0.980786 0.195088 0
    outer loop
      vertex 7.32075 48.8902 3
      vertex 7.1 50 0
      vertex 7.1 50 3
    endloop
  endfacet
  facet normal 0.980786 0.195088 0
    outer loop
      vertex 7.1 50 0
      vertex 7.32075 48.8902 3
      vertex 7.32075 48.8902 0
    endloop
  endfacet
  facet normal -0.555557 -0.831479 0
    outer loop
      vertex 11.1098 52.6792 0
      vertex 12.0506 52.0506 3
      vertex 11.1098 52.6792 3
    endloop
  endfacet
  facet normal -0.555557 -0.831479 -0
    outer loop
      vertex 12.0506 52.0506 3
      vertex 11.1098 52.6792 0
      vertex 12.0506 52.0506 0
    endloop
  endfacet
  facet normal -0.831479 -0.555557 0
    outer loop
      vertex 12.6792 51.1098 0
      vertex 12.0506 52.0506 3
      vertex 12.0506 52.0506 0
    endloop
  endfacet
  facet normal -0.831479 -0.555557 0
    outer loop
      vertex 12.0506 52.0506 3
      vertex 12.6792 51.1098 0
      vertex 12.6792 51.1098 3
    endloop
  endfacet
  facet normal -0.19513 -0.980777 0
    outer loop
      vertex 10 52.9 0
      vertex 11.1098 52.6792 3
      vertex 10 52.9 3
    endloop
  endfacet
  facet normal -0.19513 -0.980777 -0
    outer loop
      vertex 11.1098 52.6792 3
      vertex 10 52.9 0
      vertex 11.1098 52.6792 0
    endloop
  endfacet
  facet normal 0.555544 -0.831487 0
    outer loop
      vertex 7.94939 52.0506 0
      vertex 8.89022 52.6792 3
      vertex 7.94939 52.0506 3
    endloop
  endfacet
  facet normal 0.555544 -0.831487 0
    outer loop
      vertex 8.89022 52.6792 3
      vertex 7.94939 52.0506 0
      vertex 8.89022 52.6792 0
    endloop
  endfacet
  facet normal 0.831462 -0.555581 0
    outer loop
      vertex 7.32075 51.1098 3
      vertex 7.94939 52.0506 0
      vertex 7.94939 52.0506 3
    endloop
  endfacet
  facet normal 0.831462 -0.555581 0
    outer loop
      vertex 7.94939 52.0506 0
      vertex 7.32075 51.1098 3
      vertex 7.32075 51.1098 0
    endloop
  endfacet
  facet normal 0.831462 0.555581 0
    outer loop
      vertex 7.94939 47.9494 3
      vertex 7.32075 48.8902 0
      vertex 7.32075 48.8902 3
    endloop
  endfacet
  facet normal 0.831462 0.555581 0
    outer loop
      vertex 7.32075 48.8902 0
      vertex 7.94939 47.9494 3
      vertex 7.94939 47.9494 0
    endloop
  endfacet
  facet normal 0.980786 -0.195088 0
    outer loop
      vertex 7.1 50 3
      vertex 7.32075 51.1098 0
      vertex 7.32075 51.1098 3
    endloop
  endfacet
  facet normal 0.980786 -0.195088 0
    outer loop
      vertex 7.32075 51.1098 0
      vertex 7.1 50 3
      vertex 7.1 50 0
    endloop
  endfacet
  facet normal -0.555618 0.831438 0
    outer loop
      vertex 12.0506 47.9494 0
      vertex 11.1098 47.3207 3
      vertex 12.0506 47.9494 3
    endloop
  endfacet
  facet normal -0.555618 0.831438 0
    outer loop
      vertex 11.1098 47.3207 3
      vertex 12.0506 47.9494 0
      vertex 11.1098 47.3207 0
    endloop
  endfacet
  facet normal -0.831479 0.555557 0
    outer loop
      vertex 12.0506 47.9494 0
      vertex 12.6792 48.8902 3
      vertex 12.6792 48.8902 0
    endloop
  endfacet
  facet normal -0.831479 0.555557 0
    outer loop
      vertex 12.6792 48.8902 3
      vertex 12.0506 47.9494 0
      vertex 12.0506 47.9494 3
    endloop
  endfacet
  facet normal -0.980777 0.19513 0
    outer loop
      vertex 12.6792 48.8902 0
      vertex 12.9 50 3
      vertex 12.9 50 0
    endloop
  endfacet
  facet normal -0.980777 0.19513 0
    outer loop
      vertex 12.9 50 3
      vertex 12.6792 48.8902 0
      vertex 12.6792 48.8902 3
    endloop
  endfacet
  facet normal 0.555605 0.831446 -0
    outer loop
      vertex 8.89022 47.3207 0
      vertex 7.94939 47.9494 3
      vertex 8.89022 47.3207 3
    endloop
  endfacet
  facet normal 0.555605 0.831446 0
    outer loop
      vertex 7.94939 47.9494 3
      vertex 8.89022 47.3207 0
      vertex 7.94939 47.9494 0
    endloop
  endfacet
  facet normal -0.195045 0.980794 0
    outer loop
      vertex 11.1098 47.3207 0
      vertex 10 47.1 3
      vertex 11.1098 47.3207 3
    endloop
  endfacet
  facet normal -0.195045 0.980794 0
    outer loop
      vertex 10 47.1 3
      vertex 11.1098 47.3207 0
      vertex 10 47.1 0
    endloop
  endfacet
  facet normal 0.195049 0.980794 -0
    outer loop
      vertex 10 47.1 0
      vertex 8.89022 47.3207 3
      vertex 10 47.1 3
    endloop
  endfacet
  facet normal 0.195049 0.980794 0
    outer loop
      vertex 8.89022 47.3207 3
      vertex 10 47.1 0
      vertex 8.89022 47.3207 0
    endloop
  endfacet
  facet normal -1 0 0
    outer loop
      vertex 19.9 60 0
      vertex 19.9 60.1 3
      vertex 19.9 60.1 0
    endloop
  endfacet
  facet normal -1 -0 0
    outer loop
      vertex 19.9 60.1 3
      vertex 19.9 60 0
      vertex 19.9 60 3
    endloop
  endfacet
  facet normal 0 1 -0
    outer loop
      vertex 19.9 60 0
      vertex 0 60 3
      vertex 19.9 60 3
    endloop
  endfacet
  facet normal 0 1 0
    outer loop
      vertex 0 60 3
      vertex 19.9 60 0
      vertex 0 60 0
    endloop
  endfacet
endsolid OpenSCAD_Model
