solid OpenSCAD_Model
  facet normal -0.9808 0.195018 0
    outer loop
      vertex -33.9837 -0.420951 6.9
      vertex -33.9 0 12
      vertex -33.9 0 6.9
    endloop
  endfacet
  facet normal -0.9808 0.195018 0
    outer loop
      vertex -33.9 0 12
      vertex -33.9837 -0.420951 6.9
      vertex -33.9837 -0.420951 12
    endloop
  endfacet
  facet normal 0.9808 0.195018 0
    outer loop
      vertex -36.0163 -0.420951 12
      vertex -36.1 0 6.9
      vertex -36.1 0 12
    endloop
  endfacet
  facet normal 0.9808 0.195018 0
    outer loop
      vertex -36.1 0 6.9
      vertex -36.0163 -0.420951 12
      vertex -36.0163 -0.420951 6.9
    endloop
  endfacet
  facet normal -0.195063 0.980791 0
    outer loop
      vertex -34.579 -1.01627 6.9
      vertex -35 -1.1 12
      vertex -34.579 -1.01627 12
    endloop
  endfacet
  facet normal -0.195063 0.980791 0
    outer loop
      vertex -35 -1.1 12
      vertex -34.579 -1.01627 6.9
      vertex -35 -1.1 6.9
    endloop
  endfacet
  facet normal -0.831416 0.55565 0
    outer loop
      vertex -34.2222 -0.777817 6.9
      vertex -33.9837 -0.420951 12
      vertex -33.9837 -0.420951 6.9
    endloop
  endfacet
  facet normal -0.831416 0.55565 0
    outer loop
      vertex -33.9837 -0.420951 12
      vertex -34.2222 -0.777817 6.9
      vertex -34.2222 -0.777817 12
    endloop
  endfacet
  facet normal -0.555646 0.831419 0
    outer loop
      vertex -34.2222 -0.777817 6.9
      vertex -34.579 -1.01627 12
      vertex -34.2222 -0.777817 12
    endloop
  endfacet
  facet normal -0.555646 0.831419 0
    outer loop
      vertex -34.579 -1.01627 12
      vertex -34.2222 -0.777817 6.9
      vertex -34.579 -1.01627 6.9
    endloop
  endfacet
  facet normal 0.555646 0.831419 -0
    outer loop
      vertex -35.421 -1.01627 6.9
      vertex -35.7778 -0.777817 12
      vertex -35.421 -1.01627 12
    endloop
  endfacet
  facet normal 0.555646 0.831419 0
    outer loop
      vertex -35.7778 -0.777817 12
      vertex -35.421 -1.01627 6.9
      vertex -35.7778 -0.777817 6.9
    endloop
  endfacet
  facet normal 0.831416 0.55565 0
    outer loop
      vertex -35.7778 -0.777817 12
      vertex -36.0163 -0.420951 6.9
      vertex -36.0163 -0.420951 12
    endloop
  endfacet
  facet normal 0.831416 0.55565 0
    outer loop
      vertex -36.0163 -0.420951 6.9
      vertex -35.7778 -0.777817 12
      vertex -35.7778 -0.777817 6.9
    endloop
  endfacet
  facet normal 0 0 -1
    outer loop
      vertex -33.9837 -0.420951 6.9
      vertex -32.61 0 6.9
      vertex -33.805 -2.0698 6.9
    endloop
  endfacet
  facet normal 0 0 -1
    outer loop
      vertex -33.9837 0.420951 6.9
      vertex -32.61 0 6.9
      vertex -33.9 0 6.9
    endloop
  endfacet
  facet normal -0 0 -1
    outer loop
      vertex -32.61 0 6.9
      vertex -33.9837 -0.420951 6.9
      vertex -33.9 0 6.9
    endloop
  endfacet
  facet normal 0 0 -1
    outer loop
      vertex -33.805 -2.0698 6.9
      vertex -34.2222 -0.777817 6.9
      vertex -33.9837 -0.420951 6.9
    endloop
  endfacet
  facet normal 0 0 -1
    outer loop
      vertex -33.805 -2.0698 6.9
      vertex -34.579 -1.01627 6.9
      vertex -34.2222 -0.777817 6.9
    endloop
  endfacet
  facet normal 0 0 -1
    outer loop
      vertex -33.805 -2.0698 6.9
      vertex -35 -1.1 6.9
      vertex -34.579 -1.01627 6.9
    endloop
  endfacet
  facet normal 0 0 -1
    outer loop
      vertex -36.195 -2.0698 6.9
      vertex -35 -1.1 6.9
      vertex -33.805 -2.0698 6.9
    endloop
  endfacet
  facet normal 0 0 -1
    outer loop
      vertex -37.39 0 6.9
      vertex -36.0163 -0.420951 6.9
      vertex -36.195 -2.0698 6.9
    endloop
  endfacet
  facet normal -0 0 -1
    outer loop
      vertex -35.7778 -0.777817 6.9
      vertex -36.195 -2.0698 6.9
      vertex -36.0163 -0.420951 6.9
    endloop
  endfacet
  facet normal -0 0 -1
    outer loop
      vertex -35.421 -1.01627 6.9
      vertex -36.195 -2.0698 6.9
      vertex -35.7778 -0.777817 6.9
    endloop
  endfacet
  facet normal -0 0 -1
    outer loop
      vertex -35 -1.1 6.9
      vertex -36.195 -2.0698 6.9
      vertex -35.421 -1.01627 6.9
    endloop
  endfacet
  facet normal 0 0 -1
    outer loop
      vertex -32.61 0 6.9
      vertex -33.9837 0.420951 6.9
      vertex -33.805 2.0698 6.9
    endloop
  endfacet
  facet normal 0 0 -1
    outer loop
      vertex -34.2222 0.777817 6.9
      vertex -33.805 2.0698 6.9
      vertex -33.9837 0.420951 6.9
    endloop
  endfacet
  facet normal 0 0 -1
    outer loop
      vertex -34.579 1.01627 6.9
      vertex -33.805 2.0698 6.9
      vertex -34.2222 0.777817 6.9
    endloop
  endfacet
  facet normal 0 0 -1
    outer loop
      vertex -35 1.1 6.9
      vertex -33.805 2.0698 6.9
      vertex -34.579 1.01627 6.9
    endloop
  endfacet
  facet normal 0 0 -1
    outer loop
      vertex -36.195 2.0698 6.9
      vertex -35 1.1 6.9
      vertex -35.421 1.01627 6.9
    endloop
  endfacet
  facet normal 0 0 -1
    outer loop
      vertex -35 1.1 6.9
      vertex -36.195 2.0698 6.9
      vertex -33.805 2.0698 6.9
    endloop
  endfacet
  facet normal 0 0 -1
    outer loop
      vertex -35.7778 0.777817 6.9
      vertex -36.195 2.0698 6.9
      vertex -35.421 1.01627 6.9
    endloop
  endfacet
  facet normal 0 0 -1
    outer loop
      vertex -36.0163 0.420951 6.9
      vertex -36.195 2.0698 6.9
      vertex -35.7778 0.777817 6.9
    endloop
  endfacet
  facet normal 0 0 -1
    outer loop
      vertex -37.39 0 6.9
      vertex -36.0163 0.420951 6.9
      vertex -36.1 0 6.9
    endloop
  endfacet
  facet normal 0 0 -1
    outer loop
      vertex -36.0163 -0.420951 6.9
      vertex -37.39 0 6.9
      vertex -36.1 0 6.9
    endloop
  endfacet
  facet normal -0 0 -1
    outer loop
      vertex -36.0163 0.420951 6.9
      vertex -37.39 0 6.9
      vertex -36.195 2.0698 6.9
    endloop
  endfacet
  facet normal 0.195063 0.980791 -0
    outer loop
      vertex -35 -1.1 6.9
      vertex -35.421 -1.01627 12
      vertex -35 -1.1 12
    endloop
  endfacet
  facet normal 0.195063 0.980791 0
    outer loop
      vertex -35.421 -1.01627 12
      vertex -35 -1.1 6.9
      vertex -35.421 -1.01627 6.9
    endloop
  endfacet
  facet normal 0.555646 -0.831419 0
    outer loop
      vertex -35.7778 0.777817 6.9
      vertex -35.421 1.01627 12
      vertex -35.7778 0.777817 12
    endloop
  endfacet
  facet normal 0.555646 -0.831419 0
    outer loop
      vertex -35.421 1.01627 12
      vertex -35.7778 0.777817 6.9
      vertex -35.421 1.01627 6.9
    endloop
  endfacet
  facet normal 0.9808 -0.195018 0
    outer loop
      vertex -36.1 0 12
      vertex -36.0163 0.420951 6.9
      vertex -36.0163 0.420951 12
    endloop
  endfacet
  facet normal 0.9808 -0.195018 0
    outer loop
      vertex -36.0163 0.420951 6.9
      vertex -36.1 0 12
      vertex -36.1 0 6.9
    endloop
  endfacet
  facet normal -0.555646 -0.831419 0
    outer loop
      vertex -34.579 1.01627 6.9
      vertex -34.2222 0.777817 12
      vertex -34.579 1.01627 12
    endloop
  endfacet
  facet normal -0.555646 -0.831419 -0
    outer loop
      vertex -34.2222 0.777817 12
      vertex -34.579 1.01627 6.9
      vertex -34.2222 0.777817 6.9
    endloop
  endfacet
  facet normal -0.195063 -0.980791 0
    outer loop
      vertex -35 1.1 6.9
      vertex -34.579 1.01627 12
      vertex -35 1.1 12
    endloop
  endfacet
  facet normal -0.195063 -0.980791 -0
    outer loop
      vertex -34.579 1.01627 12
      vertex -35 1.1 6.9
      vertex -34.579 1.01627 6.9
    endloop
  endfacet
  facet normal -0.831416 -0.55565 0
    outer loop
      vertex -33.9837 0.420951 6.9
      vertex -34.2222 0.777817 12
      vertex -34.2222 0.777817 6.9
    endloop
  endfacet
  facet normal -0.831416 -0.55565 0
    outer loop
      vertex -34.2222 0.777817 12
      vertex -33.9837 0.420951 6.9
      vertex -33.9837 0.420951 12
    endloop
  endfacet
  facet normal 0.195063 -0.980791 0
    outer loop
      vertex -35.421 1.01627 6.9
      vertex -35 1.1 12
      vertex -35.421 1.01627 12
    endloop
  endfacet
  facet normal 0.195063 -0.980791 0
    outer loop
      vertex -35 1.1 12
      vertex -35.421 1.01627 6.9
      vertex -35 1.1 6.9
    endloop
  endfacet
  facet normal 0.831416 -0.55565 0
    outer loop
      vertex -36.0163 0.420951 12
      vertex -35.7778 0.777817 6.9
      vertex -35.7778 0.777817 12
    endloop
  endfacet
  facet normal 0.831416 -0.55565 0
    outer loop
      vertex -35.7778 0.777817 6.9
      vertex -36.0163 0.420951 12
      vertex -36.0163 0.420951 6.9
    endloop
  endfacet
  facet normal -0.9808 -0.195018 0
    outer loop
      vertex -33.9 0 6.9
      vertex -33.9837 0.420951 12
      vertex -33.9837 0.420951 6.9
    endloop
  endfacet
  facet normal -0.9808 -0.195018 0
    outer loop
      vertex -33.9837 0.420951 12
      vertex -33.9 0 6.9
      vertex -33.9 0 12
    endloop
  endfacet
  facet normal -0.866025 0.5 0
    outer loop
      vertex -33.805 -2.0698 0
      vertex -32.61 0 6.9
      vertex -32.61 0 0
    endloop
  endfacet
  facet normal -0.866025 0.5 0
    outer loop
      vertex -32.61 0 6.9
      vertex -33.805 -2.0698 0
      vertex -33.805 -2.0698 6.9
    endloop
  endfacet
  facet normal 0.866025 0.5 0
    outer loop
      vertex -36.195 -2.0698 6.9
      vertex -37.39 0 0
      vertex -37.39 0 6.9
    endloop
  endfacet
  facet normal 0.866025 0.5 0
    outer loop
      vertex -37.39 0 0
      vertex -36.195 -2.0698 6.9
      vertex -36.195 -2.0698 0
    endloop
  endfacet
  facet normal 0 1 -0
    outer loop
      vertex -33.805 -2.0698 0
      vertex -36.195 -2.0698 6.9
      vertex -33.805 -2.0698 6.9
    endloop
  endfacet
  facet normal 0 1 0
    outer loop
      vertex -36.195 -2.0698 6.9
      vertex -33.805 -2.0698 0
      vertex -36.195 -2.0698 0
    endloop
  endfacet
  facet normal -0.866025 -0.5 0
    outer loop
      vertex -32.61 0 0
      vertex -33.805 2.0698 6.9
      vertex -33.805 2.0698 0
    endloop
  endfacet
  facet normal -0.866025 -0.5 0
    outer loop
      vertex -33.805 2.0698 6.9
      vertex -32.61 0 0
      vertex -32.61 0 6.9
    endloop
  endfacet
  facet normal 0 -1 0
    outer loop
      vertex -36.195 2.0698 0
      vertex -33.805 2.0698 6.9
      vertex -36.195 2.0698 6.9
    endloop
  endfacet
  facet normal 0 -1 -0
    outer loop
      vertex -33.805 2.0698 6.9
      vertex -36.195 2.0698 0
      vertex -33.805 2.0698 0
    endloop
  endfacet
  facet normal 0.866025 -0.5 0
    outer loop
      vertex -37.39 0 6.9
      vertex -36.195 2.0698 0
      vertex -36.195 2.0698 6.9
    endloop
  endfacet
  facet normal 0.866025 -0.5 0
    outer loop
      vertex -36.195 2.0698 0
      vertex -37.39 0 6.9
      vertex -37.39 0 0
    endloop
  endfacet
  facet normal 0 -1 0
    outer loop
      vertex -44.5 -10 5.5
      vertex -38 -10 9
      vertex -44.5 -10 9
    endloop
  endfacet
  facet normal 0 -1 0
    outer loop
      vertex -38 -10 0
      vertex -38 -10 9
      vertex -44.5 -10 5.5
    endloop
  endfacet
  facet normal 0 -1 0
    outer loop
      vertex -38 -10 9
      vertex -38 -10 0
      vertex -32 -10 9
    endloop
  endfacet
  facet normal 0 -1 0
    outer loop
      vertex -32 -10 0
      vertex -32 -10 9
      vertex -38 -10 0
    endloop
  endfacet
  facet normal -0 -1 0
    outer loop
      vertex -25.5 -10 5.5
      vertex -32 -10 9
      vertex -32 -10 0
    endloop
  endfacet
  facet normal 0 -1 0
    outer loop
      vertex -32 -10 9
      vertex -25.5 -10 5.5
      vertex -25.5 -10 9
    endloop
  endfacet
  facet normal 0 -1 0
    outer loop
      vertex -38 -10 9
      vertex -32 -10 12
      vertex -38 -10 12
    endloop
  endfacet
  facet normal 0 -1 -0
    outer loop
      vertex -32 -10 12
      vertex -38 -10 9
      vertex -32 -10 9
    endloop
  endfacet
  facet normal 0 1 -0
    outer loop
      vertex -25.5 10 5.5
      vertex -32 10 9
      vertex -25.5 10 9
    endloop
  endfacet
  facet normal 0 1 0
    outer loop
      vertex -32 10 0
      vertex -32 10 9
      vertex -25.5 10 5.5
    endloop
  endfacet
  facet normal 0 1 0
    outer loop
      vertex -32 10 9
      vertex -32 10 0
      vertex -38 10 9
    endloop
  endfacet
  facet normal 0 1 0
    outer loop
      vertex -38 10 0
      vertex -38 10 9
      vertex -32 10 0
    endloop
  endfacet
  facet normal -0 1 0
    outer loop
      vertex -44.5 10 5.5
      vertex -38 10 9
      vertex -38 10 0
    endloop
  endfacet
  facet normal 0 1 0
    outer loop
      vertex -38 10 9
      vertex -44.5 10 5.5
      vertex -44.5 10 9
    endloop
  endfacet
  facet normal 0 1 -0
    outer loop
      vertex -32 10 9
      vertex -38 10 12
      vertex -32 10 12
    endloop
  endfacet
  facet normal 0 1 0
    outer loop
      vertex -38 10 12
      vertex -32 10 9
      vertex -38 10 9
    endloop
  endfacet
  facet normal -1 0 0
    outer loop
      vertex -44.5 -10 5.5
      vertex -44.5 10 9
      vertex -44.5 10 5.5
    endloop
  endfacet
  facet normal -1 -0 0
    outer loop
      vertex -44.5 10 9
      vertex -44.5 -10 5.5
      vertex -44.5 -10 9
    endloop
  endfacet
  facet normal -0 0 1
    outer loop
      vertex -44.5 10 9
      vertex -38 -10 9
      vertex -38 10 9
    endloop
  endfacet
  facet normal 0 0 1
    outer loop
      vertex -38 -10 9
      vertex -44.5 10 9
      vertex -44.5 -10 9
    endloop
  endfacet
  facet normal -1 0 0
    outer loop
      vertex -38 -10 9
      vertex -38 10 12
      vertex -38 10 9
    endloop
  endfacet
  facet normal -1 -0 0
    outer loop
      vertex -38 10 12
      vertex -38 -10 9
      vertex -38 -10 12
    endloop
  endfacet
  facet normal 0 0 1
    outer loop
      vertex -32 10 12
      vertex -33.9 0 12
      vertex -32 -10 12
    endloop
  endfacet
  facet normal 0 0 1
    outer loop
      vertex -32 10 12
      vertex -33.9837 0.420951 12
      vertex -33.9 0 12
    endloop
  endfacet
  facet normal 0 0 1
    outer loop
      vertex -32 10 12
      vertex -34.2222 0.777817 12
      vertex -33.9837 0.420951 12
    endloop
  endfacet
  facet normal 0 0 1
    outer loop
      vertex -32 10 12
      vertex -34.579 1.01627 12
      vertex -34.2222 0.777817 12
    endloop
  endfacet
  facet normal 0 0 1
    outer loop
      vertex -32 10 12
      vertex -35 1.1 12
      vertex -34.579 1.01627 12
    endloop
  endfacet
  facet normal -0 0 1
    outer loop
      vertex -38 10 12
      vertex -35 1.1 12
      vertex -32 10 12
    endloop
  endfacet
  facet normal 0 0 1
    outer loop
      vertex -35 1.1 12
      vertex -38 10 12
      vertex -35.421 1.01627 12
    endloop
  endfacet
  facet normal 0 0 1
    outer loop
      vertex -35.421 1.01627 12
      vertex -38 10 12
      vertex -35.7778 0.777817 12
    endloop
  endfacet
  facet normal 0 0 1
    outer loop
      vertex -36.0163 0.420951 12
      vertex -38 10 12
      vertex -36.1 0 12
    endloop
  endfacet
  facet normal 0 0 1
    outer loop
      vertex -35.7778 0.777817 12
      vertex -38 10 12
      vertex -36.0163 0.420951 12
    endloop
  endfacet
  facet normal -0 0 1
    outer loop
      vertex -33.9837 -0.420951 12
      vertex -32 -10 12
      vertex -33.9 0 12
    endloop
  endfacet
  facet normal -0 0 1
    outer loop
      vertex -34.2222 -0.777817 12
      vertex -32 -10 12
      vertex -33.9837 -0.420951 12
    endloop
  endfacet
  facet normal -0 0 1
    outer loop
      vertex -34.579 -1.01627 12
      vertex -32 -10 12
      vertex -34.2222 -0.777817 12
    endloop
  endfacet
  facet normal -0 0 1
    outer loop
      vertex -35 -1.1 12
      vertex -32 -10 12
      vertex -34.579 -1.01627 12
    endloop
  endfacet
  facet normal 0 0 1
    outer loop
      vertex -38 -10 12
      vertex -35 -1.1 12
      vertex -35.421 -1.01627 12
    endloop
  endfacet
  facet normal 0 0 1
    outer loop
      vertex -38 -10 12
      vertex -35.421 -1.01627 12
      vertex -35.7778 -0.777817 12
    endloop
  endfacet
  facet normal 0 0 1
    outer loop
      vertex -38 -10 12
      vertex -35.7778 -0.777817 12
      vertex -36.0163 -0.420951 12
    endloop
  endfacet
  facet normal 0 0 1
    outer loop
      vertex -35 -1.1 12
      vertex -38 -10 12
      vertex -32 -10 12
    endloop
  endfacet
  facet normal 0 0 1
    outer loop
      vertex -36.1 0 12
      vertex -38 -10 12
      vertex -36.0163 -0.420951 12
    endloop
  endfacet
  facet normal 0 0 1
    outer loop
      vertex -38 -10 12
      vertex -36.1 0 12
      vertex -38 10 12
    endloop
  endfacet
  facet normal 1 -0 0
    outer loop
      vertex -32 -10 12
      vertex -32 10 9
      vertex -32 10 12
    endloop
  endfacet
  facet normal 1 0 0
    outer loop
      vertex -32 10 9
      vertex -32 -10 12
      vertex -32 -10 9
    endloop
  endfacet
  facet normal -0 0 1
    outer loop
      vertex -32 10 9
      vertex -25.5 -10 9
      vertex -25.5 10 9
    endloop
  endfacet
  facet normal 0 0 1
    outer loop
      vertex -25.5 -10 9
      vertex -32 10 9
      vertex -32 -10 9
    endloop
  endfacet
  facet normal 1 -0 0
    outer loop
      vertex -25.5 -10 9
      vertex -25.5 10 5.5
      vertex -25.5 10 9
    endloop
  endfacet
  facet normal 1 0 0
    outer loop
      vertex -25.5 10 5.5
      vertex -25.5 -10 9
      vertex -25.5 -10 5.5
    endloop
  endfacet
  facet normal 0.645942 0 -0.763386
    outer loop
      vertex -32 -10 0
      vertex -25.5 10 5.5
      vertex -25.5 -10 5.5
    endloop
  endfacet
  facet normal 0.645942 0 -0.763386
    outer loop
      vertex -25.5 10 5.5
      vertex -32 -10 0
      vertex -32 10 0
    endloop
  endfacet
  facet normal 0 0 -1
    outer loop
      vertex -32 -10 0
      vertex -32.61 0 0
      vertex -32 10 0
    endloop
  endfacet
  facet normal 0 0 -1
    outer loop
      vertex -32 -10 0
      vertex -33.805 -2.0698 0
      vertex -32.61 0 0
    endloop
  endfacet
  facet normal 0 0 -1
    outer loop
      vertex -32 -10 0
      vertex -36.195 -2.0698 0
      vertex -33.805 -2.0698 0
    endloop
  endfacet
  facet normal 0 0 -1
    outer loop
      vertex -38 -10 0
      vertex -36.195 -2.0698 0
      vertex -32 -10 0
    endloop
  endfacet
  facet normal -0 0 -1
    outer loop
      vertex -36.195 -2.0698 0
      vertex -38 -10 0
      vertex -37.39 0 0
    endloop
  endfacet
  facet normal 0 0 -1
    outer loop
      vertex -33.805 2.0698 0
      vertex -32 10 0
      vertex -32.61 0 0
    endloop
  endfacet
  facet normal 0 0 -1
    outer loop
      vertex -36.195 2.0698 0
      vertex -32 10 0
      vertex -33.805 2.0698 0
    endloop
  endfacet
  facet normal 0 0 -1
    outer loop
      vertex -38 10 0
      vertex -36.195 2.0698 0
      vertex -37.39 0 0
    endloop
  endfacet
  facet normal 0 0 -1
    outer loop
      vertex -36.195 2.0698 0
      vertex -38 10 0
      vertex -32 10 0
    endloop
  endfacet
  facet normal 0 0 -1
    outer loop
      vertex -38 10 0
      vertex -37.39 0 0
      vertex -38 -10 0
    endloop
  endfacet
  facet normal -0.645942 0 -0.763386
    outer loop
      vertex -44.5 -10 5.5
      vertex -38 10 0
      vertex -38 -10 0
    endloop
  endfacet
  facet normal -0.645942 0 -0.763386
    outer loop
      vertex -38 10 0
      vertex -44.5 -10 5.5
      vertex -44.5 10 5.5
    endloop
  endfacet
endsolid OpenSCAD_Model
