solid OpenSCAD_Model
  facet normal 0 1 0
    outer loop
      vertex 40 30 0
      vertex 0 30 0
      vertex 0 30 40
    endloop
  endfacet
  facet normal 0 0 -1
    outer loop
      vertex 40 0 0
      vertex 32.9 15 0
      vertex 40 30 0
    endloop
  endfacet
  facet normal 0 0 -1
    outer loop
      vertex 40 0 0
      vertex 32.6792 13.8902 0
      vertex 32.9 15 0
    endloop
  endfacet
  facet normal 0 0 -1
    outer loop
      vertex 40 0 0
      vertex 32.0506 12.9494 0
      vertex 32.6792 13.8902 0
    endloop
  endfacet
  facet normal 0 0 -1
    outer loop
      vertex 40 0 0
      vertex 31.1098 12.3207 0
      vertex 32.0506 12.9494 0
    endloop
  endfacet
  facet normal 0 0 -1
    outer loop
      vertex 40 0 0
      vertex 30 12.1 0
      vertex 31.1098 12.3207 0
    endloop
  endfacet
  facet normal 0 0 -1
    outer loop
      vertex 40 0 0
      vertex 28.8902 12.3207 0
      vertex 30 12.1 0
    endloop
  endfacet
  facet normal 0 0 -1
    outer loop
      vertex 11.1098 12.3207 0
      vertex 28.8902 12.3207 0
      vertex 40 0 0
    endloop
  endfacet
  facet normal 0 0 -1
    outer loop
      vertex 27.3207 13.8902 0
      vertex 12.9 15 0
      vertex 27.1 15 0
    endloop
  endfacet
  facet normal 0 0 -1
    outer loop
      vertex 12.6792 13.8902 0
      vertex 27.3207 13.8902 0
      vertex 27.9494 12.9494 0
    endloop
  endfacet
  facet normal 0 0 -1
    outer loop
      vertex 28.8902 12.3207 0
      vertex 11.1098 12.3207 0
      vertex 27.9494 12.9494 0
    endloop
  endfacet
  facet normal 0 0 -1
    outer loop
      vertex 27.3207 13.8902 0
      vertex 12.6792 13.8902 0
      vertex 12.9 15 0
    endloop
  endfacet
  facet normal 0 0 -1
    outer loop
      vertex 27.9494 12.9494 0
      vertex 12.0506 12.9494 0
      vertex 12.6792 13.8902 0
    endloop
  endfacet
  facet normal -0 0 -1
    outer loop
      vertex 27.9494 12.9494 0
      vertex 11.1098 12.3207 0
      vertex 12.0506 12.9494 0
    endloop
  endfacet
  facet normal 0 0 -1
    outer loop
      vertex 0 0 0
      vertex 11.1098 12.3207 0
      vertex 40 0 0
    endloop
  endfacet
  facet normal 0 0 -1
    outer loop
      vertex 11.1098 12.3207 0
      vertex 0 0 0
      vertex 10 12.1 0
    endloop
  endfacet
  facet normal -0 0 -1
    outer loop
      vertex 7.32075 13.8902 0
      vertex 0 0 0
      vertex 7.1 15 0
    endloop
  endfacet
  facet normal -0 0 -1
    outer loop
      vertex 7.94939 12.9494 0
      vertex 0 0 0
      vertex 7.32075 13.8902 0
    endloop
  endfacet
  facet normal -0 0 -1
    outer loop
      vertex 8.89022 12.3207 0
      vertex 0 0 0
      vertex 7.94939 12.9494 0
    endloop
  endfacet
  facet normal -0 0 -1
    outer loop
      vertex 10 12.1 0
      vertex 0 0 0
      vertex 8.89022 12.3207 0
    endloop
  endfacet
  facet normal 0 0 -1
    outer loop
      vertex 32.6792 16.1098 0
      vertex 40 30 0
      vertex 32.9 15 0
    endloop
  endfacet
  facet normal 0 0 -1
    outer loop
      vertex 32.0506 17.0506 0
      vertex 40 30 0
      vertex 32.6792 16.1098 0
    endloop
  endfacet
  facet normal 0 0 -1
    outer loop
      vertex 31.1098 17.6792 0
      vertex 40 30 0
      vertex 32.0506 17.0506 0
    endloop
  endfacet
  facet normal 0 0 -1
    outer loop
      vertex 30 17.9 0
      vertex 40 30 0
      vertex 31.1098 17.6792 0
    endloop
  endfacet
  facet normal 0 0 -1
    outer loop
      vertex 28.8902 17.6792 0
      vertex 40 30 0
      vertex 30 17.9 0
    endloop
  endfacet
  facet normal 0 0 -1
    outer loop
      vertex 11.1098 17.6792 0
      vertex 28.8902 17.6792 0
      vertex 27.9494 17.0506 0
    endloop
  endfacet
  facet normal 0 0 -1
    outer loop
      vertex 12.9 15 0
      vertex 27.3207 16.1098 0
      vertex 27.1 15 0
    endloop
  endfacet
  facet normal 0 0 -1
    outer loop
      vertex 12.6792 16.1098 0
      vertex 27.3207 16.1098 0
      vertex 12.9 15 0
    endloop
  endfacet
  facet normal 0 0 -1
    outer loop
      vertex 27.3207 16.1098 0
      vertex 12.6792 16.1098 0
      vertex 27.9494 17.0506 0
    endloop
  endfacet
  facet normal 0 0 -1
    outer loop
      vertex 12.0506 17.0506 0
      vertex 27.9494 17.0506 0
      vertex 12.6792 16.1098 0
    endloop
  endfacet
  facet normal 0 0 -1
    outer loop
      vertex 11.1098 17.6792 0
      vertex 27.9494 17.0506 0
      vertex 12.0506 17.0506 0
    endloop
  endfacet
  facet normal 0 0 -1
    outer loop
      vertex 28.8902 17.6792 0
      vertex 11.1098 17.6792 0
      vertex 40 30 0
    endloop
  endfacet
  facet normal 0 0 -1
    outer loop
      vertex 0 30 0
      vertex 11.1098 17.6792 0
      vertex 10 17.9 0
    endloop
  endfacet
  facet normal 0 0 -1
    outer loop
      vertex 0 30 0
      vertex 10 17.9 0
      vertex 8.89022 17.6792 0
    endloop
  endfacet
  facet normal 0 0 -1
    outer loop
      vertex 0 30 0
      vertex 7.1 15 0
      vertex 0 0 0
    endloop
  endfacet
  facet normal 0 0 -1
    outer loop
      vertex 11.1098 17.6792 0
      vertex 0 30 0
      vertex 40 30 0
    endloop
  endfacet
  facet normal 0 0 -1
    outer loop
      vertex 7.94939 17.0506 0
      vertex 0 30 0
      vertex 8.89022 17.6792 0
    endloop
  endfacet
  facet normal 0 0 -1
    outer loop
      vertex 7.32075 16.1098 0
      vertex 0 30 0
      vertex 7.94939 17.0506 0
    endloop
  endfacet
  facet normal 0 0 -1
    outer loop
      vertex 7.1 15 0
      vertex 0 30 0
      vertex 7.32075 16.1098 0
    endloop
  endfacet
  facet normal 0.707107 0 0.707107
    outer loop
      vertex 0 30 40
      vertex 3 20 37
      vertex 40 30 0
    endloop
  endfacet
  facet normal 0.707107 0 0.707107
    outer loop
      vertex 0 30 40
      vertex 3 10 37
      vertex 3 20 37
    endloop
  endfacet
  facet normal 0.707107 0 0.707107
    outer loop
      vertex 3 10 37
      vertex 0 0 40
      vertex 37 10 3
    endloop
  endfacet
  facet normal 0.707107 -0 0.707107
    outer loop
      vertex 0 0 40
      vertex 3 10 37
      vertex 0 30 40
    endloop
  endfacet
  facet normal 0.707107 0 0.707107
    outer loop
      vertex 37 20 3
      vertex 40 30 0
      vertex 3 20 37
    endloop
  endfacet
  facet normal 0.707107 -0 0.707107
    outer loop
      vertex 37 10 3
      vertex 40 30 0
      vertex 37 20 3
    endloop
  endfacet
  facet normal 0.707107 0 0.707107
    outer loop
      vertex 37 10 3
      vertex 40 0 0
      vertex 40 30 0
    endloop
  endfacet
  facet normal 0.707107 0 0.707107
    outer loop
      vertex 40 0 0
      vertex 37 10 3
      vertex 0 0 40
    endloop
  endfacet
  facet normal 0 -1 0
    outer loop
      vertex 0 0 40
      vertex 0 0 0
      vertex 40 0 0
    endloop
  endfacet
  facet normal -1 0 0
    outer loop
      vertex 0 17.6792 28.8902
      vertex 0 30 40
      vertex 0 17.6792 11.1098
    endloop
  endfacet
  facet normal -1 0 0
    outer loop
      vertex 0 30 40
      vertex 0 17.6792 28.8902
      vertex 0 17.9 30
    endloop
  endfacet
  facet normal -1 0 0
    outer loop
      vertex 0 17.0506 12.0506
      vertex 0 17.6792 28.8902
      vertex 0 17.6792 11.1098
    endloop
  endfacet
  facet normal -1 0 0
    outer loop
      vertex 0 17.0506 12.0506
      vertex 0 17.0506 27.9494
      vertex 0 17.6792 28.8902
    endloop
  endfacet
  facet normal -1 0 0
    outer loop
      vertex 0 16.1098 12.6792
      vertex 0 17.0506 27.9494
      vertex 0 17.0506 12.0506
    endloop
  endfacet
  facet normal -1 0 0
    outer loop
      vertex 0 16.1098 12.6792
      vertex 0 16.1098 27.3207
      vertex 0 17.0506 27.9494
    endloop
  endfacet
  facet normal -1 0 0
    outer loop
      vertex 0 15 12.9
      vertex 0 16.1098 27.3207
      vertex 0 16.1098 12.6792
    endloop
  endfacet
  facet normal -1 0 0
    outer loop
      vertex 0 15 12.9
      vertex 0 15 27.1
      vertex 0 16.1098 27.3207
    endloop
  endfacet
  facet normal -1 0 0
    outer loop
      vertex 0 13.8902 12.6792
      vertex 0 15 27.1
      vertex 0 15 12.9
    endloop
  endfacet
  facet normal -1 0 0
    outer loop
      vertex 0 13.8902 12.6792
      vertex 0 13.8902 27.3207
      vertex 0 15 27.1
    endloop
  endfacet
  facet normal -1 0 0
    outer loop
      vertex 0 12.9494 12.0506
      vertex 0 13.8902 27.3207
      vertex 0 13.8902 12.6792
    endloop
  endfacet
  facet normal -1 0 0
    outer loop
      vertex 0 12.9494 12.0506
      vertex 0 12.9494 27.9494
      vertex 0 13.8902 27.3207
    endloop
  endfacet
  facet normal -1 0 0
    outer loop
      vertex 0 12.3207 11.1098
      vertex 0 12.9494 27.9494
      vertex 0 12.9494 12.0506
    endloop
  endfacet
  facet normal -1 0 0
    outer loop
      vertex 0 12.3207 11.1098
      vertex 0 12.3207 28.8902
      vertex 0 12.9494 27.9494
    endloop
  endfacet
  facet normal -1 0 0
    outer loop
      vertex 0 0 0
      vertex 0 12.3207 11.1098
      vertex 0 12.1 10
    endloop
  endfacet
  facet normal -1 -0 0
    outer loop
      vertex 0 12.3207 11.1098
      vertex 0 0 0
      vertex 0 12.3207 28.8902
    endloop
  endfacet
  facet normal -1 0 0
    outer loop
      vertex 0 17.6792 11.1098
      vertex 0 30 0
      vertex 0 17.9 10
    endloop
  endfacet
  facet normal -1 0 0
    outer loop
      vertex 0 30 0
      vertex 0 17.6792 8.89022
      vertex 0 17.9 10
    endloop
  endfacet
  facet normal -1 0 0
    outer loop
      vertex 0 30 0
      vertex 0 17.0506 7.94939
      vertex 0 17.6792 8.89022
    endloop
  endfacet
  facet normal -1 0 0
    outer loop
      vertex 0 30 0
      vertex 0 16.1098 7.32075
      vertex 0 17.0506 7.94939
    endloop
  endfacet
  facet normal -1 0 0
    outer loop
      vertex 0 30 0
      vertex 0 15 7.1
      vertex 0 16.1098 7.32075
    endloop
  endfacet
  facet normal -1 0 0
    outer loop
      vertex 0 0 0
      vertex 0 15 7.1
      vertex 0 30 0
    endloop
  endfacet
  facet normal -1 0 0
    outer loop
      vertex 0 0 40
      vertex 0 12.3207 28.8902
      vertex 0 0 0
    endloop
  endfacet
  facet normal -1 -0 0
    outer loop
      vertex 0 12.3207 8.89022
      vertex 0 0 0
      vertex 0 12.1 10
    endloop
  endfacet
  facet normal -1 -0 0
    outer loop
      vertex 0 12.9494 7.94939
      vertex 0 0 0
      vertex 0 12.3207 8.89022
    endloop
  endfacet
  facet normal -1 -0 0
    outer loop
      vertex 0 13.8902 7.32075
      vertex 0 0 0
      vertex 0 12.9494 7.94939
    endloop
  endfacet
  facet normal -1 -0 0
    outer loop
      vertex 0 15 7.1
      vertex 0 0 0
      vertex 0 13.8902 7.32075
    endloop
  endfacet
  facet normal -1 0 0
    outer loop
      vertex 0 30 0
      vertex 0 17.6792 11.1098
      vertex 0 30 40
    endloop
  endfacet
  facet normal -1 0 0
    outer loop
      vertex 0 17.6792 31.1098
      vertex 0 30 40
      vertex 0 17.9 30
    endloop
  endfacet
  facet normal -1 0 0
    outer loop
      vertex 0 17.0506 32.0506
      vertex 0 30 40
      vertex 0 17.6792 31.1098
    endloop
  endfacet
  facet normal -1 0 0
    outer loop
      vertex 0 16.1098 32.6792
      vertex 0 30 40
      vertex 0 17.0506 32.0506
    endloop
  endfacet
  facet normal -1 0 0
    outer loop
      vertex 0 15 32.9
      vertex 0 30 40
      vertex 0 16.1098 32.6792
    endloop
  endfacet
  facet normal -1 0 0
    outer loop
      vertex 0 0 40
      vertex 0 15 32.9
      vertex 0 13.8902 32.6792
    endloop
  endfacet
  facet normal -1 0 0
    outer loop
      vertex 0 12.3207 28.8902
      vertex 0 0 40
      vertex 0 12.1 30
    endloop
  endfacet
  facet normal -1 0 0
    outer loop
      vertex 0 15 32.9
      vertex 0 0 40
      vertex 0 30 40
    endloop
  endfacet
  facet normal -1 0 0
    outer loop
      vertex 0 12.9494 32.0506
      vertex 0 0 40
      vertex 0 13.8902 32.6792
    endloop
  endfacet
  facet normal -1 0 0
    outer loop
      vertex 0 12.3207 31.1098
      vertex 0 0 40
      vertex 0 12.9494 32.0506
    endloop
  endfacet
  facet normal -1 0 0
    outer loop
      vertex 0 12.1 30
      vertex 0 0 40
      vertex 0 12.3207 31.1098
    endloop
  endfacet
  facet normal -0.980777 -0.19513 0
    outer loop
      vertex 12.9 15 0
      vertex 12.6792 16.1098 3
      vertex 12.6792 16.1098 0
    endloop
  endfacet
  facet normal -0.980777 -0.19513 0
    outer loop
      vertex 12.6792 16.1098 3
      vertex 12.9 15 0
      vertex 12.9 15 3
    endloop
  endfacet
  facet normal 0.195134 -0.980777 0
    outer loop
      vertex 8.89022 17.6792 0
      vertex 10 17.9 3
      vertex 8.89022 17.6792 3
    endloop
  endfacet
  facet normal 0.195134 -0.980777 0
    outer loop
      vertex 10 17.9 3
      vertex 8.89022 17.6792 0
      vertex 10 17.9 0
    endloop
  endfacet
  facet normal 0.980786 0.195088 0
    outer loop
      vertex 7.32075 13.8902 3
      vertex 7.1 15 0
      vertex 7.1 15 3
    endloop
  endfacet
  facet normal 0.980786 0.195088 0
    outer loop
      vertex 7.1 15 0
      vertex 7.32075 13.8902 3
      vertex 7.32075 13.8902 0
    endloop
  endfacet
  facet normal -0.555557 -0.831479 0
    outer loop
      vertex 11.1098 17.6792 0
      vertex 12.0506 17.0506 3
      vertex 11.1098 17.6792 3
    endloop
  endfacet
  facet normal -0.555557 -0.831479 -0
    outer loop
      vertex 12.0506 17.0506 3
      vertex 11.1098 17.6792 0
      vertex 12.0506 17.0506 0
    endloop
  endfacet
  facet normal -0.831479 -0.555557 0
    outer loop
      vertex 12.6792 16.1098 0
      vertex 12.0506 17.0506 3
      vertex 12.0506 17.0506 0
    endloop
  endfacet
  facet normal -0.831479 -0.555557 0
    outer loop
      vertex 12.0506 17.0506 3
      vertex 12.6792 16.1098 0
      vertex 12.6792 16.1098 3
    endloop
  endfacet
  facet normal -0.19513 -0.980777 0
    outer loop
      vertex 10 17.9 0
      vertex 11.1098 17.6792 3
      vertex 10 17.9 3
    endloop
  endfacet
  facet normal -0.19513 -0.980777 -0
    outer loop
      vertex 11.1098 17.6792 3
      vertex 10 17.9 0
      vertex 11.1098 17.6792 0
    endloop
  endfacet
  facet normal 0.555544 -0.831487 0
    outer loop
      vertex 7.94939 17.0506 0
      vertex 8.89022 17.6792 3
      vertex 7.94939 17.0506 3
    endloop
  endfacet
  facet normal 0.555544 -0.831487 0
    outer loop
      vertex 8.89022 17.6792 3
      vertex 7.94939 17.0506 0
      vertex 8.89022 17.6792 0
    endloop
  endfacet
  facet normal 0.980786 -0.195088 0
    outer loop
      vertex 7.1 15 3
      vertex 7.32075 16.1098 0
      vertex 7.32075 16.1098 3
    endloop
  endfacet
  facet normal 0.980786 -0.195088 0
    outer loop
      vertex 7.32075 16.1098 0
      vertex 7.1 15 3
      vertex 7.1 15 0
    endloop
  endfacet
  facet normal 0.831462 -0.555581 0
    outer loop
      vertex 7.32075 16.1098 3
      vertex 7.94939 17.0506 0
      vertex 7.94939 17.0506 3
    endloop
  endfacet
  facet normal 0.831462 -0.555581 0
    outer loop
      vertex 7.94939 17.0506 0
      vertex 7.32075 16.1098 3
      vertex 7.32075 16.1098 0
    endloop
  endfacet
  facet normal 0.831462 0.555581 0
    outer loop
      vertex 7.94939 12.9494 3
      vertex 7.32075 13.8902 0
      vertex 7.32075 13.8902 3
    endloop
  endfacet
  facet normal 0.831462 0.555581 0
    outer loop
      vertex 7.32075 13.8902 0
      vertex 7.94939 12.9494 3
      vertex 7.94939 12.9494 0
    endloop
  endfacet
  facet normal -0.555618 0.831438 0
    outer loop
      vertex 12.0506 12.9494 0
      vertex 11.1098 12.3207 3
      vertex 12.0506 12.9494 3
    endloop
  endfacet
  facet normal -0.555618 0.831438 0
    outer loop
      vertex 11.1098 12.3207 3
      vertex 12.0506 12.9494 0
      vertex 11.1098 12.3207 0
    endloop
  endfacet
  facet normal -0.831479 0.555557 0
    outer loop
      vertex 12.0506 12.9494 0
      vertex 12.6792 13.8902 3
      vertex 12.6792 13.8902 0
    endloop
  endfacet
  facet normal -0.831479 0.555557 0
    outer loop
      vertex 12.6792 13.8902 3
      vertex 12.0506 12.9494 0
      vertex 12.0506 12.9494 3
    endloop
  endfacet
  facet normal -0.980777 0.19513 0
    outer loop
      vertex 12.6792 13.8902 0
      vertex 12.9 15 3
      vertex 12.9 15 0
    endloop
  endfacet
  facet normal -0.980777 0.19513 0
    outer loop
      vertex 12.9 15 3
      vertex 12.6792 13.8902 0
      vertex 12.6792 13.8902 3
    endloop
  endfacet
  facet normal 0.555605 0.831446 -0
    outer loop
      vertex 8.89022 12.3207 0
      vertex 7.94939 12.9494 3
      vertex 8.89022 12.3207 3
    endloop
  endfacet
  facet normal 0.555605 0.831446 0
    outer loop
      vertex 7.94939 12.9494 3
      vertex 8.89022 12.3207 0
      vertex 7.94939 12.9494 0
    endloop
  endfacet
  facet normal -0.195045 0.980794 0
    outer loop
      vertex 11.1098 12.3207 0
      vertex 10 12.1 3
      vertex 11.1098 12.3207 3
    endloop
  endfacet
  facet normal -0.195045 0.980794 0
    outer loop
      vertex 10 12.1 3
      vertex 11.1098 12.3207 0
      vertex 10 12.1 0
    endloop
  endfacet
  facet normal 0.195049 0.980794 -0
    outer loop
      vertex 10 12.1 0
      vertex 8.89022 12.3207 3
      vertex 10 12.1 3
    endloop
  endfacet
  facet normal 0.195049 0.980794 0
    outer loop
      vertex 8.89022 12.3207 3
      vertex 10 12.1 0
      vertex 8.89022 12.3207 0
    endloop
  endfacet
  facet normal -0.980777 -0.19513 0
    outer loop
      vertex 32.9 15 0
      vertex 32.6792 16.1098 3
      vertex 32.6792 16.1098 0
    endloop
  endfacet
  facet normal -0.980777 -0.19513 0
    outer loop
      vertex 32.6792 16.1098 3
      vertex 32.9 15 0
      vertex 32.9 15 3
    endloop
  endfacet
  facet normal 0.19513 -0.980777 0
    outer loop
      vertex 28.8902 17.6792 0
      vertex 30 17.9 3
      vertex 28.8902 17.6792 3
    endloop
  endfacet
  facet normal 0.19513 -0.980777 0
    outer loop
      vertex 30 17.9 3
      vertex 28.8902 17.6792 0
      vertex 30 17.9 0
    endloop
  endfacet
  facet normal 0.980794 0.195045 0
    outer loop
      vertex 27.3207 13.8902 3
      vertex 27.1 15 0
      vertex 27.1 15 3
    endloop
  endfacet
  facet normal 0.980794 0.195045 0
    outer loop
      vertex 27.1 15 0
      vertex 27.3207 13.8902 3
      vertex 27.3207 13.8902 0
    endloop
  endfacet
  facet normal -0.555557 -0.831479 0
    outer loop
      vertex 31.1098 17.6792 0
      vertex 32.0506 17.0506 3
      vertex 31.1098 17.6792 3
    endloop
  endfacet
  facet normal -0.555557 -0.831479 -0
    outer loop
      vertex 32.0506 17.0506 3
      vertex 31.1098 17.6792 0
      vertex 32.0506 17.0506 0
    endloop
  endfacet
  facet normal -0.831479 -0.555557 0
    outer loop
      vertex 32.6792 16.1098 0
      vertex 32.0506 17.0506 3
      vertex 32.0506 17.0506 0
    endloop
  endfacet
  facet normal -0.831479 -0.555557 0
    outer loop
      vertex 32.0506 17.0506 3
      vertex 32.6792 16.1098 0
      vertex 32.6792 16.1098 3
    endloop
  endfacet
  facet normal -0.19513 -0.980777 0
    outer loop
      vertex 30 17.9 0
      vertex 31.1098 17.6792 3
      vertex 30 17.9 3
    endloop
  endfacet
  facet normal -0.19513 -0.980777 -0
    outer loop
      vertex 31.1098 17.6792 3
      vertex 30 17.9 0
      vertex 31.1098 17.6792 0
    endloop
  endfacet
  facet normal 0.555557 -0.831479 0
    outer loop
      vertex 27.9494 17.0506 0
      vertex 28.8902 17.6792 3
      vertex 27.9494 17.0506 3
    endloop
  endfacet
  facet normal 0.555557 -0.831479 0
    outer loop
      vertex 28.8902 17.6792 3
      vertex 27.9494 17.0506 0
      vertex 28.8902 17.6792 0
    endloop
  endfacet
  facet normal 0.831438 -0.555618 0
    outer loop
      vertex 27.3207 16.1098 3
      vertex 27.9494 17.0506 0
      vertex 27.9494 17.0506 3
    endloop
  endfacet
  facet normal 0.831438 -0.555618 0
    outer loop
      vertex 27.9494 17.0506 0
      vertex 27.3207 16.1098 3
      vertex 27.3207 16.1098 0
    endloop
  endfacet
  facet normal 0.831438 0.555618 0
    outer loop
      vertex 27.9494 12.9494 3
      vertex 27.3207 13.8902 0
      vertex 27.3207 13.8902 3
    endloop
  endfacet
  facet normal 0.831438 0.555618 0
    outer loop
      vertex 27.3207 13.8902 0
      vertex 27.9494 12.9494 3
      vertex 27.9494 12.9494 0
    endloop
  endfacet
  facet normal 0.980794 -0.195045 0
    outer loop
      vertex 27.1 15 3
      vertex 27.3207 16.1098 0
      vertex 27.3207 16.1098 3
    endloop
  endfacet
  facet normal 0.980794 -0.195045 0
    outer loop
      vertex 27.3207 16.1098 0
      vertex 27.1 15 3
      vertex 27.1 15 0
    endloop
  endfacet
  facet normal -0.555618 0.831438 0
    outer loop
      vertex 32.0506 12.9494 0
      vertex 31.1098 12.3207 3
      vertex 32.0506 12.9494 3
    endloop
  endfacet
  facet normal -0.555618 0.831438 0
    outer loop
      vertex 31.1098 12.3207 3
      vertex 32.0506 12.9494 0
      vertex 31.1098 12.3207 0
    endloop
  endfacet
  facet normal -0.831479 0.555557 0
    outer loop
      vertex 32.0506 12.9494 0
      vertex 32.6792 13.8902 3
      vertex 32.6792 13.8902 0
    endloop
  endfacet
  facet normal -0.831479 0.555557 0
    outer loop
      vertex 32.6792 13.8902 3
      vertex 32.0506 12.9494 0
      vertex 32.0506 12.9494 3
    endloop
  endfacet
  facet normal -0.980777 0.19513 0
    outer loop
      vertex 32.6792 13.8902 0
      vertex 32.9 15 3
      vertex 32.9 15 0
    endloop
  endfacet
  facet normal -0.980777 0.19513 0
    outer loop
      vertex 32.9 15 3
      vertex 32.6792 13.8902 0
      vertex 32.6792 13.8902 3
    endloop
  endfacet
  facet normal 0.555618 0.831438 -0
    outer loop
      vertex 28.8902 12.3207 0
      vertex 27.9494 12.9494 3
      vertex 28.8902 12.3207 3
    endloop
  endfacet
  facet normal 0.555618 0.831438 0
    outer loop
      vertex 27.9494 12.9494 3
      vertex 28.8902 12.3207 0
      vertex 27.9494 12.9494 0
    endloop
  endfacet
  facet normal -0.195045 0.980794 0
    outer loop
      vertex 31.1098 12.3207 0
      vertex 30 12.1 3
      vertex 31.1098 12.3207 3
    endloop
  endfacet
  facet normal -0.195045 0.980794 0
    outer loop
      vertex 30 12.1 3
      vertex 31.1098 12.3207 0
      vertex 30 12.1 0
    endloop
  endfacet
  facet normal 0.195045 0.980794 -0
    outer loop
      vertex 30 12.1 0
      vertex 28.8902 12.3207 3
      vertex 30 12.1 3
    endloop
  endfacet
  facet normal 0.195045 0.980794 0
    outer loop
      vertex 28.8902 12.3207 3
      vertex 30 12.1 0
      vertex 28.8902 12.3207 0
    endloop
  endfacet
  facet normal 0 -0.195088 0.980786
    outer loop
      vertex 0 16.1098 7.32075
      vertex 3 15 7.1
      vertex 3 16.1098 7.32075
    endloop
  endfacet
  facet normal 0 -0.195088 0.980786
    outer loop
      vertex 3 15 7.1
      vertex 0 16.1098 7.32075
      vertex 0 15 7.1
    endloop
  endfacet
  facet normal 0 0.19513 -0.980777
    outer loop
      vertex 0 13.8902 12.6792
      vertex 3 15 12.9
      vertex 3 13.8902 12.6792
    endloop
  endfacet
  facet normal 0 0.19513 -0.980777
    outer loop
      vertex 3 15 12.9
      vertex 0 13.8902 12.6792
      vertex 0 15 12.9
    endloop
  endfacet
  facet normal 0 0.555557 -0.831479
    outer loop
      vertex 0 12.9494 12.0506
      vertex 3 13.8902 12.6792
      vertex 3 12.9494 12.0506
    endloop
  endfacet
  facet normal 0 0.555557 -0.831479
    outer loop
      vertex 3 13.8902 12.6792
      vertex 0 12.9494 12.0506
      vertex 0 13.8902 12.6792
    endloop
  endfacet
  facet normal 0 -0.980777 -0.19513
    outer loop
      vertex 0 17.9 10
      vertex 3 17.6792 11.1098
      vertex 0 17.6792 11.1098
    endloop
  endfacet
  facet normal 0 -0.980777 -0.19513
    outer loop
      vertex 3 17.6792 11.1098
      vertex 0 17.9 10
      vertex 3 17.9 10
    endloop
  endfacet
  facet normal 0 -0.555581 0.831462
    outer loop
      vertex 0 17.0506 7.94939
      vertex 3 16.1098 7.32075
      vertex 3 17.0506 7.94939
    endloop
  endfacet
  facet normal 0 -0.555581 0.831462
    outer loop
      vertex 3 16.1098 7.32075
      vertex 0 17.0506 7.94939
      vertex 0 16.1098 7.32075
    endloop
  endfacet
  facet normal 0 -0.980777 0.195134
    outer loop
      vertex 0 17.6792 8.89022
      vertex 3 17.9 10
      vertex 0 17.9 10
    endloop
  endfacet
  facet normal 0 -0.980777 0.195134
    outer loop
      vertex 3 17.9 10
      vertex 0 17.6792 8.89022
      vertex 3 17.6792 8.89022
    endloop
  endfacet
  facet normal 0 -0.831479 -0.555557
    outer loop
      vertex 0 17.6792 11.1098
      vertex 3 17.0506 12.0506
      vertex 0 17.0506 12.0506
    endloop
  endfacet
  facet normal 0 -0.831479 -0.555557
    outer loop
      vertex 3 17.0506 12.0506
      vertex 0 17.6792 11.1098
      vertex 3 17.6792 11.1098
    endloop
  endfacet
  facet normal 0 -0.555557 -0.831479
    outer loop
      vertex 0 16.1098 12.6792
      vertex 3 17.0506 12.0506
      vertex 3 16.1098 12.6792
    endloop
  endfacet
  facet normal -0 -0.555557 -0.831479
    outer loop
      vertex 3 17.0506 12.0506
      vertex 0 16.1098 12.6792
      vertex 0 17.0506 12.0506
    endloop
  endfacet
  facet normal 0 -0.831487 0.555544
    outer loop
      vertex 0 17.0506 7.94939
      vertex 3 17.6792 8.89022
      vertex 0 17.6792 8.89022
    endloop
  endfacet
  facet normal 0 -0.831487 0.555544
    outer loop
      vertex 3 17.6792 8.89022
      vertex 0 17.0506 7.94939
      vertex 3 17.0506 7.94939
    endloop
  endfacet
  facet normal 0 -0.19513 -0.980777
    outer loop
      vertex 0 15 12.9
      vertex 3 16.1098 12.6792
      vertex 3 15 12.9
    endloop
  endfacet
  facet normal -0 -0.19513 -0.980777
    outer loop
      vertex 3 16.1098 12.6792
      vertex 0 15 12.9
      vertex 0 16.1098 12.6792
    endloop
  endfacet
  facet normal 0 0.831446 0.555605
    outer loop
      vertex 3 12.9494 7.94939
      vertex 0 12.3207 8.89022
      vertex 3 12.3207 8.89022
    endloop
  endfacet
  facet normal 0 0.831446 0.555605
    outer loop
      vertex 0 12.3207 8.89022
      vertex 3 12.9494 7.94939
      vertex 0 12.9494 7.94939
    endloop
  endfacet
  facet normal -0 0.555581 0.831462
    outer loop
      vertex 0 13.8902 7.32075
      vertex 3 12.9494 7.94939
      vertex 3 13.8902 7.32075
    endloop
  endfacet
  facet normal 0 0.555581 0.831462
    outer loop
      vertex 3 12.9494 7.94939
      vertex 0 13.8902 7.32075
      vertex 0 12.9494 7.94939
    endloop
  endfacet
  facet normal -0 0.195088 0.980786
    outer loop
      vertex 0 15 7.1
      vertex 3 13.8902 7.32075
      vertex 3 15 7.1
    endloop
  endfacet
  facet normal 0 0.195088 0.980786
    outer loop
      vertex 3 13.8902 7.32075
      vertex 0 15 7.1
      vertex 0 13.8902 7.32075
    endloop
  endfacet
  facet normal 0 0.831438 -0.555618
    outer loop
      vertex 3 12.3207 11.1098
      vertex 0 12.9494 12.0506
      vertex 3 12.9494 12.0506
    endloop
  endfacet
  facet normal 0 0.831438 -0.555618
    outer loop
      vertex 0 12.9494 12.0506
      vertex 3 12.3207 11.1098
      vertex 0 12.3207 11.1098
    endloop
  endfacet
  facet normal 0 0.980794 0.195049
    outer loop
      vertex 3 12.3207 8.89022
      vertex 0 12.1 10
      vertex 3 12.1 10
    endloop
  endfacet
  facet normal 0 0.980794 0.195049
    outer loop
      vertex 0 12.1 10
      vertex 3 12.3207 8.89022
      vertex 0 12.3207 8.89022
    endloop
  endfacet
  facet normal 0 0.980794 -0.195045
    outer loop
      vertex 3 12.1 10
      vertex 0 12.3207 11.1098
      vertex 3 12.3207 11.1098
    endloop
  endfacet
  facet normal 0 0.980794 -0.195045
    outer loop
      vertex 0 12.3207 11.1098
      vertex 3 12.1 10
      vertex 0 12.1 10
    endloop
  endfacet
  facet normal 0 -0.195045 0.980794
    outer loop
      vertex 0 16.1098 27.3207
      vertex 3 15 27.1
      vertex 3 16.1098 27.3207
    endloop
  endfacet
  facet normal 0 -0.195045 0.980794
    outer loop
      vertex 3 15 27.1
      vertex 0 16.1098 27.3207
      vertex 0 15 27.1
    endloop
  endfacet
  facet normal 0 0.19513 -0.980777
    outer loop
      vertex 0 13.8902 32.6792
      vertex 3 15 32.9
      vertex 3 13.8902 32.6792
    endloop
  endfacet
  facet normal 0 0.19513 -0.980777
    outer loop
      vertex 3 15 32.9
      vertex 0 13.8902 32.6792
      vertex 0 15 32.9
    endloop
  endfacet
  facet normal 0 0.555557 -0.831479
    outer loop
      vertex 0 12.9494 32.0506
      vertex 3 13.8902 32.6792
      vertex 3 12.9494 32.0506
    endloop
  endfacet
  facet normal 0 0.555557 -0.831479
    outer loop
      vertex 3 13.8902 32.6792
      vertex 0 12.9494 32.0506
      vertex 0 13.8902 32.6792
    endloop
  endfacet
  facet normal 0 -0.980777 -0.19513
    outer loop
      vertex 0 17.9 30
      vertex 3 17.6792 31.1098
      vertex 0 17.6792 31.1098
    endloop
  endfacet
  facet normal 0 -0.980777 -0.19513
    outer loop
      vertex 3 17.6792 31.1098
      vertex 0 17.9 30
      vertex 3 17.9 30
    endloop
  endfacet
  facet normal 0 -0.555618 0.831438
    outer loop
      vertex 0 17.0506 27.9494
      vertex 3 16.1098 27.3207
      vertex 3 17.0506 27.9494
    endloop
  endfacet
  facet normal 0 -0.555618 0.831438
    outer loop
      vertex 3 16.1098 27.3207
      vertex 0 17.0506 27.9494
      vertex 0 16.1098 27.3207
    endloop
  endfacet
  facet normal 0 -0.980777 0.19513
    outer loop
      vertex 0 17.6792 28.8902
      vertex 3 17.9 30
      vertex 0 17.9 30
    endloop
  endfacet
  facet normal 0 -0.980777 0.19513
    outer loop
      vertex 3 17.9 30
      vertex 0 17.6792 28.8902
      vertex 3 17.6792 28.8902
    endloop
  endfacet
  facet normal 0 -0.831479 -0.555557
    outer loop
      vertex 0 17.6792 31.1098
      vertex 3 17.0506 32.0506
      vertex 0 17.0506 32.0506
    endloop
  endfacet
  facet normal 0 -0.831479 -0.555557
    outer loop
      vertex 3 17.0506 32.0506
      vertex 0 17.6792 31.1098
      vertex 3 17.6792 31.1098
    endloop
  endfacet
  facet normal 0 -0.555557 -0.831479
    outer loop
      vertex 0 16.1098 32.6792
      vertex 3 17.0506 32.0506
      vertex 3 16.1098 32.6792
    endloop
  endfacet
  facet normal -0 -0.555557 -0.831479
    outer loop
      vertex 3 17.0506 32.0506
      vertex 0 16.1098 32.6792
      vertex 0 17.0506 32.0506
    endloop
  endfacet
  facet normal 0 -0.831479 0.555557
    outer loop
      vertex 0 17.0506 27.9494
      vertex 3 17.6792 28.8902
      vertex 0 17.6792 28.8902
    endloop
  endfacet
  facet normal 0 -0.831479 0.555557
    outer loop
      vertex 3 17.6792 28.8902
      vertex 0 17.0506 27.9494
      vertex 3 17.0506 27.9494
    endloop
  endfacet
  facet normal 0 -0.19513 -0.980777
    outer loop
      vertex 0 15 32.9
      vertex 3 16.1098 32.6792
      vertex 3 15 32.9
    endloop
  endfacet
  facet normal -0 -0.19513 -0.980777
    outer loop
      vertex 3 16.1098 32.6792
      vertex 0 15 32.9
      vertex 0 16.1098 32.6792
    endloop
  endfacet
  facet normal 0 0.831438 0.555618
    outer loop
      vertex 3 12.9494 27.9494
      vertex 0 12.3207 28.8902
      vertex 3 12.3207 28.8902
    endloop
  endfacet
  facet normal 0 0.831438 0.555618
    outer loop
      vertex 0 12.3207 28.8902
      vertex 3 12.9494 27.9494
      vertex 0 12.9494 27.9494
    endloop
  endfacet
  facet normal -0 0.555618 0.831438
    outer loop
      vertex 0 13.8902 27.3207
      vertex 3 12.9494 27.9494
      vertex 3 13.8902 27.3207
    endloop
  endfacet
  facet normal 0 0.555618 0.831438
    outer loop
      vertex 3 12.9494 27.9494
      vertex 0 13.8902 27.3207
      vertex 0 12.9494 27.9494
    endloop
  endfacet
  facet normal -0 0.195045 0.980794
    outer loop
      vertex 0 15 27.1
      vertex 3 13.8902 27.3207
      vertex 3 15 27.1
    endloop
  endfacet
  facet normal 0 0.195045 0.980794
    outer loop
      vertex 3 13.8902 27.3207
      vertex 0 15 27.1
      vertex 0 13.8902 27.3207
    endloop
  endfacet
  facet normal 0 0.831438 -0.555618
    outer loop
      vertex 3 12.3207 31.1098
      vertex 0 12.9494 32.0506
      vertex 3 12.9494 32.0506
    endloop
  endfacet
  facet normal 0 0.831438 -0.555618
    outer loop
      vertex 0 12.9494 32.0506
      vertex 3 12.3207 31.1098
      vertex 0 12.3207 31.1098
    endloop
  endfacet
  facet normal 0 0.980794 0.195045
    outer loop
      vertex 3 12.3207 28.8902
      vertex 0 12.1 30
      vertex 3 12.1 30
    endloop
  endfacet
  facet normal 0 0.980794 0.195045
    outer loop
      vertex 0 12.1 30
      vertex 3 12.3207 28.8902
      vertex 0 12.3207 28.8902
    endloop
  endfacet
  facet normal 0 0.980794 -0.195045
    outer loop
      vertex 3 12.1 30
      vertex 0 12.3207 31.1098
      vertex 3 12.3207 31.1098
    endloop
  endfacet
  facet normal 0 0.980794 -0.195045
    outer loop
      vertex 0 12.3207 31.1098
      vertex 3 12.1 30
      vertex 0 12.1 30
    endloop
  endfacet
  facet normal 1 -0 0
    outer loop
      vertex 3 17.6792 28.8902
      vertex 3 17.9 10
      vertex 3 17.9 30
    endloop
  endfacet
  facet normal 1 0 0
    outer loop
      vertex 3 17.6792 28.8902
      vertex 3 17.6792 11.1098
      vertex 3 17.9 10
    endloop
  endfacet
  facet normal 1 -0 0
    outer loop
      vertex 3 17.0506 27.9494
      vertex 3 17.6792 11.1098
      vertex 3 17.6792 28.8902
    endloop
  endfacet
  facet normal 1 0 0
    outer loop
      vertex 3 17.0506 27.9494
      vertex 3 17.0506 12.0506
      vertex 3 17.6792 11.1098
    endloop
  endfacet
  facet normal 1 -0 0
    outer loop
      vertex 3 16.1098 27.3207
      vertex 3 17.0506 12.0506
      vertex 3 17.0506 27.9494
    endloop
  endfacet
  facet normal 1 0 0
    outer loop
      vertex 3 16.1098 27.3207
      vertex 3 16.1098 12.6792
      vertex 3 17.0506 12.0506
    endloop
  endfacet
  facet normal 1 -0 0
    outer loop
      vertex 3 15 27.1
      vertex 3 16.1098 12.6792
      vertex 3 16.1098 27.3207
    endloop
  endfacet
  facet normal 1 0 0
    outer loop
      vertex 3 15 27.1
      vertex 3 15 12.9
      vertex 3 16.1098 12.6792
    endloop
  endfacet
  facet normal 1 0 0
    outer loop
      vertex 3 13.8902 27.3207
      vertex 3 15 12.9
      vertex 3 15 27.1
    endloop
  endfacet
  facet normal 1 0 0
    outer loop
      vertex 3 13.8902 27.3207
      vertex 3 13.8902 12.6792
      vertex 3 15 12.9
    endloop
  endfacet
  facet normal 1 0 0
    outer loop
      vertex 3 12.9494 27.9494
      vertex 3 13.8902 12.6792
      vertex 3 13.8902 27.3207
    endloop
  endfacet
  facet normal 1 0 0
    outer loop
      vertex 3 12.9494 27.9494
      vertex 3 12.9494 12.0506
      vertex 3 13.8902 12.6792
    endloop
  endfacet
  facet normal 1 0 0
    outer loop
      vertex 3 12.3207 28.8902
      vertex 3 12.9494 12.0506
      vertex 3 12.9494 27.9494
    endloop
  endfacet
  facet normal 1 0 0
    outer loop
      vertex 3 12.3207 28.8902
      vertex 3 12.3207 11.1098
      vertex 3 12.9494 12.0506
    endloop
  endfacet
  facet normal 1 0 0
    outer loop
      vertex 3 12.1 30
      vertex 3 12.3207 11.1098
      vertex 3 12.3207 28.8902
    endloop
  endfacet
  facet normal 1 0 0
    outer loop
      vertex 3 12.3207 11.1098
      vertex 3 12.1 30
      vertex 3 12.1 10
    endloop
  endfacet
  facet normal 1 0 0
    outer loop
      vertex 3 20 37
      vertex 3 17.9 30
      vertex 3 20 3
    endloop
  endfacet
  facet normal 1 0 0
    outer loop
      vertex 3 20 37
      vertex 3 17.6792 31.1098
      vertex 3 17.9 30
    endloop
  endfacet
  facet normal 1 0 0
    outer loop
      vertex 3 20 37
      vertex 3 17.0506 32.0506
      vertex 3 17.6792 31.1098
    endloop
  endfacet
  facet normal 1 0 0
    outer loop
      vertex 3 20 37
      vertex 3 16.1098 32.6792
      vertex 3 17.0506 32.0506
    endloop
  endfacet
  facet normal 1 0 0
    outer loop
      vertex 3 20 37
      vertex 3 15 32.9
      vertex 3 16.1098 32.6792
    endloop
  endfacet
  facet normal 1 -0 0
    outer loop
      vertex 3 10 37
      vertex 3 15 32.9
      vertex 3 20 37
    endloop
  endfacet
  facet normal 1 0 0
    outer loop
      vertex 3 15 32.9
      vertex 3 10 37
      vertex 3 13.8902 32.6792
    endloop
  endfacet
  facet normal 1 0 0
    outer loop
      vertex 3 12.1 30
      vertex 3 10 37
      vertex 3 12.1 10
    endloop
  endfacet
  facet normal 1 0 0
    outer loop
      vertex 3 12.3207 31.1098
      vertex 3 10 37
      vertex 3 12.1 30
    endloop
  endfacet
  facet normal 1 0 0
    outer loop
      vertex 3 12.9494 32.0506
      vertex 3 10 37
      vertex 3 12.3207 31.1098
    endloop
  endfacet
  facet normal 1 0 0
    outer loop
      vertex 3 13.8902 32.6792
      vertex 3 10 37
      vertex 3 12.9494 32.0506
    endloop
  endfacet
  facet normal 1 -0 0
    outer loop
      vertex 3 17.9 10
      vertex 3 20 3
      vertex 3 17.9 30
    endloop
  endfacet
  facet normal 1 -0 0
    outer loop
      vertex 3 17.6792 8.89022
      vertex 3 20 3
      vertex 3 17.9 10
    endloop
  endfacet
  facet normal 1 -0 0
    outer loop
      vertex 3 17.0506 7.94939
      vertex 3 20 3
      vertex 3 17.6792 8.89022
    endloop
  endfacet
  facet normal 1 -0 0
    outer loop
      vertex 3 16.1098 7.32075
      vertex 3 20 3
      vertex 3 17.0506 7.94939
    endloop
  endfacet
  facet normal 1 -0 0
    outer loop
      vertex 3 15 7.1
      vertex 3 20 3
      vertex 3 16.1098 7.32075
    endloop
  endfacet
  facet normal 1 0 0
    outer loop
      vertex 3 10 3
      vertex 3 15 7.1
      vertex 3 13.8902 7.32075
    endloop
  endfacet
  facet normal 1 0 0
    outer loop
      vertex 3 10 3
      vertex 3 13.8902 7.32075
      vertex 3 12.9494 7.94939
    endloop
  endfacet
  facet normal 1 0 0
    outer loop
      vertex 3 15 7.1
      vertex 3 10 3
      vertex 3 20 3
    endloop
  endfacet
  facet normal 1 0 0
    outer loop
      vertex 3 12.3207 8.89022
      vertex 3 10 3
      vertex 3 12.9494 7.94939
    endloop
  endfacet
  facet normal 1 0 0
    outer loop
      vertex 3 12.1 10
      vertex 3 10 3
      vertex 3 12.3207 8.89022
    endloop
  endfacet
  facet normal 1 0 0
    outer loop
      vertex 3 10 3
      vertex 3 12.1 10
      vertex 3 10 37
    endloop
  endfacet
  facet normal 0 -1 0
    outer loop
      vertex 37 20 3
      vertex 3 20 37
      vertex 3 20 3
    endloop
  endfacet
  facet normal 0 0 1
    outer loop
      vertex 37 20 3
      vertex 32.9 15 3
      vertex 37 10 3
    endloop
  endfacet
  facet normal 0 0 1
    outer loop
      vertex 37 20 3
      vertex 32.6792 16.1098 3
      vertex 32.9 15 3
    endloop
  endfacet
  facet normal 0 0 1
    outer loop
      vertex 37 20 3
      vertex 32.0506 17.0506 3
      vertex 32.6792 16.1098 3
    endloop
  endfacet
  facet normal 0 0 1
    outer loop
      vertex 37 20 3
      vertex 31.1098 17.6792 3
      vertex 32.0506 17.0506 3
    endloop
  endfacet
  facet normal 0 0 1
    outer loop
      vertex 37 20 3
      vertex 30 17.9 3
      vertex 31.1098 17.6792 3
    endloop
  endfacet
  facet normal 0 0 1
    outer loop
      vertex 37 20 3
      vertex 28.8902 17.6792 3
      vertex 30 17.9 3
    endloop
  endfacet
  facet normal 0 0 1
    outer loop
      vertex 27.3207 16.1098 3
      vertex 12.9 15 3
      vertex 27.1 15 3
    endloop
  endfacet
  facet normal 0 0 1
    outer loop
      vertex 12.6792 16.1098 3
      vertex 27.3207 16.1098 3
      vertex 27.9494 17.0506 3
    endloop
  endfacet
  facet normal 0 0 1
    outer loop
      vertex 12.0506 17.0506 3
      vertex 27.9494 17.0506 3
      vertex 28.8902 17.6792 3
    endloop
  endfacet
  facet normal 0 0 1
    outer loop
      vertex 11.1098 17.6792 3
      vertex 28.8902 17.6792 3
      vertex 37 20 3
    endloop
  endfacet
  facet normal 0 0 1
    outer loop
      vertex 27.3207 16.1098 3
      vertex 12.6792 16.1098 3
      vertex 12.9 15 3
    endloop
  endfacet
  facet normal 0 0 1
    outer loop
      vertex 27.9494 17.0506 3
      vertex 12.0506 17.0506 3
      vertex 12.6792 16.1098 3
    endloop
  endfacet
  facet normal 0 0 1
    outer loop
      vertex 28.8902 17.6792 3
      vertex 11.1098 17.6792 3
      vertex 12.0506 17.0506 3
    endloop
  endfacet
  facet normal 0 0 1
    outer loop
      vertex 37 20 3
      vertex 10 17.9 3
      vertex 11.1098 17.6792 3
    endloop
  endfacet
  facet normal 0 0 1
    outer loop
      vertex 7.32075 16.1098 3
      vertex 3 20 3
      vertex 7.1 15 3
    endloop
  endfacet
  facet normal 0 0 1
    outer loop
      vertex 7.94939 17.0506 3
      vertex 3 20 3
      vertex 7.32075 16.1098 3
    endloop
  endfacet
  facet normal 0 0 1
    outer loop
      vertex 8.89022 17.6792 3
      vertex 3 20 3
      vertex 7.94939 17.0506 3
    endloop
  endfacet
  facet normal 0 0 1
    outer loop
      vertex 10 17.9 3
      vertex 3 20 3
      vertex 8.89022 17.6792 3
    endloop
  endfacet
  facet normal -0 0 1
    outer loop
      vertex 3 20 3
      vertex 10 17.9 3
      vertex 37 20 3
    endloop
  endfacet
  facet normal -0 0 1
    outer loop
      vertex 32.6792 13.8902 3
      vertex 37 10 3
      vertex 32.9 15 3
    endloop
  endfacet
  facet normal -0 0 1
    outer loop
      vertex 32.0506 12.9494 3
      vertex 37 10 3
      vertex 32.6792 13.8902 3
    endloop
  endfacet
  facet normal -0 0 1
    outer loop
      vertex 31.1098 12.3207 3
      vertex 37 10 3
      vertex 32.0506 12.9494 3
    endloop
  endfacet
  facet normal -0 0 1
    outer loop
      vertex 30 12.1 3
      vertex 37 10 3
      vertex 31.1098 12.3207 3
    endloop
  endfacet
  facet normal 0 0 1
    outer loop
      vertex 28.8902 12.3207 3
      vertex 37 10 3
      vertex 30 12.1 3
    endloop
  endfacet
  facet normal -0 0 1
    outer loop
      vertex 12.9 15 3
      vertex 27.3207 13.8902 3
      vertex 27.1 15 3
    endloop
  endfacet
  facet normal 0 0 1
    outer loop
      vertex 12.6792 13.8902 3
      vertex 27.3207 13.8902 3
      vertex 12.9 15 3
    endloop
  endfacet
  facet normal 0 0 1
    outer loop
      vertex 27.3207 13.8902 3
      vertex 12.6792 13.8902 3
      vertex 27.9494 12.9494 3
    endloop
  endfacet
  facet normal 0 0 1
    outer loop
      vertex 12.0506 12.9494 3
      vertex 27.9494 12.9494 3
      vertex 12.6792 13.8902 3
    endloop
  endfacet
  facet normal 0 0 1
    outer loop
      vertex 27.9494 12.9494 3
      vertex 12.0506 12.9494 3
      vertex 28.8902 12.3207 3
    endloop
  endfacet
  facet normal 0 0 1
    outer loop
      vertex 11.1098 12.3207 3
      vertex 28.8902 12.3207 3
      vertex 12.0506 12.9494 3
    endloop
  endfacet
  facet normal 0 0 1
    outer loop
      vertex 28.8902 12.3207 3
      vertex 11.1098 12.3207 3
      vertex 37 10 3
    endloop
  endfacet
  facet normal -0 0 1
    outer loop
      vertex 10 12.1 3
      vertex 37 10 3
      vertex 11.1098 12.3207 3
    endloop
  endfacet
  facet normal 0 0 1
    outer loop
      vertex 3 10 3
      vertex 7.1 15 3
      vertex 3 20 3
    endloop
  endfacet
  facet normal 0 0 1
    outer loop
      vertex 7.1 15 3
      vertex 3 10 3
      vertex 7.32075 13.8902 3
    endloop
  endfacet
  facet normal 0 0 1
    outer loop
      vertex 10 12.1 3
      vertex 3 10 3
      vertex 37 10 3
    endloop
  endfacet
  facet normal 0 0 1
    outer loop
      vertex 8.89022 12.3207 3
      vertex 3 10 3
      vertex 10 12.1 3
    endloop
  endfacet
  facet normal 0 0 1
    outer loop
      vertex 7.94939 12.9494 3
      vertex 3 10 3
      vertex 8.89022 12.3207 3
    endloop
  endfacet
  facet normal 0 0 1
    outer loop
      vertex 7.32075 13.8902 3
      vertex 3 10 3
      vertex 7.94939 12.9494 3
    endloop
  endfacet
  facet normal 0 1 0
    outer loop
      vertex 3 10 37
      vertex 37 10 3
      vertex 3 10 3
    endloop
  endfacet
endsolid OpenSCAD_Model
